<?xml version="1.0" encoding="utf-8"?>
<!-- Generator: Adobe Illustrator 26.3.1, SVG Export Plug-In . SVG Version: 6.00 Build 0)  -->
<svg version="1.1" id="Calque_1" xmlns="http://www.w3.org/2000/svg" xmlns:xlink="http://www.w3.org/1999/xlink" x="0px" y="0px"
	 viewBox="0 0 1920.5 4054.4" style="enable-background:new 0 0 1920.5 4054.4;" xml:space="preserve">
<style type="text/css">
	.st0{fill:#FFCB00;}
	.st1{fill:#9DD1C0;}
	.st2{fill:#4062AB;}
	.st3{fill:#E95059;}
	.st4{fill:none;stroke:#2D2422;stroke-width:3;stroke-miterlimit:10;}
	.st5{fill:#51B1DC;}
	.st6{fill:#E9525A;}
</style>
<g>
	<path class="st0" d="M264.6,2407.3l-3.5-8.9c-1.3-4.7-2.5-9.4-3.8-14c-43.6,6.9-94.8,22.6-139.4,42.9
		c-10.5,50.4,27.2,87.3,27.2,87.3c37.8,56.4,70.4,109.8,98.6,160c10-16.6,23.8-30.1,44.4-52.6c11-12.1,21.3-22.3,30.9-31.2
		c-28.1-60.7-41.6-135.4-41.6-135.4C273.1,2439.6,268.9,2423.3,264.6,2407.3z"/>
	<path class="st0" d="M-179.1,2860c-0.4-1.9-0.9-3.7-1.3-5.6c-33.1,30.7-58.6,70.8-32.6,111.9c43.7,69.3,3.6,144.9,142.1,112.9
		l-12.2-8.8C-126.3,2993.2-166.5,2912.5-179.1,2860z"/>
	<path class="st0" d="M46.5,2484.9c0,0,0.6-6.5,0.8-16.9c-8.1,6.2-15.2,12.5-21.1,18.8c-25.1,19.2-46.4,40.6-63.2,63.2
		c14.7,16.2,28.2,32.5,38.2,50c21.5,37.9,78.7,213.6,127.1,368.3c42.2-30.7,67.6-70.4,79.9-111.5c-31.9-83.6-68.9-164.3-102.2-195.5
		C25.5,2586.2,46.5,2484.9,46.5,2484.9z"/>
	<path class="st0" d="M-63.5,2755.4c-2,10.9-12.2,23.3-38.8,43c-0.8,0.9-6.3,4.2-14.6,9.3c2.4,20.2,4.8,40.4,8,59.2
		c14.7,86.1,45.8,56.2,45.8,56.2c11.6,15.5,33.9,66.7,57.6,128.6c19.3-11.9,43-27.9,75.8-47.8c-29.3-70-70.4-151.6-128-239.3
		C-59.8,2761.4-61.7,2758.4-63.5,2755.4z"/>
	<path class="st0" d="M344.1,2472.8c15.9,9.6,35.8,29.5,56.5,54.3c18.8-15.8,29.9-33.4,36-75.1c11.3-76.6-62.4-70.9-128.7-71.4
		c5.2,28.6,12.9,56.9,21.3,82.6C333.5,2466.2,338.4,2469.4,344.1,2472.8z"/>
	<path class="st1" d="M257.4,2384.5c1.3,4.6,2.5,9.3,3.8,14l3.5,8.9c4.2,16,8.4,32.3,12.7,48.1c0,0,13.5,74.7,41.6,135.4
		c36.6-34.1,62.9-48,81.6-63.7c-20.7-24.8-40.5-44.7-56.5-54.3c-5.6-3.4-10.6-6.6-14.9-9.5c-8.4-25.8-16.2-54-21.3-82.6
		c-1.5,0-3,0-4.4,0C289.7,2380.4,274.1,2381.8,257.4,2384.5z"/>
	<path class="st1" d="M-37,2550.1c-18.2,24.4-31.3,50.2-38.4,76.1c-23.6,85.8,16.7,103.5,11.9,129.2c1.8,3,3.7,6,5.8,9.2
		c57.6,87.7,98.8,169.3,128,239.3c10.6-6.4,22.2-13.3,34.8-20.5c8.2-4.7,15.9-9.7,23.1-14.9C79.8,2813.8,22.7,2638.1,1.2,2600.1
		C-8.8,2582.6-22.3,2566.3-37,2550.1z"/>
	<path class="st1" d="M117.9,2427.4c-26.9,12.2-51.5,26.1-70.6,40.7c-0.2,10.4-0.8,16.9-0.8,16.9s-21,101.3,59.4,176.5
		c33.4,31.2,70.4,111.9,102.2,195.5c6.7-22.6,9.5-45.6,8.9-67.8c6.7-63.9,13.2-92,26.7-114.6c-28.2-50.2-60.8-103.6-98.6-160
		C145.1,2514.7,107.4,2477.8,117.9,2427.4z"/>
	<path class="st1" d="M-108.9,2866.9c-3.2-18.7-5.6-39-8-59.2c-15.7,9.7-41.3,26.1-63.5,46.7c0.4,1.9,0.9,3.7,1.3,5.6
		c12.6,52.5,52.8,133.2,96,210.4l12.2,8.8c5.6-1.3,11.5-2.8,17.7-4.4c14.7-3.9,29.2-11.6,47.7-23.1c-23.7-61.9-46-113.1-57.6-128.6
		C-63.1,2923.1-94.2,2952.9-108.9,2866.9z"/>
</g>
<path class="st2" d="M-140.6,1336.9c-3.2,16.9-7.5,27.7-12.1,34.4V1555c59.3-104.3,85.1-218.1,85.1-218.1H-140.6z"/>
<path class="st2" d="M970.4-36.5c-44.5,64.5-99.3,151.1-111.1,202C838.9,254,713.6,284.7,679.4,384.1c-6,17.3-14.6,37.5-24.9,59.3
	c-10.5,22.4-22.8,46.5-35.6,71.3c-13.5,26.1-27.7,53-41.2,79.1c0,0-129.6,218.6-119.1,318.3c10.5,99.7-93.8,253.2-93.8,253.2
	l-49.2,139.6l-0.1,0c0,0-3.1,12.4-124.6,278.7c-39.2,85.8-39.3,153.3-79.4,269.4c-19.5,56.2-54.1,112.7-84.7,155.9
	c-26.4,37.3-42.1,81.3-44.8,126.9c-1.2,20.1-10.7,44.9-39.1,72.1c-64.3,61.6-114.2,108.8-123.5,117.6l-11.1,15.8
	c0,0-17,161.9-4.7,160c2.1-0.3,9.5-9.4,20.1-24c41-29.3,229.6-173.8,267.5-372.6c42.6-223.3,156.4-357.2,222.6-545.4
	c69.4-197.7,201.2-161.2,174.6-254.4c0,0-25.1-110,14.2-196.2s109-347.8,103.5-434.3c0-0.1,0-0.2,0-0.3c-1-15.6,2.2-31.1,9-45.1
	c46.4-94.8,108.8-198.6,175.5-240.9c88-55.8,126.9-99.8,143.4-123.9c9.1-13.2,20-25.1,32.4-35.4c18.1-15.1,44.1-42.5,63-85.7
	l96.1-179.7L970.4-36.5L970.4-36.5z"/>
<path class="st2" d="M129.1,658.7c-96,358.9-220.4,593.4-269.8,678.2h73C27.2,1143.3,280,624.4,309.6,530.5
	c36.6-115.9,18.6-262.8,111.3-377.8C467.5,95,489,38,498.8-4.5h-50.1C389.4,72.3,302.5,202,277.7,330
	C238.9,530.3,177,479.8,129.1,658.7z"/>
<path class="st2" d="M867.2-4.5H572.3c-17.6,55.2-39.4,142.5-27.8,208.6c18.3,104.6-105.8,240.2-105.8,240.2
	s-101.6,93.2-116.8,251.7c-13.7,142.3-218.5,557.4-260.3,640.8c0,0-49.8,83.6-40.7,167.4c6.8,62.6-47.1,154.2-74.8,196.6
	c-9.4,14.3-16.3,30.1-20.5,46.7c-8.1,31.9-28.7,90.3-78.3,137.1v108.8c50.8-59.2,155.5-188.6,182.7-278.5
	c36-119.2,148.1-277.8,170-378l0,0c81.2-163.7,181.8-411.8,274.7-767.7c0,0,11.6-104,88.7-142.8s133.8-192.6,133.8-192.6
	S810.7,5.9,877.9-2.4L867.2-4.5z"/>
<path class="st2" d="M8.8,723c65.9-109.4,169.4-239.2,137.5-286c0,0-82.6,41.2-175.6,213.1c-37.9,70.1-83.2,197.3-123.5,323.3v197
	C-86.5,1026.7-21.1,870.5-11.5,828C-11.5,828-57.1,832.3,8.8,723z"/>
<g>
	<path class="st3" d="M1810.5,1011.7c3.5,16-9.1,41.8-25.1,45.3c-16,3.5-42.7-13.5-46.2-29.6c-3.5-16,19.9-34.8,36-38.3
		S1806.9,995.7,1810.5,1011.7z"/>
	<path class="st3" d="M1972.3,902.6c5.7,26-22.4,48-48.3,53.7c-25.9,5.7-51.6-10.7-57.3-36.6s12-59.7,38-65.4
		C1930.5,848.6,1966.6,876.7,1972.3,902.6z"/>
	<path class="st3" d="M1836.2,896c2.2,10-1.8,30.2-11.8,32.4s-33.9-11.9-36.1-21.8s14.3-29.8,24.3-32
		C1822.6,872.3,1834,886,1836.2,896z"/>
	<circle class="st3" cx="1857.2" cy="1087.2" r="29.4"/>
	<path class="st3" d="M1841.5,963.4c1.9,8.5-10.8,26.3-19.3,28.2c-8.5,1.9-29-8.6-30.8-17.2c-1.9-8.5,13.9-19.2,22.4-21.1
		C1822.3,951.5,1839.7,954.9,1841.5,963.4z"/>
	<path class="st3" d="M1920.4,1012.3c2.9,13.1-4.1,31.9-17.1,34.8s-39.2-8.7-42-21.8c-2.9-13.1,17.2-28.6,30.3-31.5
		C1904.6,991,1917.5,999.2,1920.4,1012.3z"/>
	<circle class="st3" cx="1876.3" cy="970.5" r="14.3"/>
	<path class="st3" d="M2002.4,990.7c2.5,11.2-9.2,29.5-20.4,32c-11.2,2.5-28.1-9.6-30.5-20.8s15-24.6,26.2-27
		C1988.9,972.4,2000,979.5,2002.4,990.7z"/>
</g>
<path class="st1" d="M1317.2,135.2c57.9,17,210.9-28,292.6,0c27.3,9.4,148.1,42.4,174.9,49c54.6,13.5,86.4,4,122.9,4.3
	c18.7,0.2,37.2,4.4,54.1,12.3c41.9,19.5,97,61.7,146,65.7c129.8,10.8,168.8-33.4,180.5-112.8c11.7-79.4-83.2-159.2-212.1-178.2
	c-10.2-1.5-20.2-2.6-30.2-3.3l0.1-1.2c-6.4,0.2-12.9,0.3-19.4,0.4c-3.7-0.1-7.3-0.1-10.9,0c-128.6-1.2-211.9-122.2-236.7-163.7
	c-5.8-9.6-13.2-18.1-21.9-25.2l0,0c-29.2-23.6-64.9-38-102.3-41.2c-23.4-2-46.7-3.9-58.1-5.6c-202.1-29.9-241,117.7-305.4,165.5
	C1271.3-83.8,1121.3,77.6,1317.2,135.2z"/>
<path class="st4" d="M1275.8,153.5c57.9,17,207.4-14.1,292.6,0c33.6,5.6,148.1,42.4,174.9,49c53.4,13.2,85,4.4,120.6,4.3
	c19.8-0.1,39.3,4.3,57.2,12.7c42.1,19.6,91.3,57.8,145.4,65.4c129,18.2,168.8-33.4,180.5-112.8c11.7-79.4-83.2-159.2-212.1-178.2
	c-10.2-1.5-20.2-2.6-30.2-3.3l0.1-1.2c-6.4,0.2-12.9,0.3-19.4,0.4c-3.7-0.1-7.3-0.1-10.9,0c-128.6-1.2-211.9-122.2-236.7-163.7
	c-5.8-9.6-13.2-18.1-21.9-25.2l0,0c-29.2-23.6-64.9-38-102.3-41.2c-23.4-2-46.7-3.9-58.1-5.6c-202.1-29.9-241,117.7-305.4,165.5
	C1229.8-65.4,1079.8,95.9,1275.8,153.5z"/>
<path class="st0" d="M1941.9,1439.3c21.4-18.4,56.2-3.2,74.6,18.2s16,53.7-5.4,72.1s-61.9,18.8-80.3-2.6
	C1912.3,1505.5,1920.5,1457.7,1941.9,1439.3z"/>
<path class="st0" d="M2054,1543.9c11.8-10.2,42-19.5,52.2-7.7s8.6,54.4-3.2,64.6s-50.6,2.3-60.8-9.5
	C2032,1579.5,2042.1,1554.1,2054,1543.9z"/>
<path class="st0" d="M2062.8,1471.1c4.7-4.1,20.2-2.1,24.3,2.6s4.4,21.2-0.4,25.2s-16.8-2.2-20.9-7
	C2061.8,1487.2,2058.1,1475.2,2062.8,1471.1z"/>
<circle class="st0" cx="1984.1" cy="1402.9" r="10.3"/>
<path class="st0" d="M2021.7,1406.3c8.1-7,28.2-5.4,35.2,2.6c7,8.1,4.5,27.2-3.6,34.1c-8.1,7-26.7-1.4-33.7-9.5
	C2012.7,1425.4,2013.6,1413.2,2021.7,1406.3z"/>
<polygon class="st5" points="1276,537.6 1276,537.5 1273.7,537.5 1273.5,537.6 "/>
<path class="st4" d="M-39.4,2496.8L-39.4,2496.8c-53.9,38.3-92.4,87-109.3,137.1c-41.3,122.7,54,110.5-38.1,173.7
	c-4.5,5.3-166.2,78.7-120.2,165.8c39.7,75.1-10.1,153.3,149.6,116.9c34.9-7.9,70.2-37.9,161.8-86.1
	c84.3-44.4,120.3-121.8,123.1-192.3c19-112.1,29.8-114.8,81.2-166.7C309.7,2543.1,346,2573.8,366,2479
	c16.6-79.1-59.8-74.5-125.9-78.2C161.7,2396.4,15.5,2442.2-39.4,2496.8z"/>
<path class="st0" d="M1854.3,2796L1854.3,2796c-7.9-1.4-16-1.3-23.9,0.3c-83,16.8-128.4-3.3-177.2-24.1
	c-60.8-25.9-31.9-140.8-127.8-105.1c-136.5,50.8-152.2-9.3-167.4-16.1c-29.2-13-63.3-42.8-133.6-1.7
	c-84.3,49.4-73.6,94.8-69.9,136.3c2.5,28.1,34.3,69.9,52.7,83.2c62.1,44.9,133.5,72.3,212,59c124.5-9.1,127.3-0.8,184.2,30.1
	c111.9,60.8,77.1,97.6,182.4,93.1c87.8-3.7,257.7-23.4,262.9-78.8C2055,2906.7,2017,2823.3,1854.3,2796z"/>
<path class="st6" d="M1382.9,2686.3c25,21.1,14,63.6-7.1,88.6c-21.1,25-33.5,49.2-58.4,28.1c-25-21.1-21.4-62-0.3-86.9
	C1338.1,2691,1357.9,2665.2,1382.9,2686.3z"/>
<path class="st6" d="M1264.2,2677.2c8.9,7.6,19.4,28.8,11.8,37.8s-39.3,12.9-48.2,5.3c-8.9-7.6-7.7-37.2-0.2-46.2
	C1235.3,2665.1,1255.3,2669.6,1264.2,2677.2z"/>
<path class="st6" d="M1368.6,2830.4c5.5,4.7,6.2,22.8,1.5,28.3s-23.4,8.9-28.9,4.2s-0.5-19.6,4.1-25.2
	C1349.9,2832.2,1363.1,2825.7,1368.6,2830.4z"/>
<path class="st6" d="M1265.2,2760.8c3.5,2.9,5.5,9.5,2.6,12.9c-2.9,3.5-12.4,5.7-15.8,2.8s-1.2-11.3,1.7-14.8
	C1256.5,2758.3,1261.7,2757.8,1265.2,2760.8z"/>
<circle class="st6" cx="1432.1" cy="2711.9" r="11.9"/>
<path class="st6" d="M1435.2,2771.5c9.4,8,11.4,31.3,3.4,40.7c-8,9.4-30.2,10.1-39.7,2.2c-9.4-8-3.2-30.8,4.7-40.2
	C1411.7,2764.7,1425.8,2763.5,1435.2,2771.5z"/>
<path class="st6" d="M1293.6,2826.6c9.3,7.9,14.7,25.4,6.9,34.7s-33.2,15.4-42.5,7.5c-9.3-7.9-3.3-30.3,4.5-39.6
	C1270.3,2819.9,1284.3,2818.8,1293.6,2826.6z"/>
<circle class="st6" cx="1299.8" cy="2685.9" r="11.9"/>
<path class="st4" d="M1854.3,2731.6L1854.3,2731.6c-7.9-1.4-16-1.3-23.9,0.3c-83,16.8-128.4-3.3-177.2-24.1
	c-60.8-25.9-31.9-140.8-127.8-105.1c-136.5,50.8-152.2-9.3-167.4-16.1c-29.2-13-63.3-42.8-133.6-1.7
	c-84.3,49.4-73.6,94.8-69.9,136.3c2.5,28.1,34.3,69.9,52.7,83.2c62.1,44.9,133.5,72.3,212,59c124.5-9.1,127.3-0.8,184.2,30.1
	c111.9,60.8,77.1,97.6,182.4,93.1c87.8-3.7,257.7-23.4,262.9-78.8C2055,2842.3,2017,2758.9,1854.3,2731.6z"/>
<g>
	<g>
		<path class="st1" d="M74.3,6152.4c0.5-0.5,1.1-1,1.6-1.5c-0.1-0.9-0.1-1.7-0.2-2.6L74.3,6152.4z"/>
		<path class="st5" d="M1751.6,6129c47.6-12.9,80.6-30.3,102.1-51.3c-4.9,0.9-7.6,1.3-7.6,1.3S1826,6101.8,1751.6,6129z"/>
		<path class="st5" d="M1887.5,5997.8c0.4-20.7-3.5-42.8-10.4-66c-19.3-65.1-103.5-114.6-216.3-136.9
			c-96.1,54.8-192.3,133.2-192.3,133.2s-138.3,143.1-261.9,155.6c-76.4,7.7-126.7,51.5-154.1,83.8c16.4,0.1,29.5,0.1,37.5-0.2
			c124-5.3,162.5-44.7,256.1-51.2c19.5,0.3,104.3,11,181.4,19.7l168.4-47.3L1887.5,5997.8z"/>
		<path class="st5" d="M838.8,5873.2c28.8-44.1,68.2-85.7,112-123.6c-14.5-6.8-28-13.6-40.5-20.2c-68,53.4-140.2,62.2-140.2,62.2
			s-48.2,55-273.3,96.1c-142.9,26.1-314.5,165.2-420.8,263.3c2.4,34.8,16.2,68.9,51.1,94.3c56.8-59.1,110.5-110.2,154.5-143.6
			c196.3-148.9,328.6-161.8,328.6-161.8c27.6,62.1-167.7,162-302.1,254.2c-68.1,46.6-84.7,72.9-84.6,87.4c25,4.1,53.9,6.2,87.2,5.9
			c28.6-0.3,67-6,110.3-15c27.8-33,55.8-67.5,83.9-103.5C639.9,5995.5,708.6,6072.7,838.8,5873.2z"/>
		<path class="st5" d="M341,5841.4c85.8-93.5,274.6-79.1,336.9-166c5.8-8.1,13.7-16.9,23-26c-33.2-2.5-66.5-1.1-98.6,4.4
			c-38.7,6.5-77.2,13.3-96.6,15.6c-34.3,4.1-64.9,9.8-92.1,16.9c-70.6,57.9-136.1,161.8-226.3,186.4c-1.7,0.5-3.5,1-5.3,1.5
			c-21.5,48.3-34.3,94.4-60.5,125.3c-11,13-49.2,81.8-45.7,148.8l42.5-120.8C201.3,5961.7,294.6,5892.1,341,5841.4z"/>
		<path class="st5" d="M1023.6,6056.1c0,0,226.8-98.3,240.2-217.1c0.9-7.8,2.4-15.7,4.4-23.7c-82.1,7.7-162.5-8-232-31.4
			c-113.3,91.6-147.1,222.8-227.6,315.7c-15.7,18.1-51,51.5-98.9,94.6c24.9-7.6,48.4-14.7,69.5-21.1c12-3.6,37.8-5.5,69.8-6.5
			C931.1,6087.9,1023.6,6056.1,1023.6,6056.1z"/>
		<path class="st1" d="M496.7,5887.7c225.1-41.1,273.3-96.1,273.3-96.1s72.2-8.8,140.2-62.2c-28.7-15.2-51.6-29.4-66.9-39.3
			c-15.4-10.1-32.7-18.1-51.3-23.7l0,0c-29.7-9-60.5-14.6-91.3-16.9c-9.4,9.1-17.2,17.9-23,26c-62.2,86.9-251.1,72.5-336.9,166
			c-46.4,50.6-156.7,129.9-239.7,195.7l-25.6,111.2c0,0.9,0.1,1.7,0.2,2.6C182.2,6052.8,353.8,5913.8,496.7,5887.7z"/>
		<path class="st1" d="M413.6,5686.2c-147.1,38.1-199.3,115.4-231.6,187.9c1.8-0.5,3.6-1,5.3-1.5
			C277.5,5848,343,5744.1,413.6,5686.2z"/>
		<path class="st1" d="M308.1,6194c134.5-92.1,329.8-192.1,302.1-254.2c0,0-132.4,13-328.6,161.8c-44,33.4-97.7,84.5-154.5,143.6
			c22.5,16.4,53.8,29.2,96.5,36.2C223.3,6266.8,240,6240.6,308.1,6194z"/>
		<path class="st1" d="M1887.5,5997.8l-191.6,90.7l-168.4,47.3c60.3,6.8,115.9,12.2,131.9,10.3c35.5-4.2,66-10,92.1-17
			c74.4-27.2,94.5-50,94.5-50s2.7-0.3,7.6-1.3C1877,6055,1886.9,6028,1887.5,5997.8z"/>
		<path class="st1" d="M1036.1,5783.9c-30.9-10.4-59.6-22.3-85.3-34.3c-43.9,37.9-83.2,79.5-112,123.6
			c-130.2,199.5-198.9,122.3-333.9,295.6c-28.1,36.1-56.1,70.6-83.9,103.5c88.8-18.5,198.5-50.8,288.6-78.1
			c48-43.1,83.3-76.5,98.9-94.6C889,6006.7,922.8,5875.5,1036.1,5783.9z"/>
		<path class="st1" d="M1206.7,6083.7c123.6-12.5,261.9-155.6,261.9-155.6s96.2-78.4,192.3-133.2c-70.4-14-151.9-17.4-235.8-7.3
			c-17.2,2.1-34,4.6-50.4,7.6l-0.7-1.5c-10.2,2.8-20.5,5.5-30.9,8.1c-5.9,1.4-11.8,2.8-17.5,4.3c-19.2,4.5-38.3,7.6-57.4,9.4
			c-2,8-3.5,15.9-4.4,23.7c-13.4,118.7-240.2,217.1-240.2,217.1s-92.5,31.8-174.6,110.5c63.2-1.8,150.7,0.4,203.6,0.8
			C1079.9,6135.2,1130.3,6091.4,1206.7,6083.7z"/>
	</g>
	<path class="st1" d="M101.3,6037.1c0,0-28.2,44-25.6,111.2l41.5-51.6L101.3,6037.1z"/>
</g>
<path class="st4" d="M260,6327.9c103.5-0.9,334-73.4,468.4-114.3c43-13.1,263.9-3.8,311-5.8c124-5.3,162.5-44.7,256.1-51.2
	c34.8,0.5,276.9,34.3,313.3,30c218.3-26,249.1-108.5,217.7-214.2c-31.4-105.7-233.8-170.3-452.2-144.3c-17.2,2.1-34,3.6-50.4,6.6
	l-0.7-0.5c-10.2,2.8-20.5,5.5-30.9,8.1c-5.9,1.4-11.8,2.8-17.5,4.3c-206.3,48.7-415.9-72.6-482.1-115.9
	c-15.4-10.1-32.7-18.1-51.3-23.7h0c-61.8-18.7-127.9-23-189.9-12.6c-38.7,6.5-77.2,13.3-96.6,15.6
	c-342.4,40.8-311.4,244-384.3,330.1C48,6066.9-90.2,6331,260,6327.9z"/>
<path class="st1" d="M-1109.1,4496.8l3,7.8c-51.4,28.7-102.6,61-153,96.7c-436.6,309.8-624.4,373.5-620.5,635.8
	c1.2,81.9,134.7,835.2,629.5,616.4"/>
<path class="st6" d="M2641.7,6887.2L2641.7,6887.2c20.6-1.8,40.6-7.5,59-16.7c194.5-97.1,320.6-77.6,455.7-58.6
	c168.2,23.6,173,328,387,175.5c304.7-217.2,383.7-78.5,426-71.8c81.1,12.8,185.6,64,332.5-85c176.3-178.7,119.3-284.2,82.4-384.6
	c-25-68.1-131.6-150.4-186.2-171.2c-178.2-67.8-367.2-88.9-547.8-12.5c-16.2,6.9-32.7,13-49.4,18.7
	c-271.8,93.1-289.2,74.4-445.1,37.1c-318.2-76.2-256.4-190.5-514.5-109.1c-215.1,67.8-623.4,230-599.5,370.9
	C2070.1,6746.7,2220,6928.2,2641.7,6887.2z"/>
<g>
	<path class="st3" d="M1720.4,3464c16.2-2.3,41,12.2,43.3,28.4c2.3,16.2-16.7,41.6-32.9,43.9c-16.2,2.3-33.2-22.5-35.5-38.7
		S1704.2,3466.3,1720.4,3464z"/>
	<path class="st3" d="M1623.7,3294.5c26.3-3.8,46.2,25.9,49.9,52.2c3.8,26.3-14.5,50.7-40.8,54.4c-26.3,3.8-58.6-16.5-62.4-42.8
		C1566.7,3332.1,1597.4,3298.3,1623.7,3294.5z"/>
	<path class="st3" d="M1606.9,3429.7c10.1-1.4,30,4.1,31.4,14.1c1.4,10.1-14.4,33-24.5,34.4c-10.1,1.4-28.7-16.5-30.1-26.6
		C1582.3,3441.5,1596.8,3431.1,1606.9,3429.7z"/>
	
		<ellipse transform="matrix(7.479754e-02 -0.9972 0.9972 7.479754e-02 -1748.8075 4961.1934)" class="st3" cx="1799.2" cy="3423" rx="29.4" ry="29.4"/>
	<path class="st3" d="M1674.6,3429.4c8.6-1.2,25.4,12.7,26.7,21.4c1.2,8.6-10.8,28.2-19.4,29.5c-8.6,1.2-18.1-15.3-19.4-23.9
		C1661.3,3447.7,1666,3430.7,1674.6,3429.4z"/>
	<path class="st3" d="M1729.2,3354.4c13.2-1.9,31.5,6.4,33.4,19.7c1.9,13.2-11.6,38.4-24.8,40.3c-13.2,1.9-27.2-19.3-29.1-32.6
		C1706.8,3368.6,1716,3356.3,1729.2,3354.4z"/>
	
		<ellipse transform="matrix(7.479754e-02 -0.9972 0.9972 7.479754e-02 -1827.516 4820.7988)" class="st3" cx="1684.2" cy="3395.3" rx="14.3" ry="14.3"/>
	<path class="st3" d="M1713.8,3271c11.4-1.6,28.8,11.4,30.4,22.8c1.6,11.4-11.6,27.3-23,28.9c-11.4,1.6-23.4-16.8-25-28.2
		C1694.6,3283.2,1702.5,3272.6,1713.8,3271z"/>
</g>
<g>
	<path class="st0" d="M35.7,3806.6c15.2,6.3,29.1,31.3,22.8,46.5c-6.3,15.2-35.5,27.3-50.7,21.1c-15.2-6.3-17.2-36.3-10.9-51.4
		S20.5,3800.4,35.7,3806.6z"/>
	<path class="st0" d="M38.6,3611.5c24.6,10.1,26.6,45.8,16.4,70.3c-10.1,24.6-38.3,36.2-62.8,26.1s-42.1-44-32-68.5
		C-29.6,3614.9,14.1,3601.4,38.6,3611.5z"/>
	<path class="st0" d="M-44.6,3719.4c9.4,3.9,23.7,18.7,19.8,28.1s-29.1,21.1-38.6,17.2c-9.4-3.9-16.3-28.8-12.4-38.2
		C-71.8,3717.1-54,3715.5-44.6,3719.4z"/>
	
		<ellipse transform="matrix(0.5714 -0.8207 0.8207 0.5714 -3074.6191 1735.6484)" class="st0" cx="124.4" cy="3811.4" rx="29.4" ry="29.4"/>
	<path class="st0" d="M13.8,3753.6c8.1,3.3,15.4,23.9,12.1,32c-3.3,8.1-23.6,18.8-31.7,15.5c-8.1-3.3-7.8-22.4-4.5-30.5
		C-7,3762.5,5.8,3750.2,13.8,3753.6z"/>
	<path class="st0" d="M99,3716.7c12.4,5.1,23.9,21.6,18.8,33.9c-5.1,12.4-29.5,27.2-41.9,22.1s-13.6-30.5-8.5-42.9
		C72.5,3717.5,86.6,3711.6,99,3716.7z"/>
	
		<ellipse transform="matrix(0.5714 -0.8207 0.8207 0.5714 -3043.3928 1630.6451)" class="st0" cx="39.5" cy="3729" rx="14.3" ry="14.3"/>
	<path class="st0" d="M128.1,3637.1c10.6,4.4,18.9,24.5,14.6,35.1c-4.4,10.6-23.9,17.6-34.5,13.2s-11.6-26.4-7.2-37
		C105.4,3637.8,117.5,3632.7,128.1,3637.1z"/>
</g>
</svg>
