<?xml version="1.0" encoding="utf-8"?>
<!-- Generator: Adobe Illustrator 26.3.1, SVG Export Plug-In . SVG Version: 6.00 Build 0)  -->
<svg version="1.1" id="Calque_1" xmlns="http://www.w3.org/2000/svg" xmlns:xlink="http://www.w3.org/1999/xlink" x="0px" y="0px"
	 viewBox="0 0 2126 993.6" style="enable-background:new 0 0 2126 993.6;" xml:space="preserve">
<style type="text/css">
	.st0{fill:#FFFFFF;}
	.st1{fill:#FFCB00;}
	.st2{fill:#9DD1C0;}
	.st3{fill:#4062AB;}
	.st4{fill:#E95059;}
	.st5{fill:none;stroke:#2D2422;stroke-width:3;stroke-miterlimit:10;}
	.st6{fill:#51B1DC;}
	.st7{fill:#E9525A;}
	.st8{fill:#6F4CA5;}
	.st9{fill:#2D63BC;}
	.st10{fill:#FDFDFE;}
	.st11{fill:#907BBA;}
	.st12{fill:#6089C6;}
	.st13{clip-path:url(#SVGID_00000178904010221202206100000008420741525113593255_);}
	.st14{clip-path:url(#SVGID_00000061454785241531560020000005712638018449482380_);fill:#51B1DC;}
	.st15{clip-path:url(#SVGID_00000061454785241531560020000005712638018449482380_);}
	.st16{clip-path:url(#SVGID_00000061454785241531560020000005712638018449482380_);fill:#9DD1C0;}
</style>
<ellipse class="st0" cx="322.4" cy="-2085.5" rx="197.7" ry="201.1"/>
<g>
	<path class="st1" d="M270.2-3000.9l-3.5-8.9c-1.3-4.7-2.5-9.4-3.8-14c-43.6,6.9-94.8,22.6-139.5,42.9
		c-10.5,50.4,27.2,87.3,27.2,87.3c37.8,56.4,70.4,109.8,98.6,160c10-16.6,23.8-30.1,44.4-52.6c11-12.1,21.3-22.3,30.9-31.2
		c-28.1-60.7-41.6-135.4-41.6-135.4C278.6-2968.7,274.4-2984.9,270.2-3000.9z"/>
	<path class="st1" d="M-173.6-2548.2c-0.4-1.9-0.9-3.7-1.3-5.6c-33.1,30.7-58.6,70.8-32.6,111.9c43.7,69.3,3.6,144.9,142.1,112.9
		l-12.2-8.8C-120.8-2415-161-2495.7-173.6-2548.2z"/>
	<path class="st1" d="M52-2923.3c0,0,0.6-6.5,0.8-16.9c-8.1,6.2-15.2,12.5-21.1,18.8c-25.1,19.2-46.4,40.6-63.2,63.2
		c14.7,16.2,28.2,32.5,38.2,50c21.5,37.9,78.7,213.6,127.1,368.3c42.2-30.7,67.6-70.4,79.9-111.5c-31.9-83.6-68.9-164.3-102.2-195.5
		C31-2822.1,52-2923.3,52-2923.3z"/>
	<path class="st1" d="M-58-2652.8c-2,10.9-12.2,23.3-38.8,43c-0.8,0.9-6.3,4.2-14.6,9.3c2.4,20.2,4.8,40.4,8,59.2
		c14.7,86.1,45.8,56.2,45.8,56.2c11.6,15.5,33.9,66.7,57.6,128.6c19.3-11.9,43-27.9,75.8-47.8c-29.3-70-70.4-151.6-128-239.3
		C-54.3-2646.8-56.2-2649.9-58-2652.8z"/>
	<path class="st1" d="M349.6-2935.5c15.9,9.6,35.8,29.5,56.5,54.3c18.8-15.8,29.9-33.4,36-75.1c11.3-76.6-62.4-70.9-128.7-71.4
		c5.2,28.6,12.9,56.9,21.3,82.6C339-2942,344-2938.9,349.6-2935.5z"/>
	<path class="st2" d="M262.9-3023.8c1.3,4.6,2.5,9.3,3.8,14l3.5,8.9c4.2,16,8.4,32.3,12.7,48.1c0,0,13.5,74.7,41.6,135.4
		c36.6-34.1,62.9-48,81.6-63.7c-20.7-24.8-40.5-44.7-56.5-54.3c-5.7-3.4-10.6-6.6-14.9-9.5c-8.4-25.8-16.2-54-21.3-82.6
		c-1.5,0-3,0-4.4,0C295.2-3027.8,279.6-3026.4,262.9-3023.8z"/>
	<path class="st2" d="M-31.5-2858.1c-18.2,24.4-31.3,50.2-38.4,76.1c-23.6,85.8,16.7,103.5,11.9,129.2c1.8,3,3.7,6,5.8,9.2
		c57.6,87.7,98.8,169.3,128,239.3c10.6-6.4,22.2-13.3,34.8-20.5c8.2-4.7,15.9-9.7,23.1-14.9C85.4-2594.5,28.2-2770.2,6.7-2808.1
		C-3.3-2825.7-16.8-2842-31.5-2858.1z"/>
	<path class="st2" d="M123.5-2980.8c-26.9,12.2-51.5,26.1-70.6,40.7c-0.2,10.4-0.8,16.9-0.8,16.9s-21,101.3,59.4,176.5
		c33.4,31.2,70.4,111.9,102.2,195.5c6.7-22.6,9.5-45.6,8.9-67.8c6.7-63.9,13.2-92,26.7-114.6c-28.2-50.2-60.8-103.6-98.6-160
		C150.6-2893.6,112.9-2930.4,123.5-2980.8z"/>
	<path class="st2" d="M-103.4-2541.4c-3.2-18.7-5.6-39-8-59.2c-15.7,9.7-41.3,26.1-63.5,46.7c0.4,1.9,0.9,3.7,1.3,5.6
		c12.6,52.5,52.8,133.2,96,210.4l12.2,8.8c5.6-1.3,11.5-2.8,17.7-4.4c14.7-3.9,29.2-11.6,47.7-23.1c-23.7-61.9-46-113.1-57.6-128.6
		C-57.6-2485.2-88.7-2455.3-103.4-2541.4z"/>
</g>
<path class="st3" d="M-42.5-4114.5c-3.2,16.9-7.5,27.7-12.1,34.4v183.7c59.3-104.3,85.1-218.1,85.1-218.1H-42.5z"/>
<path class="st3" d="M976-5444.7c-44.5,64.5-99.3,151.1-111.1,202c-20.5,88.5-145.7,119.1-179.9,218.6c-6,17.3-14.6,37.5-24.9,59.3
	c-10.5,22.4-22.8,46.5-35.6,71.3c-13.5,26.1-27.7,53-41.2,79.1c0,0-129.6,218.6-119.1,318.3c10.5,99.6-93.8,253.2-93.8,253.2
	l-49.2,139.6l-0.1,0c0,0-3.1,12.4-124.6,278.7c-39.2,85.8-39.3,153.3-79.4,269.4c-19.5,56.2-54.1,112.7-84.7,155.9
	c-26.4,37.3-42.1,81.3-44.8,126.9c-1.2,20.1-10.7,44.9-39.1,72.1c-64.3,61.6-114.2,108.8-123.5,117.6l-11.1,15.8
	c0,0-17,161.9-4.7,160c2.1-0.3,9.5-9.4,20.1-24c41-29.3,229.6-173.8,267.5-372.6c42.6-223.3,156.4-357.2,222.5-545.4
	c69.4-197.6,201.2-161.2,174.7-254.4c0,0-25.1-110,14.2-196.2s109-347.9,103.5-434.3c0-0.1,0-0.2,0-0.3c-1-15.6,2.2-31.1,9-45.1
	c46.4-94.8,108.8-198.6,175.5-240.9c88-55.8,126.9-99.8,143.4-123.9c9.1-13.2,20-25.1,32.4-35.4c18.1-15.1,44.1-42.5,63-85.7
	l96.1-179.7L976-5444.7L976-5444.7z"/>
<path class="st3" d="M134.7-4749.5c-96,358.9-220.4,593.4-269.8,678.2h73c94.9-193.6,347.6-712.5,377.3-806.4
	c36.6-115.9,18.6-262.8,111.3-377.8c46.5-57.8,68-114.8,77.9-157.2h-50.1c-59.4,76.8-146.3,206.4-171.1,334.5
	C244.5-4878,182.5-4928.4,134.7-4749.5z"/>
<path class="st3" d="M872.7-5412.7H577.9c-17.6,55.2-39.4,142.5-27.8,208.6c18.3,104.6-105.8,240.2-105.8,240.2
	s-101.6,93.2-116.8,251.7c-13.7,142.3-218.5,557.4-260.3,640.9c0,0-49.8,83.6-40.7,167.4c6.8,62.6-47.1,154.2-74.8,196.6
	c-9.4,14.3-16.3,30.1-20.5,46.7c-8.1,31.9-28.7,90.3-78.3,137.1v108.8c50.8-59.2,155.5-188.6,182.7-278.5
	c36-119.2,148.1-277.8,170-378l0,0c81.2-163.7,181.8-411.8,274.7-767.7c0,0,11.6-104,88.7-142.8s133.8-192.6,133.8-192.6
	s113.6-227.9,180.8-236.1L872.7-5412.7z"/>
<path class="st3" d="M14.4-4685.3c65.9-109.4,169.4-239.2,137.5-286c0,0-82.6,41.2-175.6,213.1c-37.9,70.1-83.2,197.3-123.5,323.3
	v197C-80.9-4381.5-15.5-4537.7-6-4580.2C-6-4580.2-51.6-4575.9,14.4-4685.3z"/>
<g>
	<path class="st4" d="M1816-4396.5c3.5,16-9.1,41.8-25.1,45.3c-16,3.5-42.7-13.5-46.2-29.6c-3.5-16,19.9-34.8,36-38.3
		S1812.5-4412.6,1816-4396.5z"/>
	<path class="st4" d="M1977.8-4505.6c5.7,25.9-22.4,48-48.3,53.7s-51.6-10.7-57.3-36.6s12-59.7,38-65.4
		C1936.1-4559.7,1972.1-4531.5,1977.8-4505.6z"/>
	<path class="st4" d="M1841.8-4512.2c2.2,10-1.8,30.2-11.8,32.4c-9.9,2.2-33.9-11.9-36.1-21.8c-2.2-9.9,14.3-29.8,24.3-32
		C1828.1-4535.9,1839.6-4522.2,1841.8-4512.2z"/>
	<circle class="st4" cx="1862.7" cy="-4321" r="29.4"/>
	<path class="st4" d="M1847.1-4444.8c1.9,8.5-10.8,26.3-19.3,28.2c-8.5,1.9-29-8.6-30.8-17.2c-1.9-8.5,13.9-19.2,22.4-21.1
		C1827.8-4456.7,1845.2-4453.3,1847.1-4444.8z"/>
	<path class="st4" d="M1925.9-4395.9c2.9,13.1-4.1,31.9-17.1,34.8c-13.1,2.9-39.2-8.7-42-21.8s17.2-28.6,30.3-31.5
		C1910.2-4417.3,1923.1-4409,1925.9-4395.9z"/>
	<circle class="st4" cx="1881.8" cy="-4437.8" r="14.3"/>
	<path class="st4" d="M2008-4417.5c2.5,11.2-9.2,29.5-20.4,32c-11.2,2.5-28.1-9.6-30.5-20.8c-2.5-11.2,15-24.6,26.2-27
		C1994.4-4435.8,2005.5-4428.7,2008-4417.5z"/>
</g>
<path class="st2" d="M1322.8-5273.1c57.9,17,210.9-28,292.6,0c27.3,9.4,148.1,42.4,174.9,49c54.6,13.5,86.4,4,122.9,4.3
	c18.7,0.2,37.2,4.4,54.1,12.3c41.9,19.5,97,61.7,146,65.7c129.8,10.8,168.8-33.4,180.5-112.8c11.7-79.4-83.2-159.2-212.1-178.2
	c-10.2-1.5-20.2-2.6-30.2-3.3l0.1-1.2c-6.4,0.2-12.9,0.3-19.4,0.4c-3.7-0.1-7.3-0.1-10.9,0c-128.6-1.2-211.9-122.2-236.7-163.7
	c-5.8-9.6-13.2-18.1-21.9-25.2l0,0c-29.2-23.6-64.9-38-102.3-41.2c-23.4-2-46.7-3.9-58.1-5.6c-202.1-29.9-241,117.7-305.4,165.5
	C1276.8-5492,1126.8-5330.7,1322.8-5273.1z"/>
<path class="st5" d="M1281.3-5254.7c57.9,17,207.4-14.1,292.6,0c33.6,5.6,148.1,42.4,174.9,49c53.4,13.2,85,4.4,120.6,4.3
	c19.8-0.1,39.3,4.3,57.2,12.7c42.1,19.6,91.3,57.8,145.4,65.4c129,18.2,168.8-33.4,180.5-112.8c11.7-79.4-83.2-159.2-212.1-178.2
	c-10.2-1.5-20.2-2.6-30.2-3.3l0.1-1.2c-6.4,0.2-12.9,0.4-19.4,0.4c-3.7-0.1-7.3-0.1-10.9,0c-128.6-1.2-211.9-122.2-236.7-163.7
	c-5.8-9.6-13.2-18.1-21.9-25.2l0,0c-29.2-23.6-64.9-38-102.3-41.2c-23.4-2-46.7-3.9-58.1-5.6c-202.1-29.9-241,117.7-305.4,165.5
	C1235.3-5473.6,1085.3-5312.3,1281.3-5254.7z"/>
<path class="st1" d="M1947.4-3969c21.4-18.4,56.2-3.2,74.6,18.2c18.4,21.4,16,53.7-5.4,72.1s-61.9,18.8-80.3-2.6
	C1917.8-3902.7,1926-3950.6,1947.4-3969z"/>
<path class="st1" d="M2152.1-3907.5c11.8-10.2,42-19.5,52.2-7.7c10.2,11.8,8.6,54.4-3.2,64.6s-50.6,2.3-60.8-9.5
	C2130.1-3871.9,2140.3-3897.3,2152.1-3907.5z"/>
<path class="st1" d="M2161-3980.4c4.7-4.1,20.2-2.1,24.3,2.6s4.4,21.2-0.4,25.2c-4.7,4.1-16.8-2.2-20.9-7
	C2160-3964.2,2156.3-3976.3,2161-3980.4z"/>
<circle class="st1" cx="2082.2" cy="-4048.5" r="10.3"/>
<path class="st1" d="M2119.8-4045.2c8.1-7,28.2-5.4,35.2,2.6c7,8.1,4.5,27.2-3.6,34.1c-8.1,7-26.7-1.4-33.7-9.5
	C2110.9-4026,2111.8-4038.2,2119.8-4045.2z"/>
<polygon class="st6" points="1281.5,-4870.6 1281.5,-4870.8 1279.3,-4870.8 1279,-4870.6 "/>
<path class="st5" d="M-33.9-2911.4L-33.9-2911.4c-53.9,38.3-92.4,87-109.3,137.1c-41.3,122.7,54,110.5-38.1,173.7
	c-4.5,5.3-166.2,78.7-120.2,165.8c39.7,75.1-10.1,153.3,149.6,116.9c34.9-7.9,70.2-37.9,161.8-86.1
	c84.3-44.4,120.3-121.8,123.1-192.3c19-112.1,29.8-114.8,81.2-166.7c101.1-102.1,137.4-71.4,157.3-166.2
	c16.6-79.1-59.8-74.5-125.9-78.2C167.2-3011.8,21-2966-33.9-2911.4z"/>
<path class="st1" d="M1859.8-2612.2L1859.8-2612.2c-7.9-1.4-16-1.3-23.9,0.3c-83,16.8-128.4-3.3-177.2-24.1
	c-60.8-25.9-31.9-140.8-127.8-105.1c-136.5,50.8-152.2-9.3-167.4-16.1c-29.2-13-63.3-42.8-133.6-1.7
	c-84.3,49.4-73.6,94.8-69.9,136.3c2.5,28.1,34.3,69.9,52.7,83.2c62.1,44.9,133.5,72.3,212,59c124.5-9.1,127.3-0.8,184.2,30.1
	c111.9,60.8,77.1,97.6,182.4,93.1c87.8-3.7,257.7-23.4,262.9-78.8C2060.5-2501.5,2022.5-2584.9,1859.8-2612.2z"/>
<path class="st7" d="M1388.4-2722c25,21.1,14,63.6-7.1,88.6c-21.1,25-33.5,49.2-58.4,28.1c-25-21.1-21.4-62-0.3-86.9
	C1343.6-2717.2,1363.4-2743.1,1388.4-2722z"/>
<path class="st7" d="M1269.8-2731.1c8.9,7.6,19.4,28.8,11.8,37.8s-39.3,12.9-48.2,5.3c-8.9-7.6-7.7-37.2-0.2-46.2
	C1240.8-2743.1,1260.8-2738.6,1269.8-2731.1z"/>
<path class="st7" d="M1374.1-2577.8c5.5,4.7,6.2,22.8,1.5,28.3s-23.4,8.9-28.9,4.2s-0.5-19.6,4.1-25.2
	C1355.5-2576,1368.6-2582.5,1374.1-2577.8z"/>
<path class="st7" d="M1270.7-2647.5c3.5,2.9,5.5,9.5,2.6,12.9c-2.9,3.5-12.4,5.7-15.8,2.8s-1.2-11.3,1.7-14.8
	C1262.1-2650,1267.3-2650.4,1270.7-2647.5z"/>
<circle class="st7" cx="1437.7" cy="-2696.3" r="11.9"/>
<path class="st7" d="M1440.7-2636.7c9.4,8,11.4,31.3,3.4,40.7c-8,9.4-30.2,10.1-39.7,2.2c-9.4-8-3.2-30.8,4.7-40.2
	C1417.2-2643.5,1431.3-2644.7,1440.7-2636.7z"/>
<path class="st7" d="M1299.1-2581.6c9.3,7.9,14.7,25.4,6.9,34.7s-33.2,15.4-42.5,7.5c-9.3-7.9-3.3-30.3,4.5-39.6
	C1275.8-2588.3,1289.8-2589.5,1299.1-2581.6z"/>
<circle class="st7" cx="1305.4" cy="-2722.3" r="11.9"/>
<path class="st5" d="M1859.8-2676.6L1859.8-2676.6c-7.9-1.4-16-1.3-23.9,0.3c-83,16.8-128.4-3.3-177.2-24.1
	c-60.8-25.9-31.9-140.8-127.8-105.1c-136.5,50.8-152.2-9.3-167.4-16.1c-29.2-13-63.3-42.8-133.6-1.7
	c-84.3,49.4-73.6,94.8-69.9,136.3c2.5,28.1,34.3,69.9,52.7,83.2c62.1,44.9,133.5,72.3,212,59c124.5-9.1,127.3-0.8,184.2,30.1
	c111.9,60.8,77.1,97.6,182.4,93.1c87.8-3.7,257.7-23.4,262.9-78.8C2060.5-2566,2022.5-2649.4,1859.8-2676.6z"/>
<path class="st2" d="M-1011-954.7l3,7.8c-51.4,28.7-102.6,61-153,96.7c-436.6,309.8-624.4,373.5-620.5,635.8
	c1.2,81.9,134.7,835.2,629.5,616.4"/>
<path class="st7" d="M4072.2,2284.7L4072.2,2284.7c20.6-1.8,40.6-7.5,59-16.7c194.5-97.1,320.6-77.6,455.7-58.6
	c168.2,23.6,173,328,387,175.5c304.7-217.2,383.7-78.5,426-71.8c81.1,12.8,185.6,64,332.5-85c176.3-178.7,119.3-284.2,82.4-384.6
	c-25-68.1-131.6-150.4-186.2-171.2c-178.2-67.8-367.2-88.9-547.8-12.5c-16.2,6.9-32.7,13-49.4,18.7
	c-271.8,93.1-289.2,74.4-445.1,37.1c-318.2-76.2-256.4-190.5-514.5-109.1c-215.1,67.8-623.4,230-599.5,370.9
	C3500.6,2144.2,3650.6,2325.7,4072.2,2284.7z"/>
<g>
	<path class="st4" d="M1725.9-1944.2c16.2-2.3,41,12.2,43.3,28.4c2.3,16.2-16.7,41.6-32.9,43.9c-16.2,2.3-33.2-22.5-35.5-38.7
		C1698.4-1926.9,1709.7-1941.9,1725.9-1944.2z"/>
	<path class="st4" d="M1629.3-2113.7c26.3-3.8,46.2,25.9,49.9,52.2c3.8,26.3-14.5,50.7-40.8,54.4c-26.3,3.8-58.6-16.5-62.4-42.8
		C1572.2-2076.2,1603-2110,1629.3-2113.7z"/>
	<path class="st4" d="M1612.5-1978.6c10.1-1.4,30,4.1,31.4,14.1c1.4,10.1-14.4,33-24.5,34.4c-10.1,1.4-28.7-16.5-30.1-26.6
		C1587.9-1966.7,1602.4-1977.1,1612.5-1978.6z"/>
	
		<ellipse transform="matrix(7.479754e-02 -0.9972 0.9972 7.479754e-02 3649.3926 -37.0028)" class="st4" cx="1804.8" cy="-1985.2" rx="29.4" ry="29.4"/>
	<path class="st4" d="M1680.1-1978.8c8.6-1.2,25.4,12.7,26.7,21.4c1.2,8.6-10.8,28.2-19.4,29.5c-8.6,1.2-18.1-15.3-19.4-23.9
		C1666.8-1960.6,1671.5-1977.6,1680.1-1978.8z"/>
	<path class="st4" d="M1734.7-2053.8c13.2-1.9,31.5,6.4,33.4,19.7c1.9,13.2-11.6,38.4-24.8,40.3c-13.2,1.9-27.2-19.3-29.1-32.6
		C1712.3-2039.7,1721.5-2051.9,1734.7-2053.8z"/>
	
		<ellipse transform="matrix(7.479753e-02 -0.9972 0.9972 7.479753e-02 3570.6841 -177.3976)" class="st4" cx="1689.7" cy="-2013" rx="14.3" ry="14.3"/>
	<path class="st4" d="M1719.3-2137.2c11.4-1.6,28.8,11.4,30.4,22.8c1.6,11.4-11.6,27.3-23,28.9c-11.4,1.6-23.4-16.8-25-28.2
		C1700.1-2125.1,1708-2135.6,1719.3-2137.2z"/>
</g>
<g>
	<path class="st1" d="M41.2-1601.6c15.2,6.3,29.1,31.3,22.8,46.5c-6.3,15.2-35.5,27.3-50.7,21.1c-15.2-6.3-17.2-36.3-10.9-51.4
		C8.7-1600.6,26-1607.9,41.2-1601.6z"/>
	<path class="st1" d="M44.2-1796.7c24.6,10.1,26.6,45.8,16.4,70.3c-10.1,24.6-38.3,36.2-62.8,26.1c-24.6-10.1-42.1-44-32-68.5
		C-24.1-1793.4,19.6-1806.8,44.2-1796.7z"/>
	<path class="st1" d="M-39-1688.9c9.4,3.9,23.7,18.7,19.8,28.1s-29.1,21.1-38.6,17.2s-16.3-28.8-12.4-38.2
		C-66.3-1691.2-48.5-1692.8-39-1688.9z"/>
	
		<ellipse transform="matrix(0.5714 -0.8207 0.8207 0.5714 1366.1272 -577.7709)" class="st1" cx="129.9" cy="-1596.8" rx="29.4" ry="29.4"/>
	<path class="st1" d="M19.3-1654.7c8.1,3.3,15.4,23.9,12.1,32c-3.3,8.1-23.6,18.8-31.7,15.5c-8.1-3.3-7.8-22.4-4.5-30.5
		C-1.4-1645.7,11.3-1658,19.3-1654.7z"/>
	<path class="st1" d="M104.5-1691.5c12.4,5.1,23.9,21.6,18.8,33.9c-5.1,12.4-29.5,27.2-41.9,22.1s-13.6-30.5-8.5-42.9
		C78-1690.7,92.1-1696.6,104.5-1691.5z"/>
	
		<ellipse transform="matrix(0.5714 -0.8207 0.8207 0.5714 1397.3536 -682.7741)" class="st1" cx="45" cy="-1679.2" rx="14.3" ry="14.3"/>
	<path class="st1" d="M133.7-1771.1c10.6,4.4,18.9,24.5,14.6,35.1c-4.4,10.6-23.9,17.6-34.5,13.2c-10.6-4.4-11.6-26.4-7.2-37
		C110.9-1770.5,123.1-1775.5,133.7-1771.1z"/>
</g>
<g>
	<path class="st8" d="M271.9-2181.3c-5.4-3.7-10.8-7.2-16.6-10.3c-4.1-2.2-8.3-4.2-12.7-5.9c-3.2-1.3-6.4-2.2-9.6-3.2
		c-4.4-1.3-8.9-1.3-13.4-1.1c-0.8,0-1.2,0.2-1.5,1.1c-1,2.7-1.8,5.5-2.6,8.3c-1,3.4-1.8,6.8-2.2,10.2c-0.7,5.4-1,10.8-0.5,16.3
		c0.3,3.1,0.5,6.2,1.1,9.2c0.3,1.5,0.7,3,1.2,4.4c0.4,1.2,0.4,2.5,1.2,3.6c0.3,0.4,0.1,1-0.4,1.5c-0.8,0.9-1.5,1.8-2.3,2.7
		c-3.7,4.4-6.7,9.2-9.2,14.3c-2,4.1-3.7,8.3-4.9,12.7c-1.2,4.6-2,9.3-2.7,14c-0.9,6.1-0.6,12.2-0.5,18.3c0,3.9,0.6,7.7,1,11.6
		c0.3,3.4,0.8,6.8,1.6,10.1c1.4,5.8,2.9,11.5,5.1,17.1c3,7.5,6.7,14.5,11.8,20.7c5.6,6.9,12.3,12.7,20.1,17.1
		c3.8,2.1,7.6,4.1,11.6,5.8c2.9,1.2,5.8,2.2,8.8,3.2c2.5,0.8,5.1,1.3,7.6,2.2c1.3,0.5,2.7,0.6,4.1,0.9c2,0.4,4.1,0.8,6.2,1.2
		c3.7,0.6,7.4,1,11,1.8c0.2,0,0.4,0.2,0.6,0.3c-0.6,1.2-1.6,2-2.4,2.9c-3.1,3.6-5.2,7.8-6.8,12.3c-1.3,3.5-2.1,7.1-2.7,10.8
		c-0.1,0.4-0.2,0.7-0.7,1c-2.3,1-4.5,2.1-7,2.6c-1.3,0.3-2.5,0.8-3.8,1.1c-4.1,1.1-8.3,1.6-12.6,1.4c-6.6-0.2-12.8-2-18.4-5.5
		c-3.7-2.4-6.9-5.3-9.8-8.7c-3-3.6-5.1-7.7-7.8-11.5c-4.4-6-9.6-11-16.4-14.2c-4.1-1.9-8.4-3.2-13-3.1c-1.7,0.1-3.2,0.5-4.8,0.9
		c-0.7,0.2-1.3,0.6-1.8,1c-1.1,1-1.2,1.7-0.5,3.2c0.7,1.4,1.6,2.6,2.8,3.6c1.7,1.5,3.5,3,5.5,4.2c5.2,3.3,9.1,7.8,12.5,12.9
		c2.1,3.1,4,6.2,5.5,9.6c1.4,3,2.7,6.1,4,9.1c2.8,6.5,7,11.8,12.4,16.2c4.2,3.4,9,5.8,14,7.8c1.2,0.5,2.6,0.6,3.8,1
		c2,0.6,4.1,0.7,6.1,1.2c4.1,1,8.1,0.6,12.2,0.6c4.4,0.1,8.7-0.6,12.9-1.6c1-0.2,2.1-0.2,3.2-0.3c0.6-0.1,0.7,0.3,0.8,0.8
		c0,0.4,0,0.7,0,1.1c0.1,8.4,0.2,16.8,0.3,25.2c0,1.4,0.1,2.8,0.2,4.2c0.1,3.2-0.1,6.3-1.9,9.1c-1.6,2.4-3.9,3.5-6.6,3.9
		c-2.8,0.4-5.4-0.3-8.1-1.3c-3.4-1.3-6.7-2.6-10.1-3.9c-2.8-1.1-5.5-2.4-8.2-3.7c-6.1-3.1-12.2-6.3-18.1-9.9
		c-7.6-4.7-14.9-9.9-21.8-15.6c-7.5-6.2-14.6-12.9-21.2-20.1c-8.1-8.9-15.3-18.5-21.8-28.7c-3.6-5.6-6.8-11.5-9.8-17.4
		c-2.7-5.5-5.2-11.2-7.4-16.9c-1.4-3.7-2.8-7.5-4.1-11.2c-0.8-2.3-1.3-4.7-2.1-7c-0.9-2.7-1.3-5.5-2.2-8.2c-0.5-1.6-0.8-3.4-1.1-5.1
		c-0.4-2.1-0.8-4.3-1.2-6.4c-0.3-1.8-0.5-3.6-0.9-5.4c-0.7-2.8-0.6-5.7-1.2-8.6c-0.4-1.8-0.2-3.7-0.5-5.5c-1-8.4-1-16.8-0.7-25.1
		c0.2-5.4,0.6-10.8,1.3-16.2c0.4-3,0.6-6,1.2-9c0.9-4.2,1.5-8.4,2.5-12.6c0.7-2.9,1.5-5.8,2.1-8.8c0.2-1.2,0.5-2.5,1-3.6
		c0.7-1.4,0.9-2.8,1.3-4.2c2.2-7.2,5.1-14.1,8-21c3.2-7.6,7-14.8,11.1-21.9c4.4-7.5,9.3-14.6,14.7-21.5c6.7-8.5,13.9-16.4,21.8-23.8
		c6.3-5.9,13-11.3,20.1-16.3c7.4-5.2,15-9.9,23-14.1c4.6-2.4,9.3-4.7,14.1-6.7c3.4-1.4,6.8-2.9,10.5-4c1.8-0.5,3.6-1.3,5.5-1.9
		c3.6-1.1,7.3-2.1,10.9-3.2c2.1-0.6,4.3-0.9,6.3-1.6c1.3-0.5,2.8-0.5,4.1-0.8c2.3-0.4,4.6-0.7,6.8-1.3c3.2-0.9,6.5-0.6,9.8-1.3
		c2.4-0.6,5-0.1,7.4-0.4c7.8-1.3,15.6-0.6,23.4-0.6c4.1,0,8.1,0.6,12.2,1c2.1,0.2,4.4,0.2,6.4,0.8c2.3,0.7,4.7,0.4,7,1.3
		c1.5,0.6,3.3,0.6,5,0.9c3.8,0.8,7.5,1.7,11.2,2.7c3.9,1.1,7.7,2.3,11.6,3.6c4.3,1.4,8.6,3,12.8,4.8c5,2.1,9.9,4.4,14.7,7
		c7.8,4.2,15.3,8.7,22.5,13.8c9.8,6.9,18.9,14.8,27.3,23.4c6.3,6.4,12,13.2,17.3,20.3c5.5,7.4,10.4,15,14.9,23.1
		c2.4,4.4,4.8,8.8,6.8,13.4c1.4,3.1,2.9,6.1,3.9,9.4c0.8,2.4,1.9,4.8,2.8,7.2c0.8,2.5,1.6,4.9,2.5,7.4c1,2.5,1.6,5.2,2.3,7.8
		c0.4,1.6,0.8,3.3,1.3,4.8c0.5,1.8,0.5,3.7,1.3,5.5c0.6,1.4,0.7,3,0.9,4.5c0.6,4.5,1.5,8.9,2.1,13.3c0.6,4.8,0.7,9.7,1.4,14.5
		c0.2,1.6,0.3,3.2,0.3,4.9c0,6.2,0.3,12.4-0.2,18.6c-0.5,6-0.8,12-1.8,17.9c-0.4,2.6-0.7,5.1-1.3,7.7c-0.5,2.1-0.8,4.3-1.2,6.4
		c-0.4,2-0.8,3.9-1.3,5.9c-0.7,2.5-1.2,5-2,7.5c-0.9,3.3-1.9,6.5-3,9.8c-0.7,2.1-1.6,4.2-2.4,6.3c-1.3,3.4-2.7,6.8-4.1,10.2
		c-1.9,4.6-4.1,9-6.4,13.3c-3.6,6.9-7.7,13.5-12,19.9c-4.2,6.2-8.8,12.1-13.7,17.8c-6.6,7.8-13.9,15-21.7,21.6
		c-6.3,5.3-12.9,10.4-19.8,14.8c-6.1,3.9-12.4,7.6-18.9,10.9c-4,2-8.1,4.1-12.2,5.8c-3.4,1.4-6.8,2.8-10.3,3.9
		c-2.4,0.8-4.7,1.7-7.3,1.5c-4-0.4-7.6-2.7-8.6-6.9c-0.4-1.6-0.6-3.2-0.6-4.8c0.1-13.4,0.1-26.8,0.2-40.2c0-2.6,0.1-5.2,0.2-7.8
		c0.1-5.2-0.2-10.4-0.7-15.6c-0.4-3.5-1.2-7-2.3-10.4c-1.2-3.5-2.6-6.8-4.5-10c-1.1-1.9-2.5-3.7-4-5.3c-0.5-0.5-1-0.9-1.3-1.7
		c1.8-0.8,3.7-0.9,5.6-1.2c2.9-0.4,5.7-1,8.5-1.4c2.1-0.3,4.1-1,6.2-1.2c1.5-0.1,2.9-0.6,4.2-1c5.7-1.6,11.3-3.4,16.7-5.9
		c6.5-3,12.8-6.5,18.3-11c7.4-6.1,13.5-13.4,18-21.9c2.2-4,3.9-8.2,5.4-12.5c2-5.8,3.5-11.6,4.5-17.6c1-5.8,1.7-11.6,1.8-17.4
		c0-1.3,0.2-2.5,0.3-3.8c0.7-5.5-0.1-11-0.7-16.4c-0.5-4.9-1.6-9.7-3.2-14.4c-1.2-3.4-2.4-6.8-3.9-10.1c-1.5-3.3-3.4-6.5-5.4-9.6
		c-1.9-2.8-4-5.6-6.2-8.1c-0.8-0.9-0.7-1.8-0.3-2.7c1.3-3.4,1.9-7,2.6-10.5c1.1-5.6,0.7-11.2,0.6-16.9c-0.1-3.4-0.8-6.7-1.4-10
		c-0.3-1.7-0.7-3.4-1.2-5.1c-0.8-2.9-1.8-5.8-2.7-8.7c-0.2-0.6-0.8-0.9-1.5-0.9c-3.6,0-7.1-0.2-10.7,0.6c-2.9,0.6-5.7,1.4-8.5,2.2
		c-3,0.9-5.9,2.2-8.7,3.5c-4.5,2.1-9,4.4-13.3,7c-3.4,2-6.7,4.2-10,6.4c-0.5,0-0.8,0.2-0.9,0.8c0,0,0,0,0,0c-1,0.2-2-0.2-2.9,0.1
		c-0.3,0-0.5-0.1-0.8-0.1c-0.3-0.8-1.1-0.8-1.8-0.9c-1.8-0.4-3.6-0.9-5.5-1.3c-2.9-0.5-5.7-1.4-8.6-1.6c-0.2,0-0.4,0-0.6-0.1
		c-3.8-0.9-7.7-1.4-11.6-1.6c-1,0-2.1,0.2-2.9-0.2c-1.6-0.7-3.3-0.6-5-0.6c-5.5-0.1-11,0.1-16.5-0.1c-5.5-0.2-10.9,0.8-16.4,1.2
		c-2.3,0.1-4.6,0.5-6.9,0.8c-0.1,0-0.3,0-0.4,0.1c-2.3,1-4.8,0.9-7.1,1.4c-1.9,0.4-3.8,1-5.7,1.2c-0.9,0.1-1.9,0.6-2.8,0.7
		c-0.6,0.1-1.3,0.3-1.5,1c-0.4,0-0.8,0.1-1.1,0.1C273.7-2181.3,272.8-2181.3,271.9-2181.3z"/>
	<path class="st8" d="M275.7-2181.4c0.3-0.7,0.9-0.9,1.5-1c1-0.1,1.9-0.6,2.8-0.7c2-0.2,3.8-0.8,5.7-1.2c2.4-0.6,4.9-0.4,7.1-1.4
		c0.1-0.1,0.3-0.1,0.4-0.1c2.3-0.2,4.6-0.6,6.9-0.8c5.5-0.4,10.9-1.4,16.4-1.2c5.5,0.2,11,0.1,16.5,0.1c1.7,0,3.3-0.1,5,0.6
		c0.9,0.4,1.9,0.1,2.9,0.2c3.9,0.2,7.8,0.7,11.6,1.6c0.2,0,0.4,0.1,0.6,0.1c2.9,0.2,5.7,1.1,8.6,1.6c1.9,0.3,3.7,0.9,5.5,1.3
		c0.7,0.1,1.5,0.1,1.8,0.9c-1,0.1-2,0.3-2.8-0.5c-0.1-0.1-0.3-0.2-0.4-0.1c-2,0.2-3.9-0.7-5.7-1.1c-2.2-0.5-4.6-0.2-6.7-1.4
		c-0.5-0.3-1.2-0.2-1.9-0.2c-1.3-0.1-2.5,0.1-3.7-0.7c-0.5-0.3-1.2-0.2-1.9-0.2c-1.5,0-3,0-4.4-0.4c-1.6-0.5-3.2-0.4-4.8-0.4
		c-3.7,0-7.3-0.4-10.9-0.7c-2.7-0.2-5.5-0.1-8.2,0.1c-3.8,0.4-7.6,0.8-11.4,0.6c-1.1,0-2.2,0-3.3,0.4c-1.2,0.4-2.5,0.5-3.8,0.4
		c-1.3,0-2.5-0.1-3.7,0.6c-0.6,0.3-1.2,0.2-1.9,0.2c-1.2,0.1-2.6-0.2-3.6,0.7c-0.1,0.1-0.3,0.1-0.4,0.1c-2.3-0.3-4.4,0.6-6.6,1
		c-1.6,0.3-3.4,0.4-5,1.2C277.3-2181.2,276.5-2181.2,275.7-2181.4z"/>
	<path class="st8" d="M369.8-2181.3c1-0.3,2,0.2,2.9-0.1C371.9-2180.1,370.9-2180.1,369.8-2181.3z"/>
	<path class="st8" d="M271.9-2181.3c0.9,0,1.7,0,2.6,0C273.6-2180.1,272.8-2180.1,271.9-2181.3z"/>
	<path class="st8" d="M372.8-2181.4c0.1-0.5,0.4-0.8,0.9-0.8C373.7-2181.5,373.4-2181.2,372.8-2181.4z"/>
</g>
<g id="Fa0NEb.tif">
	
		<image style="overflow:visible;" width="220" height="270" id="Layer_0" xlink:href="245333A088D3550B.png"  transform="matrix(0.5 0 0 0.5 2845.0012 -3950.7935)">
	</image>
</g>
<path class="st9" d="M509.9-1664.7c0-9.8,0-19.7,0-29.5c1-0.5,0.6-1.5,0.7-2.2c0.9-9.6,2.3-19.1,4.5-28.5
	c25.8-109.3,135.5-176.3,244.4-149.4c113.6,28.1,179.3,148.1,142,259.1c-24.5,72.8-88,125.1-164.2,135.3c-4,0.5-8,0.3-11.9,1.7
	c-9.4,0-18.8,0-28.3,0c-0.5-0.9-1.5-0.6-2.3-0.6c-28.7-2.4-55.9-10.1-80.9-24.4c-58.2-33.4-92.4-83.4-102.3-149.9
	C511-1657,511.3-1661,509.9-1664.7z M730.4-1703.9c0-7-0.1-13,0.1-19c0.1-2.2-0.6-2.8-2.8-2.8c-14.3,0.1-28.7,0.1-43,0
	c-2.3,0-3,0.6-3,2.9c0.1,52.6,0.1,105.3,0,157.9c0,2.6,0.9,3.1,3.2,3.1c13.9-0.1,27.8-0.1,41.8,0c2.9,0,3.8-0.6,3.8-3.7
	c-0.1-26.9-0.1-53.8-0.1-80.7c0-3.7,0.2-7.3,0.6-11c2.5-19.1,15.8-29.4,34.8-27.1c8.6,1,14.8,5.4,18.6,13.2c3.3,6.6,4.4,13.7,4.4,21
	c0.1,28.3,0.1,56.5,0,84.8c0,3,0.9,3.6,3.7,3.5c14.4-0.1,28.9-0.1,43.3,0c2.9,0,3.6-0.8,3.6-3.7c-0.1-32.9-0.1-65.7-0.1-98.6
	c0-6.5-0.3-13-1.5-19.4c-2.5-12.9-7.5-24.7-17.7-33.4c-16-13.6-34.7-16.3-54.6-12.1C750.8-1725.9,739.5-1717.1,730.4-1703.9z
	 M598.5-1644c0,26.2,0.1,52.3-0.1,78.5c0,3.2,0.9,3.7,3.8,3.7c14.5-0.2,29.1-0.1,43.6,0c2.8,0,3.5-0.7,3.4-3.5
	c-0.1-52.4-0.1-104.9,0-157.3c0-2.4-0.5-3.2-3-3.2c-14.9,0.1-29.7,0.1-44.6,0c-2.6,0-3.3,0.6-3.3,3.2
	C598.6-1696.3,598.5-1670.2,598.5-1644z M623.7-1807.5c-16.6,0-30.1,13.6-30,30.2c0.1,16.5,13.5,30.1,29.9,30.2
	c16.4,0.1,30.1-13.6,30.2-30.2C653.8-1794,640.3-1807.5,623.7-1807.5z"/>
<path class="st10" d="M730.4-1703.9c9.1-13.2,20.4-21.9,35.2-25c19.9-4.2,38.6-1.5,54.6,12.1c10.2,8.7,15.2,20.5,17.7,33.4
	c1.2,6.4,1.5,12.9,1.5,19.4c0,32.9,0,65.7,0.1,98.6c0,2.9-0.7,3.7-3.6,3.7c-14.4-0.2-28.9-0.1-43.3,0c-2.8,0-3.7-0.6-3.7-3.5
	c0.1-28.3,0.1-56.5,0-84.8c0-7.3-1.1-14.4-4.4-21c-3.8-7.7-10-12.1-18.6-13.2c-19.1-2.3-32.3,8.1-34.8,27.1c-0.5,3.6-0.6,7.3-0.6,11
	c0,26.9-0.1,53.8,0.1,80.7c0,3.1-0.9,3.7-3.8,3.7c-13.9-0.2-27.8-0.1-41.8,0c-2.3,0-3.2-0.5-3.2-3.1c0.1-52.6,0.1-105.3,0-157.9
	c0-2.4,0.6-3,3-2.9c14.3,0.1,28.7,0.1,43,0c2.2,0,2.9,0.5,2.8,2.8C730.3-1716.9,730.4-1710.9,730.4-1703.9z"/>
<path class="st10" d="M598.5-1644c0-26.2,0-52.3-0.1-78.5c0-2.6,0.7-3.3,3.3-3.2c14.9,0.1,29.7,0.1,44.6,0c2.6,0,3,0.8,3,3.2
	c-0.1,52.4-0.1,104.9,0,157.3c0,2.8-0.7,3.5-3.4,3.5c-14.5-0.1-29.1-0.2-43.6,0c-2.9,0-3.9-0.5-3.8-3.7
	C598.6-1591.6,598.5-1617.8,598.5-1644z"/>
<path class="st10" d="M623.7-1807.5c16.6,0,30.1,13.6,30,30.2c-0.1,16.6-13.7,30.3-30.2,30.2c-16.4-0.1-29.8-13.7-29.9-30.2
	C593.6-1793.9,607.1-1807.5,623.7-1807.5z"/>
<path class="st6" d="M158.7,993.9c0,0-246.3,394.3-302.8,386.6l79.6-539.2L0,802.7L158.7,993.9z"/>
<path class="st2" d="M158.7,993.6c-25.4,39.9-244.9,382.9-302.8,386.9v300.4c0,0,285-613.6,344-564.8s-30.8,236.2-30.8,236.2
	s-205.4,344-205.4,521.2L0,2061.7h143.5c0,0,89.3-712.4,305.6-1075.4l-21.8-22.2l-261.7,25.2C162.8,989.6,160.3,991.1,158.7,993.6z"
	/>
<path class="st2" d="M705.9,993.6c0,0,105.8,238.8,70.3,572.4c-21.8,205-59.7,470.1-9.8,523.3l398.5,26.6
	c0,0-155.7-865.5-56.2-1122.3H705.9z"/>
<ellipse class="st11" cx="-437.1" cy="-1460.7" rx="197.7" ry="203.2"/>
<g>
	<path class="st10" d="M-487.5-1559.3c-5.4-3.7-10.8-7.2-16.6-10.3c-4.1-2.2-8.3-4.2-12.7-6c-3.2-1.3-6.4-2.2-9.6-3.2
		c-4.4-1.3-8.9-1.3-13.4-1.1c-0.8,0-1.2,0.2-1.5,1.1c-1,2.7-1.8,5.5-2.6,8.3c-1,3.4-1.8,6.8-2.2,10.2c-0.7,5.4-1,10.8-0.5,16.3
		c0.3,3.1,0.5,6.2,1.1,9.2c0.3,1.5,0.7,3.1,1.2,4.5c0.4,1.2,0.4,2.5,1.2,3.6c0.3,0.4,0.1,1.1-0.4,1.5c-0.8,0.9-1.5,1.8-2.3,2.7
		c-3.7,4.4-6.7,9.3-9.2,14.4c-2,4.1-3.7,8.3-4.9,12.7c-1.2,4.6-2,9.3-2.7,14c-0.9,6.2-0.6,12.3-0.5,18.4c0,3.9,0.6,7.7,1,11.6
		c0.3,3.4,0.8,6.8,1.6,10.2c1.4,5.8,2.9,11.5,5.1,17.1c3,7.5,6.7,14.5,11.8,20.8c5.6,6.9,12.3,12.7,20.1,17.2
		c3.8,2.1,7.6,4.2,11.6,5.8c2.9,1.2,5.8,2.2,8.8,3.2c2.5,0.8,5.1,1.3,7.6,2.2c1.3,0.5,2.7,0.6,4.1,0.9c2,0.4,4.1,0.8,6.2,1.2
		c3.7,0.6,7.4,1,11,1.8c0.2,0,0.4,0.2,0.6,0.3c-0.6,1.2-1.6,2-2.4,2.9c-3.1,3.6-5.2,7.8-6.8,12.3c-1.3,3.5-2.1,7.2-2.7,10.8
		c-0.1,0.4-0.2,0.7-0.7,1c-2.3,1-4.5,2.1-7,2.6c-1.3,0.3-2.5,0.8-3.8,1.1c-4.1,1.1-8.3,1.6-12.6,1.4c-6.6-0.2-12.8-2-18.4-5.6
		c-3.7-2.4-6.9-5.4-9.8-8.8c-3-3.6-5.1-7.8-7.8-11.5c-4.4-6-9.6-11-16.4-14.2c-4.1-1.9-8.4-3.2-13-3.1c-1.7,0.1-3.2,0.5-4.8,0.9
		c-0.7,0.2-1.3,0.6-1.8,1c-1.1,1-1.2,1.8-0.5,3.2c0.7,1.4,1.6,2.6,2.8,3.6c1.7,1.5,3.5,3,5.5,4.2c5.2,3.3,9.1,7.8,12.5,12.9
		c2.1,3.1,4,6.2,5.5,9.6c1.4,3,2.7,6.1,4,9.1c2.8,6.5,7,11.8,12.4,16.3c4.2,3.4,9,5.8,14,7.8c1.2,0.5,2.6,0.6,3.8,1
		c2,0.6,4.1,0.7,6.1,1.2c4.1,1,8.1,0.6,12.2,0.6c4.4,0.1,8.7-0.6,12.9-1.6c1-0.2,2.1-0.2,3.2-0.3c0.6-0.1,0.7,0.3,0.8,0.8
		c0,0.4,0,0.7,0,1.1c0.1,8.4,0.2,16.8,0.3,25.3c0,1.4,0.1,2.8,0.2,4.2c0.1,3.2-0.1,6.3-1.9,9.1c-1.6,2.4-3.9,3.5-6.6,3.9
		c-2.8,0.4-5.4-0.3-8.1-1.3c-3.4-1.3-6.7-2.6-10.1-3.9c-2.8-1.1-5.5-2.4-8.2-3.7c-6.1-3.1-12.2-6.3-18.1-10
		c-7.6-4.7-14.9-9.9-21.8-15.6c-7.5-6.2-14.6-12.9-21.2-20.2c-8.1-9-15.3-18.6-21.8-28.8c-3.6-5.6-6.8-11.5-9.8-17.5
		c-2.7-5.5-5.2-11.2-7.4-17c-1.4-3.7-2.8-7.5-4.1-11.3c-0.8-2.3-1.3-4.7-2.1-7c-0.9-2.7-1.3-5.5-2.2-8.3c-0.5-1.6-0.8-3.4-1.1-5.1
		c-0.4-2.1-0.8-4.3-1.2-6.4c-0.3-1.8-0.5-3.6-0.9-5.4c-0.7-2.8-0.6-5.8-1.2-8.6c-0.4-1.8-0.2-3.7-0.5-5.5c-1-8.4-1-16.8-0.7-25.2
		c0.2-5.4,0.6-10.8,1.3-16.2c0.4-3,0.6-6,1.2-9c0.9-4.2,1.5-8.5,2.5-12.6c0.7-2.9,1.5-5.8,2.1-8.8c0.2-1.2,0.5-2.5,1-3.6
		c0.7-1.4,0.9-2.8,1.3-4.2c2.2-7.2,5.1-14.1,8-21.1c3.2-7.6,7-14.9,11.1-21.9c4.4-7.5,9.3-14.7,14.7-21.5
		c6.7-8.5,13.9-16.5,21.8-23.8c6.3-5.9,13-11.4,20.1-16.4c7.4-5.2,15-10,23-14.1c4.6-2.4,9.3-4.7,14.1-6.7c3.4-1.4,6.8-2.9,10.5-4
		c1.8-0.5,3.6-1.4,5.5-1.9c3.6-1.1,7.3-2.1,10.9-3.2c2.1-0.6,4.3-0.9,6.3-1.6c1.3-0.5,2.8-0.5,4.1-0.8c2.3-0.4,4.6-0.7,6.8-1.3
		c3.2-0.9,6.5-0.6,9.8-1.3c2.4-0.6,5-0.1,7.4-0.4c7.8-1.3,15.6-0.6,23.4-0.6c4.1,0,8.1,0.6,12.2,1c2.1,0.2,4.4,0.2,6.4,0.8
		c2.3,0.7,4.7,0.4,7,1.3c1.5,0.6,3.3,0.6,5,0.9c3.8,0.8,7.5,1.7,11.2,2.8c3.9,1.1,7.7,2.3,11.6,3.6c4.3,1.4,8.6,3.1,12.8,4.8
		c5,2.1,9.9,4.4,14.7,7c7.8,4.2,15.3,8.8,22.5,13.9c9.8,7,18.9,14.8,27.3,23.4c6.3,6.4,12,13.2,17.3,20.4
		c5.5,7.4,10.4,15.1,14.9,23.1c2.4,4.4,4.8,8.8,6.8,13.4c1.4,3.1,2.9,6.1,3.9,9.4c0.8,2.4,1.9,4.8,2.8,7.2c0.8,2.5,1.6,5,2.5,7.4
		c1,2.5,1.6,5.2,2.3,7.8c0.4,1.6,0.8,3.3,1.3,4.8c0.5,1.8,0.5,3.7,1.3,5.5c0.6,1.4,0.7,3,0.9,4.5c0.6,4.5,1.5,8.9,2.1,13.4
		c0.6,4.8,0.7,9.7,1.4,14.6c0.2,1.6,0.3,3.2,0.3,4.9c0,6.2,0.3,12.5-0.2,18.7c-0.5,6-0.8,12-1.8,17.9c-0.4,2.6-0.7,5.1-1.3,7.7
		c-0.5,2.1-0.8,4.3-1.2,6.4c-0.4,2-0.8,4-1.3,5.9c-0.7,2.5-1.2,5-2,7.5c-0.9,3.3-1.9,6.6-3,9.8c-0.7,2.1-1.6,4.2-2.4,6.3
		c-1.3,3.4-2.7,6.8-4.1,10.2c-1.9,4.6-4.1,9-6.4,13.4c-3.6,6.9-7.7,13.5-12,20c-4.2,6.2-8.8,12.1-13.7,17.9
		c-6.6,7.8-13.9,15-21.7,21.7c-6.3,5.4-12.9,10.4-19.8,14.9c-6.1,4-12.4,7.6-18.9,10.9c-4,2-8.1,4.1-12.2,5.8
		c-3.4,1.4-6.8,2.8-10.3,3.9c-2.4,0.8-4.7,1.7-7.3,1.5c-4-0.4-7.6-2.7-8.6-6.9c-0.4-1.6-0.6-3.2-0.6-4.8c0.1-13.4,0.1-26.9,0.2-40.3
		c0-2.6,0.1-5.2,0.2-7.8c0.1-5.2-0.2-10.5-0.7-15.7c-0.4-3.5-1.2-7-2.3-10.5c-1.2-3.5-2.6-6.9-4.5-10c-1.1-1.9-2.5-3.7-4-5.3
		c-0.5-0.5-1-0.9-1.3-1.7c1.8-0.8,3.7-0.9,5.6-1.2c2.9-0.4,5.7-1,8.5-1.4c2.1-0.3,4.1-1,6.2-1.2c1.5-0.1,2.9-0.6,4.2-1
		c5.7-1.6,11.3-3.4,16.7-5.9c6.5-3,12.8-6.5,18.3-11.1c7.4-6.1,13.5-13.4,18-22c2.2-4,3.9-8.2,5.4-12.6c2-5.8,3.5-11.7,4.5-17.7
		c1-5.8,1.7-11.6,1.8-17.5c0-1.3,0.2-2.5,0.3-3.8c0.7-5.5-0.1-11-0.7-16.5c-0.5-4.9-1.6-9.7-3.2-14.4c-1.2-3.4-2.4-6.8-3.9-10.1
		c-1.5-3.3-3.4-6.5-5.4-9.6c-1.9-2.8-4-5.6-6.2-8.2c-0.8-0.9-0.7-1.8-0.3-2.7c1.3-3.4,1.9-7,2.6-10.6c1.1-5.6,0.7-11.3,0.6-16.9
		c-0.1-3.4-0.8-6.7-1.4-10c-0.3-1.7-0.7-3.4-1.2-5.1c-0.8-2.9-1.8-5.9-2.7-8.7c-0.2-0.6-0.8-0.9-1.5-0.9c-3.6,0-7.1-0.2-10.7,0.6
		c-2.9,0.6-5.7,1.4-8.5,2.2c-3,0.9-5.9,2.2-8.7,3.5c-4.5,2.1-9,4.4-13.3,7c-3.4,2-6.7,4.2-10,6.4c-0.5,0-0.8,0.2-0.9,0.8
		c0,0,0,0,0,0c-1,0.2-2-0.2-2.9,0.1c-0.3,0-0.5-0.1-0.8-0.1c-0.3-0.8-1.1-0.8-1.8-0.9c-1.8-0.4-3.6-0.9-5.5-1.3
		c-2.9-0.5-5.7-1.4-8.6-1.6c-0.2,0-0.4,0-0.6-0.1c-3.8-0.9-7.7-1.4-11.6-1.6c-1,0-2.1,0.2-2.9-0.2c-1.6-0.7-3.3-0.6-5-0.6
		c-5.5-0.1-11,0.1-16.5-0.1c-5.5-0.2-10.9,0.8-16.4,1.2c-2.3,0.1-4.6,0.5-6.9,0.8c-0.1,0-0.3,0-0.4,0.1c-2.3,1-4.8,0.9-7.1,1.5
		c-1.9,0.4-3.8,1-5.7,1.2c-0.9,0.1-1.9,0.6-2.8,0.7c-0.6,0.1-1.3,0.3-1.5,1c-0.4,0-0.8,0.1-1.1,0.1
		C-485.8-1559.3-486.7-1559.3-487.5-1559.3z"/>
	<path class="st10" d="M-483.8-1559.5c0.3-0.7,0.9-0.9,1.5-1c1-0.1,1.9-0.6,2.8-0.7c2-0.2,3.8-0.8,5.7-1.2c2.4-0.6,4.9-0.4,7.1-1.5
		c0.1-0.1,0.3-0.1,0.4-0.1c2.3-0.2,4.6-0.6,6.9-0.8c5.5-0.4,10.9-1.4,16.4-1.2c5.5,0.2,11,0.1,16.5,0.1c1.7,0,3.3-0.1,5,0.6
		c0.9,0.4,1.9,0.1,2.9,0.2c3.9,0.2,7.8,0.7,11.6,1.6c0.2,0,0.4,0.1,0.6,0.1c2.9,0.2,5.7,1.1,8.6,1.6c1.9,0.3,3.7,0.9,5.5,1.3
		c0.7,0.1,1.5,0.1,1.8,0.9c-1,0.1-2,0.3-2.8-0.5c-0.1-0.1-0.3-0.2-0.4-0.1c-2,0.2-3.9-0.7-5.7-1.1c-2.2-0.5-4.6-0.2-6.7-1.4
		c-0.5-0.3-1.2-0.2-1.9-0.2c-1.3-0.1-2.5,0.1-3.7-0.7c-0.5-0.3-1.2-0.2-1.9-0.2c-1.5,0-3,0-4.4-0.4c-1.6-0.5-3.2-0.4-4.8-0.4
		c-3.7,0-7.3-0.4-10.9-0.7c-2.7-0.2-5.5-0.1-8.2,0.1c-3.8,0.4-7.6,0.8-11.4,0.6c-1.1,0-2.2,0-3.3,0.4c-1.2,0.4-2.5,0.5-3.8,0.5
		c-1.3,0-2.5-0.1-3.7,0.6c-0.6,0.3-1.2,0.2-1.9,0.2c-1.2,0.1-2.6-0.2-3.6,0.7c-0.1,0.1-0.3,0.1-0.4,0.1c-2.3-0.3-4.4,0.7-6.6,1
		c-1.6,0.3-3.4,0.4-5,1.2C-482.1-1559.3-483-1559.3-483.8-1559.5z"/>
	<path class="st10" d="M-389.6-1559.4c1-0.3,2,0.2,2.9-0.1C-387.6-1558.2-388.6-1558.2-389.6-1559.4z"/>
	<path class="st10" d="M-487.5-1559.3c0.9,0,1.7,0,2.6,0C-485.9-1558.2-486.7-1558.2-487.5-1559.3z"/>
	<path class="st10" d="M-386.7-1559.4c0.1-0.5,0.4-0.8,0.9-0.8C-385.8-1559.5-386.1-1559.3-386.7-1559.4z"/>
</g>
<path class="st10" d="M-249.6-1042.1c0-9.8,0-19.7,0-29.5c1-0.5,0.6-1.5,0.7-2.2c0.9-9.6,2.3-19.1,4.5-28.5
	c25.8-109.3,135.5-176.3,244.4-149.4c113.6,28.1,179.3,148.1,142,259.1c-24.5,72.8-88,125.1-164.2,135.3c-4,0.5-8,0.3-11.9,1.7
	c-9.4,0-18.8,0-28.3,0c-0.5-0.9-1.5-0.6-2.3-0.6c-28.7-2.4-55.9-10.1-80.9-24.4c-58.2-33.4-92.4-83.4-102.3-149.9
	C-248.4-1034.3-248.2-1038.3-249.6-1042.1z M-29.1-1081.3c0-7-0.1-13,0.1-19c0.1-2.2-0.6-2.8-2.8-2.8c-14.3,0.1-28.7,0.1-43,0
	c-2.3,0-3,0.6-3,2.9c0.1,52.6,0.1,105.3,0,157.9c0,2.6,0.9,3.1,3.2,3.1c13.9-0.1,27.8-0.1,41.8,0c2.9,0,3.8-0.6,3.8-3.7
	c-0.1-26.9-0.1-53.8-0.1-80.7c0-3.7,0.2-7.3,0.6-11c2.5-19.1,15.8-29.4,34.8-27.1c8.6,1,14.8,5.4,18.6,13.2c3.3,6.6,4.4,13.7,4.4,21
	c0.1,28.3,0.1,56.5,0,84.8c0,3,0.9,3.6,3.7,3.5c14.4-0.1,28.9-0.1,43.3,0c2.9,0,3.6-0.8,3.6-3.7c-0.1-32.9-0.1-65.7-0.1-98.6
	c0-6.5-0.3-13-1.5-19.4c-2.5-12.9-7.5-24.7-17.7-33.4c-16-13.6-34.7-16.3-54.6-12.1C-8.7-1103.2-20-1094.5-29.1-1081.3z
	 M-160.9-1021.3c0,26.2,0.1,52.3-0.1,78.5c0,3.2,0.9,3.7,3.8,3.7c14.5-0.2,29.1-0.1,43.6,0c2.8,0,3.5-0.7,3.4-3.5
	c-0.1-52.4-0.1-104.9,0-157.3c0-2.4-0.5-3.2-3-3.2c-14.9,0.1-29.7,0.1-44.6,0c-2.6,0-3.3,0.6-3.3,3.2
	C-160.9-1073.7-160.9-1047.5-160.9-1021.3z M-135.8-1184.9c-16.6,0-30.1,13.6-30,30.2c0.1,16.5,13.5,30.1,29.9,30.2
	c16.4,0.1,30.1-13.6,30.2-30.2C-105.7-1171.3-119.2-1184.9-135.8-1184.9z"/>
<path class="st12" d="M-29.1-1081.3c9.1-13.2,20.4-21.9,35.2-25c19.9-4.2,38.6-1.5,54.6,12.1c10.2,8.7,15.2,20.5,17.7,33.4
	c1.2,6.4,1.5,12.9,1.5,19.4c0,32.9,0,65.7,0.1,98.6c0,2.9-0.7,3.7-3.6,3.7c-14.4-0.2-28.9-0.1-43.3,0c-2.8,0-3.7-0.6-3.7-3.5
	c0.1-28.3,0.1-56.5,0-84.8c0-7.3-1.1-14.4-4.4-21c-3.8-7.7-10-12.1-18.6-13.2c-19.1-2.3-32.3,8.1-34.8,27.1c-0.5,3.6-0.6,7.3-0.6,11
	c0,26.9-0.1,53.8,0.1,80.7c0,3.1-0.9,3.7-3.8,3.7c-13.9-0.2-27.8-0.1-41.8,0c-2.3,0-3.2-0.5-3.2-3.1c0.1-52.6,0.1-105.3,0-157.9
	c0-2.4,0.6-3,3-2.9c14.3,0.1,28.7,0.1,43,0c2.2,0,2.9,0.5,2.8,2.8C-29.2-1094.3-29.1-1088.3-29.1-1081.3z"/>
<path class="st12" d="M-160.9-1021.3c0-26.2,0-52.3-0.1-78.5c0-2.6,0.7-3.3,3.3-3.2c14.9,0.1,29.7,0.1,44.6,0c2.6,0,3,0.8,3,3.2
	c-0.1,52.4-0.1,104.9,0,157.3c0,2.8-0.7,3.5-3.4,3.5c-14.5-0.1-29.1-0.2-43.6,0c-2.9,0-3.9-0.5-3.8-3.7
	C-160.9-969-160.9-995.2-160.9-1021.3z"/>
<path class="st12" d="M-135.8-1184.9c16.6,0,30.1,13.6,30,30.2c-0.1,16.6-13.7,30.3-30.2,30.2c-16.4-0.1-29.8-13.7-29.9-30.2
	C-165.9-1171.3-152.4-1184.9-135.8-1184.9z"/>
<g>
	<defs>
		<rect id="SVGID_1_" x="-1.1" y="1.4" width="2126" height="992.2"/>
	</defs>
	<clipPath id="SVGID_00000159470277082953999860000015178648701223493025_">
		<use xlink:href="#SVGID_1_"  style="overflow:visible;"/>
	</clipPath>
	<g style="clip-path:url(#SVGID_00000159470277082953999860000015178648701223493025_);">
		<defs>
			<rect id="SVGID_00000142888923450236864790000006274395947159859843_" x="-1.1" y="1.4" width="2126" height="992.2"/>
		</defs>
		<clipPath id="SVGID_00000141453716369853435350000002695633124718378899_">
			<use xlink:href="#SVGID_00000142888923450236864790000006274395947159859843_"  style="overflow:visible;"/>
		</clipPath>
		
			<rect x="1682.2" y="659.5" style="clip-path:url(#SVGID_00000141453716369853435350000002695633124718378899_);fill:#51B1DC;" width="529.1" height="459.6"/>
		<g style="clip-path:url(#SVGID_00000141453716369853435350000002695633124718378899_);">
			<g>
				<path class="st2" d="M-249.1,638.1c0.8-0.8,1.7-1.5,2.5-2.3c-0.1-1.4-0.2-2.7-0.3-4.1L-249.1,638.1z"/>
				<path class="st6" d="M2373.1,601.6c74.5-20.2,125.9-47.3,159.6-80.2c-7.6,1.4-11.9,2-11.9,2S2489.5,559,2373.1,601.6z"/>
				<path class="st6" d="M2585.6,396.5c0.7-32.3-5.4-66.9-16.2-103.2c-30.2-101.8-161.8-179.1-338.2-214.1
					c-150.3,85.7-300.7,208.3-300.7,208.3s-216.2,223.7-409.4,243.3c-119.4,12.1-198.2,80.5-241,131c25.6,0.2,46.1,0.2,58.7-0.3
					c193.9-8.2,254.1-69.9,400.4-80c30.5,0.4,163,17.2,283.6,30.7l263.3-73.9L2585.6,396.5z"/>
				<path class="st6" d="M946.1,201.6c45-69,106.6-133.9,175.1-193.2c-22.7-10.6-43.8-21.2-63.3-31.6c-69.7,54.8-142.3,79.5-184,90
					c-21.4,5.4-41.6,14.5-60,26.8c-43.7,29.1-154.3,85.2-402.6,130.6C188,265.1-80.3,482.5-246.5,635.8
					c3.7,54.4,25.4,107.7,79.9,147.4C-77.8,690.8,6.1,611,75,558.8c306.8-232.7,513.8-253,513.8-253
					c43.2,97.1-262.1,253.3-472.4,397.3C10,776-16,817-15.8,839.8c39.1,6.4,84.2,9.7,136.3,9.3c44.7-0.4,104.7-9.4,172.4-23.5
					c43.4-51.6,87.2-105.5,131.1-161.9C635.1,392.8,742.6,513.6,946.1,201.6z"/>
				<path class="st6" d="M167.9,152C302,5.8,597.2,28.3,694.5-107.6c9.1-12.7,21.4-26.4,36-40.7c-51.9-3.9-103.9-1.7-154.2,6.8
					c-60.5,10.2-120.7,20.7-151,24.4c-53.6,6.4-101.4,15.3-144.1,26.4C170.9-0.2,68.5,162.3-72.5,200.7c-2.7,0.7-5.5,1.6-8.3,2.4
					c-33.7,75.5-53.7,147.6-94.7,196c-17.2,20.4-76.9,127.9-71.4,232.7l66.4-188.9C-50.6,340,95.3,231.1,167.9,152z"/>
				<path class="st6" d="M1234.9,487.6c0,0,354.6-153.7,375.5-339.4c1.4-12.2,3.7-24.6,6.8-37.1c-128.3,12-254.1-12.6-362.7-49.1
					c-177.1,143.3-230,348.3-355.8,493.6c-24.5,28.3-79.7,80.5-154.7,147.9c39-11.8,75.6-23,108.6-33.1
					c18.7-5.7,59.1-8.7,109.2-10.1C1090.3,537.2,1234.9,487.6,1234.9,487.6z"/>
				<path class="st2" d="M411.3,224.2c260.8-47.7,269.4-57.1,338.4-89.4c15.2-7.1,136.2-66,151.5-72.8
					c62.4-27.8,81.9-26.5,156.6-85.2C1013-47,977.2-69.1,953.3-84.7c-24.1-15.7-51.2-28.3-80.1-37.1l0,0
					c-46.5-14-94.5-22.9-142.7-26.5c-14.6,14.3-26.9,27.9-36,40.7C597.2,28.3,302,5.8,167.9,152C95.3,231.1-77.1,355.1-206.9,457.9
					l-40,173.8c0.1,1.4,0.2,2.7,0.3,4.1C-80.4,482.5,187.9,265.1,411.3,224.2z"/>
				<path class="st2" d="M281.3-90.7C51.3-31.1-30.3,89.8-80.8,203.1c2.8-0.8,5.6-1.6,8.3-2.4C68.5,162.3,170.9-0.2,281.3-90.7z"/>
				<path class="st2" d="M116.3,703.1c210.2-144.1,515.5-300.3,472.4-397.3c0,0-206.9,20.3-513.8,253C6,611-77.9,690.8-166.7,783.2
					c35.2,25.6,84.1,45.6,150.8,56.6C-16.1,817,9.9,776,116.3,703.1z"/>
				<path class="st2" d="M2585.6,396.5l-299.5,141.7l-263.3,73.9c94.3,10.6,181.2,19.1,206.2,16.1c55.5-6.6,103.2-15.6,144-26.6
					c116.4-42.6,147.7-78.2,147.7-78.2s4.3-0.5,11.9-2C2569.1,485.8,2584.6,443.6,2585.6,396.5z"/>
				<path class="st2" d="M1254.6,62c-48.3-16.2-93.2-34.8-133.4-53.6C1052.6,67.7,991.1,132.6,946,201.6
					C742.5,513.6,635,392.8,424,663.7c-43.9,56.4-87.7,110.3-131.1,161.9c138.8-28.9,310.3-79.4,451.3-122.1
					c75-67.4,130.2-119.6,154.7-147.9C1024.6,410.3,1077.5,205.3,1254.6,62z"/>
				<path class="st2" d="M1521.2,530.7c193.2-19.6,409.4-243.3,409.4-243.3s150.4-122.5,300.7-208.3
					c-110.1-21.8-237.5-27.1-368.7-11.5c-26.9,3.2-53.2,7.2-78.8,11.9l-1.1-2.4c-15.9,4.4-32,8.6-48.3,12.7
					c-9.2,2.1-18.4,4.3-27.4,6.7c-30,7.1-59.9,11.8-89.8,14.6c-3.1,12.5-5.5,24.9-6.8,37.1c-20.9,185.6-375.5,339.4-375.5,339.4
					s-144.6,49.7-273,172.8c98.9-2.8,235.6,0.6,318.4,1.3C1323.1,611.2,1401.8,542.8,1521.2,530.7z"/>
			</g>
			<path class="st2" d="M-206.9,457.9c0,0-44.1,68.8-40,173.8l64.8-80.7L-206.9,457.9z"/>
		</g>
		<path style="clip-path:url(#SVGID_00000141453716369853435350000002695633124718378899_);fill:#9DD1C0;" d="M1254.6,62
			c0,0,77.7-56.9,108.3-64.9h-234.5l-7.2,11.3C1121.2,8.4,1220.6,57.8,1254.6,62z"/>
		<path style="clip-path:url(#SVGID_00000141453716369853435350000002695633124718378899_);fill:#51B1DC;" d="M292.9,825.6
			c0,0-147.1,198.2-192.6,223.4l-119.8-66.2l3.7-143L292.9,825.6z"/>
		<path style="clip-path:url(#SVGID_00000141453716369853435350000002695633124718378899_);fill:#9DD1C0;" d="M744.1,703.5
			c0,0-259,213.4-355.5,361.8l-229.9-71.5l134.1-168.3L744.1,703.5z"/>
		<path style="clip-path:url(#SVGID_00000141453716369853435350000002695633124718378899_);fill:#51B1DC;" d="M961.9,660.4
			c0,0-325.4,241.7-245.2,357.5L442,994.6c0,0,133.6-160.3,302.1-291.1C744.1,703.5,925.1,623.5,961.9,660.4z"/>
		<path style="clip-path:url(#SVGID_00000141453716369853435350000002695633124718378899_);fill:#9DD1C0;" d="M1280.3,661.7
			c0,0-153.8,248.2-185.3,375.8l-378.3-19.6c0,0-105.7-92.5,245.2-357.5C961.9,660.4,1259.2,645.6,1280.3,661.7z"/>
		<path style="clip-path:url(#SVGID_00000141453716369853435350000002695633124718378899_);fill:#51B1DC;" d="M2022.9,612.1
			c0,0-631.5,8.7-568.3,272.3s153.7,114.2-23.2,215.2l-336.8-81.8c0,0,137.7-328.9,185.7-356.2l492.2-122L2022.9,612.1z"/>
		<polygon style="clip-path:url(#SVGID_00000141453716369853435350000002695633124718378899_);fill:#9DD1C0;" points="100.2,-23.2 
			-44.5,-23.2 -32.8,114 117.5,-11.1 		"/>
		<path style="clip-path:url(#SVGID_00000141453716369853435350000002695633124718378899_);fill:#51B1DC;" d="M1115.8,13.1
			c0,0,8.8-6.4,10.6-12.9l-2.7-4.5l-22.1,3.4v4.4L1115.8,13.1z"/>
		<path style="clip-path:url(#SVGID_00000141453716369853435350000002695633124718378899_);fill:#51B1DC;" d="M1254.6,62
			c0,0,73.1-66.9,129.3-66.4c56.2,0.6,314.8,0,314.8,0s-71.7,61.1-81.5,115.5s-315.7,39.2-315.7,39.2L1254.6,62z"/>
		<path style="clip-path:url(#SVGID_00000141453716369853435350000002695633124718378899_);fill:#9DD1C0;" d="M2231.3,79.2V-54.7
			l-532.6,14.4v36c0,0-70.1,52-81.5,115.5c-9,50.4,51.4,41.2,51.4,41.2l220.8,0.8L2231.3,79.2z"/>
		<path style="clip-path:url(#SVGID_00000141453716369853435350000002695633124718378899_);fill:#9DD1C0;" d="M2229.1,628.2
			c-635.1-8.4-509.9,437.2-509.9,437.2l-190.6-16.3c-322.1-408.6,387.9-458.5,512.1-456.7c80,1.2,98.6-16.2,110.2-14.7L2229.1,628.2
			z"/>
		<path style="clip-path:url(#SVGID_00000141453716369853435350000002695633124718378899_);fill:#9DD1C0;" d="M1923.8,1037.5
			c0,0,161.9-268.8,29.6-318.5s-208.7,106.6-208.7,106.6l36.8-149.6l429.9-74.5c0,0-218.2,317.9-218.2,435.9H1923.8z"/>
	</g>
</g>
</svg>
