<?xml version="1.0" encoding="utf-8"?>
<!-- Generator: Adobe Illustrator 26.3.1, SVG Export Plug-In . SVG Version: 6.00 Build 0)  -->
<svg version="1.1" id="Calque_1" xmlns="http://www.w3.org/2000/svg" xmlns:xlink="http://www.w3.org/1999/xlink" x="0px" y="0px"
	 viewBox="0 0 189.2 316.6" style="enable-background:new 0 0 189.2 316.6;" xml:space="preserve">
<style type="text/css">
	.st0{fill:#FFFFFF;}
	.st1{fill:#FFCC00;}
	.st2{fill:#9ED2C1;}
	.st3{fill:#51B2DD;}
	.st4{fill:none;stroke:#2D2523;stroke-width:3;stroke-miterlimit:10;}
	.st5{fill:#EA535B;}
	.st6{fill:#EA5059;}
	.st7{fill:#4163AC;}
	.st8{fill:#362D2B;}
	.st9{fill:none;}
	.st10{clip-path:url(#SVGID_00000171684985722877723740000015703070447140733112_);fill:#EA535B;}
	.st11{clip-path:url(#SVGID_00000171684985722877723740000015703070447140733112_);fill:#2D2523;}
	.st12{clip-path:url(#SVGID_00000171684985722877723740000015703070447140733112_);}
	.st13{fill:#9FD2C1;}
	.st14{fill:#2D2523;}
	.st15{clip-path:url(#SVGID_00000171684985722877723740000015703070447140733112_);fill:none;}
	.st16{clip-path:url(#SVGID_00000171684985722877723740000015703070447140733112_);fill:#4163AC;}
	.st17{clip-path:url(#SVGID_00000171684985722877723740000015703070447140733112_);fill:#9FD2C1;}
	.st18{clip-path:url(#SVGID_00000171684985722877723740000015703070447140733112_);fill:#FFD545;}
	.st19{clip-path:url(#SVGID_00000171684985722877723740000015703070447140733112_);fill:#52B3DD;}
	.st20{fill:#3D4495;}
	.st21{opacity:0.1;}
	.st22{fill:#201C16;}
	.st23{fill:none;stroke:#14120D;stroke-width:1.2358;stroke-miterlimit:10;}
	.st24{fill:none;stroke:#14120D;stroke-width:0.9664;stroke-miterlimit:10;}
	.st25{fill:none;stroke:#14120D;stroke-miterlimit:10;}
	.st26{fill:#FDFDFE;}
	.st27{fill:#FFECC9;}
	.st28{fill:#4064AD;}
	.st29{fill:#9ED1C0;}
	.st30{fill:#EA555A;}
	.st31{fill:#27241F;}
	.st32{fill:#13110C;}
	.st33{clip-path:url(#SVGID_00000025402257592832131070000007968963754896915086_);}
	.st34{fill:#3B373D;}
	.st35{clip-path:url(#SVGID_00000025402257592832131070000007968963754896915086_);fill:#3B373D;}
	.st36{clip-path:url(#SVGID_00000045595141147824174290000012330700162555672733_);}
	.st37{clip-path:url(#SVGID_00000045595141147824174290000012330700162555672733_);fill:#3B373D;}
	.st38{clip-path:url(#SVGID_00000085226038681648836100000018029359856364172967_);fill:#E1E0E0;}
	.st39{clip-path:url(#SVGID_00000085226038681648836100000018029359856364172967_);fill:#CECBCB;}
	.st40{clip-path:url(#SVGID_00000085226038681648836100000018029359856364172967_);fill:none;}
	.st41{fill:#202548;}
	.st42{fill:#E52635;}
	.st43{fill:#13120D;}
	.st44{fill:#E52A12;}
	.st45{fill:#15140F;}
	.st46{fill:#006434;}
	.st47{fill:#FEFEFE;}
	.st48{fill:none;stroke:#000000;stroke-width:2;stroke-miterlimit:10;}
	.st49{fill:none;stroke:#000000;stroke-width:2;}
</style>
<g>
	<path class="st3" d="M162.8,162v-49H11.4l-4.1,4.1v42.2c17.5-16.3,38.5-32.8,46.8-27.2c15.3,10.4-13.1,47.2-25.8,59.9
		c-6.2,6.2-14.3,13.8-21,20V235c11.4-7.5,26.1-15.5,32.8-11.4c9.5,5.8-20.8,35.7-32.8,47v9.2c12.1-1.7,27-2.7,26.8,2.6
		c-0.2,5.5-15.4,11.4-26.8,15.1V312H60v-74.3h90.6v-48.5H60V162H162.8z"/>
	<path class="st1" d="M50.5,137c-6.9-4.7-24.3,9-38.8,22.5v43.7c5.5-5.1,12.2-11.5,17.4-16.6C39.6,176,63.1,145.5,50.5,137z"/>
	<path class="st1" d="M36.3,227.1c-5.1-3.1-16.1,2.9-24.7,8.5v26.7C20.6,253.8,43.4,231.4,36.3,227.1z"/>
	<path class="st1" d="M28.6,284.6c0.1-3.1-8.6-2.5-15.7-1.5v10.4C19.6,291.3,28.4,287.9,28.6,284.6z"/>
	<path class="st14" d="M76.9,300.7H22.1v-16.4l0.7-0.2c23.3-7.5,26-12.4,26.1-14.1c0-0.5-0.1-0.8-0.5-1.1c-1.4-1.3-6.5-3-25.1-0.4
		l-1.2,0.2v-10.8l0.3-0.3c22.1-20.8,35-36.9,34.3-43.2c-0.1-1-0.5-1.6-1.3-2.1c-4.9-3-16.2,1.1-31.7,11.4l-1.6,1.1v-25.3l0.3-0.3
		c8.8-8.1,15.8-14.9,20.9-20c4.8-4.8,12.8-14,19.4-24.3c7.4-11.5,11.1-20.8,10.5-27.1c-0.3-3.1-1.6-5.3-3.9-6.9
		c-6.1-4.1-22.3,5.5-45.5,27.1l-1.8,1.7v-45.1l4.7-4.7h153v51.1H76.9v25.1h90.6v50.6H76.9V300.7z M24.2,298.6h50.6v-74.3h90.6v-46.3
		H74.8v-29.3h102.8v-46.8h-150l-3.5,3.5v39.4c23.7-21.8,39.3-30.4,46.3-25.6c2.8,1.9,4.4,4.8,4.8,8.4c0.8,8.5-5.4,20.2-10.8,28.4
		c-6.7,10.4-14.8,19.7-19.7,24.6c-5.1,5.1-12,11.7-20.7,19.7v20.5C40,210.4,50.9,207,56.6,210.4c1.3,0.8,2.1,2.1,2.3,3.7
		c1,9.5-21.1,31.9-34.6,44.6v7.5c14.1-1.9,22.8-1.5,25.6,1.1c0.8,0.8,1.3,1.7,1.2,2.8c-0.2,4.8-9.2,10.1-26.8,15.8V298.6z"/>
</g>
</svg>
