<?xml version="1.0" encoding="utf-8"?>
<!-- Generator: Adobe Illustrator 26.3.1, SVG Export Plug-In . SVG Version: 6.00 Build 0)  -->
<svg version="1.1" id="Calque_1" xmlns="http://www.w3.org/2000/svg" xmlns:xlink="http://www.w3.org/1999/xlink" x="0px" y="0px"
	 viewBox="0 0 1713.3 678.2" style="enable-background:new 0 0 1713.3 678.2;" xml:space="preserve">
<style type="text/css">
	.st0{fill:#FFCB00;}
	.st1{fill:#9DD1C0;}
	.st2{fill:#4062AB;}
	.st3{fill:#E95059;}
	.st4{fill:none;stroke:#2D2422;stroke-width:3;stroke-miterlimit:10;}
	.st5{fill:#51B1DC;}
	.st6{fill:#E9525A;}
</style>
<g>
	<path class="st0" d="M264.6-3217.1l-3.5-8.9c-1.3-4.7-2.5-9.4-3.8-14c-43.6,6.9-94.8,22.6-139.4,42.9
		c-10.5,50.4,27.2,87.3,27.2,87.3c37.8,56.4,70.4,109.8,98.6,160c10-16.6,23.8-30.1,44.4-52.6c11-12.1,21.3-22.3,30.9-31.2
		c-28.1-60.7-41.6-135.4-41.6-135.4C273.1-3184.8,268.9-3201.1,264.6-3217.1z"/>
	<path class="st0" d="M-179.1-2764.4c-0.4-1.9-0.9-3.7-1.3-5.6c-33.1,30.7-58.6,70.8-32.6,111.9c43.7,69.3,3.6,144.9,142.1,112.9
		l-12.2-8.8C-126.3-2631.2-166.5-2711.9-179.1-2764.4z"/>
	<path class="st0" d="M46.5-3139.5c0,0,0.6-6.5,0.8-16.9c-8.1,6.2-15.2,12.5-21.1,18.8c-25.1,19.2-46.4,40.6-63.2,63.2
		c14.7,16.2,28.2,32.5,38.2,50c21.5,37.9,78.7,213.6,127.1,368.3c42.2-30.7,67.6-70.4,79.9-111.5c-31.9-83.6-68.9-164.3-102.2-195.5
		C25.5-3038.2,46.5-3139.5,46.5-3139.5z"/>
	<path class="st0" d="M-63.5-2869c-2,10.9-12.2,23.3-38.8,43c-0.8,0.9-6.3,4.2-14.6,9.3c2.4,20.2,4.8,40.4,8,59.2
		c14.7,86.1,45.8,56.2,45.8,56.2c11.6,15.5,33.9,66.7,57.6,128.6c19.3-11.9,43-27.9,75.8-47.8c-29.3-70-70.4-151.6-128-239.3
		C-59.8-2863-61.7-2866-63.5-2869z"/>
	<path class="st0" d="M344.1-3151.7c15.9,9.6,35.8,29.5,56.5,54.3c18.8-15.8,29.9-33.4,36-75.1c11.3-76.6-62.4-70.9-128.7-71.4
		c5.2,28.6,12.9,56.9,21.3,82.6C333.5-3158.2,338.4-3155.1,344.1-3151.7z"/>
	<path class="st1" d="M257.4-3239.9c1.3,4.6,2.5,9.3,3.8,14l3.5,8.9c4.2,16,8.4,32.3,12.7,48.1c0,0,13.5,74.7,41.6,135.4
		c36.6-34.1,62.9-48,81.6-63.7c-20.7-24.8-40.5-44.7-56.5-54.3c-5.6-3.4-10.6-6.6-14.9-9.5c-8.4-25.8-16.2-54-21.3-82.6
		c-1.5,0-3,0-4.4,0C289.7-3244,274.1-3242.6,257.4-3239.9z"/>
	<path class="st1" d="M-37-3074.3c-18.2,24.4-31.3,50.2-38.4,76.1c-23.6,85.8,16.7,103.5,11.9,129.2c1.8,3,3.7,6,5.8,9.2
		c57.6,87.7,98.8,169.3,128,239.3c10.6-6.4,22.2-13.3,34.8-20.5c8.2-4.7,15.9-9.7,23.1-14.9C79.8-2810.6,22.7-2986.3,1.2-3024.3
		C-8.8-3041.8-22.3-3058.1-37-3074.3z"/>
	<path class="st1" d="M117.9-3197c-26.9,12.2-51.5,26.1-70.6,40.7c-0.2,10.4-0.8,16.9-0.8,16.9s-21,101.3,59.4,176.5
		c33.4,31.2,70.4,111.9,102.2,195.5c6.7-22.6,9.5-45.6,8.9-67.8c6.7-63.9,13.2-92,26.7-114.6c-28.2-50.2-60.8-103.6-98.6-160
		C145.1-3109.8,107.4-3146.6,117.9-3197z"/>
	<path class="st1" d="M-108.9-2757.5c-3.2-18.7-5.6-39-8-59.2c-15.7,9.7-41.3,26.1-63.5,46.7c0.4,1.9,0.9,3.7,1.3,5.6
		c12.6,52.5,52.8,133.2,96,210.4l12.2,8.8c5.6-1.3,11.5-2.8,17.7-4.4c14.7-3.9,29.2-11.6,47.7-23.1c-23.7-61.9-46-113.1-57.6-128.6
		C-63.1-2701.4-94.2-2671.5-108.9-2757.5z"/>
</g>
<path class="st2" d="M-140.6-4287.5c-3.2,16.9-7.5,27.7-12.1,34.4v183.7c59.3-104.3,85.1-218.1,85.1-218.1H-140.6z"/>
<path class="st2" d="M970.4-5660.9c-44.5,64.5-99.3,151.1-111.1,202c-20.5,88.5-145.7,119.1-179.9,218.6
	c-6,17.3-14.6,37.5-24.9,59.3c-10.5,22.4-22.8,46.5-35.6,71.3c-13.5,26.1-27.7,53-41.2,79.1c0,0-129.6,218.6-119.1,318.3
	c10.5,99.6-93.8,253.2-93.8,253.2l-49.2,139.6l-0.1,0c0,0-3.1,12.4-124.6,278.7c-39.2,85.8-39.3,153.3-79.4,269.4
	c-19.5,56.2-54.1,112.7-84.7,155.9c-26.4,37.3-42.1,81.3-44.8,126.9c-1.2,20.1-10.7,44.9-39.1,72.1
	c-64.3,61.6-114.2,108.8-123.5,117.6l-11.1,15.8c0,0-17,161.9-4.7,160c2.1-0.3,9.5-9.4,20.1-24c41-29.3,229.6-173.8,267.5-372.6
	c42.6-223.3,156.4-357.2,222.6-545.4c69.4-197.6,201.2-161.2,174.6-254.4c0,0-25.1-110,14.2-196.2c39.4-86.2,109-347.9,103.5-434.3
	c0-0.1,0-0.2,0-0.3c-1-15.6,2.2-31.1,9-45.1c46.4-94.8,108.8-198.6,175.5-240.9c88-55.8,126.9-99.8,143.4-123.9
	c9.1-13.2,20-25.1,32.4-35.4c18.1-15.1,44.1-42.5,63-85.7l96.1-179.7L970.4-5660.9L970.4-5660.9z"/>
<path class="st2" d="M129.1-4965.7c-96,358.9-220.4,593.4-269.8,678.2h73C27.2-4481.1,280-5000,309.6-5093.9
	c36.6-115.9,18.6-262.8,111.3-377.8c46.5-57.8,68-114.8,77.9-157.2h-50.1c-59.4,76.8-146.3,206.4-171.1,334.5
	C238.9-5094.1,177-5144.6,129.1-4965.7z"/>
<path class="st2" d="M867.2-5628.9H572.3c-17.6,55.2-39.4,142.5-27.8,208.6c18.3,104.6-105.8,240.2-105.8,240.2
	s-101.6,93.2-116.8,251.7c-13.7,142.3-218.5,557.4-260.3,640.9c0,0-49.8,83.6-40.7,167.4c6.8,62.6-47.1,154.2-74.8,196.6
	c-9.4,14.3-16.3,30.1-20.5,46.7c-8.1,31.9-28.7,90.3-78.3,137.1v108.8c50.8-59.2,155.5-188.6,182.7-278.5
	c36-119.2,148.1-277.8,170-378l0,0c81.2-163.7,181.8-411.8,274.7-767.7c0,0,11.6-104,88.7-142.8s133.8-192.6,133.8-192.6
	s113.6-227.9,180.8-236.1L867.2-5628.9z"/>
<path class="st2" d="M8.8-4901.4c65.9-109.4,169.4-239.2,137.5-286c0,0-82.6,41.2-175.6,213.1c-37.9,70.1-83.2,197.3-123.5,323.3
	v197c66.3-143.7,131.7-299.9,141.2-342.4C-11.5-4796.4-57.1-4792.1,8.8-4901.4z"/>
<g>
	<path class="st3" d="M1810.5-4612.7c3.5,16-9.1,41.8-25.1,45.3c-16,3.5-42.7-13.5-46.2-29.6c-3.5-16,19.9-34.8,36-38.3
		S1806.9-4628.7,1810.5-4612.7z"/>
	<path class="st3" d="M1972.3-4721.8c5.7,26-22.4,48-48.3,53.7s-51.6-10.7-57.3-36.6c-5.7-26,12-59.7,38-65.4
		C1930.5-4775.8,1966.6-4747.7,1972.3-4721.8z"/>
	<path class="st3" d="M1836.2-4728.4c2.2,10-1.8,30.2-11.8,32.4c-9.9,2.2-33.9-11.9-36.1-21.8s14.3-29.8,24.3-32
		C1822.6-4752.1,1834-4738.4,1836.2-4728.4z"/>
	<circle class="st3" cx="1857.2" cy="-4537.2" r="29.4"/>
	<path class="st3" d="M1841.5-4661c1.9,8.5-10.8,26.3-19.3,28.2c-8.5,1.9-29-8.6-30.8-17.2c-1.9-8.5,13.9-19.2,22.4-21.1
		C1822.3-4672.9,1839.7-4669.5,1841.5-4661z"/>
	<path class="st3" d="M1920.4-4612.1c2.9,13.1-4.1,31.9-17.1,34.8c-13.1,2.9-39.2-8.7-42-21.8s17.2-28.6,30.3-31.5
		C1904.6-4633.4,1917.5-4625.2,1920.4-4612.1z"/>
	<circle class="st3" cx="1876.3" cy="-4653.9" r="14.3"/>
	<path class="st3" d="M2002.4-4633.7c2.5,11.2-9.2,29.5-20.4,32c-11.2,2.5-28.1-9.6-30.5-20.8s15-24.6,26.2-27
		C1988.9-4652,2000-4644.9,2002.4-4633.7z"/>
</g>
<path class="st1" d="M1317.2-5489.2c57.9,17,210.9-28,292.6,0c27.3,9.4,148.1,42.4,174.9,49c54.6,13.5,86.4,4,122.9,4.3
	c18.7,0.2,37.2,4.4,54.1,12.3c41.9,19.5,97,61.7,146,65.7c129.8,10.8,168.8-33.5,180.5-112.8c11.7-79.4-83.2-159.2-212.1-178.2
	c-10.2-1.5-20.2-2.6-30.2-3.3l0.1-1.2c-6.4,0.2-12.9,0.3-19.4,0.4c-3.7-0.1-7.3-0.1-10.9,0c-128.6-1.2-211.9-122.2-236.7-163.7
	c-5.8-9.6-13.2-18.1-21.9-25.2l0,0c-29.2-23.6-64.9-38-102.3-41.2c-23.4-2-46.7-3.9-58.1-5.6c-202.1-29.9-241,117.7-305.4,165.5
	C1271.3-5708.2,1121.3-5546.8,1317.2-5489.2z"/>
<path class="st4" d="M1275.8-5470.9c57.9,17,207.4-14.1,292.6,0c33.6,5.6,148.1,42.4,174.9,49c53.4,13.2,85,4.4,120.6,4.3
	c19.8,0,39.3,4.3,57.2,12.7c42.1,19.6,91.3,57.8,145.4,65.4c129,18.2,168.8-33.4,180.5-112.8c11.7-79.4-83.2-159.2-212.1-178.2
	c-10.2-1.5-20.2-2.6-30.2-3.3l0.1-1.2c-6.4,0.2-12.9,0.4-19.4,0.4c-3.7-0.1-7.3-0.1-10.9,0c-128.6-1.2-211.9-122.2-236.7-163.7
	c-5.8-9.6-13.2-18.1-21.9-25.2l0,0c-29.2-23.6-64.9-38-102.3-41.2c-23.4-2-46.7-3.9-58.1-5.6c-202.1-29.9-241,117.7-305.4,165.5
	C1229.8-5689.8,1079.8-5528.5,1275.8-5470.9z"/>
<path class="st0" d="M1941.9-4185.2c21.4-18.4,56.2-3.2,74.6,18.2c18.4,21.4,16,53.7-5.4,72.1c-21.4,18.4-61.9,18.8-80.3-2.6
	C1912.3-4118.9,1920.5-4166.7,1941.9-4185.2z"/>
<path class="st0" d="M2054-4080.5c11.8-10.2,42-19.5,52.2-7.7s8.6,54.4-3.2,64.6s-50.6,2.3-60.8-9.5
	C2032-4044.9,2042.1-4070.3,2054-4080.5z"/>
<path class="st0" d="M2062.8-4153.3c4.7-4.1,20.2-2.1,24.3,2.6s4.4,21.2-0.4,25.2s-16.8-2.2-20.9-7
	C2061.8-4137.2,2058.1-4149.2,2062.8-4153.3z"/>
<circle class="st0" cx="1984.1" cy="-4221.5" r="10.3"/>
<path class="st0" d="M2021.7-4218.2c8.1-7,28.2-5.4,35.2,2.6c7,8.1,4.5,27.2-3.6,34.1c-8.1,7-26.7-1.4-33.7-9.5
	C2012.7-4199,2013.6-4211.2,2021.7-4218.2z"/>
<polygon class="st5" points="1276,-5086.8 1276,-5086.9 1273.7,-5086.9 1273.5,-5086.8 "/>
<path class="st4" d="M-39.4-3127.6L-39.4-3127.6c-53.9,38.3-92.4,87-109.3,137.1c-41.3,122.7,54,110.5-38.1,173.7
	c-4.5,5.3-166.2,78.7-120.2,165.8c39.7,75.1-10.1,153.3,149.6,116.9c34.9-7.9,70.2-37.9,161.8-86.1
	c84.3-44.4,120.3-121.8,123.1-192.3c19-112.1,29.8-114.8,81.2-166.7c101.1-102.1,137.4-71.4,157.3-166.2
	c16.6-79.1-59.8-74.5-125.9-78.2C161.7-3228,15.5-3182.2-39.4-3127.6z"/>
<path class="st0" d="M1854.3-2828.4L1854.3-2828.4c-7.9-1.4-16-1.3-23.9,0.3c-83,16.8-128.4-3.3-177.2-24.1
	c-60.8-25.9-31.9-140.8-127.8-105.1c-136.5,50.8-152.2-9.3-167.4-16.1c-29.2-13-63.3-42.8-133.6-1.7
	c-84.3,49.4-73.6,94.8-69.9,136.3c2.5,28.1,34.3,69.9,52.7,83.2c62.1,44.9,133.5,72.3,212,59c124.5-9.1,127.3-0.8,184.2,30.1
	c111.9,60.8,77.1,97.6,182.4,93.1c87.8-3.7,257.7-23.4,262.9-78.8C2055-2717.7,2017-2801.1,1854.3-2828.4z"/>
<path class="st6" d="M1382.9-2938.1c25,21.1,14,63.6-7.1,88.6c-21.1,25-33.5,49.2-58.4,28.1c-25-21.1-21.4-62-0.3-86.9
	C1338.1-2933.4,1357.9-2959.2,1382.9-2938.1z"/>
<path class="st6" d="M1264.2-2947.2c8.9,7.6,19.4,28.8,11.8,37.8s-39.3,12.9-48.2,5.3c-8.9-7.6-7.7-37.2-0.2-46.2
	C1235.3-2959.3,1255.3-2954.8,1264.2-2947.2z"/>
<path class="st6" d="M1368.6-2794c5.5,4.7,6.2,22.8,1.5,28.3s-23.4,8.9-28.9,4.2s-0.5-19.6,4.1-25.2
	C1349.9-2792.2,1363.1-2798.7,1368.6-2794z"/>
<path class="st6" d="M1265.2-2863.6c3.5,2.9,5.5,9.5,2.6,12.9c-2.9,3.5-12.4,5.7-15.8,2.8s-1.2-11.3,1.7-14.8
	C1256.5-2866.1,1261.7-2866.6,1265.2-2863.6z"/>
<circle class="st6" cx="1432.1" cy="-2912.5" r="11.9"/>
<path class="st6" d="M1435.2-2852.9c9.4,8,11.4,31.3,3.4,40.7c-8,9.4-30.2,10.1-39.7,2.2c-9.4-8-3.2-30.8,4.7-40.2
	C1411.7-2859.7,1425.8-2860.9,1435.2-2852.9z"/>
<path class="st6" d="M1293.6-2797.8c9.3,7.9,14.7,25.4,6.9,34.7s-33.2,15.4-42.5,7.5c-9.3-7.9-3.3-30.3,4.5-39.6
	C1270.3-2804.5,1284.3-2805.7,1293.6-2797.8z"/>
<circle class="st6" cx="1299.8" cy="-2938.5" r="11.9"/>
<path class="st4" d="M1854.3-2892.8L1854.3-2892.8c-7.9-1.4-16-1.3-23.9,0.3c-83,16.8-128.4-3.3-177.2-24.1
	c-60.8-25.9-31.9-140.8-127.8-105.1c-136.5,50.8-152.2-9.3-167.4-16.1c-29.2-13-63.3-42.8-133.6-1.7
	c-84.3,49.4-73.6,94.8-69.9,136.3c2.5,28.1,34.3,69.9,52.7,83.2c62.1,44.9,133.5,72.3,212,59c124.5-9.1,127.3-0.8,184.2,30.1
	c111.9,60.8,77.1,97.6,182.4,93.1c87.8-3.7,257.7-23.4,262.9-78.8C2055-2782.1,2017-2865.5,1854.3-2892.8z"/>
<g>
	<g>
		<path class="st1" d="M-109.2,1612.7c0.4-0.3,0.7-0.7,1.1-1c0-0.6-0.1-1.2-0.1-1.8L-109.2,1612.7z"/>
		<path class="st5" d="M1025.8,1596.9c32.2-8.7,54.5-20.5,69.1-34.7c-3.3,0.6-5.1,0.8-5.1,0.8S1076.2,1578.5,1025.8,1596.9z"/>
		<path class="st5" d="M1117.8,1508.1c0.3-14-2.3-29-7-44.7c-13.1-44-70-77.5-146.4-92.7c-65.1,37.1-130.1,90.1-130.1,90.1
			s-93.6,96.8-177.2,105.3c-51.7,5.2-85.8,34.8-104.3,56.7c11.1,0.1,20,0.1,25.4-0.1c83.9-3.6,110-30.2,173.3-34.6
			c13.2,0.2,70.6,7.5,122.7,13.3l113.9-32L1117.8,1508.1z"/>
		<path class="st5" d="M408.1,1423.8c19.5-29.9,46.1-58,75.8-83.6c-9.8-4.6-19-9.2-27.4-13.7c-46,36.1-94.9,42.1-94.9,42.1
			s-32.6,37.2-185,65c-96.7,17.7-212.8,111.8-284.8,178.1c1.6,23.5,11,46.6,34.6,63.8c38.4-40,74.8-74.5,104.6-97.2
			c132.8-100.7,222.4-109.5,222.4-109.5c18.7,42-113.5,109.6-204.4,172c-46.1,31.6-57.3,49.3-57.2,59.2c16.9,2.8,36.5,4.2,59,4
			c19.4-0.2,45.3-4.1,74.6-10.2c18.8-22.3,37.7-45.7,56.8-70.1C273.5,1506.5,320,1558.8,408.1,1423.8z"/>
		<path class="st5" d="M71.3,1402.3c58.1-63.3,185.8-53.5,228-112.4c3.9-5.5,9.2-11.4,15.6-17.6c-22.5-1.7-45-0.7-66.7,2.9
			c-26.2,4.4-52.3,9-65.4,10.5c-23.2,2.8-43.9,6.6-62.4,11.4c-47.8,39.2-92.1,109.5-153.1,126.1c-1.2,0.3-2.4,0.7-3.6,1
			c-14.6,32.7-23.2,63.9-41,84.8c-7.5,8.8-33.3,55.3-30.9,100.7l28.8-81.8C-23.3,1483.7,39.9,1436.5,71.3,1402.3z"/>
		<path class="st5" d="M533.2,1547.5c0,0,153.5-66.5,162.5-146.9c0.6-5.3,1.6-10.6,3-16c-55.5,5.2-110-5.4-157-21.3
			c-76.7,62-99.5,150.8-154,213.6c-10.6,12.3-34.5,34.8-67,64c16.9-5.1,32.7-10,47-14.3c8.1-2.5,25.6-3.8,47.3-4.4
			C470.6,1569,533.2,1547.5,533.2,1547.5z"/>
		<path class="st1" d="M176.7,1433.6c152.3-27.8,185-65,185-65s48.9-5.9,94.9-42.1c-19.4-10.3-34.9-19.9-45.2-26.6
			c-10.4-6.8-22.1-12.3-34.7-16.1l0,0c-20.1-6.1-40.9-9.9-61.8-11.5c-6.3,6.2-11.6,12.1-15.6,17.6c-42.1,58.8-169.9,49.1-228,112.4
			c-31.4,34.2-106,87.9-162.2,132.4l-17.3,75.2c0,0.6,0.1,1.2,0.1,1.8C-36.2,1545.3,80,1451.2,176.7,1433.6z"/>
		<path class="st1" d="M120.4,1297.2c-99.6,25.8-134.8,78.1-156.7,127.2c1.2-0.4,2.4-0.7,3.6-1
			C28.3,1406.7,72.6,1336.4,120.4,1297.2z"/>
		<path class="st1" d="M49,1640.8c91-62.3,223.1-130,204.4-172c0,0-89.6,8.8-222.4,109.5c-29.8,22.6-66.1,57.2-104.6,97.2
			c15.2,11.1,36.4,19.7,65.3,24.5C-8.3,1690.1,2.9,1672.4,49,1640.8z"/>
		<path class="st1" d="M1117.8,1508.1l-129.6,61.3l-113.9,32c40.8,4.6,78.4,8.3,89.3,7c24-2.9,44.7-6.7,62.3-11.5
			c50.4-18.4,63.9-33.9,63.9-33.9s1.9-0.2,5.1-0.8C1110.6,1546.8,1117.3,1528.5,1117.8,1508.1z"/>
		<path class="st1" d="M541.7,1363.4c-20.9-7-40.3-15.1-57.7-23.2c-29.7,25.7-56.3,53.8-75.8,83.6c-88.1,135-134.6,82.7-226,200
			c-19,24.4-38,47.7-56.8,70.1c60.1-12.5,134.3-34.4,195.3-52.8c32.5-29.2,56.3-51.8,67-64C442.1,1514.1,465,1425.4,541.7,1363.4z"
			/>
		<path class="st1" d="M657.1,1566.2c83.6-8.5,177.2-105.3,177.2-105.3s65.1-53,130.1-90.1c-47.6-9.4-102.8-11.7-159.6-5
			c-11.7,1.4-23,3.1-34.1,5.2l-0.5,0.1c-6.9,1.9-13.8,2.6-20.9,4.3c-4,0.9-8,1.9-11.9,2.9c-13,3.1-25.9,5.1-38.9,6.3
			c-1.3,5.4-2.4,10.8-3,16c-9,80.4-162.5,146.9-162.5,146.9s-62.6,21.5-118.2,74.8c42.8-1.2,102,0.2,137.8,0.6
			C571.3,1601,605.4,1571.4,657.1,1566.2z"/>
	</g>
	<path class="st1" d="M-90.9,1534.7c0,0-19.1,29.8-17.3,75.2l28.1-34.9L-90.9,1534.7z"/>
</g>
<path class="st4" d="M16.5,1731.5c70-0.6,226-49.7,317-77.3c29.1-8.8,178.6-2.6,210.4-3.9c83.9-3.6,110-30.2,173.3-34.6
	c23.6,0.3,187.4,23.2,212,20.3c147.7-17.6,168.5-73.4,147.3-145c-21.2-71.5-158.2-115.3-306-97.6c-11.7,1.4-22,1.8-33.1,3.8
	l-2.4,0.5c-6.9,1.9-12.9,3.5-20,5.2c-4,0.9-8,1.9-11.9,2.9c-139.6,32.9-281.4-49.1-326.2-78.4c-10.4-6.8-22.1-12.3-34.7-16.1l0,0
	c-41.8-12.6-86.5-15.6-128.5-8.5c-26.2,4.4-52.3,9-65.4,10.5c-231.7,27.6-210.7,165.1-260,223.4
	C-127,1554.9-220.5,1733.6,16.5,1731.5z"/>
<path class="st1" d="M-1109.1-1127.7l3,7.8c-51.4,28.7-102.6,61-153,96.7c-436.6,309.8-624.4,373.5-620.5,635.8
	c1.2,81.9,134.7,835.2,629.5,616.4"/>
<path class="st6" d="M217.2,682.9L217.2,682.9c20.5-2.2,40.4-8.4,58.7-18c192.3-101.4,318.8-84.6,454.3-68.7
	c168.6,19.9,180.2,324.1,390.8,166.8c299.8-223.9,381.9-87,424.3-81.2c81.4,11,187,59.8,330.5-92.3c172.3-182.6,124-259.2,85-358.8
	c-26.5-67.5-96.4-112.8-151.5-132.4c-179.6-63.9-397.8-133.8-597.5-62.6c-18.1,6.5-32.4,13.8-49,19.8
	c-250.1,91.9-320.4,79.2-410.1,52.4c-19.6-5.9-41.3-16.3-59.9-25.1C427.3-42.3,218.5,16.5,87,46.8
	c-213.6,72.6-503.4,201.8-476.4,342.1C-357.4,555.1-203.4,733.2,217.2,682.9z"/>
</svg>
