<?xml version="1.0" encoding="utf-8"?>
<!-- Generator: Adobe Illustrator 26.3.1, SVG Export Plug-In . SVG Version: 6.00 Build 0)  -->
<svg version="1.1" id="Calque_1" xmlns="http://www.w3.org/2000/svg" xmlns:xlink="http://www.w3.org/1999/xlink" x="0px" y="0px"
	 viewBox="0 0 70.7 316.6" style="enable-background:new 0 0 70.7 316.6;" xml:space="preserve">
<style type="text/css">
	.st0{fill:#FFFFFF;}
	.st1{fill:#FFCC00;}
	.st2{fill:#9ED2C1;}
	.st3{fill:#51B2DD;}
	.st4{fill:none;stroke:#2D2523;stroke-width:3;stroke-miterlimit:10;}
	.st5{fill:#EA535B;}
	.st6{fill:#EA5059;}
	.st7{fill:#4163AC;}
	.st8{fill:#362D2B;}
	.st9{fill:none;}
	.st10{clip-path:url(#SVGID_00000080167309592919205020000000326271808825855143_);fill:#EA535B;}
	.st11{clip-path:url(#SVGID_00000080167309592919205020000000326271808825855143_);fill:#2D2523;}
	.st12{clip-path:url(#SVGID_00000080167309592919205020000000326271808825855143_);}
	.st13{fill:#9FD2C1;}
	.st14{fill:#2D2523;}
	.st15{clip-path:url(#SVGID_00000080167309592919205020000000326271808825855143_);fill:none;}
	.st16{clip-path:url(#SVGID_00000080167309592919205020000000326271808825855143_);fill:#4163AC;}
	.st17{clip-path:url(#SVGID_00000080167309592919205020000000326271808825855143_);fill:#9FD2C1;}
	.st18{clip-path:url(#SVGID_00000080167309592919205020000000326271808825855143_);fill:#FFD545;}
	.st19{clip-path:url(#SVGID_00000080167309592919205020000000326271808825855143_);fill:#52B3DD;}
	.st20{fill:#3D4495;}
	.st21{opacity:0.1;}
	.st22{fill:#201C16;}
	.st23{fill:none;stroke:#14120D;stroke-width:1.2358;stroke-miterlimit:10;}
	.st24{fill:none;stroke:#14120D;stroke-width:0.9664;stroke-miterlimit:10;}
	.st25{fill:none;stroke:#14120D;stroke-miterlimit:10;}
	.st26{fill:#FDFDFE;}
	.st27{fill:#FFECC9;}
	.st28{fill:#4064AD;}
	.st29{fill:#9ED1C0;}
	.st30{fill:#EA555A;}
	.st31{fill:#27241F;}
	.st32{fill:#13110C;}
	.st33{clip-path:url(#SVGID_00000147920105291259096630000009722754551703047607_);}
	.st34{fill:#3B373D;}
	.st35{clip-path:url(#SVGID_00000147920105291259096630000009722754551703047607_);fill:#3B373D;}
	.st36{clip-path:url(#SVGID_00000121992585037873562730000016519259268116392075_);}
	.st37{clip-path:url(#SVGID_00000121992585037873562730000016519259268116392075_);fill:#3B373D;}
	.st38{clip-path:url(#SVGID_00000046329699530672528370000002598582466988797621_);fill:#E1E0E0;}
	.st39{clip-path:url(#SVGID_00000046329699530672528370000002598582466988797621_);fill:#CECBCB;}
	.st40{clip-path:url(#SVGID_00000046329699530672528370000002598582466988797621_);fill:none;}
	.st41{fill:#202548;}
	.st42{fill:#E52635;}
	.st43{fill:#13120D;}
	.st44{fill:#E52A12;}
	.st45{fill:#15140F;}
	.st46{fill:#006434;}
	.st47{fill:#FEFEFE;}
	.st48{fill:none;stroke:#000000;stroke-width:2;stroke-miterlimit:10;}
	.st49{fill:none;stroke:#000000;stroke-width:2;}
</style>
<path class="st7" d="M1236.8-269.4c-44.5,64.5-99.4,151.1-111.1,202C1105.3,21.1,980,51.8,945.8,151.2c-6,17.3-14.6,37.5-24.9,59.3
	c-10.5,22.4-22.8,46.5-35.6,71.3c-13.5,26.1-27.7,53-41.2,79.1c0,0-129.6,218.6-119.1,318.3c10.5,99.7-93.8,253.2-93.8,253.2
	L582,1072l-0.1,0c0,0-3.1,12.4-124.6,278.7c-39.2,85.8-39.3,153.3-79.5,269.4c-19.5,56.4-54.4,113-85,156.3
	c-26.4,37.2-41.7,81.1-44.5,126.7c-1.2,20-10.8,44.8-39.1,72c-64.3,61.6-114.2,108.8-123.5,117.6l-11.1,15.8c0,0-17,161.9-4.7,160
	c2.1-0.3,9.5-9.3,20.1-24c41-29.3,229.6-173.8,267.5-372.6c42.6-223.3,156.4-357.3,222.6-545.4c69.4-197.6,201.2-161.2,174.7-254.4
	c0,0-25.1-110,14.2-196.2c39.4-86.2,109.1-347.8,103.5-434.3c-0.6-9-0.9-17.1-1-24.5c47.2-100,113.9-216.3,185.5-261.8
	C1193,68.9,1211.7,11,1211.7,11s52.2-27.9,83.9-100.7l96.1-179.7H1236.8z"/>
<g>
	<path class="st3" d="M4.9,211.5V47.3h44.2v164.2H4.9z"/>
	<path class="st6" d="M20.4,60.4c-2.3,0.2-5.6-1.9-5.9-4.1c-0.2-2.3,2.5-5.7,4.8-5.9s4.5,3.3,4.7,5.5C24.3,58.1,22.7,60.1,20.4,60.4
		z"/>
	<path class="st6" d="M33,84.3c-3.7,0.4-6.3-3.8-6.7-7.5s2.2-7,5.9-7.4s8,2.5,8.4,6.2C41.1,79.3,36.7,83.9,33,84.3z"/>
	<path class="st6" d="M36,65.6c-1.4,0.2-4.1-0.7-4.3-2.1c-0.2-1.4,2.1-4.5,3.5-4.7s3.9,2.4,4,3.8C39.4,64.1,37.4,65.5,36,65.6z"/>
	<circle class="st6" cx="9.3" cy="65.7" r="4.1"/>
	<path class="st6" d="M26.6,65.4c-1.2,0.1-3.5-1.9-3.6-3.1s1.6-3.9,2.8-4c1.2-0.1,2.4,2.2,2.6,3.4S27.8,65.2,26.6,65.4z"/>
	<path class="st6" d="M18.7,75.5c-1.8,0.2-4.3-1-4.5-2.9c-0.2-1.8,1.8-5.3,3.6-5.5c1.8-0.2,3.7,2.8,3.9,4.6
		C21.9,73.7,20.5,75.3,18.7,75.5z"/>
	<circle class="st6" cx="25.1" cy="70.1" r="2"/>
	<path class="st6" d="M20.5,87.1c-1.6,0.2-3.9-1.7-4.1-3.3c-0.2-1.6,1.7-3.7,3.3-3.9c1.6-0.2,3.2,2.4,3.3,4
		C23.2,85.5,22,87,20.5,87.1z"/>
	<path class="st6" d="M20.2,193.3c0,2.3-2.5,5.4-4.7,5.4s-5.4-3.1-5.4-5.4c0-2.3,3.7-4.1,6-4.1S20.2,191,20.2,193.3z"/>
	<path class="st6" d="M45.3,183.3c0,3.7-4.5,5.8-8.1,5.8c-3.7,0-6.7-3-6.7-6.7s3.4-7.7,7.1-7.7C41.3,174.8,45.3,179.6,45.3,183.3z"
		/>
	<path class="st6" d="M27.1,178.4c0,1.4-1.1,4-2.6,4c-1.4,0-4.2-2.6-4.2-4c0-1.4,2.8-3.6,4.2-3.6C26,174.8,27.1,176.9,27.1,178.4z"
		/>
	<circle class="st6" cx="24.3" cy="204.9" r="4.1"/>
	<path class="st6" d="M25.8,187.6c0,1.2-2.2,3.2-3.5,3.2c-1.2,0-3.7-2-3.7-3.2s2.5-2.2,3.7-2.2C23.6,185.5,25.8,186.4,25.8,187.6z"
		/>
	<path class="st6" d="M35,196.6c0,1.9-1.5,4.2-3.4,4.2c-1.9,0-5-2.3-5-4.2c0-1.9,3.2-3.4,5-3.4C33.5,193.3,35,194.8,35,196.6z"/>
	<circle class="st6" cx="30.3" cy="189.6" r="2"/>
	<path class="st6" d="M46.8,196.1c0,1.6-2.1,3.7-3.7,3.7c-1.6,0-3.5-2.1-3.5-3.7s2.8-2.9,4.4-2.9C45.5,193.3,46.8,194.5,46.8,196.1z
		"/>
	<path class="st6" d="M18.1,123.4c0,1.2-2.2,3.2-3.5,3.2s-3.7-2-3.7-3.2c0-1.2,2.5-2.2,3.7-2.2S18.1,122.2,18.1,123.4z"/>
	<path class="st6" d="M27.3,148.5c0,1.9-1.5,4.2-3.4,4.2s-5-2.3-5-4.2c0-1.9,3.2-3.4,5-3.4S27.3,146.7,27.3,148.5z"/>
	<circle class="st6" cx="25.1" cy="134.6" r="2"/>
</g>
<path class="st14" d="M66.4,226.2H20V59.8h46.4V226.2z M22.1,224.1h42.1V61.9H22.1V224.1z"/>
</svg>
