<?xml version="1.0" encoding="utf-8"?>
<!-- Generator: Adobe Illustrator 26.3.1, SVG Export Plug-In . SVG Version: 6.00 Build 0)  -->
<svg version="1.1" id="Calque_1" xmlns="http://www.w3.org/2000/svg" xmlns:xlink="http://www.w3.org/1999/xlink" x="0px" y="0px"
	 viewBox="0 0 168.8 316.6" style="enable-background:new 0 0 168.8 316.6;" xml:space="preserve">
<style type="text/css">
	.st0{fill:none;}
	.st1{fill:#EA5059;}
	.st2{fill:#51B2DD;}
	.st3{fill:#2D2523;}
</style>
<g>
	<polyline class="st0" points="57.4,262.6 57.4,262.9 60.9,262.9 	"/>
	<polygon class="st1" points="76.6,301 86.2,262.9 66.7,262.9 43.9,301 	"/>
	<polygon class="st1" points="138.2,301 138.2,262.9 117.4,262.9 121.2,301 	"/>
	<polygon class="st1" points="17.2,53.3 14.8,170 57.7,53.3 	"/>
	<polygon class="st1" points="108.7,301 113.2,262.9 102,262.9 87.2,301 	"/>
	<polygon class="st1" points="58.7,96.7 14.8,171.7 14.8,201.2 57.4,166.6 	"/>
	<polygon class="st2" points="57.4,166.6 14.8,201.2 14.8,211.7 57.4,169.2 	"/>
	<polygon class="st1" points="14.8,211.7 14.8,224.8 14.8,234.6 14.8,241.8 57.4,221.8 57.4,210.5 57.4,194.8 57.4,169.2 	"/>
	<polygon class="st2" points="57.4,221.8 14.8,241.8 14.8,249.2 57.4,238 	"/>
	<polygon class="st1" points="57.4,262.9 57.4,262.6 57.4,248.6 57.4,238 14.8,249.2 14.8,270.8 14.8,277.7 14.8,301 29.8,301 
		60.9,262.9 	"/>
	<polygon class="st2" points="66.7,262.9 60.9,262.9 29.8,301 43.9,301 	"/>
	<polygon class="st2" points="87.2,301 102,262.9 86.2,262.9 76.6,301 	"/>
	<polygon class="st2" points="59.8,53.3 57.7,53.3 14.8,170 14.8,171.7 58.7,96.7 	"/>
	<polygon class="st2" points="121.2,301 117.4,262.9 113.2,262.9 108.7,301 	"/>
	<path class="st3" d="M114.5,312H21.4l0,0H7.2V180.1L9.6,63.3v-0.8H54v1L52.8,107l-1.3,69.9V272l2.7,0.3h78.1V312H114.5z
		 M24.9,310.3h105.7V274H54.1l-4.4-0.5v-96.7L51,107l1-42.6H11.3L8.9,180.1v130L24.9,310.3L24.9,310.3z"/>
</g>
</svg>
