<?xml version="1.0" encoding="utf-8"?>
<!-- Generator: Adobe Illustrator 26.3.1, SVG Export Plug-In . SVG Version: 6.00 Build 0)  -->
<svg version="1.1" id="Calque_1" xmlns="http://www.w3.org/2000/svg" xmlns:xlink="http://www.w3.org/1999/xlink" x="0px" y="0px"
	 viewBox="0 0 2130.6 1426.3" style="enable-background:new 0 0 2130.6 1426.3;" xml:space="preserve">
<style type="text/css">
	.st0{fill:#907BBA;}
	.st1{fill:#FFCB00;}
	.st2{fill:#E9525A;}
	.st3{fill:#E95059;}
	.st4{fill:none;stroke:#2D2422;stroke-width:3;stroke-miterlimit:10;}
	.st5{fill:#FDFDFE;}
	.st6{fill:none;}
</style>
<polygon class="st1" points="1.9,1426.3 3,1426.3 1.9,1420.6 "/>
<polygon class="st6" points="1.9,1426.3 3,1426.3 1.9,1420.6 "/>
<path class="st1" d="M2127.9,899.6v526.7h-92.6h-224h-180.1h-23h-109.9h-57.2h-144h-141.9h-85.9H852.8h-97.7h-234H288.7H146.5H3H1.9
	v-5.7v-347.8V757.8V596.1c-59.6,81.8-118.8,152.4-143,149.1L-84,358.2h-104.4v1177.6H2129V358.2h-1.1v0V899.6z"/>
<path class="st1" d="M1.9-13.5v-190.1c-92.2,67.7-177.4,141.3-245.4,204c3.7,54.4,25.4,107.7,79.8,147.4
	C-105.4,87.2-49.3,32,1.9-13.5z"/>
<path class="st1" d="M202.9,480.7c-30.4-25.1-120.6,125.2-201,277v315.1c58.7-169.2,170.2-355.9,170.2-355.9
	S261.9,529.5,202.9,480.7z"/>
<path class="st1" d="M972.9,17.3c-2.7,2.5-5.4,5-8.1,7.6c0,0,0,0,0,0c0,0,0.1,0.1,0.1,0.1c3-2.9,6-5.7,9-8.5
	C973.6,16.8,973.2,17.1,972.9,17.3z"/>
<path class="st1" d="M747.3,68.1C747.3,68.1,747.3,68.1,747.3,68.1C747.3,68.1,747.3,68.1,747.3,68.1
	C747.3,68.1,747.3,68.1,747.3,68.1z"/>
<path class="st1" d="M163.6,356.1l132.3-166l0.2-0.1c43.4-51.6,87.1-105.4,131-161.7c211-270.9,318.5-150.1,522-462.1
	c43.9-67.2,103.4-130.5,169.8-188.5l-14.2-9.6v-2.1h-76.8c-49.3,34.5-71.5,37.4-123.6,60.6c-15.3,6.8-136.3,65.7-151.5,72.8
	c-69,32.3-77.6,41.7-338.4,89.4C282.4-387,134.9-301.3,1.9-203.6v0.1v190.1c26.8-23.9,52.3-45.1,76-63
	c306.9-232.7,513.8-253,513.8-253c43.1,97-262.2,253.2-472.4,397.3C54.2,112.3,19.2,145,1.9,168.8c-11,15.1-14.9,26.7-14.8,35.6
	c-12.1-2-23.6-4.3-34.6-6.9l-14,8.4L-84,358.2h245.7C162.2,357.4,162.9,356.7,163.6,356.1z"/>
<path class="st1" d="M1.9,596.1v-2.5c72.5-98.8,145.8-213.3,159.8-235.3l0,0H-84l-57.1,386.9C-116.9,748.4-57.7,677.8,1.9,596.1z"/>
<path class="st1" d="M477,322.6c-8.6,9.5-16.9,18.9-25,28.3l0,0C457.5,344.6,466,334.9,477,322.6z"/>
<path class="st1" d="M707.2,345.3c0.3,4.4,0.9,8.7,1.8,12.9h0.4C708.4,354.4,707.6,350.1,707.2,345.3z"/>
<polygon class="st1" points="709.4,358.2 709.4,358.2 709,358.2 709,358.2 "/>
<path class="st1" d="M958.3,30.1c2.2-1.7,4.4-3.3,6.6-5C964.9,25,962.6,26.8,958.3,30.1z"/>
<path class="st1" d="M2011.1,358.2h116.8V101.6c-29.6,49.1-61.5,105.5-86.5,158.3C2030.4,287.4,2019.4,320.5,2011.1,358.2z"/>
<path class="st1" d="M2011.1,358.2c-16.4,74.7-22.4,167.7,1.6,272.6c23.8,104.7,68.8,196,115.2,268.8V358.2v0L2011.1,358.2
	C2011.1,358.2,2011.1,358.2,2011.1,358.2z"/>
<path class="st1" d="M1712.5,358.2H1945c9.4-16.7,17.1-34.2,23.1-52.4l39.3-118.1l0.2,0c4.2-46.9-7.3-87.6-51.2-104.1
	c-132.3-49.7-208.7,106.6-208.7,106.6l0.1-0.4C1716.5,249.9,1710.7,312.2,1712.5,358.2L1712.5,358.2
	C1712.5,358.2,1712.5,358.2,1712.5,358.2z"/>
<path class="st1" d="M1712.5,358.2c4.4,133.9,90,289.7,190.5,414.5s20.8,339.7-55.5,492.2c-36.9,73.7-41.3,126.5-36.1,161.4h224
	l16.4-162.2c6.9-68,5.7-136.6-3.7-204.3c-18.6-134.9-57-358.8-116.6-459.2c-61.6-103.7-27.9-180.7-1.9-217.8
	c5.6-7.9,10.7-16.2,15.5-24.6c0,0,0,0,0,0L1712.5,358.2C1712.5,358.2,1712.5,358.2,1712.5,358.2z"/>
<path class="st1" d="M972.9,17.3c-3.2,2.4-6.2,4.8-8.7,7c0.2,0.2,0.4,0.4,0.7,0.6c0,0,0,0,0,0C967.5,22.4,970.2,19.9,972.9,17.3z"/>
<path class="st2" d="M-177.5-192.5l-17.3,49.2l15.7,58.9l-64.7,80.6l-0.1,0.2c0,0.7,0.1,1.3,0.1,2c0,0.7,0.1,1.3,0.2,2.1
	C-175.5-62.3-90.3-135.9,1.9-203.6v-130.1C-55.6-287.6-118.2-239.4-177.5-192.5z"/>
<path class="st2" d="M1.9-13.4C-49.2,32.1-105.4,87.3-163.6,147.8c0,0,0,0-0.1,0c0,0,0,0,0,0c28.8,20.9,66.8,38.1,116.2,49.7
	L1.9,168V-13.4z"/>
<path class="st2" d="M1.9-13.4L1.9-13.4C-49.3,32-105.4,87.2-163.6,147.8c0,0,0,0,0.1,0C-105.4,87.3-49.2,32.1,1.9-13.4z"/>
<path class="st2" d="M1.9,168.8V168l-49.4,29.6c11,2.6,22.5,4.9,34.6,6.9C-13,195.6-9.1,184,1.9,168.8z"/>
<path class="st2" d="M1.9,168v0.8C19.2,145,54.2,112.3,119.3,67.7C329.5-76.4,634.8-232.6,591.7-329.6c0,0-206.9,20.3-513.8,253
	c-23.7,18-49.2,39.2-76,63v0.1V168z"/>
<path class="st2" d="M901.9-79.8C1027.6-225,1080.5-430,1257.6-573.3c0,0,0,0-0.1,0c-177.1,143.3-230,348.3-355.8,493.6
	C877.2-51.5,822,0.7,747,68.1c0.1,0,0.2-0.1,0.3-0.1C822.3,0.7,877.4-51.5,901.9-79.8z"/>
<path class="st2" d="M1283.4,26.2c20.2-23.8,48.2-51.5,84.8-75.4c-36.6,23.9-64.8,51.7-84.9,75.4c0,0,0,0,0.1,0L1283.4,26.2z"/>
<path class="st1" d="M963.3,25c0.5,0,1,0,1.5,0c-0.2-0.2-0.4-0.4-0.7-0.6C963.9,24.5,963.6,24.8,963.3,25z"/>
<path class="st1" d="M747.2,68.1C747.2,68.1,747.3,68.1,747.2,68.1C747.2,68.1,747.1,68.1,747.2,68.1c-0.1,0-0.1,0-0.2,0
	C747.1,68.2,747.2,68.2,747.2,68.1z"/>
<polygon class="st1" points="964.9,25 964.9,25 964.9,25 "/>
<path class="st1" d="M747.1,68.2C747.1,68.2,747.1,68.2,747.1,68.2c-119,92.4-220.6,199.5-270,254.4
	C590.7,197.4,743.7,70.9,747.1,68.2z"/>
<path class="st1" d="M747.1,68.1C747.1,68.2,747.1,68.2,747.1,68.1C747.1,68.2,747.1,68.2,747.1,68.1
	C747.1,68.2,747.1,68.1,747.1,68.1z"/>
<path class="st1" d="M1283.3,26.3C1283.2,26.3,1283.2,26.3,1283.3,26.3C1283.2,26.3,1283.2,26.3,1283.3,26.3
	C1283.2,26.3,1283.3,26.3,1283.3,26.3z"/>
<path class="st1" d="M1283.3,26.3c0,0,0.1-0.1,0.1-0.1L1283.3,26.3C1283.3,26.3,1283.3,26.3,1283.3,26.3
	C1283.3,26.3,1283.2,26.3,1283.3,26.3C1283.3,26.3,1283.3,26.3,1283.3,26.3z"/>
<path class="st1" d="M1283.2,26.3c0,0-0.1,0.1-0.1,0.1c0,0,0.1,0,0.1,0c0-0.1,0.1-0.1,0.1-0.1h0
	C1283.3,26.3,1283.2,26.3,1283.2,26.3z"/>
<path class="st1" d="M1283.2,26.3C1283.2,26.3,1283.2,26.3,1283.2,26.3C1283.2,26.3,1283.2,26.3,1283.2,26.3
	C1283.2,26.3,1283.2,26.3,1283.2,26.3C1283.2,26.3,1283.2,26.3,1283.2,26.3z"/>
<path class="st1" d="M1283.2,26.3c0,0,0.1,0,0.1,0h0C1283.3,26.3,1283.3,26.3,1283.2,26.3C1283.2,26.3,1283.2,26.3,1283.2,26.3z"/>
<path class="st2" d="M163.6,356.1c-0.7,0.6-1.3,1.3-1.8,2.1h0.2L163.6,356.1z"/>
<rect x="161.7" y="358.2" class="st2" width="0.2" height="0"/>
<path class="st2" d="M452.1,350.9L452.1,350.9c-2.1,2.4-4.2,4.9-6.3,7.3h0C446.9,357,449,354.5,452.1,350.9z"/>
<polygon class="st2" points="445.8,358.2 445.8,358.2 445.9,358.2 445.9,358.2 "/>
<path class="st2" d="M1124.2-627L1124.2-627C1124.2-627,1124.2-627,1124.2-627c-0.2,0.2-0.5,0.4-0.7,0.6c-2.5,2.5-4.7,4.1-4.7,4.1
	l0,0c-66.4,58-125.9,121.3-169.8,188.5c-203.5,312-311,191.2-522,462.1c-43.9,56.3-87.6,110.2-131,161.7l-0.2,0.1l-132.3,166
	l-1.7,2.1l0,0h-0.2c-14,22-87.3,136.5-159.8,235.3v2.5v161.7c80.4-151.8,170.6-302.1,201-277c59,48.8-30.8,236.2-30.8,236.2
	S60.6,903.7,1.9,1072.9v347.8l1.1,5.7h143.5c0,0,88.1-702.9,301.3-1068.1h-2h0c0,0,0,0,0,0c2.1-2.4,4.1-4.9,6.2-7.3
	c8-9.4,16.4-18.8,25-28.3c49.4-54.9,151-162,270-254.4c0,0,0,0,0.1,0c0,0,0.1,0,0.2-0.1c0,0,0,0,0,0c-0.1,0-0.2,0.1-0.3,0.1
	C822,0.7,877.2-51.5,901.7-79.8c125.8-145.3,178.7-350.3,355.8-493.6c0,0,0,0,0.1,0c0,0,0,0,0,0c0,0,47.6-43.6,95.6-60.1
	c0.3-0.2,0.7-0.3,1-0.5H1129h0c-1,2.4-2.8,4.7-4.6,6.7L1124.2-627z"/>
<path class="st2" d="M447.8,358.2c1.4-2.4,2.9-4.9,4.3-7.3l0,0c-3.1,3.6-5.2,6-6.2,7.3H447.8z"/>
<polygon class="st2" points="445.9,358.2 445.9,358.2 447.8,358.2 447.8,358.2 "/>
<polygon class="st2" points="709.4,358.2 709.4,358.2 913.5,358.2 913.5,358.2 "/>
<g>
	<path class="st2" d="M938.4,297c70.8-160.2,91.7-238.3,89.9-273c0-0.6-0.1-1.1-0.1-1.7c-2.9-37.2-33.6-21.1-54.3-5.8
		c-3,2.8-6,5.6-9,8.5l0,0c-2.2,1.7-4.4,3.3-6.6,5C735.8,199.5,702.9,297.4,707.2,345.3c0.4,4.8,1.2,9.1,2.3,12.9"/>
	<path class="st2" d="M708.9,358.2c0,0,105.8,238.8,70.3,572.4c-19.2,180.6-50.9,407.8-24.1,495.7h97.7
		c-53.8-626.3,85.6-543.1,85.6-543.1c53.1,5.3,103.1,325.8,130.9,543.1h85.9c-39-174.5-148.7-730.3-47.5-1068.1h0.2c0,0,0,0,0,0
		c32.8-76.4,135.1-308.6,175.2-331.9c0,0,0.1,0,0.1-0.1c0,0,0,0,0,0c20.2-23.8,48.3-51.5,84.9-75.4c41.1-26.9,92.9-49.1,156-55.5
		c179.4-18.2,378.7-212.4,406.2-240c2.1-2.1,3.1-3.2,3.1-3.2s0,0,0,0c0.1-0.1,0.1-0.1,0.1-0.1s18.3-14.9,48.6-38
		c35.6-27.2,87.6-65.5,145.7-104.2c9.4-6.3,19-12.6,28.7-18.8c25.4-16.3,51.5-32.4,77.7-47.3c-34-6.7-69.6-11.9-106.4-15.3V-634
		h-432.7c0,0,0,0,0,0c-17.5,16.1-64.9,63.2-74.4,106.8c-0.2,1-0.4,2-0.6,2.9c0,0,0,0,0,0c0,0,0,0,0,0c0,0,0,0,0,0
		c-0.1,0.5-0.2,1-0.4,1.5c-2.9,12-5.1,23.9-6.4,35.6c-17.1,151.7-256.8,282-344.1,324.7c-46.3,35.5-94,98.3-134.6,181.8
		c-0.8,1.7-1.6,3.4-2.5,5.1c-36.2,75.8-66.6,168.3-85.1,272.6c-3.8,21.7-8.7,42.1-14.4,61.2c0,0,0,0,0,0h0"/>
</g>
<polygon class="st2" points="1712.5,358.2 1712.5,358.2 1712.5,358.2 1712.5,358.2 "/>
<polygon class="st2" points="1712.5,358.2 1712.5,358.2 1712.5,358.2 1712.5,358.2 "/>
<polygon class="st2" points="1685.2,358.2 1685.2,358.2 1494.2,358.2 1494.2,358.2 "/>
<polygon class="st2" points="1685.2,358.2 1494.2,358.2 1494.2,358.2 1685.2,358.2 "/>
<polygon class="st2" points="1712.5,358.2 1712.5,358.2 1685.2,358.2 1685.2,358.2 "/>
<polygon class="st2" points="1712.5,358.2 1712.5,358.2 1685.2,358.2 1685.2,358.2 "/>
<polygon class="st2" points="1494.2,358.2 1494,358.2 1494,358.2 1494.2,358.2 "/>
<polygon class="st2" points="1494.2,358.2 1494.2,358.2 1494,358.2 1494,358.2 "/>
<path class="st2" d="M1847.5,1264.9c76.3-152.5,156-367.4,55.5-492.2s-186.1-280.6-190.5-414.5h0h-27.3h-191.1h-0.1
	c0,0,211.4,196.2,235.7,476.9c18.6,215-60.4,479.3-98.5,591.2h180.1C1806.2,1391.4,1810.7,1338.6,1847.5,1264.9z"/>
<path class="st2" d="M2127.9-51.8v0.5c-3.4,0.9-7.2,1.8-11.5,2.7l-90.3,25.4l-0.3,0.1c-0.3,0-0.5-0.1-0.8-0.1c0.4,0,0.7,0,0.8,0
	c0,0,0,0,0,0l0.1,0l89.3-25.1c-15.9,3.2-38.5,5.9-71.4,5.4c-16.5-0.2-43.2,0.4-76.4,2.7c-15.8,1.1-33,2.5-51.3,4.4
	C1695.3-13,1321.1,73.9,1494,358.2v0h0.1h191.1h27.3c-1.7-46.1,4-108.3,35.3-168.4l-0.1,0.4c0,0,76.4-156.3,208.7-106.6
	c43.9,16.5,55.4,57.1,51.2,104.1l-0.2,0l-39.3,118.1c-6,18.2-13.8,35.7-23.1,52.4h66.1c8.3-37.7,19.2-70.8,30.3-98.4
	c25-52.7,56.9-109.1,86.5-158.3V24.1V-4.1v-8.4c-7.6-0.7-15.4-1.5-23.4-2.3l23.4-4.1v6.3c49.7,4.7,88.7,7.2,104.1,5.4
	c55.5-6.6,103.2-15.6,144-26.6c116.4-42.6,147.7-78.2,147.7-78.2s0.3,0,0.9-0.1c1.4-0.2,4.7-0.7,9.5-1.6c0.5-0.1,1-0.2,1.5-0.3
	c36.5-35.6,52-77.8,53-124.9L2289.1-97.1L2127.9-51.8z"/>
<path class="st2" d="M1929.5,382.8c-26,37.1-59.7,114.1,1.9,217.8c59.6,100.4,98,324.3,116.6,459.2c9.4,67.7,10.6,136.3,3.7,204.3
	l-16.4,162.2h92.6V899.6c-46.4-72.8-91.4-164.1-115.2-268.8c-23.9-104.9-18-197.9-1.6-272.6c0,0,0,0,0,0H1945c0,0,0,0,0,0
	C1940.3,366.7,1935.1,374.9,1929.5,382.8z"/>
<path class="st2" d="M1464.1,1124.8c0,0,79.4-406.5-154.2-495.3c-199.5-75.7-58.3,598.2-12.8,796.8h144
	C1426.8,1288.4,1464.1,1124.8,1464.1,1124.8z"/>
<path class="st2" d="M1398.7,302c-42.6-18.8-37.2,19.3-24.4,56.2h80.3C1435.4,330.1,1416.5,309.8,1398.7,302z"/>
<path class="st2" d="M1625.6,1160.9c-21.5-177.7,67.9-294.8,5.6-431.4c-47.6-104.5-114.1-279.8-176.6-371.3c0,0,0,0,0,0h-80.3
	c0,0,0,0,0,0c10,28.6,24.4,56.4,24.4,56.4s251.4,431.2,99.6,1011.7h109.9C1620.6,1384.9,1641.3,1290.6,1625.6,1160.9z"/>
<path class="st2" d="M466.5,1035.6c20.8-60.2,67-107.8,125.9-132c63.6-26.1,127.5-95.5,16.1-279.9
	c-178.2-295-294.9,352.2-294.9,352.2s-49.5,301.3-24.9,450.4h232.5C457.5,1366.6,392.7,1249.2,466.5,1035.6z"/>
<path class="st1" d="M938.4,883.2c0,0-139.4-83.2-85.6,543.1h216.5C1041.5,1209.1,991.6,888.5,938.4,883.2z"/>
<path class="st1" d="M1237.8-147.7c-3,1-139.9,48.8-265,165.1c0.3-0.3,0.7-0.5,1-0.8C1098.6-99,1234.8-146.7,1237.8-147.7z"/>
<path class="st1" d="M955,32.4c0,0,3.2-3.1,8.3-7.5c-1.6,0-3.3,0.1-4.9,0.1C956,30,955,32.4,955,32.4z"/>
<path class="st1" d="M960.3,21.5c-0.7,1.4-1.3,2.6-1.9,3.7c1.6-0.1,3.3-0.1,4.9-0.1c0.3-0.2,0.5-0.4,0.8-0.7
	C963,23.3,961.7,22.3,960.3,21.5z"/>
<polygon class="st1" points="709,358.2 708.9,358.2 708.9,358.2 708.9,358.2 709,358.2 "/>
<polygon class="st1" points="913.5,358.2 1032.8,358.2 1032.8,358.2 1032.8,358.2 913.5,358.2 "/>
<path class="st1" d="M1257.6-573.4L1257.6-573.4C1257.6-573.3,1257.6-573.3,1257.6-573.4C1080.5-430,1027.6-225,901.9-79.8
	C877.4-51.5,822.3,0.7,747.3,68.1c0,0,0,0,0,0c0,0,0,0,0,0c0,0-0.1,0.1-0.1,0.1c-0.1,0-0.1,0-0.2,0c-3.3,2.7-156.4,129.2-270,254.4
	c-11.1,12.3-19.5,22-24.9,28.3l0,0c-1.4,2.4-2.9,4.9-4.3,7.3c0,0,0,0,0,0C234.6,723.4,146.5,1426.3,146.5,1426.3h142.2
	c-24.6-149.1,24.9-450.4,24.9-450.4s116.7-647.2,294.9-352.2c111.4,184.4,47.5,253.8-16.1,279.9c-58.9,24.2-105.1,71.8-125.9,132
	c-73.8,213.5-9,330.9,54.7,390.7h234c-26.8-87.9,4.9-315.1,24.1-495.7c35.5-333.6-70.3-572.4-70.3-572.4h0v0h0.1
	c-1-4.2-1.6-8.5-1.8-12.9c-4.3-47.9,28.7-145.9,251.2-315.3c4.2-3.3,6.6-5,6.6-5c0,0,0,0,0,0l0,0c0,0-0.1-0.1-0.1-0.1
	c-0.5,0-1,0-1.5,0c-5.1,4.3-8.3,7.5-8.3,7.5s1-2.4,3.4-7.3c0.5-1.1,1.2-2.3,1.9-3.7c1.4,0.9,2.7,1.8,3.8,2.9c2.5-2.1,5.5-4.5,8.7-7
	c125-116.2,261.9-164,265-165.1c0,0,0.1,0,0.1,0s11.9-5.2,31.5-14.7c87.2-42.7,327-173.1,344-324.7c1.2-11.7,3.5-23.6,6.4-35.6
	c0.1-0.5,0.2-1,0.4-1.5c0,0,0,0,0,0v0c0.2-1,0.4-2,0.6-2.9c10.4-49.7,56-91.9,73.8-106.8h-340c0,0,0,0,0,0c-0.5,0.2-0.9,0.3-1.4,0.5
	C1317.9-617.5,1257.6-573.4,1257.6-573.4z"/>
<g>
	<path class="st1" d="M1237.9-147.8C1237.9-147.8,1237.9-147.7,1237.9-147.8c-3.1,1.1-139.3,48.7-264,164.3
		c20.7-15.4,51.4-31.4,54.3,5.8c0,0.6,0.1,1.1,0.1,1.7c1.8,34.7-19.1,112.8-89.9,273c-9.8,22.1-33.3,71.2-37.8,99.2l120.7-4
		c18.4-41.4,22-73.4,25.8-95.1c18.5-104.4,48.9-196.8,85.1-272.6c0.8-1.7,1.6-3.4,2.5-5.1c40.6-83.5,88.3-146.3,134.6-181.8
		C1249.8-152.9,1237.9-147.8,1237.9-147.8z"/>
	<path class="st1" d="M1032.8,358.2H913.5C821.7,607.6,972,562.5,1032.8,358.2z"/>
</g>
<path class="st1" d="M1933.5-347.9c-0.3,0.3-1.3,1.4-3.1,3.2c-27.2,27.3-226.7,221.9-406.3,240.1c-63.1,6.4-114.8,28.5-155.9,55.4
	c-36.5,23.9-64.6,51.6-84.8,75.4c0,0-0.1,0.1-0.1,0.1c0,0,0,0-0.1,0.1c0,0-0.1,0-0.1,0c0,0,0.1-0.1,0.1-0.1c0,0,0,0,0,0
	c-40.2,23.3-173.9,285.8-183.4,360.5l284.1-4.1c-12.8-36.9-27.8-99.5,14.8-80.7c17.8,7.8,48.4,46.1,67.7,74.3l53,8
	C1346.4,100,1695.3-13,1915.9-35.8c18.3-1.9,35.6-3.3,51.3-4.4c33.3-2.3,60-3,76.4-2.7c33,0.5,55.5-2.2,71.4-5.4l12.8-3.6v-438.3
	c-58.1,38.7-110.1,77-145.7,104.2C1952.1-363,1933.7-348,1933.5-347.9z"/>
<path class="st1" d="M1729.7,835.1C1705.4,554.5,1494,358.3,1494,358.2h-0.3c0,0,0,0,0,0h-39.1c0,0,0,0,0,0
	c62.5,91.5,129,266.8,176.6,371.3c62.3,136.6-27.1,253.7-5.6,431.4c15.7,129.6-5,223.9-17.4,265.4h23
	C1669.3,1314.4,1748.3,1050.1,1729.7,835.1z"/>
<path class="st1" d="M1398.7,414.6c0,0-14.4-27.8-24.4-56.4c0,0,0,0,0,0h-266.4c0,0,0,0,0,0h-0.2
	c-101.2,337.8,8.5,893.6,47.5,1068.1h141.9c-45.5-198.6-186.7-872.5,12.8-796.8c233.6,88.8,154.2,495.3,154.2,495.3
	s-37.3,163.6-22.9,301.5h57.2C1650.1,845.8,1398.7,414.6,1398.7,414.6z"/>
<path class="st1" d="M1493.7,358.2h0.3C1321.1,73.9,1695.3-13,1915.9-35.8C1695.3-13,1320.8,73.9,1493.7,358.2z"/>
<polygon class="st1" points="1493.7,358.2 1494,358.2 1494,358.2 1493.7,358.2 "/>
<polygon class="st2" points="708.9,358.2 948.8,273.3 900.7,396.2 874.5,404.6 "/>
</svg>
