<?xml version="1.0" encoding="utf-8"?>
<!-- Generator: Adobe Illustrator 26.3.1, SVG Export Plug-In . SVG Version: 6.00 Build 0)  -->
<svg version="1.1" id="Calque_1" xmlns="http://www.w3.org/2000/svg" xmlns:xlink="http://www.w3.org/1999/xlink" x="0px" y="0px"
	 viewBox="0 0 187 57" style="enable-background:new 0 0 187 57;" xml:space="preserve">
<style type="text/css">
	.st0{display:none;}
	.st1{display:inline;fill:#4062AB;}
	.st2{display:none;fill:#9DD1C0;}
	.st3{display:none;fill:none;stroke:#2D2422;stroke-width:3;stroke-miterlimit:10;}
	.st4{display:inline;fill:none;}
	.st5{display:inline;fill:#E95059;}
	.st6{display:inline;fill:#FFCB00;}
	.st7{display:inline;fill:#9DD1C0;}
	.st8{display:inline;fill:#51B1DC;}
	.st9{display:inline;}
	.st10{fill:#51B1DC;}
	.st11{fill:#E95059;}
	.st12{fill:#2D2422;}
	.st13{display:inline;fill:#2D2422;}
	.st14{fill:#3F63AB;}
	.st15{fill:#9CD0BF;}
	.st16{fill:none;}
	.st17{fill:#E9545A;}
	.st18{fill:#26241F;}
	.st19{fill:#12100B;}
</style>
<g class="st0">
	<path class="st1" d="M856.7-127c-16.7,0-32.2,8.3-41.5,22.1C777-48,735.8,20.2,726.1,62.2C707,145.2,589.6,173.8,557.5,267.1
		c-5.6,16.2-13.7,35.1-23.3,55.6c-9.9,21-21.3,43.6-33.4,66.8c-12.5,24.1-25.5,48.8-38,72.9c-0.4,0.8-0.8,1.5-1.3,2.3
		c-9.4,16.1-120.4,207.7-111,297.1c8.8,83.3-68,206.8-84.7,232.4c-2.1,3.3-3.9,6.8-5.2,10.6l-44.1,125l-0.1,0
		c0,0-2.9,11.6-116.8,261.1c-36.7,80.4-36.8,143.6-74.4,252.4c-17.2,49.7-47.1,99.5-74.4,139c-26.5,38.2-42.6,82.5-47.2,128.7
		c-1.8,18.3-11.1,40.6-36.4,64.9c-54.3,52.1-97.7,93.1-112.1,106.7c-2.4,2.3-4.6,4.8-6.5,7.6l0,0c-5,7.1-8,15.3-8.9,23.9
		c-3.6,36.9-12.5,138.2-3.1,136.7c1.7-0.3,6.8-6.3,14.4-16.5c3-4,6.5-7.5,10.4-10.4c48-35.4,210.7-166.9,244.6-344.7
		c39.9-209.2,146.6-334.7,208.5-511.1c65.1-185.2,188.5-151,163.7-238.4c0,0-23.5-103.1,13.3-183.8c36.9-80.8,102.2-325.9,97-406.9
		c-0.2-3.5-0.4-6.8-0.6-10.1c-0.4-8.3,1.3-16.5,4.9-23.9c43.8-91.1,104.1-193.3,168.6-234.2c95.6-60.7,129.4-106.4,140.3-125.5
		c3.6-6.3,8.5-11.8,14.3-16c15.6-11.1,46.8-38,68.3-86.4c0.5-1.1,1-2.2,1.6-3.3L936-53.5c17.8-33.3-6.3-73.5-44.1-73.5H856.7z"/>
	<path class="st1" d="M5.8,538.4c-88.7,331.5-203.2,549.7-250.8,632c-0.9,1.5,0.2,3.5,2,3.5h62.9c0.9,0,1.7-0.5,2.1-1.3
		C-88.6,990.1,147.2,506,175,418.2c34.3-108.6,17.5-246.2,104.3-354c42.6-52.8,62.8-105,72.3-144.4c0.4-1.5-0.8-2.9-2.3-2.9h-42.8
		c-0.7,0-1.4,0.3-1.8,0.9C249-10.1,168.2,110.9,145,230.4C108.7,418,50.6,370.7,5.8,538.4z"/>
	<path class="st1" d="M697.1-83H422.8c-1,0-1.9,0.6-2.2,1.6C404.2-29.6,384.3,51.1,395,112.5c17,96.7-96.1,221.7-99.1,225
		c0,0-0.1,0.1-0.1,0.1c-2.8,2.6-95.3,89.5-109.4,235.7c-12.8,133.3-204.6,522-243.9,600.4c0,0,0,0.1-0.1,0.1
		c-1.5,2.5-46.4,79.5-38.1,156.8c6.3,58.5-43.8,144-69.9,183.9c-9,13.7-15.6,28.9-19.6,44.8c-7.7,29.9-26.9,83.6-72.5,127
		c-0.5,0.4-0.7,1-0.7,1.7v94.6c0,2.2,2.7,3.2,4.1,1.5c48.9-57.4,142.3-174.3,167.1-256.2c33.7-111.7,138.8-260.3,159.3-354.2l0,0
		c76.1-153.4,170.3-385.8,257.3-719.2c0-0.1,0-0.2,0.1-0.3c0.5-4.2,12.5-98.1,83.1-133.7c71-35.8,123.7-175.9,125.4-180.4
		c0-0.1,0.1-0.1,0.1-0.2c2.6-5.2,97.3-193.6,160-218.6c2.1-0.9,1.8-4-0.4-4.4l0,0C697.4-83,697.3-83,697.1-83z"/>
	<path class="st1" d="M-116.9,600.6c60.9-101,156-220.7,130-266.1c-0.6-1.1-2.1-1.5-3.2-0.9c-12.5,7.2-83.5,52.5-162.5,198.6
		c-35.5,65.6-77.9,184.6-115.6,302.6c-0.1,0.2-0.1,0.5-0.1,0.7v173.7c0,2.5,3.4,3.2,4.4,1c59.2-129,116.6-266.1,127.3-308.5
		c0.3-1.3-0.6-2.7-1.9-2.9C-146.8,697.7-169,687-116.9,600.6z"/>
</g>
<path class="st2" d="M1206.1,47.8c54.3,15.9,197.6-26.3,274.2,0c25.6,8.8,138.8,39.7,163.9,45.9c51.2,12.7,80.9,3.7,115.2,4
	c17.5,0.2,34.8,4.2,50.7,11.6c39.2,18.2,90.9,57.8,136.9,61.6c121.6,10.1,158.2-31.3,169.2-105.7c11-74.4-78-149.1-198.7-167
	c-9.5-1.4-19-2.4-28.3-3.1l0-1.1c-6,0.2-12.1,0.3-18.2,0.4c-3.4-0.1-6.9-0.1-10.3,0c-120.5-1.1-198.6-114.5-221.8-153.4
	c-5.4-9-12.3-17-20.5-23.6v0c-27.4-22.1-60.8-35.6-95.9-38.6c-21.9-1.9-43.8-3.7-54.5-5.2c-189.4-28-225.8,110.3-286.2,155.1
	C1163-157.3,1022.4-6.2,1206.1,47.8z"/>
<path class="st3" d="M1167.2,65c54.3,15.9,194.3-13.2,274.2,0c31.5,5.2,138.8,39.7,163.9,45.9c50.1,12.4,79.6,4.1,113,4
	c18.5,0,36.8,4.1,53.6,11.9c39.5,18.4,85.6,54.2,136.2,61.3c120.9,17.1,158.2-31.3,169.2-105.7c11-74.4-78-149.1-198.7-167
	c-9.5-1.4-19-2.4-28.3-3.1l0-1.1c-6,0.2-12.1,0.3-18.2,0.4c-3.4-0.1-6.9-0.1-10.3,0c-120.5-1.1-198.6-114.5-221.8-153.4
	c-5.4-9-12.3-17-20.5-23.6v0c-27.4-22.1-60.8-35.6-95.9-38.6c-21.9-1.9-43.8-3.7-54.5-5.2c-189.4-28-225.8,110.3-286.2,155.1
	C1124.1-140.1,983.6,11,1167.2,65z"/>
<g class="st0">
	<path class="st4" d="M627.5,443c8.5-16.4,16.6-32.4,23.6-47.2l-5.3,4.2L627.5,443z"/>
	<path class="st5" d="M261.5,504.2c-0.7-2.6-11.9-2.6-15.6-2.3v8.1C250.2,509.2,262.4,507.1,261.5,504.2z"/>
	<path class="st4" d="M410.8,541c-1.2-1.2-2.7-2.1-4.3-2.7c-1.6-0.7-3.4-1-5.2-1h-18.5v25.6h18.5c1.8,0,3.6-0.3,5.2-1
		c1.6-0.7,3.1-1.6,4.3-2.7c1.2-1.2,2.2-2.5,2.9-4c0.7-1.5,1.1-3.2,1.1-5c0-1.8-0.4-3.5-1.1-5C413,543.5,412,542.2,410.8,541z"/>
	<path class="st6" d="M392.3,620.8c-8.3,0-16.1-1.5-23.3-4.6c-7.2-3.1-13.6-7.3-19-12.7c-5.4-5.4-9.7-11.6-12.8-18.9
		c-3.1-7.2-4.7-15-4.7-23.2c0-8.2,1.6-15.9,4.7-23.2c3.1-7.2,7.4-13.5,12.8-18.9c5.4-5.4,11.7-9.6,19-12.7c7.2-3.1,15-4.7,23.3-4.7
		c8.2,0,15.9,1.6,23.2,4.7c7.3,3.1,13.6,7.4,19,12.7c5.4,5.4,9.7,11.6,12.8,18.9c3.1,7.2,4.7,15,4.7,23.2c0,8.2-1.6,15.9-4.7,23.2
		c-3.1,7.2-7.4,13.5-12.8,18.9c-5.4,5.4-11.7,9.6-19,12.7C408.3,619.3,400.5,620.8,392.3,620.8z M392.3,530.7
		c-4.2,0-8.2,0.8-11.8,2.5c-3.6,1.7-6.7,3.9-9.3,6.7c-2.6,2.8-4.7,6.1-6.1,9.8c-1.5,3.7-2.2,7.6-2.2,11.8c0,4.1,0.7,8,2.2,11.7
		c1.5,3.8,3.5,7,6.1,9.8c2.6,2.8,5.7,5,9.3,6.7c3.6,1.7,7.5,2.5,11.8,2.5c4.2,0,8.2-0.8,11.8-2.5c3.6-1.7,6.7-3.9,9.3-6.7
		c2.6-2.8,4.7-6.1,6.1-9.8c1.5-3.8,2.2-7.7,2.2-11.7c0-4.1-0.7-8.1-2.2-11.8c-1.5-3.7-3.5-7-6.1-9.8c-2.6-2.8-5.7-5-9.3-6.7
		C400.5,531.5,396.6,530.7,392.3,530.7z"/>
	<path class="st5" d="M360.2,527.7c0,1.6-1.8,3.8-3.4,3.8c-1.6,0-3.8-2.2-3.8-3.8s2.7-2.9,4.3-2.9
		C358.9,524.8,360.2,526.1,360.2,527.7z"/>
	<path class="st5" d="M378.1,520.7c0,2.6-3.2,4.1-5.8,4.1c-2.6,0-4.7-2.1-4.7-4.7c0-2.6,2.4-5.5,5-5.5S378.1,518.1,378.1,520.7z"/>
	<path class="st5" d="M365.1,517.2c0,1-0.8,2.9-1.8,2.9s-3-1.9-3-2.9s2-2.6,3-2.6S365.1,516.2,365.1,517.2z"/>
	<circle class="st5" cx="363.1" cy="536" r="2.9"/>
	<path class="st5" d="M364.2,523.8c0,0.9-1.6,2.3-2.5,2.3c-0.9,0-2.6-1.4-2.6-2.3c0-0.9,1.7-1.6,2.6-1.6
		C362.6,522.2,364.2,522.9,364.2,523.8z"/>
	<path class="st5" d="M443.4,557c0,2.1-1.7,6-3.8,6c-2.1,0-3.2-1.8-3.2-3.9c0-2.1,0-3.8,2.1-3.8C440.6,555.3,443.4,554.9,443.4,557z
		"/>
	<path class="st5" d="M445.2,568.4c0,0.8-1.5,1.7-2.3,1.7s-2.1-0.9-2.1-1.7s0.6-2.3,1.4-2.3C443,566.1,445.2,567.6,445.2,568.4z"/>
	<path class="st5" d="M370.8,530.1c0,1.3-1.1,3-2.4,3s-3.6-1.7-3.6-3c0-1.3,2.3-2.4,3.6-2.4S370.8,528.8,370.8,530.1z"/>
	<circle class="st5" cx="367.4" cy="525.2" r="1.4"/>
	<path class="st5" d="M379.1,529.8c0,1.1-1.5,2.6-2.6,2.6c-1.1,0-2.5-1.5-2.5-2.6s2-2,3.1-2S379.1,528.7,379.1,529.8z"/>
	<path class="st7" d="M564.7,608.7l-24.4-43.5h-23.7l0.2,43.5H478V468.1h70.4c3.4,0,6.8,0.6,10.3,1.9c3.5,1.3,6.9,3,10.1,5.1
		c3.3,2.1,6.3,4.5,9.1,7.2c2.8,2.7,5.1,5.4,7.1,8.1c2.4,3.5,4.3,7.6,5.5,12.2c1.3,4.6,1.9,9.1,1.9,13.3c0,7-1.6,13.5-4.9,19.6
		c-3.3,6-7.8,11.1-13.6,15.2l33,58H564.7z M537.4,499.5h-21.9v30.2h21.9c2.2,0,4.2-0.4,6.2-1.2c1.9-0.8,3.6-1.9,5.1-3.2
		c1.4-1.4,2.6-3,3.4-4.8c0.8-1.8,1.3-3.8,1.3-5.9c0-2.2-0.4-4.1-1.3-5.9c-0.8-1.8-2-3.4-3.4-4.8c-1.4-1.4-3.1-2.5-5.1-3.2
		C541.6,499.9,539.6,499.5,537.4,499.5z"/>
	<path class="st5" d="M599.5,595.7c-0.7,1-1.8,1.6-3.1,1.6c-2.2,0-3.9-1.7-3.9-3.9c0-2,1.5-3.7,3.5-3.9l-22-38.7
		c5.8-4.1,10.3-9.2,13.6-15.2c3.3-6,4.9-12.6,4.9-19.6c0-4.2-0.6-8.7-1.9-13.3c-0.3-1.2-0.7-2.3-1.1-3.4c-0.7,0.2-1.3,0.3-2,0.3
		c-4.3,0-7.8-3.5-7.8-7.8c0-2.1,0.8-4,2.2-5.4c-1.2-1.4-2.5-2.7-3.9-4.1c-2.8-2.7-5.8-5-9.1-7.2c-3.3-2.1-6.6-3.8-10.1-5.1
		c-3.5-1.3-6.9-1.9-10.3-1.9h-9.9c-0.2,2.3-2,4.1-4.3,4.1s-4.2-1.8-4.3-4.1h-37.2c0.5,1.3,0.7,2.6,0.7,4.1c0,6.5-5.3,11.8-11.8,11.8
		c-1.2,0-2.4-0.2-3.6-0.5v16.1c0.2,0,0.5,0,0.7,0c3.5,0,8.3,2.8,8.3,6.4c0,3.5-4.8,6.4-8.3,6.4c-0.2,0-0.5,0-0.7,0v27.6
		c1-0.9,2.4-2.6,3.8-2.6c3.3,0,7.1,3.7,7.1,7s-3.9,6.1-7.1,6.1c-1.4,0-2.8-0.5-3.8-1.4v59.9h38.8l0-3c-0.4,0.1-0.8,0.2-1.2,0.2
		c-2.4,0-4.3-1.9-4.3-4.3c0-2.4,1.9-4.3,4.3-4.3c0.4,0,0.8,0.1,1.2,0.2l-0.1-32.2h17.9c0.3-6.2,4.1-11.1,8.7-11.1
		c4.8,0,10.7,5.3,10.7,11.8c0,4.8-4.1,8.9-7.1,10.8l18,32h42.2L599.5,595.7z M492.8,589.4c-2.8,0-9-3.4-9-7.7s6.2-7.7,9-7.7
		s7.8,3.4,7.8,7.7S495.6,589.4,492.8,589.4z M497.9,535.7c-2.5,0-7.4-3.1-7.4-6.9c0-3.8,4.9-6.9,7.4-6.9s6.7,3.1,6.7,6.9
		C504.6,532.6,500.5,535.7,497.9,535.7z M559.1,472.2c4,0,7.9,3.2,7.9,7.2c0,4-3.9,8.1-7.9,8.1c-4,0-7.2-4.1-7.2-8.1
		C551.9,475.4,555.1,472.2,559.1,472.2z M551.9,531.6c-2.8,0-5.2-1.6-6.4-4c-0.6,0.4-1.3,0.7-2,0.9c-1.9,0.8-4,1.2-6.2,1.2h-21.9
		v-30.2h21.9c2.2,0,4.2,0.4,6.2,1.2c1.9,0.8,3.6,1.9,5.1,3.2c1.4,1.4,2.6,3,3.4,4.8c0.8,1.8,1.3,3.8,1.3,5.9c0,1-0.1,1.9-0.3,2.8
		c3.4,0.6,6,3.5,6,7.1C559.1,528.4,555.9,531.6,551.9,531.6z M564.5,581.8c-3,0-5.4-3.2-5.4-7.2c0-4,2.4-7.2,5.4-7.2
		c3,0,5.4,3.2,5.4,7.2C569.9,578.6,567.5,581.8,564.5,581.8z"/>
	<path class="st4" d="M551.9,517.3c0.4,0,0.8,0,1.2,0.1c0.2-0.9,0.3-1.8,0.3-2.8c0-2.2-0.4-4.1-1.3-5.9c-0.8-1.8-2-3.4-3.4-4.8
		c-1.4-1.4-3.1-2.5-5.1-3.2c-1.9-0.8-4-1.2-6.2-1.2h-21.9v30.2h21.9c2.2,0,4.2-0.4,6.2-1.2c0.7-0.3,1.3-0.6,2-0.9
		c-0.5-1-0.7-2-0.7-3.2C544.7,520.5,548,517.3,551.9,517.3z"/>
	<path class="st8" d="M888.5,522.2v-45.9H746.6l-3.8,3.8v39.6c16.4-15.3,36.1-30.7,43.9-25.5c14.3,9.7-12.3,44.2-24.2,56.1
		c-5.8,5.8-13.4,12.9-19.6,18.8v21.5c10.6-7.1,24.4-14.5,30.8-10.7c8.9,5.4-19.5,33.4-30.8,44v8.6c11.3-1.6,25.3-2.5,25.1,2.4
		c-0.2,5.2-14.4,10.7-25.1,14.2v13.6h49.4v-69.7h84.9v-45.4h-84.9v-25.5H888.5z"/>
	<path class="st6" d="M783.2,498.7c-6.4-4.4-22.8,8.5-36.3,21.1v40.9c5.2-4.8,11.5-10.7,16.3-15.5
		C773,535.3,795.1,506.8,783.2,498.7z"/>
	<path class="st6" d="M769.9,583.2c-4.8-2.9-15.1,2.7-23.1,8v25C755.3,608.3,776.6,587.2,769.9,583.2z"/>
	<path class="st6" d="M762.7,637.1c0.1-2.9-8.1-2.4-14.7-1.4v9.7C754.3,643.4,762.6,640.1,762.7,637.1z"/>
	<path class="st6" d="M977.9,593.1c-9.1,0-17.7-1.7-25.6-5.1c-8-3.4-14.9-8-20.9-13.9c-5.9-5.9-10.6-12.8-14.1-20.8
		c-3.5-8-5.2-16.5-5.2-25.5c0-9,1.7-17.5,5.2-25.5c3.4-8,8.1-14.9,14.1-20.8c5.9-5.9,12.9-10.6,20.9-14c8-3.4,16.5-5.2,25.6-5.2
		c9,0,17.5,1.7,25.6,5.2c8,3.5,15,8.1,20.9,14c5.9,5.9,10.6,12.8,14.1,20.8c3.4,8,5.2,16.5,5.2,25.5c0,9-1.7,17.5-5.2,25.5
		c-3.5,8-8.1,14.9-14.1,20.8c-5.9,5.9-12.9,10.5-20.9,13.9C995.5,591.4,987,593.1,977.9,593.1z M977.9,493.9c-4.7,0-9,0.9-13,2.8
		c-4,1.9-7.4,4.3-10.3,7.4c-2.9,3.1-5.1,6.7-6.8,10.7c-1.6,4.1-2.5,8.4-2.5,13c0,4.5,0.8,8.8,2.5,12.9c1.6,4.1,3.9,7.8,6.8,10.8
		c2.9,3.1,6.3,5.5,10.3,7.4c4,1.9,8.3,2.8,13,2.8c4.7,0,9-0.9,13-2.8c4-1.9,7.4-4.3,10.3-7.4c2.9-3.1,5.1-6.7,6.8-10.8
		c1.6-4.1,2.5-8.4,2.5-12.9c0-4.6-0.8-8.9-2.5-13c-1.6-4.1-3.9-7.7-6.8-10.7c-2.9-3.1-6.3-5.5-10.3-7.4
		C986.9,494.8,982.6,493.9,977.9,493.9z"/>
	<path class="st5" d="M942.6,490.7c0,1.8-1.9,4.2-3.7,4.2s-4.2-2.4-4.2-4.2c0-1.8,2.9-3.2,4.7-3.2S942.6,488.9,942.6,490.7z"/>
	<path class="st5" d="M962.3,482.9c0,2.9-3.5,4.6-6.4,4.6c-2.9,0-5.2-2.3-5.2-5.2c0-2.9,2.7-6,5.5-6S962.3,480,962.3,482.9z"/>
	<path class="st5" d="M948,479c0,1.1-0.9,3.2-2,3.2s-3.3-2-3.3-3.2s2.2-2.8,3.3-2.8S948,477.9,948,479z"/>
	<circle class="st5" cx="945.8" cy="499.8" r="3.2"/>
	<path class="st5" d="M947,486.3c0,0.9-1.8,2.5-2.7,2.5s-2.9-1.6-2.9-2.5c0-0.9,1.9-1.7,2.9-1.7S947,485.4,947,486.3z"/>
	<path class="st5" d="M1034.1,522.9c0,2.3-1.9,6.6-4.2,6.6s-3.5-2-3.5-4.3s0-4.2,2.3-4.2C1031.1,521,1034.1,520.6,1034.1,522.9z"/>
	<path class="st5" d="M1036.2,535.4c0,0.8-1.7,1.8-2.5,1.8s-2.3-1-2.3-1.8s0.7-2.5,1.5-2.5S1036.2,534.6,1036.2,535.4z"/>
	<path class="st5" d="M954.2,493.3c0,1.5-1.2,3.3-2.6,3.3c-1.5,0-3.9-1.8-3.9-3.3s2.5-2.6,3.9-2.6
		C953,490.7,954.2,491.9,954.2,493.3z"/>
	<circle class="st5" cx="950.5" cy="487.9" r="1.6"/>
	<path class="st5" d="M963.4,492.9c0,1.2-1.7,2.9-2.9,2.9c-1.2,0-2.7-1.7-2.7-2.9s2.2-2.3,3.4-2.3
		C962.4,490.7,963.4,491.7,963.4,492.9z"/>
	<path class="st7" d="M608.1,400v40l2,2c4.8-14.6,10.6-29.5,15.7-42H608.1z"/>
	<path class="st7" d="M741.6,443.1h-47.9l-0.7,195h-47.4l0.7-195h-47.9l-3.1-3.1v-40h149.4v40L741.6,443.1z"/>
	<path class="st5" d="M657.3,400c-1.9,7.9,1,14.5-0.9,22.3c-1.7,7-8.4,15.3-10.1,22.3c0,25.6,0,51.1,0,76.7
		c5.7-14,8.7-32.6,14.4-46.6c4.3-10.6-0.6-22.3,3.8-32.9c2.7-6.5,12.3-13.9,15-20.4c3.9-9.4,12.8-12.1,16.7-21.6
		C683.2,400,670.3,400,657.3,400z"/>
	<polygon class="st5" points="693.7,506.5 678.7,638.1 693,638.1 	"/>
	<path class="st5" d="M613,400c-5.2,12.5-11,27.4-15.7,42l1.2,1.2h17c2.5-16.2,5.5-31.8,8.9-43.1H613z"/>
	<path class="st4" d="M693.7,449.6c1.7-1.3,2.4-1.1,2.4-1.1s4-2.5,0,26.4c-0.6,4.4-1.4,8-2.4,11v20.7l13.4-63.4h-13.4V449.6z"/>
	<path class="st7" d="M674.4,516.1c-2.5,12.6-13.4,106.7-18.7,122.1h23l15-131.6v-20.7C688.1,502.7,677.4,501.4,674.4,516.1z"/>
	<path class="st5" d="M693.7,485.8v-36.2c-5.2,4-19.5,21.6-47.4,99.7l-0.7,88.9h10.1c5.3-15.4,16.2-109.5,18.7-122.1
		C677.4,501.4,688.1,502.7,693.7,485.8z"/>
	<path class="st7" d="M713.4,400h-17.2l-49.8,121.4v27.9c27.9-78.1,42.2-95.7,47.4-99.7v-6.5h11.2c1.2-4.3,2.2-9.5,2.2-15.4
		C707.1,420,710.2,409,713.4,400z"/>
	<path class="st7" d="M728.8,400h-12.7l-9.1,43.1H721c2.4-5.2,4.7-12.7,4.9-22.2C726,412.6,727.4,405.4,728.8,400z"/>
	<path class="st5" d="M722.7,400h-9.3c-3.2,9.1-6.3,20.1-6.3,27.8c0,5.8-4.9,11.1-6.1,15.4h10.3c1.7-6.3,0.6-17.2,3.5-23
		C722.7,404.1,723.1,404.7,722.7,400z"/>
	<path class="st5" d="M744.7,400h-15.9c-1.5,5.4-2.8,12.6-2.9,21c-0.2,9.4-2.5,17-4.9,22.2h12.4c2-13.8,7.8-21.9,11.3-25.7V400z"/>
	<path class="st7" d="M744.7,440v-22.5c-3.5,3.8-9.3,11.9-11.3,25.7h8.2L744.7,440z"/>
	<path class="st7" d="M635.3,400h-11c-3.4,11.3-6.4,27-8.9,43.1h9.4c3.2-6.9,7.1-17,7.3-25.7C632.4,411.1,633.8,404.9,635.3,400z"/>
	<path class="st7" d="M657.3,400h-12.1c-1.2,12.2-3.3,31.4-6.1,43.1h7.1v1.6L657.3,400z"/>
	<path class="st5" d="M639.5,400c-1.6,5-0.1,11.1-0.2,17.4c-0.2,8.7-11.1,18.8-14.3,25.7h14.2c2.8-11.7,4.9-31,6.1-43.1H639.5z"/>
	<polyline class="st4" points="1107.8,610.5 1107.8,610.9 1111.8,610.9 	"/>
	<polygon class="st5" points="1107.8,583.1 1060.5,595.6 1060.5,619.6 1107.8,595 	"/>
	<polygon class="st5" points="1107.8,552.6 1060.5,579.4 1060.5,587.3 1107.8,565.2 	"/>
	<polygon class="st5" points="1129.1,653.1 1139.8,610.9 1118,610.9 1092.8,653.1 	"/>
	<polygon class="st5" points="1197.7,653.1 1197.7,610.9 1174.5,610.9 1178.8,653.1 	"/>
	<polygon class="st5" points="1107.8,506.7 1060.5,553.9 1060.5,568.4 1107.8,535.2 	"/>
	<polygon class="st5" points="1107.8,610.9 1107.8,610.5 1060.5,627.3 1060.5,653.1 1077.2,653.1 1111.8,610.9 	"/>
	<polygon class="st5" points="1063.1,377.9 1060.5,507.6 1108.1,377.9 	"/>
	<polygon class="st5" points="1108.3,377.8 1063.1,377.8 1063.1,377.9 1108.1,377.9 	"/>
	<polygon class="st5" points="1164.8,653.1 1169.9,610.9 1157.4,610.9 1140.9,653.1 	"/>
	<polygon class="st5" points="1109.3,426.1 1060.5,509.5 1060.5,542.3 1107.8,503.8 	"/>
	<polygon class="st8" points="1107.8,503.8 1060.5,542.3 1060.5,553.9 1107.8,506.7 	"/>
	<polygon class="st5" points="1107.8,535.2 1060.5,568.4 1060.5,579.4 1107.8,552.6 	"/>
	<polygon class="st8" points="1107.8,565.2 1060.5,587.3 1060.5,595.6 1107.8,583.1 	"/>
	<polygon class="st5" points="1107.8,595 1060.5,619.6 1060.5,627.3 1107.8,610.5 	"/>
	<polygon class="st8" points="1118,610.9 1111.8,610.9 1077.2,653.1 1092.8,653.1 	"/>
	<polygon class="st8" points="1140.9,653.1 1157.4,610.9 1139.8,610.9 1129.1,653.1 	"/>
	<polygon class="st8" points="1110.4,377.9 1108.1,377.9 1060.5,507.6 1060.5,509.5 1109.3,426.1 	"/>
	<polygon class="st8" points="1110.4,377.9 1110.4,377.8 1108.3,377.8 1108.1,377.9 	"/>
	<polygon class="st8" points="1178.8,653.1 1174.5,610.9 1169.9,610.9 1164.8,653.1 	"/>
	<path class="st4" d="M1351.7,464.7c-1.6-1.5-3.5-2.7-5.7-3.6c-2.2-0.9-4.4-1.3-6.9-1.3h-24.4v33.7h24.4c2.4,0,4.7-0.4,6.9-1.3
		c2.2-0.9,4-2.1,5.7-3.6c1.6-1.5,2.9-3.3,3.8-5.3c0.9-2,1.4-4.2,1.4-6.6c0-2.4-0.5-4.6-1.4-6.6
		C1354.6,468.1,1353.4,466.3,1351.7,464.7z"/>
	<path class="st7" d="M1327.4,569.9c-10.9,0-21.2-2-30.7-6.1c-9.5-4.1-17.9-9.6-25-16.7c-7.1-7.1-12.7-15.4-16.9-24.9
		c-4.1-9.5-6.2-19.7-6.2-30.5c0-10.8,2.1-21,6.2-30.5c4.1-9.5,9.8-17.8,16.9-24.9c7.1-7.1,15.4-12.6,25-16.8
		c9.5-4.1,19.8-6.2,30.7-6.2c10.8,0,21,2.1,30.6,6.2c9.6,4.1,18,9.7,25.1,16.8c7.1,7.1,12.7,15.4,16.9,24.9
		c4.1,9.5,6.2,19.7,6.2,30.5c0,10.8-2.1,21-6.2,30.5c-4.1,9.5-9.8,17.8-16.9,24.9c-7.1,7.1-15.5,12.6-25.1,16.7
		C1348.5,567.9,1338.3,569.9,1327.4,569.9z M1327.4,451.1c-5.6,0-10.8,1.1-15.5,3.3c-4.8,2.2-8.9,5.2-12.3,8.9
		c-3.4,3.7-6.1,8-8.1,12.9c-2,4.9-3,10.1-3,15.5c0,5.3,1,10.5,3,15.4c2,5,4.7,9.3,8.1,13c3.4,3.7,7.5,6.6,12.3,8.9
		c4.8,2.2,9.9,3.3,15.5,3.3c5.6,0,10.8-1.1,15.5-3.3c4.8-2.2,8.9-5.2,12.3-8.9c3.4-3.7,6.1-8,8.1-13c2-5,3-10.1,3-15.4
		c0-5.5-1-10.6-3-15.5c-2-4.9-4.7-9.2-8.1-12.9c-3.4-3.7-7.5-6.6-12.3-8.9C1338.2,452.2,1333,451.1,1327.4,451.1z"/>
	<path class="st5" d="M1285.1,447.3c0,2.1-2.3,5-4.4,5s-5-2.9-5-5c0-2.1,3.5-3.9,5.6-3.9C1283.4,443.4,1285.1,445.1,1285.1,447.3z"
		/>
	<path class="st5" d="M1308.7,437.9c0,3.5-4.2,5.5-7.6,5.5s-6.2-2.8-6.2-6.2c0-3.5,3.2-7.2,6.6-7.2S1308.7,434.5,1308.7,437.9z"/>
	<path class="st5" d="M1291.6,433.3c0,1.3-1.1,3.8-2.4,3.8c-1.3,0-4-2.5-4-3.8c0-1.3,2.7-3.4,4-3.4
		C1290.5,429.9,1291.6,432,1291.6,433.3z"/>
	<circle class="st5" cx="1288.9" cy="458.1" r="3.8"/>
	<path class="st5" d="M1290.4,442c0,1.1-2.1,3-3.2,3s-3.4-1.9-3.4-3s2.3-2.1,3.4-2.1S1290.4,440.9,1290.4,442z"/>
	<path class="st5" d="M1394.7,485.8c0,2.7-2.2,7.9-5,7.9s-4.2-2.4-4.2-5.2c0-2.7,0.1-5,2.8-5S1394.7,483.1,1394.7,485.8z"/>
	<path class="st5" d="M1397.2,500.8c0,1-2,2.2-3,2.2c-1,0-2.8-1.2-2.8-2.2s0.8-3,1.8-3C1394.2,497.8,1397.2,499.8,1397.2,500.8z"/>
	<path class="st5" d="M1299,450.4c0,1.7-1.4,3.9-3.1,3.9c-1.7,0-4.7-2.2-4.7-3.9c0-1.7,3-3.1,4.7-3.1
		C1297.6,447.3,1299,448.7,1299,450.4z"/>
	<circle class="st5" cx="1294.6" cy="443.9" r="1.9"/>
	<path class="st5" d="M1310,450c0,1.5-2,3.5-3.5,3.5s-3.3-2-3.3-3.5c0-1.5,2.6-2.7,4.1-2.7S1310,448.5,1310,450z"/>
	<g class="st9">
		<path class="st10" d="M1166.8,568V414.2h41.4V568H1166.8z"/>
		<path class="st11" d="M1181.4,426.4c-2.1,0.2-5.3-1.8-5.5-3.9c-0.2-2.1,2.3-5.3,4.5-5.6c2.1-0.2,4.2,3.1,4.4,5.2
			C1185,424.3,1183.5,426.2,1181.4,426.4z"/>
		<path class="st11" d="M1193.2,448.8c-3.4,0.4-5.9-3.6-6.3-7s2.1-6.5,5.5-6.9c3.4-0.4,7.5,2.4,7.9,5.8
			C1200.7,444.2,1196.6,448.4,1193.2,448.8z"/>
		<path class="st11" d="M1195.9,431.3c-1.3,0.1-3.9-0.7-4-2c-0.1-1.3,2-4.2,3.3-4.4c1.3-0.1,3.6,2.3,3.8,3.6
			C1199.2,429.9,1197.3,431.2,1195.9,431.3z"/>
		<circle class="st11" cx="1171" cy="431.4" r="3.8"/>
		<path class="st11" d="M1187.2,431.1c-1.1,0.1-3.2-1.8-3.4-2.9c-0.1-1.1,1.5-3.6,2.6-3.7s2.3,2.1,2.4,3.2
			C1189,428.8,1188.3,431,1187.2,431.1z"/>
		<path class="st11" d="M1179.7,440.6c-1.7,0.2-4.1-1-4.3-2.7s1.7-4.9,3.4-5.1s3.5,2.6,3.6,4.4
			C1182.7,438.8,1181.5,440.4,1179.7,440.6z"/>
		<circle class="st11" cx="1185.8" cy="435.5" r="1.9"/>
		<path class="st11" d="M1181.4,451.5c-1.5,0.2-3.7-1.6-3.8-3.1s1.6-3.5,3.1-3.6c1.5-0.2,3,2.3,3.1,3.8
			C1183.9,450,1182.9,451.3,1181.4,451.5z"/>
		<path class="st11" d="M1181.1,550.9c0,2.1-2.3,5-4.4,5s-5-2.9-5-5c0-2.1,3.5-3.9,5.6-3.9S1181.1,548.8,1181.1,550.9z"/>
		<path class="st11" d="M1204.7,541.6c0,3.5-4.2,5.5-7.6,5.5s-6.2-2.8-6.2-6.2s3.2-7.2,6.6-7.2S1204.7,538.2,1204.7,541.6z"/>
		<path class="st11" d="M1187.6,537c0,1.3-1.1,3.8-2.4,3.8c-1.3,0-4-2.5-4-3.8s2.7-3.4,4-3.4C1186.6,533.6,1187.6,535.6,1187.6,537z
			"/>
		<circle class="st11" cx="1185" cy="561.8" r="3.8"/>
		<path class="st11" d="M1186.4,545.7c0,1.1-2.1,3-3.2,3c-1.1,0-3.4-1.9-3.4-3c0-1.1,2.3-2.1,3.4-2.1
			C1184.3,543.6,1186.4,544.5,1186.4,545.7z"/>
		<path class="st11" d="M1195.1,554.1c0,1.7-1.4,3.9-3.1,3.9s-4.7-2.2-4.7-3.9s3-3.1,4.7-3.1S1195.1,552.3,1195.1,554.1z"/>
		<circle class="st11" cx="1190.6" cy="547.5" r="1.9"/>
		<path class="st11" d="M1206.1,553.6c0,1.5-2,3.5-3.5,3.5s-3.3-2-3.3-3.5c0-1.5,2.6-2.7,4.1-2.7S1206.1,552.1,1206.1,553.6z"/>
		<path class="st11" d="M1179.2,485.5c0,1.1-2.1,3-3.2,3s-3.4-1.9-3.4-3s2.3-2.1,3.4-2.1S1179.2,484.3,1179.2,485.5z"/>
		<path class="st11" d="M1187.8,509c0,1.7-1.4,3.9-3.1,3.9c-1.7,0-4.7-2.2-4.7-3.9c0-1.7,3-3.1,4.7-3.1
			C1186.4,505.8,1187.8,507.2,1187.8,509z"/>
		<circle class="st11" cx="1185.8" cy="496" r="1.9"/>
	</g>
	<g class="st9">
		<path class="st10" d="M381.5,409.8c-3.4-7-8-12.9-13.7-17.9c-5.7-4.9-12.3-8.8-19.8-11.5c-7.5-2.8-15.3-4.1-23.4-4.1h-76v98.2
			c4.6,0.8,23.2-2.3,22.7,5.3c-0.7,12.3-10.6,15.5-22.7,16.1v6.2c4.5-0.3,11.6-0.3,12.5,2.8c1,3.5-7.2,6-12.5,6.9v6.5
			c4.2-0.6,16.9-0.1,16.8,3.1c-0.2,4.1-6.9,9.4-16.8,10l-0.9,90.7H293l0.9-129.3h30.7c8.1,0,15.9-1.6,23.4-4.7
			c7.5-3.1,14.1-7.4,19.8-12.8c5.7-5.4,10.3-11.8,13.7-19c3.4-7.3,5.1-15.1,5.1-23.5C386.6,424.4,384.9,416.8,381.5,409.8z
			 M338.9,439.3c-1,2.2-2.4,4.1-4.1,5.7c-1.7,1.7-3.8,3-6.1,3.9c-2.3,0.9-4.8,1.4-7.4,1.4H295V414h26.3c2.6,0,5.1,0.5,7.4,1.4
			c2.3,0.9,4.4,2.2,6.1,3.9c1.7,1.7,3.1,3.6,4.1,5.7c1,2.2,1.5,4.5,1.5,7.1C340.5,434.8,340,437.1,338.9,439.3z"/>
		<path class="st11" d="M266.5,482.2c-0.2-2.5-15.5-4.4-20.7-5.2v13.7C259.5,490,266.8,485.6,266.5,482.2z"/>
		<path class="st11" d="M263.8,523.2c0.2-4.2-12.3-3.5-17.9-2.7v10.4C258.8,530,263.5,528.5,263.8,523.2z"/>
		<path class="st12" d="M301,634.4h-47.3l0.9-92.6l0.9-0.1c9.6-0.6,15.7-5.7,15.8-9.1c0-0.1-0.1-0.2-0.2-0.3
			c-2.1-1.9-11.6-2.3-15.4-1.7l-1.1,0.2v-8.4l0.8-0.2c4.9-0.9,10.3-2.7,11.6-4.7c0.2-0.3,0.3-0.6,0.2-1c-0.5-1.7-4.9-2.6-11.5-2.1
			l-1.1,0.1v-8.3l0.9,0c14.7-0.7,21.2-5.3,21.8-15.2c0-0.8-0.2-1.4-0.7-2c-2.4-2.5-10.2-2.3-15.3-2.1c-2.6,0.1-4.6,0.1-5.9-0.1
			l-0.8-0.1v-100h77c8.2,0,16.2,1.4,23.7,4.2c7.5,2.8,14.3,6.7,20.1,11.7c5.8,5,10.5,11.1,14,18.2l0,0c3.5,7.1,5.2,14.9,5.2,23.3
			c0,8.5-1.8,16.6-5.2,23.9c-3.4,7.3-8.1,13.8-13.9,19.3c-5.8,5.5-12.6,9.9-20.1,13c-7.6,3.2-15.6,4.8-23.8,4.8h-29.7L301,634.4z
			 M255.8,632.4h43.3l0.9-129.3h31.7c8,0,15.7-1.5,23-4.6c7.3-3.1,13.9-7.3,19.5-12.6c5.6-5.3,10.2-11.6,13.5-18.7
			c3.3-7.1,5-14.9,5-23.1c0-8.1-1.7-15.6-5-22.4l0,0c-3.3-6.8-7.9-12.7-13.5-17.5c-5.6-4.8-12.2-8.7-19.5-11.4
			c-7.3-2.7-15.1-4.1-23.1-4.1h-75v96.3c1.2,0.1,2.8,0,4.7,0c6.1-0.2,13.8-0.4,16.8,2.7c0.9,0.9,1.3,2.1,1.3,3.5
			c-0.8,13.7-12.4,16.3-22.7,17v4.3c7.5-0.4,11.6,0.8,12.5,3.6c0.3,0.9,0.1,1.7-0.4,2.6c-1.9,3.1-8.9,4.8-12.1,5.5v4.5
			c4.1-0.3,13.2-0.1,15.9,2.3c0.8,0.7,0.9,1.4,0.9,1.9c-0.2,4.6-6.9,10-16.8,10.9L255.8,632.4z M328.3,462.7H301v-38.3h27.3
			c2.7,0,5.3,0.5,7.8,1.5c2.4,1,4.6,2.4,6.4,4.1c1.8,1.7,3.3,3.8,4.3,6c1.1,2.3,1.6,4.8,1.6,7.6c0,2.7-0.5,5.3-1.6,7.6l0,0
			c-1.1,2.3-2.5,4.3-4.3,6c-1.8,1.7-4,3.1-6.4,4.1C333.7,462.2,331.1,462.7,328.3,462.7z M303,460.7h25.3c2.5,0,4.8-0.4,7-1.3
			c2.2-0.9,4.1-2.1,5.8-3.7c1.6-1.6,3-3.4,3.9-5.4c0.9-2,1.4-4.3,1.4-6.7c0-2.4-0.5-4.7-1.4-6.7c-1-2-2.3-3.9-3.9-5.4
			c-1.6-1.6-3.6-2.8-5.8-3.7c-2.2-0.9-4.6-1.3-7-1.3H303V460.7z"/>
	</g>
	<path class="st13" d="M398.7,627.8c-8.4,0-16.4-1.6-23.7-4.7c-7.3-3.1-13.8-7.5-19.3-12.9c-5.5-5.4-9.8-11.9-13-19.2
		c-3.2-7.3-4.8-15.2-4.8-23.5c0-8.3,1.6-16.2,4.8-23.5c3.2-7.3,7.5-13.8,13-19.2c5.5-5.4,11.9-9.8,19.3-12.9
		c7.3-3.2,15.3-4.8,23.7-4.8c8.3,0,16.2,1.6,23.6,4.8c7.4,3.2,13.9,7.5,19.3,12.9c5.5,5.4,9.8,11.9,13,19.2
		c3.2,7.3,4.8,15.3,4.8,23.5c0,8.3-1.6,16.2-4.8,23.5c-3.2,7.3-7.6,13.8-13,19.2c-5.5,5.4-12,9.8-19.3,12.9
		C415,626.2,407,627.8,398.7,627.8z M398.7,509c-8.1,0-15.8,1.6-22.9,4.6c-7.1,3.1-13.4,7.3-18.7,12.5c-5.3,5.2-9.5,11.5-12.6,18.6
		c-3.1,7.1-4.6,14.7-4.6,22.8c0,8,1.6,15.7,4.6,22.8c3.1,7.1,7.3,13.3,12.6,18.6c5.3,5.2,11.6,9.4,18.6,12.5
		c7.1,3,14.8,4.6,22.9,4.6c8,0,15.7-1.5,22.8-4.6c7.1-3,13.4-7.2,18.7-12.5c5.3-5.2,9.5-11.5,12.6-18.6c3.1-7.1,4.6-14.7,4.6-22.8
		c0-8-1.6-15.7-4.6-22.8c-3.1-7.1-7.3-13.3-12.6-18.6c-5.3-5.2-11.6-9.5-18.7-12.5C414.4,510.6,406.8,509,398.7,509z M398.7,599.3
		c-4.4,0-8.5-0.9-12.2-2.6c-3.7-1.7-7-4.1-9.6-7c-2.7-2.9-4.8-6.3-6.3-10.1c-1.5-3.9-2.3-7.9-2.3-12.1c0-4.3,0.8-8.4,2.3-12.2
		c1.5-3.8,3.7-7.2,6.3-10.1c2.7-2.9,5.9-5.2,9.6-7c3.7-1.7,7.8-2.6,12.2-2.6c4.4,0,8.5,0.9,12.2,2.6c3.7,1.7,7,4.1,9.6,7
		c2.7,2.9,4.8,6.3,6.3,10.1c1.5,3.8,2.3,7.9,2.3,12.2c0,4.2-0.8,8.2-2.3,12.1c-1.5,3.9-3.7,7.3-6.3,10.2c-2.7,2.9-5.9,5.2-9.6,7
		C407.2,598.4,403.1,599.3,398.7,599.3z M398.7,537.7c-4.1,0-7.9,0.8-11.4,2.4c-3.5,1.6-6.5,3.8-9,6.5c-2.5,2.7-4.5,5.9-6,9.5
		c-1.4,3.6-2.2,7.4-2.2,11.4c0,3.9,0.7,7.7,2.2,11.4c1.4,3.6,3.4,6.8,6,9.5c2.5,2.7,5.5,4.9,9,6.5c3.5,1.6,7.3,2.4,11.4,2.4
		s7.9-0.8,11.4-2.4c3.5-1.6,6.5-3.8,9-6.5c2.5-2.7,4.5-5.9,6-9.5c1.4-3.6,2.2-7.4,2.2-11.4c0-4-0.7-7.8-2.2-11.4
		c-1.4-3.6-3.4-6.8-6-9.5c-2.5-2.7-5.5-4.9-9-6.5C406.6,538.5,402.8,537.7,398.7,537.7z"/>
	<path class="st13" d="M615.4,604.4h-44.5l-24.4-43.5h-22.1l0.2,43.5h-40.7V461.9h71.4c0.9,0,1.9,0,2.8,0.1c0.7,0.1,1.3,0.2,2.1,0.3
		c0.3,0.1,0.7,0.1,1,0.2c1,0.2,2,0.5,3.1,0.8c0.7,0.2,1.2,0.4,1.7,0.6c3.6,1.3,7,3,10.3,5.2c3.3,2.1,6.4,4.6,9.2,7.3
		c0.4,0.3,0.7,0.7,1,1l0.1,0.1c2.3,2.4,4.4,4.8,6.1,7.2c1.8,2.7,3.4,5.7,4.5,9l0,0.1c0.2,0.5,0.3,1,0.5,1.4l0.1,0.3
		c0.2,0.6,0.4,1.2,0.5,1.8c0.2,0.6,0.3,1.2,0.5,1.8c0.4,1.5,0.7,3,0.9,4.5c0.4,2.5,0.6,4.9,0.6,7.3c0,7.1-1.7,13.9-5,20
		c-3.2,5.9-7.6,10.9-13.2,15L615.4,604.4z M572.1,602.4H612l-32.6-57.2l0.7-0.5c5.6-4,10.1-9,13.3-14.9c3.2-5.9,4.8-12.3,4.8-19.1
		c0-2.2-0.2-4.6-0.6-7c-0.2-1.4-0.5-2.9-0.9-4.4c-0.1-0.6-0.3-1.1-0.4-1.7c-0.2-0.6-0.3-1.1-0.5-1.7l-0.1-0.2
		c-0.2-0.5-0.3-0.9-0.5-1.4c-1.1-3.2-2.6-6-4.3-8.6c-1.6-2.3-3.6-4.7-5.9-6.9l0.6-0.8l-0.7,0.7c-0.3-0.3-0.7-0.7-1-1
		c-2.7-2.6-5.7-5-8.9-7c-3.2-2.1-6.5-3.7-9.9-5c-0.5-0.2-1-0.4-1.6-0.5c-1-0.3-1.9-0.5-2.9-0.7c-0.3-0.1-0.6-0.1-0.9-0.2
		c-0.7-0.1-1.3-0.2-1.9-0.3c-0.9-0.1-1.8-0.1-2.6-0.1h-69.5v138.5h36.8l-0.2-43.5h25.3L572.1,602.4z"/>
	<path class="st13" d="M697.8,626.8h-34.1l0-1l0.7-194H617l-3.7-3.7v-41.4h151.4V428l-3.7,3.7h-47.3v62.4L713,626.8L697.8,626.8z
		 M665.6,624.8l45.4,0l0.7-130.6v-64.4h48.4l2.6-2.6v-38.6H615.3v38.6l2.6,2.6h48.4l0,1L665.6,624.8z"/>
	<path class="st13" d="M808,652.2h-51.4v-15.4l0.7-0.2c21.9-7,24.4-11.6,24.4-13.3c0-0.4-0.1-0.8-0.5-1.1c-1.3-1.2-6.1-2.8-23.5-0.3
		l-1.1,0.2v-10.2l0.3-0.3c20.7-19.5,32.8-34.6,32.1-40.5c-0.1-0.9-0.5-1.5-1.2-2c-4.6-2.8-15.2,1-29.7,10.6l-1.5,1v-23.7l0.3-0.3
		c8.2-7.6,14.8-13.9,19.6-18.7c4.5-4.5,12-13.2,18.2-22.7c7-10.7,10.4-19.5,9.8-25.4c-0.3-2.9-1.5-5-3.6-6.5
		c-5.7-3.9-20.9,5.1-42.6,25.4l-1.7,1.6v-42.3l4.4-4.4h143.3v47.9H808v23.5h84.9v47.4H808V652.2z M758.6,650.2H806v-69.7h84.9v-43.4
		H806v-27.5h96.4v-43.9H761.9l-3.2,3.3v36.9c22.2-20.4,36.8-28.5,43.4-24c2.6,1.8,4.2,4.5,4.5,7.9c0.8,8-5.1,18.9-10.1,26.7
		c-6.3,9.7-13.9,18.5-18.4,23.1c-4.8,4.8-11.3,11-19.4,18.5v19.2c14.8-9.6,25-12.9,30.3-9.7c1.3,0.8,2,2,2.2,3.4
		c0.9,8.9-19.8,29.9-32.4,41.8v7c13.3-1.8,21.3-1.4,24,1c0.8,0.7,1.2,1.6,1.1,2.6c-0.2,4.5-8.6,9.5-25.1,14.8V650.2z"/>
	<path class="st13" d="M977.9,585c-9.2,0-18-1.7-26-5.2c-8-3.4-15.2-8.2-21.2-14.1c-6-6-10.8-13.1-14.3-21.1
		c-3.5-8-5.3-16.8-5.3-25.9c0-9.1,1.8-17.8,5.3-25.9c3.5-8,8.3-15.1,14.3-21.1c6-6,13.1-10.7,21.2-14.2c8.1-3.5,16.8-5.3,26-5.3
		c9.1,0,17.8,1.8,26,5.3c8.1,3.5,15.2,8.3,21.2,14.2c6,6,10.8,13.1,14.3,21.1c3.5,8.1,5.3,16.8,5.3,25.9c0,9.1-1.8,17.8-5.3,25.9
		c-3.5,8-8.3,15.1-14.3,21.1c-6,6-13.2,10.7-21.3,14.1C995.8,583.2,987.1,585,977.9,585z M977.9,454.2c-8.9,0-17.4,1.7-25.2,5.1
		c-7.8,3.4-14.7,8-20.6,13.8c-5.8,5.8-10.5,12.7-13.9,20.5c-3.4,7.8-5.1,16.2-5.1,25.1c0,8.8,1.7,17.3,5.1,25.1
		c3.4,7.8,8.1,14.7,13.9,20.5c5.8,5.8,12.7,10.4,20.6,13.7c7.8,3.3,16.3,5,25.2,5c8.8,0,17.3-1.7,25.2-5c7.9-3.3,14.8-7.9,20.6-13.7
		c5.8-5.8,10.5-12.7,13.9-20.5c3.4-7.8,5.1-16.2,5.1-25.1c0-8.8-1.7-17.3-5.1-25.1c-3.4-7.8-8.1-14.7-13.9-20.5
		c-5.8-5.8-12.8-10.4-20.6-13.8C995.3,455.9,986.8,454.2,977.9,454.2z M977.9,553.6c-4.8,0-9.3-1-13.4-2.9
		c-4.1-1.9-7.6-4.5-10.6-7.6c-2.9-3.2-5.3-6.9-7-11.1c-1.7-4.2-2.5-8.7-2.5-13.3c0-4.7,0.9-9.2,2.5-13.4c1.7-4.2,4-7.9,7-11.1
		c2.9-3.2,6.5-5.7,10.6-7.6c4.1-1.9,8.6-2.9,13.4-2.9s9.3,1,13.4,2.9c4.1,1.9,7.6,4.5,10.6,7.6c2.9,3.2,5.3,6.9,7,11.1
		c1.7,4.2,2.5,8.7,2.5,13.4c0,4.6-0.9,9-2.5,13.3c-1.7,4.2-4,8-7,11.1c-2.9,3.2-6.5,5.7-10.6,7.6
		C987.3,552.6,982.7,553.6,977.9,553.6z M977.9,485.7c-4.5,0-8.7,0.9-12.6,2.7c-3.8,1.8-7.2,4.2-10,7.2c-2.8,3-5,6.5-6.6,10.4
		c-1.6,3.9-2.4,8.2-2.4,12.6c0,4.3,0.8,8.5,2.4,12.5c1.6,4,3.8,7.5,6.6,10.5c2.8,3,6.1,5.4,10,7.2c3.8,1.8,8.1,2.7,12.6,2.7
		s8.7-0.9,12.6-2.7c3.8-1.8,7.2-4.2,10-7.2c2.8-3,5-6.5,6.6-10.5c1.6-4,2.4-8.2,2.4-12.5c0-4.4-0.8-8.7-2.4-12.6
		c-1.6-4-3.8-7.5-6.6-10.4c-2.8-3-6.1-5.4-10-7.2C986.7,486.6,982.4,485.7,977.9,485.7z"/>
	<path class="st13" d="M1171.3,665.4h-103.6l0,0H1052V518.8l2.6-129.8v-1h49.3v1.1l-1.2,48.3l-1.4,77.7v105.8l3,0.3h86.9v44.3
		L1171.3,665.4z M1071.7,663.4l117.5,0v-40.3l-85,0l-4.9-0.4V515.1l1.4-77.7l1.2-47.4h-45.4l-2.6,128.8v144.6L1071.7,663.4
		L1071.7,663.4z"/>
	<path class="st13" d="M1224.4,581.8H1181V425.9h43.4V581.8z M1183,579.8h39.5V427.9H1183V579.8z"/>
	<path class="st13" d="M1337.9,572.9c-10.7,0-20.9-2-30.3-6c-9.3-4-17.6-9.5-24.6-16.4c-7-6.9-12.6-15.2-16.6-24.5
		c-4.1-9.4-6.1-19.5-6.1-30.1s2.1-20.7,6.1-30.1c4-9.3,9.6-17.6,16.6-24.5c7-6.9,15.3-12.5,24.6-16.5c9.4-4.1,19.5-6.1,30.3-6.1
		c10.6,0,20.7,2.1,30.2,6.1c9.4,4,17.7,9.6,24.7,16.5c7,6.9,12.6,15.2,16.6,24.5c4.1,9.4,6.1,19.5,6.1,30.1
		c0,10.6-2.1,20.7-6.1,30.1c-4.1,9.3-9.6,17.6-16.6,24.5c-7,6.9-15.3,12.5-24.7,16.4C1358.6,570.9,1348.5,572.9,1337.9,572.9z
		 M1337.9,420.6c-10.4,0-20.4,2-29.5,5.9c-9.1,4-17.2,9.4-24,16.1c-6.8,6.7-12.3,14.8-16.2,23.9c-3.9,9.1-5.9,19-5.9,29.3
		s2,20.2,5.9,29.3c3.9,9.1,9.4,17.2,16.2,23.9c6.8,6.7,14.9,12.1,24,16c9.1,3.9,19,5.9,29.5,5.9c10.3,0,20.2-2,29.4-5.9
		c9.2-3.9,17.3-9.3,24.1-16c6.8-6.7,12.3-14.8,16.2-23.9c3.9-9.1,5.9-19,5.9-29.3c0-10.3-2-20.2-5.9-29.3c-4-9.1-9.4-17.2-16.2-23.9
		c-6.8-6.7-14.9-12.2-24.1-16.1C1358.1,422.6,1348.2,420.6,1337.9,420.6z M1337.9,536.4c-5.6,0-10.8-1.1-15.5-3.3
		c-4.7-2.2-8.9-5.2-12.3-8.8c-3.4-3.7-6.1-8-8.1-12.9c-2-4.9-2.9-10.1-2.9-15.4c0-5.4,1-10.6,2.9-15.5c2-4.8,4.7-9.2,8.1-12.8
		c3.4-3.7,7.5-6.6,12.3-8.8c4.8-2.2,10-3.3,15.5-3.3s10.8,1.1,15.5,3.3c4.7,2.2,8.9,5.2,12.3,8.8c3.4,3.7,6.1,8,8.1,12.8
		c2,4.9,2.9,10.1,2.9,15.5c0,5.3-1,10.5-2.9,15.4c-2,4.9-4.7,9.3-8.1,12.9c-3.4,3.7-7.5,6.6-12.3,8.8
		C1348.7,535.3,1343.5,536.4,1337.9,536.4z M1337.9,457.4c-5.3,0-10.2,1.1-14.7,3.2c-4.5,2.1-8.4,4.9-11.7,8.4
		c-3.2,3.5-5.8,7.6-7.7,12.2c-1.9,4.6-2.8,9.6-2.8,14.7c0,5,0.9,10,2.8,14.7c1.9,4.7,4.4,8.8,7.7,12.3c3.2,3.5,7.2,6.3,11.7,8.4
		c4.5,2.1,9.4,3.2,14.7,3.2s10.2-1.1,14.7-3.2c4.5-2.1,8.4-4.9,11.7-8.4c3.2-3.5,5.8-7.6,7.7-12.3c1.9-4.7,2.8-9.6,2.8-14.7
		c0-5.2-0.9-10.1-2.8-14.7c-1.9-4.6-4.5-8.7-7.7-12.2c-3.2-3.5-7.2-6.3-11.7-8.4C1348.1,458.4,1343.2,457.4,1337.9,457.4z"/>
</g>
<g>
	<g>
		<path class="st14" d="M101,31c-0.7,0-1.4-0.1-1.9-0.2c-0.5-0.1-1-0.3-1.4-0.6c-0.4-0.3-0.7-0.8-0.8-1.2c-0.2-0.6-0.1-0.3-0.2-1
			l-0.1-2.3c0,0,0,0,0-1v19c0,2.2-0.3,3.1-0.8,3.7c-0.5,0.6-1.4,0.9-2.6,0.9c-0.5,0-1,0-1.4-0.1c-0.4,0-0.9-0.1-1.5-0.3
			c-0.3,0.3-0.5,0.7-0.6,1.1c-0.2,0.5-0.3,1-0.3,1.6c0,0.8,0.2,1.4,0.5,2c0.3,0.6,0.9,1.1,1.6,1.4c1,0.5,2.3,0.8,3.9,0.8
			c3.1,0,5.4-0.7,7-2.1c1.6-1.4,2.4-3.5,2.4-6.3V30.6c-0.3,0.1-0.9,0.2-1.6,0.3C102.5,30.9,101.7,31,101,31z"/>
		<path class="st15" d="M104.5,26.3c-0.2-0.5-0.5-0.9-0.8-1.2c-0.4-0.3-0.8-0.5-1.4-0.6c-0.5-0.1-1.2-0.2-1.9-0.2
			c-0.7,0-1.4,0.1-2.2,0.2c-0.7,0.1-1.3,0.2-1.6,0.3v2.3c0,0.8,0.1,1.5,0.3,2c0.2,0.5,0.5,0.9,0.8,1.2c0.4,0.3,0.8,0.5,1.4,0.6
			c0.5,0.1,1.2,0.2,1.9,0.2c0.7,0,1.4,0,2.2-0.1c0.7-0.1,1.3-0.2,1.6-0.3v-2.3C104.8,27.5,104.7,26.8,104.5,26.3z"/>
		<path class="st14" d="M127.7,47.3h-12.1v-4.9h8.6c0.8,0,1.5-0.3,2-0.8c0.5-0.5,0.8-1.3,0.8-2.5c0-0.6-0.1-1.2-0.3-1.8
			c-0.2-0.5-0.4-1-0.6-1.3h-10.6v-4.4h9.9c0.8,0,1.5-0.3,2-0.8c0,0,0.1-0.1,0.1-0.2c-0.5,0.4-1.1,0.6-1.8,0.6h-13.7
			c-1.3,0-2.4-0.4-3.2-1.2c-0.6-0.6-0.9-1.3-1.1-2.2c-0.2,0.5-0.2,1-0.2,1.6v19.8c0,1.3,0.4,2.4,1.2,3.2c0.8,0.8,1.8,1.2,3.2,1.2
			h13.7c0.8,0,1.5-0.3,2-0.8c0.5-0.5,0.8-1.4,0.8-2.6c0-0.6-0.1-1.2-0.3-1.8C128.1,48.1,127.9,47.6,127.7,47.3z"/>
		<path class="st15" d="M112.2,31.6h13.7c0.7,0,1.3-0.2,1.8-0.6c0.4-0.5,0.6-1.4,0.6-2.5c0-0.7-0.1-1.3-0.3-1.9
			c-0.2-0.6-0.4-1.1-0.6-1.4H112c-1.3,0-2.4,0.4-3.2,1.2c-0.4,0.5-0.7,1-0.9,1.7c0.2,0.9,0.5,1.7,1.1,2.3
			C109.8,31.2,110.8,31.6,112.2,31.6z"/>
		<path class="st14" d="M138.4,25.7c0.5-0.3,1.3-0.6,2.4-0.9c1.1-0.3,2.2-0.4,3.3-0.4c1.6,0,2.9,0.2,4.2,0.7c1.2,0.5,2,1.2,2.3,2.1
			c0.6,1.6,1.2,3.5,1.8,5.7c0.7,2.2,1.3,4.4,2,6.7c0.7,2.3,1.3,4.6,1.9,6.8c0.6,2.2,1.2,4.2,1.6,5.9c-0.4,0.4-0.9,0.8-1.7,1.1
			c-0.8,0.3-1.6,0.4-2.7,0.4c-0.8,0-1.4-0.1-1.9-0.2c-0.5-0.1-0.9-0.3-1.3-0.6c-0.3-0.3-0.6-0.6-0.8-1s-0.4-0.9-0.5-1.4l-0.8-3.2
			h-8.5c-0.3,0.9-0.5,1.9-0.8,2.9c-0.3,1-0.5,2-0.8,2.9c-0.4,0.2-0.9,0.3-1.4,0.4c-0.5,0.1-1.1,0.2-1.8,0.2c-1.6,0-2.8-0.3-3.5-0.8
			c-0.8-0.5-1.1-1.3-1.1-2.3c0-0.4,0.1-0.9,0.2-1.3c0.1-0.4,0.3-1,0.4-1.5c0.2-0.8,0.5-1.9,0.9-3.1c0.4-1.3,0.8-2.6,1.3-4.1
			s1-2.9,1.5-4.5c0.5-1.5,1-3,1.5-4.3c0.5-1.4,0.9-2.6,1.3-3.6C137.9,27.1,138.2,26.3,138.4,25.7z M144,31.8
			c-0.4,1.3-0.9,2.8-1.5,4.4c-0.5,1.6-1,3.2-1.5,4.9h5.8c-0.4-1.7-0.9-3.3-1.3-5c-0.5-1.6-0.9-3.1-1.2-4.3H144z"/>
		<path class="st14" d="M185.5,52.3c-0.4,0.4-1.1,0.8-1.9,1c-0.8,0.2-1.8,0.4-3,0.4c-1.2,0-2.3-0.2-3.3-0.5c-1-0.3-1.9-1.2-2.5-2.5
			l-4.6-9.5c-0.5-1-0.9-1.9-1.3-2.7c-0.4-0.9-0.8-1.9-1.2-3l-0.3,0c0.1,1.7,0.2,3.4,0.2,5.2c0,1.8,0,3.5,0,5.2v7.3
			c-0.3,0.1-0.9,0.2-1.6,0.3c-0.7,0.1-1.4,0.1-2.1,0.1c-0.7,0-1.3,0-1.8-0.1c-0.5-0.1-1-0.3-1.3-0.6c-0.3-0.3-0.6-0.7-0.8-1.1
			c-0.2-0.5-0.3-1.1-0.3-1.9V26.3c0.4-0.6,1.1-1.1,2-1.4c0.9-0.3,1.9-0.5,2.9-0.5c1.2,0,2.3,0.2,3.3,0.5c1,0.4,1.9,1.2,2.5,2.5
			l4.7,9.5c0.5,1,0.9,1.9,1.3,2.7c0.4,0.9,0.8,1.9,1.2,3l0.2,0c-0.1-1.7-0.2-3.4-0.2-5.1c0-1.7,0-3.4,0-5.1v-7.6
			c0.3-0.1,0.9-0.2,1.6-0.3c0.7-0.1,1.4-0.1,2.1-0.1c1.4,0,2.4,0.2,3.1,0.7c0.7,0.5,1.1,1.5,1.1,3V52.3z"/>
		<path class="st16" d="M19.6,19.9H17l-2.6,4.9h4.5l2.1-5.2C20.6,19.8,20.1,19.9,19.6,19.9z"/>
		<polygon class="st16" points="12.9,9.2 11.1,13.5 15.7,13.5 17.7,9.2 		"/>
		<polygon class="st16" points="11,19.9 11,23.9 12.8,19.9 		"/>
		<path class="st16" d="M60.7,1.9c0,0,0.1,0,0.1,0c0.3,0,0.6,0,1,0L63-0.4L60.7,1.9z"/>
		<polygon class="st16" points="115.8,13.5 115.9,13.5 116.4,9.2 115.8,9.2 		"/>
		<polygon class="st17" points="17.7,9.2 20.6,2.8 15.6,2.8 12.9,9.2 		"/>
		<polygon class="st17" points="14.4,24.9 11,31.3 16.4,31.3 18.9,24.9 		"/>
		<path class="st17" d="M21.4,31.3l2.5-3.9c0-0.4-0.1-0.8-0.2-1.2c-0.2-0.6-0.4-1-0.6-1.4h-0.9L19,31.3h2.1
			C21.2,31.3,21.3,31.3,21.4,31.3z"/>
		<path class="st17" d="M11,19.9h1.8l2.9-6.4h-4.5L4.3,30.2C5,31,6.1,31.3,7.4,31.3h0.2l3.4-7.4V19.9z"/>
		<path class="st17" d="M7.4,2.8C6,2.8,5,3.1,4.2,3.9C3.4,4.7,3,5.8,3,7.1V20l9.3-17.3H7.4z"/>
		<path class="st17" d="M21.5,13.5h-1.2L17,19.9h2.6c0.5,0,1-0.1,1.4-0.3l1.3-3.4c0-0.5-0.1-0.9-0.2-1.3
			C21.9,14.3,21.8,13.9,21.5,13.5z"/>
		<path class="st18" d="M23,8.3c0.2-0.3,0.4-0.6,0.5-1L23,8.3z"/>
		<path class="st17" d="M26.7,22.8l8.2-13V6.2c0-0.8-0.1-1.5-0.3-2c-0.2-0.5-0.5-0.9-0.8-1.2c-0.2-0.2-0.5-0.3-0.8-0.4l-6.3,12.8
			V22.8z"/>
		<path class="st17" d="M27.9,30.2c0.3,0.3,0.6,0.5,0.9,0.7l6.1-7.2V14l-8,14.6C27.2,29.2,27.5,29.7,27.9,30.2z"/>
		<path class="st17" d="M26.7,5l1-2.5c-0.4,0.1-0.7,0.1-1,0.2V5z"/>
		<path class="st17" d="M43.7,31.3c0.9,0,1.6-0.3,2.1-0.8c0.5-0.5,0.8-1.4,0.8-2.7c0-0.6-0.1-1.2-0.3-1.8c-0.2-0.6-0.4-1-0.6-1.4
			h-7.4l-6.5,6.6H43.7z"/>
		<path class="st16" d="M78.5,8.6c-0.4,0-0.9,0-1.3,0c-0.5,0-0.9,0.1-1.4,0.1l0,0V20l5.9-10.8C80.7,8.8,79.7,8.6,78.5,8.6z"/>
		<path class="st16" d="M76.5,25.2c0.2,0,0.4,0,0.6,0.1c0.5,0,1,0.1,1.4,0.1c0.2,0,0.3,0,0.5,0l6.7-9.7c-0.1-1.4-0.5-2.7-1-3.7
			L76.5,25.2z"/>
		<path class="st16" d="M56.2,10.6c-1.1,1.3-1.7,3.3-1.7,6L58.2,9C57.5,9.4,56.8,9.9,56.2,10.6z"/>
		<path class="st16" d="M65.6,10.6c-0.9-1.1-2.1-1.8-3.6-2l-6.2,14.2c0.1,0.2,0.3,0.4,0.4,0.6c1.1,1.4,2.7,2.1,4.6,2.1L65.8,11
			C65.7,10.8,65.7,10.7,65.6,10.6z"/>
		<path class="st16" d="M65.5,23.3c1.2-1.4,1.7-3.5,1.7-6.4c0-0.5,0-1-0.1-1.5l-2.7,8.9C64.9,24,65.2,23.7,65.5,23.3z"/>
		<path class="st14" d="M67.6,27.3v-0.5l-2.1,4.6c0.4-0.1,0.8-0.2,1.2-0.4c0.8-0.3,1.5-0.6,2.1-1C68,29.4,67.6,28.5,67.6,27.3z"/>
		<path class="st17" d="M64.7,2.3L62,8.6c1.5,0.2,2.7,0.9,3.6,2c0.1,0.1,0.2,0.2,0.3,0.4l1.8-5.1V5.4c0-0.7,0.2-1.2,0.5-1.5
			c0.1-0.1,0.1-0.1,0.2-0.2l0-0.1c-0.5-0.3-1.1-0.6-1.7-0.8C66.1,2.6,65.4,2.4,64.7,2.3z"/>
		<path class="st17" d="M67.6,20.8v-6.7l-0.4,1.3c0,0.5,0.1,1,0.1,1.5c0,2.8-0.6,5-1.7,6.4c-0.3,0.4-0.7,0.7-1,1L62.2,32
			c0.3,0,0.7-0.1,1-0.1L67.6,20.8z"/>
		<path class="st17" d="M56.2,23.3c-0.1-0.2-0.3-0.4-0.4-0.6l-3.1,7.2c0.7,0.4,1.5,0.8,2.3,1.1c1.1,0.4,2.3,0.7,3.6,0.8l2.3-6.5
			C58.9,25.4,57.3,24.7,56.2,23.3z"/>
		<path class="st17" d="M56.2,10.6c0.6-0.7,1.3-1.2,2-1.5l3.6-7.1c-0.3,0-0.6,0-1,0c0,0-0.1,0-0.1,0L46,16.8c0,0,0,0,0,0.1
			c0,2.4,0.4,4.6,1.1,6.4c0.5,1.4,1.2,2.6,2.1,3.6l5.2-10.5C54.5,13.9,55.1,11.9,56.2,10.6z"/>
		<path class="st17" d="M85.6,15.6l5.7-8.2c-0.5-0.6-1-1.2-1.6-1.8c-0.2-0.2-0.5-0.4-0.8-0.6l-4.3,6.9
			C85.2,12.9,85.5,14.2,85.6,15.6z"/>
		<path class="st17" d="M74.8,11c0.6,1.7,1,3.7,1,5.9c0,1.4-0.1,2.7-0.4,3.9l0.4-0.8V8.8L74.8,11z"/>
		<path class="st17" d="M78.4,25.3c-0.4,0-0.9,0-1.4-0.1c-0.2,0-0.4,0-0.6-0.1l-3.8,6.2c0.6,0.1,1.2,0.2,1.8,0.3c0,0,0.1,0,0.1,0
			l4.4-6.4C78.8,25.3,78.6,25.3,78.4,25.3z"/>
		<path class="st17" d="M71.4,5.7c0.6,0.5,1.1,1.1,1.5,1.8l2.2-5.4c-0.4,0-0.8,0.1-1.2,0.1c-1,0.1-1.9,0.3-2.8,0.5l-0.7,2.2
			C70.7,5.2,71.1,5.4,71.4,5.7z"/>
		<path class="st17" d="M77.2,8.6c0.5,0,0.9,0,1.3,0c1.2,0,2.2,0.2,3.2,0.6L85,3c-0.2-0.1-0.3-0.1-0.5-0.2C82.8,2.3,80.9,2,78.8,2
			l-3.1,6.8C76.2,8.7,76.7,8.6,77.2,8.6z"/>
		<path class="st17" d="M70,30.7l1.3-2.3c-0.7,0.6-1.5,1.2-2.4,1.7C69.2,30.3,69.6,30.5,70,30.7z"/>
		<path class="st17" d="M84.8,31c1.9-0.6,3.6-1.6,5-2.8c1.4-1.3,2.5-2.8,3.2-4.7c0.8-1.9,1.1-4,1.1-6.5c0-2.4-0.4-4.5-1.1-6.3
			L80.6,31.8C82.1,31.7,83.5,31.4,84.8,31z"/>
		<path class="st17" d="M104.9,6.2c0-0.8-0.1-1.5-0.3-2c-0.1-0.2-0.2-0.4-0.3-0.5l-7.7,18.6v2.9c0.3-0.1,0.9-0.1,1.6-0.3
			c0.8-0.1,1.5-0.2,2.2-0.2c0.2,0,0.4,0,0.6,0l3.8-13.1V6.2z"/>
		<path class="st17" d="M100.5,2.3c-0.7,0-1.4,0.1-2.2,0.2c-0.2,0-0.3,0-0.5,0.1l-1.2,2v11.5l4.6-13.7C101,2.3,100.7,2.3,100.5,2.3z
			"/>
		<path class="st17" d="M124.4,19.9c0.8,0,1.5-0.3,2-0.8c0.5-0.5,0.8-1.3,0.8-2.5c0-0.6-0.1-1.2-0.3-1.8c-0.2-0.5-0.4-1-0.6-1.3
			h-2.2l-2.1,6.4H124.4z"/>
		<path class="st17" d="M115.8,13.5V9.2h0.6l0.8-6.4h-5c-0.7,0-1.4,0.1-1.9,0.4l-2.4,11.9V27c0,0.4,0,0.7,0.1,1
			c0.2-0.6,0.5-1.1,0.9-1.6c0.8-0.8,1.8-1.2,3.2-1.2l2.4,0L115.8,13.5L115.8,13.5z"/>
		<path class="st17" d="M127.7,2.8l-2.1,6.4h0.1c0.8,0,1.5-0.3,2-0.8c0.5-0.5,0.8-1.3,0.8-2.5c0-0.6-0.1-1.2-0.3-1.8
			C128.1,3.6,127.9,3.2,127.7,2.8z"/>
		<path class="st14" d="M11,13.5V9.2h2l2.7-6.4h-3.3L3,20V27c0,1.3,0.4,2.4,1.2,3.2c0,0,0.1,0,0.1,0.1l6.9-16.7H11z"/>
		<polygon class="st14" points="22.1,24.9 18.9,24.9 16.4,31.3 19,31.3 		"/>
		<path class="st14" d="M21.6,19.2c0.5-0.5,0.8-1.3,0.8-2.5c0-0.2,0-0.3,0-0.4L21,19.6C21.2,19.5,21.4,19.4,21.6,19.2z"/>
		<path class="st14" d="M30.5,2.3c-0.7,0-1.4,0.1-2.2,0.2c-0.2,0-0.5,0.1-0.7,0.1l-1,2.5v10.4L33,2.6c-0.2-0.1-0.4-0.1-0.6-0.2
			C31.9,2.3,31.3,2.3,30.5,2.3z"/>
		<path class="st14" d="M23.1,30.6c0.5-0.5,0.8-1.4,0.8-2.6c0-0.2,0-0.4,0-0.6l-2.5,3.9C22.1,31.3,22.7,31,23.1,30.6z"/>
		<path class="st14" d="M26.7,27c0,0.6,0.1,1.2,0.3,1.7l8-14.6V9.9l-8.2,13V27z"/>
		<path class="st14" d="M34.9,23.6l-6.1,7.2c0.6,0.3,1.4,0.5,2.3,0.5h0.7l6.5-6.6h-3.4V23.6z"/>
		<path class="st14" d="M55,2.8c-1.8,0.7-3.4,1.6-4.7,2.9C49,7,47.9,8.6,47.2,10.4c-0.8,1.9-1.1,4-1.1,6.4l14.7-15
			C58.7,1.9,56.8,2.2,55,2.8z"/>
		<path class="st14" d="M54.5,16.9c0-0.1,0-0.3,0-0.4L49.2,27c0.3,0.4,0.6,0.8,1,1.1c0.7,0.7,1.5,1.3,2.4,1.8l3.1-7.2
			C54.9,21.4,54.5,19.4,54.5,16.9z"/>
		<path class="st14" d="M62,8.6l2.7-6.3c-0.9-0.2-1.9-0.3-2.9-0.4L58.2,9c0.8-0.4,1.7-0.5,2.7-0.5C61.3,8.5,61.6,8.5,62,8.6z"/>
		<path class="st19" d="M68.5,3.7C68.4,3.6,68.4,3.6,68.5,3.7l-0.1,0.1C68.4,3.7,68.4,3.7,68.5,3.7z"/>
		<path class="st14" d="M62.2,32l2.3-7.7c-1,0.8-2.2,1.1-3.7,1.1c0,0-0.1,0-0.1,0l-2.3,6.5C59.3,32,60,32,60.8,32
			C61.3,32,61.7,32,62.2,32z"/>
		<path class="st14" d="M65.8,11c0.8,1.1,1.2,2.6,1.4,4.4l0.4-1.3V5.9L65.8,11z"/>
		<path class="st14" d="M68.5,3.7c0.7,0.4,1.3,0.8,1.9,1.2l0.7-2.2c-0.5,0.1-1,0.2-1.4,0.4C69.2,3.2,68.8,3.4,68.5,3.7z"/>
		<path class="st14" d="M127.7,2.8h-10.4l-0.8,6.4h9.2L127.7,2.8C127.7,2.8,127.7,2.8,127.7,2.8z"/>
		<polygon class="st14" points="114.4,25.2 115.8,25.2 115.8,24.9 115.8,19.9 122,19.9 124.2,13.5 115.9,13.5 		"/>
		<path class="st14" d="M103.7,25.5c0.4,0.3,0.7,0.7,0.8,1.2l0.3,0.7V11.7l-3.8,13.1c0.5,0,0.9,0.1,1.3,0.1
			C102.9,25.1,103.3,25.3,103.7,25.5z"/>
		<path class="st14" d="M109,3.9c-0.8,0.8-1.2,1.8-1.2,3.2v7.9l2.4-11.9C109.8,3.3,109.3,3.6,109,3.9z"/>
		<path class="st14" d="M103.7,3.1c-0.4-0.3-0.8-0.5-1.4-0.6c-0.3-0.1-0.7-0.1-1.1-0.1l-4.6,13.7v6.2l7.7-18.6
			C104.2,3.5,104,3.3,103.7,3.1z"/>
		<path class="st14" d="M91.3,7.4l-5.7,8.2c0,0.5,0.1,1,0.1,1.5c0,1.5-0.2,2.7-0.5,3.8c-0.4,1-0.9,1.9-1.5,2.6
			c-0.6,0.7-1.4,1.1-2.3,1.5c-0.7,0.3-1.6,0.4-2.4,0.4l-4.4,6.4c0.7,0.1,1.4,0.1,2,0.2c0.7,0,1.3,0,1.8,0c0.8,0,1.5,0,2.2-0.1
			l12.5-21.2c0-0.1-0.1-0.2-0.1-0.3C92.5,9.2,92,8.2,91.3,7.4z"/>
		<path class="st14" d="M96.7,2.8v1.8l1.2-2C97.3,2.6,96.9,2.7,96.7,2.8z"/>
		<path class="st14" d="M75.8,25.1v-5l-0.4,0.8c-0.2,0.9-0.4,1.8-0.7,2.6c-0.8,1.9-1.8,3.5-3.1,4.7c-0.1,0.1-0.2,0.1-0.2,0.2
			L70,30.7c0.1,0,0.1,0.1,0.2,0.1c0.6,0.3,1.3,0.4,2,0.6c0.1,0,0.3,0,0.4,0.1l3.8-6.2C76.2,25.2,76,25.1,75.8,25.1z"/>
		<path class="st14" d="M83.7,10.7c0.3,0.4,0.6,0.8,0.9,1.2L88.9,5c-1.1-0.8-2.4-1.5-3.9-2l-3.4,6.2C82.4,9.6,83.1,10.1,83.7,10.7z"
			/>
		<polygon class="st19" points="75.8,8.8 75.8,8.8 75.8,8.8 		"/>
		<path class="st17" d="M67.6,20.8l-4.4,11.1c0.8-0.1,1.6-0.2,2.4-0.5l2.1-4.6V20.8z"/>
		<path class="st14" d="M74.6,10.4c0.1,0.2,0.1,0.4,0.2,0.6l1-2.2v0c0,0,0,0,0,0L78.8,2c-0.3,0-0.6,0-0.9,0c-0.9,0-1.8,0-2.8,0.1
			l-2.2,5.4C73.6,8.4,74.1,9.4,74.6,10.4z"/>
		<path class="st15" d="M74.8,11c-0.1-0.2-0.1-0.4-0.2-0.6c-0.4-1.1-1-2.1-1.6-3c-0.5-0.6-1-1.2-1.5-1.8c-0.3-0.3-0.7-0.6-1-0.8
			c-0.6-0.5-1.2-0.9-1.9-1.2c0,0-0.1,0.1-0.1,0.1c-0.1,0.1-0.2,0.1-0.2,0.2c-0.4,0.4-0.5,0.9-0.5,1.5v0.5v8.2v6.7v6.1v0.5
			c0,1.1,0.4,2,1.3,2.7c0.9-0.5,1.6-1,2.4-1.7c0.1-0.1,0.2-0.1,0.2-0.2c1.3-1.3,2.4-2.8,3.1-4.7c0.3-0.8,0.6-1.7,0.7-2.6
			c0.2-1.2,0.4-2.5,0.4-3.9C75.7,14.7,75.4,12.7,74.8,11z"/>
		<polygon class="st14" points="11,24.9 11,23.9 7.6,31.3 11,31.3 14.4,24.9 		"/>
		<polygon class="st14" points="20.3,13.5 15.7,13.5 12.8,19.9 17,19.9 		"/>
		<path class="st14" d="M20.9,9.2c0.8,0,1.5-0.3,2-0.8c0,0,0.1-0.1,0.1-0.1l0.5-1c0.1-0.4,0.2-0.9,0.2-1.4c0-0.6-0.1-1.2-0.3-1.8
			c-0.2-0.6-0.4-1-0.6-1.4h-2.3l-2.9,6.4H20.9z"/>
	</g>
</g>
</svg>
