<?xml version="1.0" encoding="utf-8"?>
<!-- Generator: Adobe Illustrator 26.3.1, SVG Export Plug-In . SVG Version: 6.00 Build 0)  -->
<svg version="1.1" id="Calque_1" xmlns="http://www.w3.org/2000/svg" xmlns:xlink="http://www.w3.org/1999/xlink" x="0px" y="0px"
	 viewBox="0 0 431 130" style="enable-background:new 0 0 431 130;" xml:space="preserve">
<style type="text/css">
	.st0{display:none;}
	.st1{display:inline;fill:#4062AB;}
	.st2{display:none;fill:#9DD1C0;}
	.st3{display:none;fill:none;stroke:#2D2422;stroke-width:3;stroke-miterlimit:10;}
	.st4{display:inline;fill:none;}
	.st5{display:inline;fill:#E95059;}
	.st6{display:inline;fill:#FFCB00;}
	.st7{display:inline;fill:#9DD1C0;}
	.st8{display:inline;fill:#51B1DC;}
	.st9{display:inline;}
	.st10{fill:#51B1DC;}
	.st11{fill:#E95059;}
	.st12{fill:#2D2422;}
	.st13{display:inline;fill:#2D2422;}
	.st14{fill:#3F63AB;}
	.st15{fill:#9CD0BF;}
	.st16{fill:none;}
	.st17{fill:#E9545A;}
	.st18{fill:#26241F;}
	.st19{fill:#12100B;}
</style>
<g class="st0">
	<path class="st1" d="M882.67-119.04c-16.66,0-32.22,8.29-41.5,22.12c-38.19,56.96-79.34,125.1-89.05,167.16
		c-19.16,82.92-136.55,111.61-168.59,204.82c-5.58,16.24-13.7,35.12-23.34,55.58c-9.87,20.96-21.35,43.6-33.36,66.82
		c-12.47,24.09-25.52,48.8-37.95,72.91c-0.4,0.78-0.82,1.54-1.26,2.29c-9.44,16.11-120.41,207.72-110.97,297.13
		c8.79,83.3-68.02,206.76-84.7,232.44c-2.15,3.3-3.89,6.85-5.2,10.56l-44.11,125.02l-0.06,0.01c0,0-2.88,11.64-116.79,261.13
		c-36.71,80.4-36.79,143.64-74.45,252.42c-17.2,49.69-47.07,99.52-74.44,139c-26.48,38.19-42.63,82.5-47.18,128.75
		c-1.8,18.31-11.12,40.58-36.44,64.85c-54.34,52.08-97.67,93.13-112.06,106.74c-2.43,2.3-4.62,4.83-6.55,7.57l0,0
		c-4.97,7.07-8.02,15.31-8.85,23.91c-3.57,36.86-12.53,138.16-3.11,136.71c1.69-0.26,6.84-6.33,14.42-16.49
		c2.95-3.96,6.47-7.47,10.45-10.4c48.05-35.44,210.72-166.9,244.64-344.72c39.91-209.2,146.58-334.75,208.53-511.09
		c65.07-185.2,188.55-151.01,163.65-238.36c0,0-23.54-103.06,13.35-183.81c36.89-80.76,102.18-325.94,97.01-406.91
		c-0.22-3.5-0.41-6.85-0.56-10.06c-0.38-8.26,1.26-16.49,4.85-23.95c43.83-91.07,104.09-193.29,168.56-234.22
		c95.63-60.71,129.39-106.43,140.29-125.5c3.59-6.29,8.45-11.75,14.34-15.96c15.58-11.14,46.76-38,68.3-86.43
		c0.49-1.11,1.03-2.21,1.6-3.29l49.86-93.21c17.81-33.29-6.31-73.55-44.07-73.55H882.67z"/>
	<path class="st1" d="M31.81,546.38c-88.65,331.53-203.16,549.73-250.75,631.98c-0.9,1.55,0.22,3.48,2.01,3.48h62.9
		c0.89,0,1.69-0.5,2.08-1.29c89.39-182.41,325.18-666.54,352.9-754.31c34.3-108.59,17.45-246.23,104.28-353.98
		c42.58-52.85,62.79-105.01,72.32-144.45c0.35-1.46-0.76-2.86-2.26-2.86h-42.82c-0.72,0-1.4,0.33-1.84,0.9
		C275.01-2.07,194.18,118.89,171.03,238.4C134.69,426.01,76.63,378.75,31.81,546.38z"/>
	<path class="st1" d="M723.13-75.04H448.8c-1.01,0-1.91,0.65-2.21,1.61c-16.41,51.84-36.33,132.57-25.57,193.89
		c16.96,96.65-96.05,221.66-99.11,225.03c-0.04,0.05-0.08,0.09-0.13,0.13c-2.83,2.63-95.33,89.52-109.4,235.74
		C199.55,714.62,7.73,1103.39-31.49,1181.77c-0.02,0.05-0.05,0.09-0.07,0.13c-1.46,2.48-46.44,79.52-38.09,156.76
		c6.32,58.47-43.84,144.01-69.87,183.87c-8.98,13.75-15.57,28.89-19.64,44.8c-7.65,29.91-26.9,83.64-72.45,127.04
		c-0.46,0.44-0.72,1.04-0.72,1.67v94.64c0,2.16,2.69,3.16,4.09,1.51c48.91-57.41,142.35-174.26,167.08-256.19
		c33.73-111.73,138.81-260.31,159.31-354.17l0,0c76.1-153.4,170.35-385.79,257.32-719.23c0.03-0.1,0.05-0.2,0.06-0.3
		c0.51-4.23,12.53-98.15,83.05-133.69c70.99-35.78,123.67-175.87,125.35-180.37c0.03-0.08,0.06-0.15,0.1-0.22
		c2.6-5.19,97.25-193.62,159.99-218.61c2.14-0.85,1.82-3.98-0.44-4.42l0,0C723.42-75.03,723.27-75.04,723.13-75.04z"/>
	<path class="st1" d="M-90.92,608.57c60.91-101.02,155.99-220.69,130-266.09c-0.63-1.11-2.06-1.49-3.16-0.85
		c-12.54,7.18-83.53,52.53-162.53,198.62c-35.5,65.64-77.87,184.65-115.62,302.62c-0.07,0.23-0.11,0.47-0.11,0.71v173.66
		c0,2.49,3.39,3.24,4.43,0.97c59.24-128.99,116.6-266.09,127.26-308.47c0.34-1.35-0.56-2.67-1.93-2.87
		C-120.81,705.65-143.01,694.97-90.92,608.57z"/>
</g>
<path class="st2" d="M1232.09,55.8c54.25,15.95,197.6-26.29,274.16-0.01c25.61,8.79,138.76,39.71,163.89,45.94
	c51.19,12.68,80.92,3.74,115.2,4.04c17.54,0.15,34.83,4.17,50.73,11.57c39.23,18.23,90.87,57.78,136.85,61.59
	c121.63,10.09,158.16-31.35,169.16-105.72c11-74.37-77.96-149.14-198.69-167c-9.53-1.41-18.97-2.42-28.28-3.05l0.05-1.12
	c-6.04,0.22-12.12,0.33-18.22,0.37c-3.44-0.05-6.86-0.06-10.25-0.01c-120.51-1.09-198.57-114.51-221.79-153.37
	c-5.38-9.01-12.33-16.98-20.5-23.57v0c-27.41-22.13-60.79-35.57-95.89-38.62c-21.91-1.91-43.76-3.65-54.47-5.24
	c-189.36-28-225.81,110.27-286.18,155.09C1189.01-149.34,1048.45,1.81,1232.09,55.8z"/>
<path class="st3" d="M1193.21,73c54.25,15.95,194.3-13.24,274.16-0.01c31.51,5.22,138.76,39.71,163.89,45.94
	c50.08,12.41,79.62,4.11,112.98,4.03c18.51-0.05,36.8,4.05,53.58,11.87c39.46,18.37,85.58,54.15,136.22,61.3
	c120.85,17.05,158.16-31.35,169.16-105.72c11-74.37-77.96-149.14-198.69-167c-9.53-1.41-18.97-2.42-28.28-3.05l0.05-1.12
	c-6.04,0.22-12.12,0.33-18.22,0.37c-3.44-0.05-6.86-0.06-10.25-0.01c-120.51-1.09-198.57-114.51-221.79-153.37
	c-5.38-9.01-12.33-16.98-20.5-23.57v0c-27.41-22.13-60.79-35.57-95.89-38.62c-21.91-1.91-43.76-3.65-54.47-5.24
	c-189.36-28-225.81,110.27-286.18,155.09C1150.13-132.13,1009.57,19.02,1193.21,73z"/>
<g class="st0">
	<path class="st4" d="M653.51,450.98c8.49-16.41,16.6-32.41,23.58-47.23l-5.26,4.22L653.51,450.98z"/>
	<path class="st5" d="M287.52,512.24c-0.75-2.55-11.93-2.58-15.63-2.34v8.07C276.23,517.16,288.36,515.11,287.52,512.24z"/>
	<path class="st4" d="M436.76,549.01c-1.23-1.17-2.66-2.08-4.29-2.74c-1.64-0.66-3.37-0.99-5.21-0.99h-18.54v25.59h18.54
		c1.84,0,3.58-0.33,5.21-0.99c1.63-0.66,3.07-1.57,4.29-2.74c1.23-1.17,2.2-2.51,2.91-4.04c0.71-1.52,1.07-3.2,1.07-5.03
		c0-1.83-0.36-3.5-1.07-5.03C438.96,551.52,437.99,550.18,436.76,549.01z"/>
	<path class="st6" d="M418.33,628.83c-8.3,0-16.06-1.54-23.3-4.63c-7.24-3.09-13.55-7.31-18.96-12.66
		c-5.4-5.35-9.67-11.65-12.81-18.88c-3.14-7.24-4.7-14.95-4.7-23.15c0-8.2,1.57-15.92,4.7-23.15c3.13-7.24,7.4-13.53,12.81-18.88
		c5.4-5.35,11.72-9.6,18.96-12.73c7.24-3.13,15-4.7,23.3-4.7c8.2,0,15.94,1.57,23.22,4.7c7.28,3.14,13.62,7.38,19.03,12.73
		c5.4,5.35,9.67,11.65,12.81,18.88c3.13,7.24,4.7,14.95,4.7,23.15c0,8.2-1.57,15.92-4.7,23.15c-3.14,7.24-7.4,13.53-12.81,18.88
		c-5.4,5.35-11.75,9.58-19.03,12.66C434.27,627.28,426.53,628.83,418.33,628.83z M418.33,538.67c-4.25,0-8.18,0.85-11.79,2.53
		c-3.62,1.69-6.73,3.93-9.33,6.73c-2.6,2.8-4.66,6.05-6.15,9.77c-1.5,3.71-2.24,7.65-2.24,11.79c0,4.05,0.75,7.96,2.24,11.72
		c1.49,3.76,3.55,7.04,6.15,9.84c2.6,2.8,5.72,5.04,9.33,6.73c3.62,1.69,7.55,2.53,11.79,2.53c4.24,0,8.18-0.84,11.79-2.53
		c3.62-1.69,6.73-3.93,9.33-6.73c2.6-2.8,4.65-6.08,6.15-9.84c1.49-3.76,2.24-7.67,2.24-11.72c0-4.15-0.75-8.08-2.24-11.79
		c-1.5-3.71-3.55-6.97-6.15-9.77c-2.6-2.8-5.72-5.04-9.33-6.73C426.51,539.52,422.58,538.67,418.33,538.67z"/>
	<path class="st5" d="M386.2,535.75c0,1.62-1.76,3.82-3.38,3.82c-1.62,0-3.82-2.21-3.82-3.82s2.66-2.93,4.27-2.93
		C384.89,532.82,386.2,534.13,386.2,535.75z"/>
	<path class="st5" d="M404.08,528.68c0,2.62-3.17,4.14-5.79,4.14c-2.62,0-4.74-2.12-4.74-4.74c0-2.62,2.42-5.49,5.04-5.49
		S404.08,526.06,404.08,528.68z"/>
	<path class="st5" d="M391.13,525.16c0,1-0.81,2.87-1.82,2.87s-3.01-1.86-3.01-2.87s2.01-2.57,3.01-2.57
		S391.13,524.16,391.13,525.16z"/>
	<circle class="st5" cx="389.1" cy="544.01" r="2.9"/>
	<path class="st5" d="M390.21,531.76c0,0.86-1.6,2.3-2.45,2.3c-0.86,0-2.6-1.45-2.6-2.3c0-0.86,1.74-1.56,2.6-1.56
		C388.62,530.21,390.21,530.9,390.21,531.76z"/>
	<path class="st5" d="M469.39,565c0,2.09-1.69,6.02-3.78,6.02c-2.09,0-3.18-1.84-3.18-3.93c0-2.09,0.04-3.78,2.13-3.78
		C466.65,563.32,469.39,562.91,469.39,565z"/>
	<path class="st5" d="M471.22,576.39c0,0.75-1.51,1.66-2.26,1.66s-2.11-0.91-2.11-1.66s0.61-2.26,1.36-2.26
		C468.96,574.13,471.22,575.64,471.22,576.39z"/>
	<path class="st5" d="M396.77,538.13c0,1.32-1.07,2.98-2.39,2.98s-3.58-1.67-3.58-2.98c0-1.32,2.27-2.39,3.58-2.39
		S396.77,536.82,396.77,538.13z"/>
	<circle class="st5" cx="393.41" cy="533.18" r="1.41"/>
	<path class="st5" d="M405.12,537.8c0,1.13-1.52,2.65-2.65,2.65c-1.13,0-2.5-1.52-2.5-2.65s1.96-2.05,3.09-2.05
		S405.12,536.66,405.12,537.8z"/>
	<path class="st7" d="M590.72,616.68l-24.45-43.46h-23.72l0.18,43.46h-38.75V476.15h70.45c3.38,0,6.82,0.63,10.32,1.9
		c3.5,1.27,6.88,2.96,10.14,5.07c3.26,2.11,6.28,4.5,9.06,7.15c2.78,2.66,5.13,5.37,7.06,8.15c2.41,3.5,4.26,7.58,5.52,12.22
		c1.27,4.65,1.9,9.09,1.9,13.31c0,7-1.63,13.52-4.89,19.56c-3.26,6.04-7.79,11.11-13.58,15.21l32.96,57.95H590.72z M563.38,507.47
		h-21.91v30.24h21.91c2.17,0,4.22-0.39,6.16-1.17c1.93-0.78,3.62-1.86,5.07-3.24c1.45-1.38,2.59-2.97,3.44-4.77
		c0.84-1.8,1.27-3.78,1.27-5.94c0-2.16-0.42-4.14-1.27-5.94c-0.85-1.8-1.99-3.39-3.44-4.77c-1.45-1.38-3.14-2.46-5.07-3.24
		C567.6,507.87,565.55,507.47,563.38,507.47z"/>
	<path class="st5" d="M625.51,603.66c-0.71,0.96-1.85,1.58-3.13,1.58c-2.15,0-3.9-1.74-3.9-3.9c0-2.02,1.54-3.68,3.5-3.88
		l-22.03-38.74c5.8-4.1,10.32-9.17,13.58-15.21c3.26-6.04,4.89-12.56,4.89-19.56c0-4.22-0.63-8.66-1.9-13.31
		c-0.32-1.19-0.68-2.33-1.08-3.44c-0.65,0.18-1.34,0.27-2.04,0.27c-4.28,0-7.75-3.47-7.75-7.75c0-2.09,0.83-3.99,2.17-5.38
		c-1.19-1.37-2.48-2.73-3.88-4.07c-2.78-2.65-5.8-5.04-9.06-7.15c-3.26-2.11-6.64-3.8-10.14-5.07c-3.5-1.27-6.94-1.9-10.32-1.9
		h-9.93c-0.15,2.26-2.04,4.05-4.34,4.05s-4.18-1.79-4.34-4.05h-37.23c0.46,1.26,0.72,2.63,0.72,4.05c0,6.5-5.27,11.77-11.77,11.77
		c-1.24,0-2.44-0.19-3.56-0.55v16.09c0.23-0.02,0.46-0.04,0.69-0.04c3.51,0,8.31,2.85,8.31,6.36c0,3.51-4.8,6.36-8.31,6.36
		c-0.23,0-0.46-0.01-0.69-0.04v27.64c1.03-0.87,2.35-2.63,3.8-2.63c3.25,0,7.13,3.7,7.13,6.95s-3.88,6.07-7.13,6.07
		c-1.45,0-2.77-0.52-3.8-1.39v59.88h38.75l-0.01-2.98c-0.39,0.11-0.8,0.18-1.22,0.18c-2.39,0-4.32-1.93-4.32-4.32
		c0-2.39,1.93-4.32,4.32-4.32c0.41,0,0.81,0.06,1.19,0.17l-0.13-32.19h17.85c0.26-6.19,4.08-11.09,8.74-11.09
		c4.84,0,10.71,5.27,10.71,11.78c0,4.8-4.09,8.92-7.15,10.76l18.01,32.02h42.2L625.51,603.66z M518.79,597.44
		c-2.83,0-9.02-3.44-9.02-7.68s6.19-7.68,9.02-7.68s7.78,3.44,7.78,7.68S521.62,597.44,518.79,597.44z M523.91,543.69
		c-2.54,0-7.44-3.09-7.44-6.91c0-3.82,4.9-6.91,7.44-6.91s6.73,3.09,6.73,6.91C530.64,540.59,526.45,543.69,523.91,543.69z
		 M585.08,480.2c3.96,0,7.88,3.21,7.88,7.17c0,3.96-3.92,8.06-7.88,8.06c-3.96,0-7.17-4.1-7.17-8.06
		C577.91,483.41,581.12,480.2,585.08,480.2z M577.91,539.57c-2.81,0-5.24-1.62-6.41-3.97c-0.63,0.35-1.28,0.67-1.96,0.95
		c-1.93,0.78-3.98,1.17-6.16,1.17h-21.91v-30.24h21.91c2.17,0,4.22,0.39,6.16,1.17c1.93,0.78,3.62,1.86,5.07,3.24
		c1.45,1.38,2.59,2.97,3.44,4.77c0.84,1.8,1.27,3.78,1.27,5.94c0,0.95-0.09,1.87-0.25,2.75c3.41,0.55,6.01,3.5,6.01,7.07
		C585.07,536.37,581.86,539.57,577.91,539.57z M590.48,589.77c-2.99,0-5.41-3.21-5.41-7.17c0-3.96,2.42-7.17,5.41-7.17
		c2.99,0,5.41,3.21,5.41,7.17C595.88,586.56,593.46,589.77,590.48,589.77z"/>
	<path class="st4" d="M577.91,525.26c0.39,0,0.78,0.03,1.15,0.09c0.16-0.88,0.25-1.8,0.25-2.75c0-2.16-0.42-4.14-1.27-5.94
		c-0.85-1.8-1.99-3.39-3.44-4.77c-1.45-1.38-3.14-2.46-5.07-3.24c-1.93-0.78-3.98-1.17-6.16-1.17h-21.91v30.24h21.91
		c2.17,0,4.22-0.39,6.16-1.17c0.69-0.28,1.34-0.59,1.96-0.95c-0.48-0.96-0.75-2.04-0.75-3.19
		C570.75,528.46,573.95,525.26,577.91,525.26z"/>
	<path class="st8" d="M914.52,530.22v-45.88H772.59l-3.82,3.84v39.56c16.39-15.26,36.09-30.75,43.86-25.48
		c14.3,9.7-12.3,44.18-24.21,56.1c-5.8,5.8-13.38,12.95-19.65,18.76v21.45c10.64-7.06,24.43-14.49,30.77-10.66
		c8.94,5.4-19.49,33.41-30.77,43.99v8.59c11.35-1.58,25.34-2.54,25.14,2.44c-0.21,5.19-14.41,10.72-25.14,14.16v13.65h49.38v-69.66
		h84.92v-45.4h-84.92v-25.46H914.52z"/>
	<path class="st6" d="M809.22,506.73c-6.43-4.36-22.75,8.46-36.33,21.1v40.9c5.19-4.82,11.47-10.74,16.27-15.54
		C799.03,543.32,821.06,514.77,809.22,506.73z"/>
	<path class="st6" d="M795.92,591.15c-4.76-2.88-15.11,2.71-23.11,8.01v25.04C781.28,616.25,802.64,595.21,795.92,591.15z"/>
	<path class="st6" d="M788.69,645.11c0.12-2.91-8.06-2.35-14.7-1.43v9.7C780.26,651.37,788.56,648.14,788.69,645.11z"/>
	<path class="st6" d="M1003.95,601.12c-9.13,0-17.68-1.7-25.64-5.1c-7.96-3.4-14.92-8.04-20.86-13.93
		c-5.95-5.89-10.65-12.82-14.09-20.78c-3.45-7.96-5.18-16.46-5.18-25.48c0-9.02,1.72-17.52,5.18-25.48
		c3.45-7.96,8.15-14.89,14.09-20.78c5.94-5.89,12.9-10.56,20.86-14.01c7.96-3.45,16.51-5.18,25.64-5.18
		c9.02,0,17.54,1.73,25.56,5.18c8.01,3.45,14.99,8.12,20.94,14.01c5.94,5.89,10.64,12.82,14.09,20.78
		c3.45,7.96,5.18,16.46,5.18,25.48c0,9.03-1.73,17.52-5.18,25.48c-3.45,7.96-8.15,14.89-14.09,20.78
		c-5.95,5.89-12.93,10.54-20.94,13.93C1021.49,599.42,1012.97,601.12,1003.95,601.12z M1003.95,501.9c-4.67,0-9,0.93-12.98,2.79
		c-3.98,1.86-7.41,4.33-10.27,7.41c-2.87,3.08-5.12,6.66-6.77,10.75c-1.65,4.09-2.47,8.42-2.47,12.98c0,4.46,0.82,8.76,2.47,12.9
		c1.64,4.14,3.9,7.75,6.77,10.83c2.87,3.08,6.29,5.55,10.27,7.41c3.98,1.86,8.31,2.79,12.98,2.79c4.67,0,9-0.93,12.98-2.79
		c3.98-1.86,7.41-4.32,10.27-7.41c2.87-3.08,5.12-6.69,6.77-10.83c1.64-4.14,2.47-8.44,2.47-12.9c0-4.56-0.82-8.89-2.47-12.98
		c-1.65-4.09-3.9-7.67-6.77-10.75c-2.87-3.08-6.29-5.55-10.27-7.41C1012.95,502.84,1008.62,501.9,1003.95,501.9z"/>
	<path class="st5" d="M968.59,498.68c0,1.78-1.94,4.21-3.71,4.21s-4.21-2.43-4.21-4.21c0-1.78,2.92-3.22,4.7-3.22
		S968.59,496.91,968.59,498.68z"/>
	<path class="st5" d="M988.26,490.91c0,2.88-3.49,4.56-6.37,4.56c-2.88,0-5.22-2.34-5.22-5.22c0-2.88,2.66-6.04,5.55-6.04
		S988.26,488.02,988.26,490.91z"/>
	<path class="st5" d="M974.01,487.03c0,1.1-0.9,3.15-2,3.15s-3.32-2.05-3.32-3.15s2.21-2.82,3.32-2.82S974.01,485.93,974.01,487.03z
		"/>
	<circle class="st5" cx="971.78" cy="507.77" r="3.19"/>
	<path class="st5" d="M973,494.3c0,0.95-1.76,2.54-2.7,2.54s-2.87-1.59-2.87-2.54c0-0.95,1.92-1.71,2.87-1.71S973,493.35,973,494.3z
		"/>
	<path class="st5" d="M1060.14,530.88c0,2.3-1.86,6.63-4.16,6.63s-3.5-2.03-3.5-4.32s0.05-4.16,2.34-4.16
		C1057.12,529.03,1060.14,528.58,1060.14,530.88z"/>
	<path class="st5" d="M1062.15,543.42c0,0.83-1.66,1.83-2.49,1.83s-2.32-1-2.32-1.83s0.67-2.49,1.5-2.49
		S1062.15,542.59,1062.15,543.42z"/>
	<path class="st5" d="M980.22,501.31c0,1.45-1.18,3.28-2.63,3.28c-1.45,0-3.94-1.83-3.94-3.28s2.49-2.63,3.94-2.63
		C979.04,498.68,980.22,499.86,980.22,501.31z"/>
	<circle class="st5" cx="976.52" cy="495.85" r="1.56"/>
	<path class="st5" d="M989.41,500.94c0,1.24-1.67,2.91-2.91,2.91c-1.24,0-2.75-1.67-2.75-2.91s2.16-2.25,3.41-2.25
		C988.4,498.68,989.41,499.69,989.41,500.94z"/>
	<path class="st7" d="M634.11,407.97v40l1.97,1.97c4.79-14.56,10.59-29.48,15.75-41.97H634.11z"/>
	<path class="st7" d="M767.57,451.11h-47.86l-0.69,195.02h-47.41l0.69-195.02h-47.86l-3.15-3.15v-40h149.42v40L767.57,451.11z"/>
	<path class="st5" d="M683.35,407.97c-1.94,7.86,1,14.49-0.95,22.35c-1.74,7.04-8.36,15.31-10.1,22.35c0,25.57,0,51.14,0,76.72
		c5.74-13.99,8.66-32.57,14.41-46.56c4.33-10.56-0.57-22.33,3.76-32.88c2.66-6.48,12.31-13.92,14.97-20.4
		c3.88-9.44,12.83-12.13,16.71-21.57C709.21,407.97,696.28,407.97,683.35,407.97z"/>
	<polygon class="st5" points="719.71,514.53 704.74,646.14 719.02,646.14 	"/>
	<path class="st5" d="M639.01,407.97c-5.16,12.49-10.96,27.41-15.75,41.97l1.17,1.17h17.04c2.5-16.16,5.49-31.82,8.87-43.14H639.01z
		"/>
	<path class="st4" d="M719.71,457.57c1.67-1.27,2.43-1.15,2.43-1.15s3.96-2.47,0,26.4c-0.6,4.37-1.44,7.96-2.43,10.97v20.74
		l13.35-63.42h-13.35V457.57z"/>
	<path class="st7" d="M700.43,524.05c-2.52,12.62-13.41,106.68-18.72,122.08h23.03l14.96-131.6v-20.74
		C714.1,510.71,703.36,509.39,700.43,524.05z"/>
	<path class="st5" d="M719.71,493.79v-36.23c-5.25,3.98-19.48,21.64-47.41,99.7l-0.69,88.86h10.1
		c5.31-15.4,16.2-109.47,18.72-122.08C703.36,509.39,714.1,510.71,719.71,493.79z"/>
	<path class="st7" d="M739.38,407.97h-17.24L672.3,529.38v27.89c27.93-78.06,42.16-95.72,47.41-99.7v-6.45h11.2
		c1.19-4.28,2.15-9.53,2.15-15.36C733.06,428.03,736.22,417.02,739.38,407.97z"/>
	<path class="st7" d="M754.83,407.97h-12.69l-9.08,43.14H747c2.36-5.2,4.72-12.72,4.88-22.16
		C752.02,420.56,753.37,413.38,754.83,407.97z"/>
	<path class="st5" d="M748.72,407.97h-9.34c-3.15,9.05-6.32,20.06-6.32,27.78c0,5.83-4.91,11.09-6.1,15.36h10.27
		c1.67-6.27,0.56-17.17,3.47-22.96C748.74,412.14,749.06,412.73,748.72,407.97z"/>
	<path class="st5" d="M770.71,407.97h-15.88c-1.47,5.41-2.81,12.58-2.95,20.98c-0.16,9.44-2.52,16.95-4.88,22.16h12.38
		c1.98-13.75,7.79-21.88,11.32-25.69V407.97z"/>
	<path class="st7" d="M770.71,447.97v-22.55c-3.53,3.81-9.34,11.94-11.32,25.69h8.18L770.71,447.97z"/>
	<path class="st7" d="M661.33,407.97h-10.98c-3.38,11.32-6.36,26.98-8.87,43.14h9.45c3.21-6.93,7.11-17.04,7.3-25.69
		C658.37,419.09,659.77,412.94,661.33,407.97z"/>
	<path class="st7" d="M683.35,407.97h-12.05c-1.18,12.18-3.34,31.42-6.13,43.14h7.13v1.55L683.35,407.97z"/>
	<path class="st5" d="M665.5,407.97c-1.56,4.97-0.11,11.12-0.25,17.45c-0.19,8.66-11.1,18.77-14.32,25.69h14.23
		c2.79-11.72,4.95-30.97,6.13-43.14H665.5z"/>
	<polyline class="st4" points="1133.84,618.5 1133.84,618.85 1137.78,618.85 	"/>
	<polygon class="st5" points="1133.84,591.14 1086.48,603.64 1086.48,627.6 1133.84,602.97 	"/>
	<polygon class="st5" points="1133.84,560.59 1086.48,587.45 1086.48,595.35 1133.84,573.18 	"/>
	<polygon class="st5" points="1155.12,661.14 1165.78,618.85 1144.01,618.85 1118.8,661.14 	"/>
	<polygon class="st5" points="1223.69,661.14 1223.69,618.85 1200.46,618.85 1204.79,661.14 	"/>
	<polygon class="st5" points="1133.84,514.7 1086.48,561.89 1086.48,576.43 1133.84,543.18 	"/>
	<polygon class="st5" points="1133.84,618.85 1133.84,618.5 1086.48,635.32 1086.48,661.14 1103.18,661.14 1137.78,618.85 	"/>
	<polygon class="st5" points="1089.09,385.89 1086.48,515.55 1134.09,385.89 	"/>
	<polygon class="st5" points="1134.32,385.76 1089.09,385.76 1089.09,385.89 1134.09,385.89 	"/>
	<polygon class="st5" points="1190.85,661.14 1195.9,618.85 1183.42,618.85 1166.94,661.14 	"/>
	<polygon class="st5" points="1135.27,434.14 1086.48,517.5 1086.48,550.27 1133.84,511.83 	"/>
	<polygon class="st8" points="1133.84,511.83 1086.48,550.27 1086.48,561.89 1133.84,514.7 	"/>
	<polygon class="st5" points="1133.84,543.18 1086.48,576.43 1086.48,587.45 1133.84,560.59 	"/>
	<polygon class="st8" points="1133.84,573.18 1086.48,595.35 1086.48,603.64 1133.84,591.14 	"/>
	<polygon class="st5" points="1133.84,602.97 1086.48,627.6 1086.48,635.32 1133.84,618.5 	"/>
	<polygon class="st8" points="1144.01,618.85 1137.78,618.85 1103.18,661.14 1118.8,661.14 	"/>
	<polygon class="st8" points="1166.94,661.14 1183.42,618.85 1165.78,618.85 1155.12,661.14 	"/>
	<polygon class="st8" points="1136.44,385.89 1134.09,385.89 1086.48,515.55 1086.48,517.5 1135.27,434.14 	"/>
	<polygon class="st8" points="1136.44,385.89 1136.44,385.76 1134.32,385.76 1134.09,385.89 	"/>
	<polygon class="st8" points="1204.79,661.14 1200.46,618.85 1195.9,618.85 1190.85,661.14 	"/>
	<path class="st4" d="M1377.74,472.74c-1.62-1.54-3.5-2.74-5.66-3.61c-2.16-0.87-4.44-1.31-6.87-1.31h-24.44v33.73h24.44
		c2.42,0,4.71-0.43,6.87-1.3c2.15-0.87,4.04-2.07,5.66-3.61c1.62-1.54,2.89-3.31,3.84-5.32c0.94-2.01,1.41-4.22,1.41-6.63
		c0-2.41-0.47-4.62-1.41-6.62C1380.64,476.05,1379.36,474.28,1377.74,472.74z"/>
	<path class="st7" d="M1353.45,577.93c-10.94,0-21.17-2.04-30.7-6.1c-9.54-4.07-17.86-9.63-24.98-16.69
		c-7.12-7.06-12.75-15.35-16.88-24.89c-4.13-9.54-6.2-19.71-6.2-30.51c0-10.8,2.06-20.98,6.2-30.51
		c4.13-9.54,9.76-17.83,16.88-24.89c7.12-7.06,15.45-12.65,24.98-16.78c9.54-4.13,19.77-6.2,30.7-6.2c10.8,0,21.01,2.07,30.61,6.2
		c9.6,4.13,17.96,9.73,25.08,16.78c7.12,7.06,12.74,15.35,16.88,24.89c4.13,9.54,6.2,19.71,6.2,30.51c0,10.81-2.07,20.98-6.2,30.51
		c-4.13,9.54-9.76,17.83-16.88,24.89c-7.12,7.06-15.48,12.62-25.08,16.69C1374.46,575.89,1364.25,577.93,1353.45,577.93z
		 M1353.45,459.11c-5.6,0-10.77,1.11-15.54,3.34c-4.77,2.23-8.87,5.18-12.3,8.87c-3.43,3.69-6.14,7.98-8.11,12.87
		c-1.97,4.9-2.96,10.08-2.96,15.54c0,5.34,0.98,10.49,2.96,15.45c1.97,4.96,4.67,9.28,8.11,12.97c3.43,3.69,7.53,6.65,12.3,8.87
		c4.77,2.23,9.95,3.34,15.54,3.34c5.59,0,10.78-1.11,15.54-3.34c4.77-2.22,8.87-5.18,12.3-8.87c3.43-3.69,6.13-8.01,8.11-12.97
		c1.97-4.96,2.96-10.11,2.96-15.45c0-5.47-0.99-10.65-2.96-15.54c-1.97-4.89-4.67-9.18-8.11-12.87c-3.43-3.69-7.53-6.64-12.3-8.87
		C1364.22,460.23,1359.04,459.11,1353.45,459.11z"/>
	<path class="st5" d="M1311.1,455.26c0,2.13-2.32,5.04-4.45,5.04s-5.04-2.91-5.04-5.04c0-2.13,3.5-3.86,5.63-3.86
		C1309.38,451.4,1311.1,453.13,1311.1,455.26z"/>
	<path class="st5" d="M1334.67,445.94c0,3.45-4.18,5.46-7.63,5.46s-6.25-2.8-6.25-6.25c0-3.45,3.19-7.23,6.64-7.23
		S1334.67,442.49,1334.67,445.94z"/>
	<path class="st5" d="M1317.6,441.3c0,1.32-1.07,3.78-2.39,3.78c-1.32,0-3.97-2.45-3.97-3.78c0-1.32,2.65-3.38,3.97-3.38
		C1316.53,437.92,1317.6,439.98,1317.6,441.3z"/>
	<circle class="st5" cx="1314.92" cy="466.14" r="3.82"/>
	<path class="st5" d="M1316.39,450.01c0,1.13-2.1,3.04-3.24,3.04s-3.43-1.9-3.43-3.04s2.3-2.05,3.43-2.05
		S1316.39,448.87,1316.39,450.01z"/>
	<path class="st5" d="M1420.74,493.81c0,2.75-2.23,7.94-4.98,7.94s-4.19-2.43-4.19-5.17c0-2.75,0.06-4.98,2.81-4.98
		S1420.74,491.06,1420.74,493.81z"/>
	<path class="st5" d="M1423.15,508.83c0,0.99-1.99,2.19-2.98,2.19c-0.99,0-2.78-1.2-2.78-2.19s0.8-2.98,1.8-2.98
		C1420.18,505.85,1423.15,507.83,1423.15,508.83z"/>
	<path class="st5" d="M1325.03,458.4c0,1.74-1.41,3.93-3.14,3.93c-1.74,0-4.72-2.2-4.72-3.93c0-1.74,2.99-3.14,4.72-3.14
		C1323.62,455.26,1325.03,456.67,1325.03,458.4z"/>
	<circle class="st5" cx="1320.6" cy="451.87" r="1.86"/>
	<path class="st5" d="M1336.03,457.96c0,1.49-2,3.49-3.49,3.49s-3.29-2-3.29-3.49c0-1.49,2.59-2.7,4.08-2.7
		S1336.03,456.47,1336.03,457.96z"/>
	<g class="st9">
		<path class="st10" d="M1192.81,576.04V422.16h41.45v153.88H1192.81z"/>
		<path class="st11" d="M1207.36,434.4c-2.12,0.23-5.26-1.76-5.49-3.87c-0.23-2.12,2.34-5.33,4.46-5.56
			c2.12-0.23,4.21,3.06,4.45,5.18C1211.01,432.27,1209.48,434.17,1207.36,434.4z"/>
		<path class="st11" d="M1219.18,456.82c-3.43,0.38-5.88-3.56-6.26-6.99s2.1-6.51,5.53-6.89c3.43-0.38,7.54,2.39,7.91,5.82
			C1226.75,452.18,1222.61,456.44,1219.18,456.82z"/>
		<path class="st11" d="M1221.94,439.35c-1.31,0.14-3.87-0.66-4.01-1.97c-0.14-1.31,2.01-4.22,3.32-4.36
			c1.31-0.14,3.65,2.27,3.79,3.58C1225.18,437.91,1223.25,439.2,1221.94,439.35z"/>
		<circle class="st11" cx="1196.95" cy="439.39" r="3.82"/>
		<path class="st11" d="M1213.16,439.09c-1.13,0.12-3.25-1.76-3.37-2.89c-0.12-1.13,1.52-3.62,2.65-3.74s2.29,2.06,2.41,3.19
			C1214.97,436.77,1214.28,438.96,1213.16,439.09z"/>
		<path class="st11" d="M1205.75,448.59c-1.73,0.19-4.06-0.97-4.25-2.7s1.67-4.93,3.4-5.12s3.45,2.63,3.64,4.35
			C1208.72,446.85,1207.47,448.4,1205.75,448.59z"/>
		<circle class="st11" cx="1211.76" cy="443.48" r="1.86"/>
		<path class="st11" d="M1207.39,459.48c-1.48,0.16-3.68-1.61-3.85-3.09s1.63-3.49,3.11-3.65c1.48-0.16,2.96,2.28,3.13,3.76
			C1209.94,457.99,1208.87,459.32,1207.39,459.48z"/>
		<path class="st11" d="M1207.14,558.92c0,2.13-2.32,5.04-4.45,5.04s-5.04-2.91-5.04-5.04c0-2.13,3.5-3.86,5.63-3.86
			S1207.14,556.79,1207.14,558.92z"/>
		<path class="st11" d="M1230.7,549.6c0,3.45-4.18,5.46-7.63,5.46s-6.25-2.8-6.25-6.25s3.19-7.23,6.64-7.23
			S1230.7,546.15,1230.7,549.6z"/>
		<path class="st11" d="M1213.63,544.96c0,1.32-1.07,3.78-2.39,3.78c-1.32,0-3.97-2.45-3.97-3.78s2.65-3.38,3.97-3.38
			C1212.56,541.58,1213.63,543.64,1213.63,544.96z"/>
		<circle class="st11" cx="1210.96" cy="569.8" r="3.82"/>
		<path class="st11" d="M1212.42,553.66c0,1.13-2.1,3.04-3.23,3.04c-1.13,0-3.43-1.9-3.43-3.04c0-1.13,2.3-2.05,3.43-2.05
			C1210.32,551.61,1212.42,552.53,1212.42,553.66z"/>
		<path class="st11" d="M1221.06,562.06c0,1.74-1.41,3.93-3.14,3.93s-4.72-2.2-4.72-3.93s2.99-3.14,4.72-3.14
			S1221.06,560.32,1221.06,562.06z"/>
		<circle class="st11" cx="1216.64" cy="555.53" r="1.86"/>
		<path class="st11" d="M1232.07,561.61c0,1.49-2,3.49-3.49,3.49s-3.29-2-3.29-3.49c0-1.49,2.59-2.7,4.08-2.7
			S1232.07,560.12,1232.07,561.61z"/>
		<path class="st11" d="M1205.18,493.46c0,1.13-2.1,3.04-3.24,3.04s-3.43-1.9-3.43-3.04s2.3-2.05,3.43-2.05
			S1205.18,492.32,1205.18,493.46z"/>
		<path class="st11" d="M1213.83,516.99c0,1.74-1.41,3.93-3.14,3.93c-1.74,0-4.72-2.2-4.72-3.93c0-1.74,2.99-3.14,4.72-3.14
			C1212.43,513.84,1213.83,515.25,1213.83,516.99z"/>
		<circle class="st11" cx="1211.78" cy="504" r="1.86"/>
	</g>
	<g class="st9">
		<path class="st10" d="M407.5,417.84c-3.41-6.97-7.98-12.91-13.71-17.85c-5.73-4.93-12.34-8.78-19.81-11.54
			c-7.48-2.76-15.28-4.14-23.4-4.14h-75.97v98.17c4.6,0.77,23.2-2.3,22.74,5.25c-0.75,12.34-10.6,15.49-22.74,16.1v6.25
			c4.49-0.3,11.59-0.26,12.49,2.83c1.01,3.48-7.24,5.96-12.49,6.95v6.46c4.25-0.64,16.91-0.12,16.77,3.08
			c-0.18,4.1-6.87,9.37-16.77,10l-0.86,90.68h45.28l0.86-129.3h30.69c8.13,0,15.92-1.56,23.4-4.68c7.47-3.12,14.07-7.4,19.81-12.84
			c5.73-5.44,10.3-11.79,13.71-19.05c3.41-7.26,5.12-15.09,5.12-23.51C412.62,432.43,410.91,424.81,407.5,417.84z M364.95,447.3
			c-1.02,2.16-2.39,4.08-4.14,5.73c-1.74,1.66-3.78,2.96-6.1,3.89c-2.32,0.94-4.79,1.4-7.4,1.4h-26.34v-36.35h26.34
			c2.61,0,5.08,0.47,7.4,1.41c2.32,0.94,4.35,2.23,6.1,3.89c1.74,1.66,3.12,3.57,4.14,5.73c1.01,2.16,1.52,4.54,1.52,7.14
			C366.47,442.75,365.96,445.13,364.95,447.3z"/>
		<path class="st11" d="M292.55,490.22c-0.21-2.55-15.51-4.36-20.66-5.23v13.69C285.51,498,292.83,493.59,292.55,490.22z"/>
		<path class="st11" d="M289.76,531.18c0.18-4.17-12.33-3.53-17.88-2.7v10.37C284.82,538.02,289.53,536.52,289.76,531.18z"/>
		<path class="st12" d="M327.04,642.42h-47.27l0.88-92.61l0.92-0.06c9.6-0.61,15.7-5.69,15.84-9.05c0.01-0.11-0.11-0.24-0.21-0.33
			c-2.07-1.86-11.61-2.3-15.42-1.73l-1.14,0.17v-8.43l0.81-0.15c4.87-0.91,10.33-2.73,11.55-4.72c0.21-0.34,0.26-0.64,0.17-0.97
			c-0.51-1.74-4.9-2.55-11.47-2.12l-1.06,0.07v-8.25l0.94-0.05c14.68-0.74,21.2-5.28,21.8-15.17c0.05-0.81-0.17-1.44-0.7-1.98
			c-2.38-2.47-10.15-2.26-15.3-2.13c-2.6,0.07-4.65,0.12-5.92-0.09l-0.83-0.14v-100h76.97c8.2,0,16.19,1.41,23.74,4.2
			c7.55,2.78,14.31,6.73,20.11,11.72c5.81,5,10.5,11.11,13.96,18.17l0,0c3.46,7.07,5.22,14.91,5.22,23.29
			c0,8.52-1.75,16.57-5.21,23.93c-3.45,7.33-8.13,13.84-13.93,19.35c-5.8,5.5-12.57,9.89-20.11,13.04
			c-7.56,3.16-15.56,4.76-23.78,4.76H327.9L327.04,642.42z M281.77,640.44h43.29l0.86-129.3h31.68c7.96,0,15.7-1.55,23.02-4.6
			c7.32-3.06,13.89-7.31,19.51-12.65c5.62-5.33,10.16-11.64,13.5-18.75c3.33-7.09,5.02-14.86,5.02-23.09
			c0-8.08-1.69-15.62-5.01-22.42l0,0c-3.34-6.81-7.87-12.71-13.47-17.53c-5.62-4.83-12.18-8.65-19.51-11.36
			c-7.34-2.7-15.09-4.07-23.06-4.07h-74.98v96.28c1.16,0.07,2.83,0.03,4.71-0.02c6.14-0.16,13.79-0.36,16.78,2.74
			c0.91,0.94,1.33,2.12,1.25,3.48c-0.83,13.66-12.39,16.34-22.74,16.98v4.25c7.46-0.37,11.65,0.84,12.45,3.61
			c0.25,0.86,0.12,1.75-0.38,2.56c-1.89,3.07-8.93,4.83-12.07,5.48v4.53c4.1-0.33,13.2-0.09,15.9,2.34c0.76,0.68,0.89,1.4,0.87,1.89
			c-0.2,4.61-6.95,9.96-16.78,10.88L281.77,640.44z M354.34,470.67h-27.33v-38.34h27.33c2.73,0,5.34,0.5,7.77,1.48
			c2.43,0.98,4.59,2.36,6.41,4.1c1.82,1.74,3.28,3.77,4.35,6.03c1.07,2.29,1.62,4.84,1.62,7.56c0,2.73-0.54,5.27-1.62,7.56l0,0
			c-1.06,2.27-2.53,4.3-4.35,6.03c-1.82,1.73-3.97,3.11-6.41,4.1C359.69,470.17,357.07,470.67,354.34,470.67z M328.99,468.68h25.35
			c2.48,0,4.84-0.45,7.03-1.33c2.2-0.89,4.15-2.13,5.78-3.69c1.64-1.57,2.96-3.39,3.92-5.44c0.95-2.02,1.43-4.29,1.43-6.72
			c0-2.43-0.48-4.69-1.43-6.72c-0.96-2.04-2.28-3.87-3.92-5.44c-1.64-1.56-3.58-2.8-5.78-3.69c-2.19-0.89-4.56-1.34-7.03-1.34
			h-25.35V468.68z"/>
	</g>
	<path class="st13" d="M424.73,635.82c-8.39,0-16.36-1.58-23.69-4.71c-7.32-3.12-13.8-7.45-19.26-12.87
		c-5.47-5.42-9.85-11.88-13.02-19.2c-3.17-7.32-4.78-15.25-4.78-23.55c0-8.3,1.61-16.22,4.78-23.55
		c3.17-7.32,7.55-13.78,13.02-19.19c5.46-5.41,11.94-9.77,19.26-12.94c7.33-3.17,15.3-4.78,23.69-4.78c8.29,0,16.24,1.61,23.62,4.78
		c7.36,3.17,13.87,7.53,19.34,12.94c5.47,5.42,9.85,11.88,13.02,19.19c3.17,7.33,4.78,15.25,4.78,23.55c0,8.3-1.61,16.22-4.78,23.55
		c-3.17,7.32-7.55,13.78-13.02,19.2c-5.47,5.42-11.98,9.75-19.34,12.87C440.97,634.24,433.03,635.82,424.73,635.82z M424.73,517.02
		c-8.12,0-15.82,1.55-22.9,4.62c-7.09,3.07-13.37,7.29-18.65,12.53c-5.29,5.24-9.53,11.49-12.59,18.57
		c-3.07,7.07-4.62,14.73-4.62,22.76c0,8.03,1.55,15.68,4.62,22.76c3.07,7.09,7.31,13.33,12.59,18.57
		c5.29,5.24,11.56,9.43,18.65,12.45c7.08,3.02,14.79,4.55,22.91,4.55c8.02,0,15.71-1.53,22.84-4.55
		c7.13-3.02,13.43-7.21,18.72-12.45c5.29-5.24,9.52-11.49,12.59-18.57c3.07-7.08,4.62-14.74,4.62-22.76
		c0-8.02-1.55-15.68-4.62-22.76c-3.07-7.08-7.31-13.33-12.59-18.57c-5.29-5.24-11.59-9.45-18.72-12.53
		C440.44,518.58,432.75,517.02,424.73,517.02z M424.73,607.32c-4.37,0-8.48-0.88-12.21-2.63c-3.72-1.73-6.96-4.07-9.64-6.95
		c-2.68-2.87-4.81-6.29-6.35-10.15c-1.54-3.86-2.31-7.93-2.31-12.09c0-4.26,0.78-8.35,2.31-12.16c1.53-3.81,3.67-7.2,6.34-10.07
		c2.68-2.88,5.92-5.22,9.64-6.95c3.74-1.74,7.85-2.63,12.21-2.63c4.37,0,8.48,0.88,12.21,2.63c3.72,1.74,6.96,4.07,9.64,6.95
		c2.67,2.87,4.81,6.26,6.34,10.07c1.54,3.82,2.31,7.91,2.31,12.16c0,4.16-0.78,8.22-2.31,12.09c-1.54,3.87-3.67,7.28-6.35,10.15
		c-2.68,2.88-5.92,5.22-9.64,6.95C433.21,606.43,429.11,607.32,424.73,607.32z M424.73,545.67c-4.07,0-7.9,0.82-11.37,2.44
		c-3.48,1.63-6.52,3.82-9.03,6.51c-2.51,2.7-4.51,5.88-5.96,9.46c-1.44,3.58-2.17,7.42-2.17,11.42c0,3.91,0.73,7.73,2.17,11.35
		c1.44,3.63,3.45,6.84,5.95,9.53c2.5,2.69,5.54,4.88,9.03,6.51c3.47,1.62,7.29,2.44,11.37,2.44s7.91-0.82,11.37-2.44
		c3.48-1.62,6.52-3.81,9.03-6.51c2.51-2.69,4.51-5.9,5.95-9.53c1.44-3.63,2.17-7.45,2.17-11.35c0-4-0.73-7.84-2.17-11.42
		c-1.45-3.59-3.45-6.77-5.96-9.46c-2.5-2.69-5.54-4.88-9.03-6.51C432.63,546.49,428.81,545.67,424.73,545.67z"/>
	<path class="st13" d="M641.37,612.38h-44.48l-24.45-43.46H550.3l0.18,43.46h-40.75V469.86h71.44c0.9,0,1.85,0.05,2.81,0.14
		c0.65,0.07,1.34,0.16,2.05,0.28c0.33,0.05,0.65,0.12,0.98,0.18c1.01,0.21,2.05,0.47,3.07,0.78c0.67,0.2,1.22,0.39,1.75,0.58
		c3.55,1.29,7.03,3.03,10.34,5.17c3.29,2.13,6.38,4.58,9.2,7.27c0.36,0.34,0.7,0.68,1.05,1.02l0.06,0.06
		c2.34,2.35,4.39,4.78,6.09,7.22c1.83,2.66,3.36,5.68,4.55,8.98l0.03,0.07c0.17,0.46,0.33,0.95,0.49,1.45l0.08,0.25
		c0.18,0.59,0.36,1.18,0.52,1.78c0.16,0.59,0.31,1.18,0.45,1.76c0.37,1.52,0.67,3.05,0.9,4.54c0.39,2.48,0.58,4.93,0.58,7.27
		c0,7.14-1.69,13.88-5.01,20.03c-3.18,5.89-7.6,10.94-13.15,15.02L641.37,612.38z M598.05,610.39h39.91l-32.56-57.25l0.73-0.52
		c5.64-3.99,10.11-9,13.28-14.87c3.17-5.86,4.77-12.28,4.77-19.09c0-2.25-0.19-4.59-0.56-6.97c-0.22-1.43-0.52-2.9-0.87-4.37
		c-0.14-0.57-0.28-1.13-0.44-1.71c-0.16-0.58-0.32-1.15-0.5-1.7l-0.08-0.24c-0.15-0.48-0.31-0.95-0.47-1.4
		c-1.14-3.17-2.59-6.05-4.33-8.57c-1.63-2.34-3.6-4.68-5.86-6.94l0.65-0.76l-0.7,0.71c-0.34-0.34-0.68-0.67-1.02-1
		c-2.73-2.6-5.72-4.97-8.91-7.04c-3.18-2.06-6.53-3.74-9.94-4.97c-0.49-0.18-1.01-0.35-1.65-0.54c-0.96-0.29-1.93-0.54-2.88-0.73
		c-0.31-0.06-0.61-0.12-0.92-0.17c-0.66-0.11-1.31-0.2-1.92-0.26c-0.9-0.09-1.78-0.13-2.62-0.13h-69.45v138.54h36.76l-0.18-43.46
		h25.3L598.05,610.39z"/>
	<path class="st13" d="M723.77,634.78h-34.13l0-1l0.69-194.03h-47.27l-3.73-3.73v-41.4h151.41v41.4l-3.73,3.73h-47.28v62.42
		l-0.7,132.6L723.77,634.78z M691.63,632.79l45.42,0l0.68-130.62v-64.41h48.44l2.56-2.56v-38.59H641.31v38.59l2.56,2.56h48.45l0,1
		L691.63,632.79z"/>
	<path class="st13" d="M834.01,660.19h-51.36v-15.37l0.69-0.22c21.87-7.02,24.38-11.61,24.45-13.26c0.02-0.43-0.13-0.76-0.48-1.08
		c-1.29-1.17-6.07-2.78-23.53-0.34l-1.13,0.16v-10.16l0.31-0.29c20.75-19.47,32.76-34.59,32.14-40.46
		c-0.09-0.89-0.48-1.51-1.21-1.96c-4.61-2.78-15.16,0.99-29.7,10.64l-1.54,1.02v-23.74l0.32-0.29c8.2-7.62,14.8-13.92,19.62-18.74
		c4.5-4.5,11.97-13.16,18.18-22.74c6.97-10.74,10.36-19.52,9.8-25.38c-0.27-2.87-1.46-4.98-3.62-6.45
		c-5.72-3.89-20.86,5.13-42.62,25.38l-1.67,1.55v-42.25l4.4-4.43h143.34v47.87h-96.37v23.48h84.92v47.39h-84.92V660.19z
		 M784.63,658.21h47.39v-69.66h84.92v-43.41h-84.92v-27.45h96.37v-43.89H787.87l-3.24,3.26v36.88
		c22.22-20.42,36.82-28.51,43.42-24.03c2.65,1.8,4.16,4.46,4.49,7.91c0.76,7.98-5.08,18.9-10.11,26.65
		c-6.3,9.71-13.87,18.49-18.44,23.06c-4.77,4.77-11.28,10.99-19.35,18.49v19.18c14.82-9.61,25.01-12.87,30.29-9.67
		c1.25,0.76,2,1.95,2.16,3.45c0.94,8.94-19.77,29.91-32.45,41.82v7.02c13.26-1.77,21.33-1.44,24.01,0.99
		c0.78,0.71,1.17,1.62,1.13,2.63c-0.18,4.49-8.64,9.49-25.14,14.84V658.21z"/>
	<path class="st13" d="M1003.95,592.95c-9.22,0-17.98-1.74-26.03-5.18c-8.04-3.43-15.16-8.19-21.17-14.14
		c-6.01-5.95-10.82-13.05-14.31-21.09c-3.49-8.05-5.26-16.75-5.26-25.88c0-9.12,1.77-17.83,5.26-25.88
		c3.48-8.04,8.3-15.14,14.31-21.09c6-5.95,13.12-10.73,21.17-14.22c8.05-3.49,16.81-5.26,26.03-5.26c9.11,0,17.85,1.77,25.95,5.26
		c8.09,3.48,15.24,8.27,21.25,14.22c6.01,5.95,10.82,13.05,14.31,21.09c3.49,8.05,5.26,16.76,5.26,25.88
		c0,9.11-1.77,17.82-5.26,25.88c-3.49,8.04-8.3,15.14-14.31,21.09c-6.01,5.96-13.16,10.71-21.25,14.14
		C1021.79,591.21,1013.06,592.95,1003.95,592.95z M1003.95,462.21c-8.95,0-17.44,1.71-25.24,5.09c-7.81,3.39-14.73,8.03-20.56,13.81
		c-5.83,5.77-10.5,12.66-13.88,20.47c-3.38,7.8-5.09,16.24-5.09,25.09c0,8.85,1.71,17.29,5.09,25.09
		c3.38,7.81,8.05,14.7,13.88,20.47c5.83,5.78,12.74,10.39,20.55,13.73c7.8,3.33,16.3,5.02,25.25,5.02c8.85,0,17.32-1.69,25.17-5.02
		c7.86-3.33,14.8-7.95,20.63-13.73c5.83-5.78,10.5-12.66,13.88-20.47c3.38-7.8,5.09-16.24,5.09-25.09c0-8.84-1.71-17.28-5.09-25.09
		c-3.38-7.81-8.05-14.7-13.88-20.47c-5.83-5.78-12.77-10.42-20.63-13.81C1021.26,463.92,1012.79,462.21,1003.95,462.21z
		 M1003.95,561.58c-4.8,0-9.31-0.97-13.4-2.88c-4.08-1.9-7.64-4.47-10.58-7.63c-2.94-3.15-5.28-6.9-6.96-11.14
		c-1.68-4.23-2.54-8.7-2.54-13.27c0-4.68,0.85-9.17,2.54-13.35c1.68-4.18,4.03-7.9,6.96-11.05c2.94-3.16,6.5-5.73,10.58-7.63
		c4.1-1.91,8.61-2.88,13.4-2.88s9.3,0.97,13.4,2.88c4.08,1.9,7.64,4.47,10.58,7.63c2.93,3.15,5.28,6.87,6.96,11.05
		c1.69,4.19,2.54,8.68,2.54,13.35c0,4.56-0.85,9.02-2.54,13.27c-1.69,4.24-4.03,7.99-6.96,11.14c-2.94,3.16-6.5,5.73-10.58,7.63
		C1013.25,560.61,1008.75,561.58,1003.95,561.58z M1003.95,493.74c-4.5,0-8.73,0.91-12.56,2.69c-3.85,1.8-7.2,4.21-9.96,7.18
		c-2.77,2.98-4.98,6.49-6.57,10.44c-1.59,3.95-2.4,8.19-2.4,12.61c0,4.32,0.81,8.53,2.4,12.53c1.59,4.01,3.8,7.55,6.57,10.52
		c2.77,2.97,6.12,5.39,9.96,7.18c3.83,1.79,8.05,2.69,12.56,2.69s8.73-0.91,12.56-2.69c3.85-1.79,7.2-4.21,9.96-7.18
		c2.76-2.97,4.98-6.51,6.57-10.52c1.59-4.01,2.4-8.22,2.4-12.53c0-4.41-0.81-8.65-2.4-12.61c-1.6-3.96-3.81-7.47-6.57-10.44
		c-2.77-2.97-6.12-5.39-9.96-7.18C1012.67,494.65,1008.45,493.74,1003.95,493.74z"/>
	<path class="st13" d="M1197.29,673.42h-103.6l0-0.01h-15.71V526.84l2.61-129.79v-0.99h49.34v1.12l-1.18,48.27l-1.43,77.68v105.75
		l3,0.26h86.86v44.27L1197.29,673.42z M1097.66,671.43l117.54-0.01v-40.3l-85.01,0l-4.85-0.43V523.11l1.43-77.7l1.15-47.37h-45.36
		l-2.59,128.82v144.57L1097.66,671.43L1097.66,671.43z"/>
	<path class="st13" d="M1250.4,589.76h-43.43V433.89h43.43V589.76z M1208.95,587.77h39.46V435.88h-39.46V587.77z"/>
	<path class="st13" d="M1363.89,580.94c-10.72,0-20.9-2.02-30.25-6.02c-9.35-3.99-17.63-9.52-24.61-16.44
		c-6.99-6.92-12.58-15.17-16.63-24.52c-4.05-9.35-6.11-19.47-6.11-30.07s2.06-20.72,6.11-30.07c4.05-9.35,9.64-17.6,16.63-24.52
		c6.98-6.92,15.26-12.48,24.6-16.53c9.36-4.05,19.54-6.11,30.26-6.11c10.59,0,20.74,2.06,30.16,6.11
		c9.41,4.05,17.72,9.61,24.7,16.53c6.98,6.92,12.58,15.17,16.63,24.52c4.06,9.36,6.11,19.48,6.11,30.07s-2.06,20.71-6.11,30.07
		c-4.05,9.35-9.65,17.6-16.63,24.52c-6.99,6.92-15.3,12.45-24.7,16.44C1384.62,578.92,1374.48,580.94,1363.89,580.94z
		 M1363.89,428.65c-10.45,0-20.36,2-29.47,5.95c-9.12,3.95-17.19,9.38-24,16.12c-6.8,6.74-12.26,14.78-16.2,23.9
		c-3.95,9.1-5.95,18.96-5.95,29.29c0,10.33,2,20.18,5.95,29.28c3.95,9.11,9.4,17.15,16.2,23.9c6.8,6.74,14.88,12.14,23.99,16.02
		c9.11,3.89,19.03,5.86,29.47,5.86c10.32,0,20.21-1.97,29.38-5.86c9.17-3.89,17.27-9.28,24.08-16.02c6.8-6.74,12.25-14.78,16.2-23.9
		c3.95-9.11,5.95-18.96,5.95-29.28c0-10.32-2-20.17-5.95-29.29c-3.95-9.11-9.4-17.15-16.2-23.9c-6.81-6.74-14.91-12.17-24.09-16.12
		C1384.09,430.65,1374.21,428.65,1363.89,428.65z M1363.89,544.4c-5.57,0-10.79-1.12-15.54-3.34c-4.73-2.21-8.86-5.18-12.27-8.85
		c-3.41-3.66-6.13-8.01-8.08-12.92c-1.95-4.91-2.95-10.09-2.95-15.39c0-5.42,0.99-10.64,2.95-15.49c1.95-4.85,4.67-9.16,8.08-12.83
		c3.41-3.66,7.54-6.64,12.27-8.85c4.75-2.22,9.98-3.34,15.54-3.34s10.78,1.12,15.54,3.34c4.73,2.21,8.86,5.19,12.27,8.85
		c3.4,3.66,6.12,7.97,8.08,12.83c1.96,4.86,2.95,10.07,2.95,15.49c0,5.29-0.99,10.47-2.94,15.39c-1.96,4.92-4.68,9.27-8.08,12.92
		c-3.41,3.66-7.54,6.64-12.27,8.85C1374.68,543.27,1369.45,544.4,1363.89,544.4z M1363.89,465.37c-5.26,0-10.21,1.06-14.7,3.15
		c-4.5,2.1-8.42,4.93-11.66,8.4c-3.24,3.48-5.83,7.59-7.69,12.22c-1.86,4.62-2.8,9.58-2.8,14.75c0,5.05,0.94,9.98,2.8,14.66
		c1.86,4.69,4.45,8.83,7.69,12.3c3.24,3.48,7.16,6.3,11.66,8.4c4.48,2.09,9.43,3.15,14.7,3.15s10.22-1.06,14.7-3.15
		c4.5-2.1,8.42-4.93,11.66-8.4c3.24-3.47,5.82-7.61,7.69-12.3c1.86-4.69,2.8-9.62,2.8-14.66c0-5.16-0.94-10.12-2.8-14.75
		c-1.87-4.63-4.45-8.74-7.69-12.22c-3.24-3.47-7.16-6.3-11.66-8.4C1374.1,466.44,1369.15,465.37,1363.89,465.37z"/>
</g>
<g>
	<g>
		<path class="st14" d="M230.7,72.06c-1.67,0-3.14-0.13-4.42-0.38c-1.27-0.25-2.34-0.71-3.22-1.36c-0.87-0.65-1.68-1.89-1.96-2.73
			c-0.47-1.4-0.13-0.72-0.53-2.33l-0.12-5.25c-0.01,0-0.02,0-0.03-2.36v44.04c0,5.13-0.62,7.22-1.85,8.64
			c-1.24,1.42-3.27,2.13-6.1,2.13c-1.16,0-2.24-0.06-3.22-0.16s-2.16-0.31-3.54-0.6c-0.58,0.65-1.07,1.52-1.47,2.62
			c-0.4,1.09-0.6,2.36-0.6,3.81c0,1.74,0.38,3.31,1.15,4.69c0.76,1.38,1.98,2.47,3.65,3.27c2.32,1.16,5.38,1.74,9.15,1.74
			c7.19,0,12.65-1.62,16.35-4.85c3.71-3.23,5.56-8.08,5.56-14.55V71.08c-0.8,0.22-2.04,0.43-3.73,0.65
			C234.06,71.95,232.37,72.06,230.7,72.06z"/>
		<path class="st15" d="M238.84,61.14c-0.44-1.16-1.09-2.07-1.96-2.73c-0.87-0.65-1.95-1.11-3.22-1.36
			c-1.27-0.25-2.74-0.38-4.41-0.38c-1.6,0-3.27,0.13-5.01,0.38c-1.72,0.25-2.98,0.45-3.78,0.59v5.37c0,1.89,0.22,3.42,0.65,4.58
			c0.44,1.16,1.09,2.07,1.96,2.73c0.87,0.65,1.94,1.11,3.22,1.36c1.27,0.25,2.74,0.38,4.42,0.38c1.67,0,3.36-0.11,5.07-0.33
			c1.68-0.21,2.92-0.43,3.73-0.65v-5.37C239.49,63.82,239.27,62.3,238.84,61.14z"/>
		<path class="st14" d="M292.63,109.89h-28.01V98.44h20.06c1.96,0,3.52-0.58,4.69-1.74c1.16-1.16,1.74-3.12,1.74-5.88
			c0-1.45-0.2-2.82-0.6-4.09c-0.4-1.27-0.86-2.3-1.36-3.11h-24.53V73.48h23c1.96,0,3.54-0.58,4.74-1.74c0.12-0.11,0.2-0.27,0.3-0.39
			c-1.13,0.91-2.53,1.4-4.25,1.4h-31.83c-3.12,0-5.6-0.91-7.41-2.73c-1.33-1.33-2.17-3.03-2.52-5.07c-0.35,1.13-0.56,2.36-0.56,3.74
			v46.11c0,3.13,0.91,5.6,2.72,7.41c1.82,1.82,4.29,2.73,7.41,2.73h31.83c1.96,0,3.54-0.6,4.74-1.8c1.2-1.2,1.8-3.18,1.8-5.94
			c0-1.45-0.2-2.83-0.6-4.14C293.59,111.74,293.14,110.69,292.63,109.89z"/>
		<path class="st15" d="M256.58,73.48h31.83c1.71,0,3.12-0.51,4.25-1.47c0.98-1.25,1.5-3.15,1.5-5.78c0-1.53-0.2-2.98-0.6-4.36
			c-0.4-1.38-0.86-2.48-1.36-3.33h-35.97c-3.12,0-5.6,0.96-7.41,2.87c-1.01,1.07-1.71,2.37-2.16,3.87c0.35,2.15,1.19,3.93,2.52,5.33
			C250.99,72.53,253.46,73.48,256.58,73.48z"/>
		<path class="st14" d="M317.47,59.81c1.24-0.73,3.11-1.42,5.61-2.07c2.51-0.65,5.03-0.98,7.58-0.98c3.63,0,6.85,0.53,9.64,1.58
			c2.8,1.05,4.6,2.71,5.4,4.96c1.31,3.78,2.73,8.18,4.25,13.19c1.53,5.01,3.05,10.19,4.58,15.53c1.52,5.34,3.01,10.61,4.47,15.8
			c1.45,5.19,2.72,9.79,3.81,13.79c-0.87,1.02-2.18,1.84-3.92,2.45c-1.74,0.62-3.82,0.93-6.21,0.93c-1.74,0-3.22-0.15-4.42-0.44
			c-1.2-0.29-2.18-0.72-2.94-1.31c-0.76-0.58-1.38-1.34-1.85-2.29c-0.47-0.94-0.89-2.03-1.25-3.27l-1.96-7.52h-19.73
			c-0.58,2.18-1.16,4.43-1.74,6.76c-0.58,2.33-1.16,4.58-1.74,6.76c-1.02,0.36-2.09,0.67-3.22,0.93c-1.13,0.25-2.49,0.38-4.09,0.38
			c-3.71,0-6.45-0.64-8.23-1.91c-1.78-1.27-2.67-3.03-2.67-5.29c0-1.02,0.15-2.03,0.44-3.05c0.29-1.02,0.62-2.22,0.98-3.6
			c0.51-1.96,1.21-4.4,2.12-7.3c0.91-2.91,1.91-6.05,3-9.43c1.09-3.38,2.25-6.85,3.49-10.41s2.4-6.92,3.49-10.08s2.09-5.98,3-8.45
			C316.26,63,316.96,61.11,317.47,59.81z M330.55,73.87c-1.02,3.05-2.16,6.45-3.43,10.19c-1.27,3.74-2.42,7.54-3.43,11.39h13.52
			c-1.02-3.92-2.05-7.76-3.11-11.5c-1.06-3.74-2.02-7.1-2.89-10.08H330.55z"/>
		<path class="st14" d="M427,121.61c-1.02,1.02-2.49,1.8-4.42,2.34c-1.93,0.55-4.23,0.82-6.92,0.82c-2.69,0-5.23-0.4-7.63-1.2
			c-2.4-0.8-4.36-2.72-5.89-5.78l-10.79-22.02c-1.09-2.25-2.07-4.38-2.94-6.38c-0.87-2-1.82-4.3-2.83-6.92l-0.65,0.11
			c0.29,3.92,0.45,7.92,0.49,11.99c0.03,4.07,0.05,8.06,0.05,11.99v16.89c-0.8,0.22-2.02,0.44-3.65,0.65
			c-1.63,0.22-3.25,0.33-4.85,0.33c-1.6,0-3.02-0.11-4.25-0.33c-1.24-0.22-2.25-0.65-3.05-1.31c-0.8-0.65-1.42-1.54-1.85-2.67
			c-0.44-1.13-0.65-2.6-0.65-4.42v-54.5c1.02-1.45,2.58-2.54,4.69-3.27c2.11-0.73,4.36-1.09,6.76-1.09c2.69,0,5.25,0.42,7.68,1.25
			c2.43,0.84,4.38,2.74,5.83,5.72l10.9,22.02c1.09,2.25,2.07,4.38,2.94,6.38c0.87,2,1.81,4.31,2.83,6.92l0.55-0.11
			c-0.29-3.92-0.47-7.85-0.55-11.77c-0.07-3.92-0.11-7.85-0.11-11.77V57.84c0.8-0.22,2.02-0.44,3.65-0.65
			c1.64-0.22,3.25-0.33,4.85-0.33c3.2,0,5.63,0.56,7.3,1.69s2.51,3.47,2.51,7.03V121.61z"/>
		<path class="st16" d="M41.58,46.35h-6.15l-5.96,11.45h10.56l4.79-12.18C43.9,46.08,42.83,46.35,41.58,46.35z"/>
		<polygon class="st16" points="26.07,21.39 21.89,31.52 32.45,31.52 37.06,21.39 		"/>
		<polygon class="st16" points="21.53,46.35 21.53,55.54 25.71,46.35 		"/>
		<path class="st16" d="M137.06,4.39c0.1,0,0.2-0.01,0.3-0.01c0.75,0,1.48,0.05,2.22,0.09l2.7-5.4L137.06,4.39z"/>
		<polygon class="st16" points="264.95,31.52 265.14,31.52 266.41,21.39 264.95,21.39 		"/>
		<polygon class="st17" points="37.06,21.39 43.85,6.45 32.24,6.45 26.07,21.39 		"/>
		<polygon class="st17" points="29.48,57.79 21.65,72.83 34.13,72.83 40.04,57.79 		"/>
		<path class="st17" d="M45.63,72.78l5.77-9.11c-0.09-0.94-0.23-1.85-0.5-2.72c-0.4-1.31-0.85-2.36-1.36-3.16h-2.1l-7.38,15.04h4.9
			C45.2,72.83,45.41,72.8,45.63,72.78z"/>
		<path class="st17" d="M21.53,46.35h4.18l6.74-14.82H21.89L5.91,70.26c1.8,1.71,4.2,2.58,7.23,2.58h0.53l7.86-17.29V46.35z"/>
		<path class="st17" d="M13.14,6.45c-3.12,0-5.6,0.91-7.41,2.72C3.91,11,3,13.47,3,16.59v30.04L24.52,6.45H13.14z"/>
		<path class="st17" d="M46.05,31.52h-2.9l-7.72,14.82h6.15c1.25,0,2.32-0.26,3.24-0.73l3.12-7.93c-0.07-1.07-0.22-2.1-0.53-3.06
			C47.02,33.36,46.56,32.32,46.05,31.52z"/>
		<path class="st18" d="M49.48,19.36c0.51-0.59,0.91-1.33,1.17-2.25L49.48,19.36z"/>
		<path class="st17" d="M58.13,53.05l19.07-30.1v-8.54c0-1.89-0.22-3.41-0.65-4.58c-0.44-1.16-1.09-2.07-1.96-2.73
			c-0.53-0.4-1.16-0.69-1.83-0.94L58.13,35.98V53.05z"/>
		<path class="st17" d="M60.86,70.11c0.63,0.63,1.37,1.11,2.16,1.53l14.19-16.67V32.69L58.74,66.6
			C59.19,67.96,59.88,69.13,60.86,70.11z"/>
		<path class="st17" d="M58.13,11.75l2.27-5.77c-0.96,0.15-1.73,0.27-2.27,0.37V11.75z"/>
		<path class="st17" d="M97.48,72.83c2.03,0,3.67-0.6,4.91-1.8c1.24-1.2,1.85-3.25,1.85-6.16c0-1.45-0.22-2.85-0.65-4.2
			c-0.44-1.34-0.91-2.42-1.42-3.22H85L69.92,72.83H97.48z"/>
		<path class="st16" d="M178.34,19.97c-1.02,0-2.05,0.04-3.11,0.11c-1.05,0.07-2.12,0.18-3.2,0.33l-0.01,0.03v26.18l13.7-25.17
			C183.55,20.48,181.1,19.97,178.34,19.97z"/>
		<path class="st16" d="M173.64,58.57c0.42,0.05,0.84,0.1,1.32,0.14c1.16,0.11,2.25,0.16,3.27,0.16c0.41,0,0.8-0.03,1.2-0.05
			l15.52-22.56c-0.32-3.34-1.1-6.18-2.37-8.5L173.64,58.57z"/>
		<path class="st16" d="M126.62,24.6c-2.6,3.08-3.94,7.71-4.06,13.86L131.3,21C129.53,21.81,127.96,23.01,126.62,24.6z"/>
		<path class="st16" d="M148.31,24.66c-2.14-2.64-4.92-4.2-8.32-4.7l-14.37,32.94c0.29,0.46,0.61,0.89,0.94,1.3
			c2.65,3.23,6.19,4.85,10.61,4.9l11.75-33.57C148.73,25.23,148.53,24.93,148.31,24.66z"/>
		<path class="st16" d="M148.26,54.19c2.69-3.27,4.03-8.21,4.03-14.82c0-1.26-0.06-2.44-0.16-3.58l-6.25,20.67
			C146.74,55.82,147.54,55.07,148.26,54.19z"/>
		<path class="st14" d="M153.05,63.57v-1.09l-4.77,10.57c0.95-0.26,1.89-0.54,2.81-0.87c1.76-0.64,3.4-1.43,4.96-2.31
			C154.07,68.32,153.05,66.23,153.05,63.57z"/>
		<path class="st17" d="M146.35,5.37l-6.36,14.58c3.4,0.51,6.18,2.06,8.32,4.7c0.22,0.27,0.42,0.57,0.62,0.87l4.12-11.77v-1.08
			c0-1.53,0.42-2.71,1.25-3.54c0.14-0.14,0.33-0.26,0.5-0.38l0.1-0.28c-1.27-0.67-2.58-1.29-3.97-1.8
			C149.45,6.13,147.92,5.72,146.35,5.37z"/>
		<path class="st17" d="M153.05,48.33v-15.6l-0.92,3.06c0.1,1.14,0.16,2.32,0.16,3.58c0,6.61-1.35,11.55-4.03,14.82
			c-0.72,0.88-1.52,1.63-2.38,2.27l-5.41,17.88c0.77-0.05,1.52-0.14,2.26-0.23L153.05,48.33z"/>
		<path class="st17" d="M126.57,54.19c-0.34-0.41-0.65-0.84-0.94-1.3l-7.28,16.69c1.65,0.98,3.4,1.84,5.28,2.54
			c2.62,0.97,5.4,1.6,8.3,1.97l5.25-15.01C132.76,59.05,129.22,57.42,126.57,54.19z"/>
		<path class="st17" d="M126.62,24.6c1.34-1.59,2.9-2.79,4.68-3.6l8.28-16.53c-0.74-0.04-1.47-0.09-2.22-0.09
			c-0.1,0-0.2,0.01-0.3,0.01l-34.14,34.8c0,0.06-0.01,0.12-0.01,0.18c0,5.6,0.87,10.57,2.61,14.93c1.27,3.18,2.9,5.99,4.87,8.43
			l12.16-24.27C122.68,32.32,124.03,27.68,126.62,24.6z"/>
		<path class="st17" d="M194.95,36.27l13.16-19.14c-1.14-1.49-2.38-2.87-3.78-4.09c-0.58-0.5-1.21-0.96-1.83-1.41l-9.93,16.14
			C193.86,30.1,194.64,32.94,194.95,36.27z"/>
		<path class="st17" d="M169.68,25.61c1.46,4.06,2.23,8.63,2.23,13.76c0,3.24-0.32,6.25-0.89,9.08l1-1.83V20.43L169.68,25.61z"/>
		<path class="st17" d="M178.23,58.88c-1.02,0-2.11-0.06-3.27-0.16c-0.48-0.04-0.9-0.09-1.32-0.14l-8.9,14.47
			c1.39,0.25,2.78,0.49,4.16,0.66c0.1,0.01,0.18,0.01,0.28,0.02l10.24-14.89C179.03,58.86,178.64,58.88,178.23,58.88z"/>
		<path class="st17" d="M161.88,13.37c1.3,1.23,2.46,2.6,3.53,4.08l5.04-12.59c-0.9,0.07-1.83,0.14-2.79,0.23
			c-2.29,0.21-4.46,0.63-6.59,1.14l-1.57,5.2C160.31,12.05,161.13,12.67,161.88,13.37z"/>
		<path class="st17" d="M175.23,20.08c1.05-0.07,2.09-0.11,3.11-0.11c2.76,0,5.21,0.5,7.37,1.48l7.83-14.39
			c-0.37-0.12-0.71-0.27-1.09-0.38c-4.03-1.2-8.49-1.85-13.32-2.01l-7.1,15.74C173.12,20.26,174.18,20.15,175.23,20.08z"/>
		<path class="st17" d="M158.58,71.31l2.93-5.39c-1.67,1.51-3.48,2.83-5.46,3.95C156.76,70.42,157.62,70.9,158.58,71.31z"/>
		<path class="st17" d="M193.06,72.07c4.51-1.45,8.37-3.65,11.61-6.59c3.23-2.94,5.72-6.58,7.46-10.9
			c1.74-4.32,2.62-9.39,2.62-15.21c0-5.61-0.84-10.48-2.45-14.67l-29,49.29C186.76,73.67,190.02,73.05,193.06,72.07z"/>
		<path class="st17" d="M239.61,14.52c0-1.89-0.22-3.41-0.65-4.58c-0.17-0.45-0.4-0.82-0.63-1.19l-17.79,43.11v6.78
			c0.8-0.15,2.06-0.34,3.78-0.59c1.74-0.25,3.42-0.38,5.01-0.38c0.52,0,0.98,0.03,1.45,0.06l8.83-30.39V14.52z"/>
		<path class="st17" d="M229.36,5.47c-1.6,0-3.27,0.13-5.01,0.38c-0.38,0.06-0.72,0.11-1.05,0.16l-2.76,4.69v26.75l10.76-31.9
			C230.68,5.51,230.05,5.47,229.36,5.47z"/>
		<path class="st17" d="M285.01,46.35c1.96,0,3.52-0.58,4.69-1.74c1.16-1.16,1.74-3.12,1.74-5.88c0-1.45-0.2-2.82-0.6-4.09
			c-0.4-1.27-0.86-2.3-1.36-3.11h-5.07l-4.89,14.82H285.01z"/>
		<path class="st17" d="M264.95,31.52V21.39h1.45l1.87-14.93h-11.72c-1.69,0-3.17,0.29-4.48,0.82l-5.66,27.76V62.7
			c0,0.83,0.07,1.61,0.2,2.34c0.45-1.42,1.15-2.66,2.16-3.67c1.82-1.81,4.29-2.72,7.41-2.72l5.54-0.01l3.4-27.11H264.95z"/>
		<path class="st17" d="M292.62,6.62l-4.87,14.77h0.2c1.96,0,3.54-0.58,4.74-1.74c1.2-1.16,1.8-3.12,1.8-5.88
			c0-1.45-0.2-2.83-0.6-4.14C293.52,8.38,293.09,7.4,292.62,6.62z"/>
		<path class="st14" d="M21.53,31.52V21.39h4.55l6.16-14.93h-7.72L3,46.63V62.7c0,3.13,0.91,5.6,2.72,7.41
			c0.06,0.06,0.13,0.09,0.19,0.15l15.98-38.73H21.53z"/>
		<polygon class="st14" points="47.44,57.79 40.04,57.79 34.13,72.83 40.06,72.83 		"/>
		<path class="st14" d="M46.27,44.6c1.16-1.16,1.74-3.12,1.74-5.88c0-0.35-0.05-0.69-0.07-1.03l-3.12,7.93
			C45.36,45.34,45.85,45.03,46.27,44.6z"/>
		<path class="st14" d="M66.96,5.36c-1.6,0-3.27,0.13-5.01,0.38c-0.57,0.08-1.07,0.16-1.55,0.23l-2.27,5.77v24.23L72.76,6.16
			C72.32,6,71.88,5.85,71.38,5.75C70.1,5.49,68.63,5.36,66.96,5.36z"/>
		<path class="st14" d="M49.71,71.04c1.2-1.2,1.8-3.18,1.8-5.94c0-0.49-0.06-0.95-0.1-1.42l-5.77,9.11
			C47.28,72.65,48.65,72.09,49.71,71.04z"/>
		<path class="st14" d="M58.13,62.7c0,1.45,0.22,2.74,0.61,3.91l18.47-33.92v-9.74l-19.07,30.1V62.7z"/>
		<path class="st14" d="M77.21,54.96L63.02,71.63c1.48,0.77,3.21,1.2,5.25,1.2h1.65L85,57.46h-7.79V54.96z"/>
		<path class="st14" d="M123.79,6.67c-4.18,1.52-7.81,3.76-10.9,6.7c-3.09,2.94-5.52,6.59-7.3,10.95
			c-1.76,4.31-2.64,9.27-2.66,14.86l34.14-34.8C132.31,4.43,127.88,5.18,123.79,6.67z"/>
		<path class="st14" d="M122.53,39.37c0-0.31,0.02-0.6,0.02-0.91L110.4,62.73c0.73,0.91,1.5,1.77,2.32,2.58
			c1.69,1.65,3.57,3.06,5.62,4.27l7.28-16.69C123.56,49.67,122.53,45.16,122.53,39.37z"/>
		<path class="st14" d="M139.99,19.95l6.36-14.58c-2.17-0.49-4.43-0.79-6.77-0.9L131.3,21c1.83-0.83,3.88-1.25,6.17-1.25
			C138.35,19.75,139.18,19.83,139.99,19.95z"/>
		<path class="st19" d="M155.06,8.55c-0.05-0.03-0.11-0.05-0.16-0.08l-0.1,0.28C154.9,8.68,154.98,8.61,155.06,8.55z"/>
		<path class="st14" d="M140.47,74.35l5.41-17.88c-2.34,1.75-5.17,2.63-8.52,2.63c-0.06,0-0.12-0.01-0.18-0.01l-5.25,15.01
			c1.76,0.22,3.56,0.37,5.43,0.37C138.42,74.47,139.45,74.42,140.47,74.35z"/>
		<path class="st14" d="M148.93,25.52c1.76,2.57,2.83,5.99,3.2,10.27l0.92-3.06V13.75L148.93,25.52z"/>
		<path class="st14" d="M155.06,8.55c1.57,0.83,3.03,1.82,4.43,2.88l1.57-5.2c-1.12,0.27-2.25,0.52-3.33,0.87
			C156.66,7.49,155.8,7.99,155.06,8.55z"/>
		<path class="st14" d="M292.53,6.45h-24.25l-1.87,14.93h21.34l4.87-14.77C292.59,6.57,292.56,6.5,292.53,6.45z"/>
		<polygon class="st14" points="261.74,58.64 264.95,58.63 264.95,57.79 264.95,46.35 279.52,46.35 284.41,31.52 265.14,31.52 		"/>
		<path class="st14" d="M236.96,59.4c0.87,0.65,1.52,1.56,1.96,2.73l0.69,1.66V27.33l-8.83,30.39c1.07,0.05,2.08,0.15,2.96,0.32
			C235.01,58.3,236.09,58.75,236.96,59.4z"/>
		<path class="st14" d="M249.15,9.18c-1.82,1.82-2.72,4.29-2.72,7.41v18.44l5.66-27.76C250.97,7.72,249.98,8.34,249.15,9.18z"/>
		<path class="st14" d="M236.99,7.21c-0.87-0.65-1.94-1.11-3.21-1.36c-0.75-0.15-1.59-0.24-2.48-0.3l-10.76,31.9v14.4l17.79-43.11
			C237.96,8.15,237.53,7.62,236.99,7.21z"/>
		<path class="st14" d="M208.12,17.14l-13.16,19.14c0.1,1.09,0.17,2.22,0.17,3.42c0,3.42-0.42,6.34-1.25,8.77
			c-0.84,2.44-2,4.42-3.49,5.94c-1.49,1.53-3.27,2.65-5.34,3.38c-1.73,0.61-3.61,0.94-5.61,1.04l-10.24,14.89
			c1.61,0.2,3.17,0.34,4.68,0.41c1.6,0.07,3.01,0.11,4.25,0.11c1.78,0,3.5-0.11,5.18-0.26l29-49.29c-0.1-0.26-0.17-0.55-0.28-0.81
			C210.98,21.38,209.66,19.15,208.12,17.14z"/>
		<path class="st14" d="M220.54,6.45v4.25l2.76-4.69C222.09,6.19,221.16,6.34,220.54,6.45z"/>
		<path class="st14" d="M172.02,58.34V46.62l-1,1.83c-0.43,2.11-0.98,4.14-1.73,6.02c-1.74,4.4-4.16,8.07-7.25,11.01
			c-0.17,0.16-0.36,0.29-0.54,0.45l-2.93,5.39c0.16,0.07,0.3,0.15,0.47,0.22c1.45,0.58,3.03,1.03,4.74,1.36
			c0.32,0.06,0.64,0.1,0.96,0.15l8.9-14.47C173.05,58.5,172.49,58.42,172.02,58.34z"/>
		<path class="st14" d="M190.55,24.93c0.78,0.84,1.45,1.79,2.03,2.85l9.93-16.14c-2.63-1.94-5.61-3.46-8.96-4.58l-7.83,14.39
			C187.54,22.27,189.15,23.42,190.55,24.93z"/>
		<path class="st19" d="M172.02,20.41v0.03l0.01-0.03C172.03,20.41,172.02,20.41,172.02,20.41z"/>
		<path class="st17" d="M153.05,48.33l-10.31,25.78c1.91-0.23,3.76-0.57,5.55-1.06l4.77-10.57V48.33z"/>
		<path class="st14" d="M169.24,24.33c0.17,0.41,0.29,0.86,0.44,1.28l2.34-5.18v-0.03c0,0,0.01,0,0.01,0l7.1-15.74
			c-0.7-0.02-1.38-0.07-2.1-0.07c-2,0-4.2,0.09-6.59,0.26l-5.04,12.59C166.91,19.51,168.2,21.79,169.24,24.33z"/>
		<path class="st15" d="M169.68,25.61c-0.15-0.42-0.27-0.87-0.44-1.28c-1.04-2.54-2.33-4.82-3.83-6.88
			c-1.07-1.47-2.23-2.85-3.53-4.08c-0.75-0.71-1.57-1.33-2.39-1.95c-1.4-1.06-2.86-2.05-4.43-2.88c-0.09,0.07-0.17,0.13-0.26,0.2
			c-0.18,0.12-0.36,0.24-0.5,0.38c-0.84,0.84-1.25,2.02-1.25,3.54v1.08v18.98v15.6v14.14v1.09c0,2.66,1.01,4.75,3,6.3
			c1.98-1.12,3.79-2.44,5.46-3.95c0.17-0.16,0.37-0.28,0.54-0.45c3.09-2.94,5.5-6.61,7.25-11.01c0.75-1.88,1.3-3.9,1.73-6.02
			c0.57-2.83,0.89-5.84,0.89-9.08C171.91,34.24,171.14,29.67,169.68,25.61z"/>
		<polygon class="st14" points="21.53,57.79 21.53,55.54 13.67,72.83 21.65,72.83 29.48,57.79 		"/>
		<polygon class="st14" points="43.15,31.52 32.45,31.52 25.71,46.35 35.44,46.35 		"/>
		<path class="st14" d="M44.53,21.39c1.96,0,3.54-0.58,4.74-1.74c0.08-0.08,0.14-0.19,0.22-0.28l1.17-2.25
			c0.27-0.95,0.41-2.05,0.41-3.35c0-1.45-0.2-2.83-0.6-4.14c-0.4-1.31-0.86-2.36-1.36-3.16h-5.26l-6.79,14.93H44.53z"/>
	</g>
</g>
</svg>
