<?xml version="1.0" encoding="utf-8"?>
<!-- Generator: Adobe Illustrator 26.3.1, SVG Export Plug-In . SVG Version: 6.00 Build 0)  -->
<svg version="1.1" id="Calque_1" xmlns="http://www.w3.org/2000/svg" xmlns:xlink="http://www.w3.org/1999/xlink" x="0px" y="0px"
	 viewBox="0 0 430.9 411.4" style="enable-background:new 0 0 430.9 411.4;" xml:space="preserve">
<style type="text/css">
	.st0{fill:#FFFFFF;}
	.st1{fill:#FFCB00;}
	.st2{fill:#9DD1C0;}
	.st3{fill:#4062AB;}
	.st4{fill:#E95059;}
	.st5{fill:none;stroke:#2D2422;stroke-width:3;stroke-miterlimit:10;}
	.st6{fill:#51B1DC;}
	.st7{fill:#E9525A;}
	.st8{fill:#6F4CA5;}
	.st9{fill:#2D63BC;}
	.st10{fill:#FDFDFE;}
</style>
<ellipse class="st0" cx="214.7" cy="207.1" rx="197.7" ry="201.1"/>
<g>
	<path class="st1" d="M-320.2-758.3l-3.5-8.9c-1.3-4.7-2.5-9.4-3.8-14c-43.6,6.9-94.8,22.6-139.5,42.9
		c-10.5,50.4,27.2,87.3,27.2,87.3c37.8,56.4,70.4,109.8,98.6,160c10-16.6,23.8-30.1,44.4-52.6c11-12.1,21.3-22.3,30.9-31.2
		c-28.1-60.7-41.6-135.4-41.6-135.4C-311.8-726-316-742.3-320.2-758.3z"/>
	<path class="st1" d="M-764-305.6c-0.4-1.9-0.9-3.7-1.3-5.6c-33,30.7-58.5,70.8-32.6,111.9c43.7,69.3,3.6,144.9,142.1,112.9
		l-12.2-8.8C-711.2-172.4-751.4-253.1-764-305.6z"/>
	<path class="st1" d="M-538.4-680.7c0,0,0.6-6.5,0.8-16.9c-8.1,6.2-15.2,12.5-21.1,18.8c-25.1,19.2-46.4,40.6-63.2,63.2
		c14.7,16.2,28.2,32.5,38.2,50c21.5,37.9,78.7,213.6,127.1,368.3c42.2-30.7,67.6-70.4,79.9-111.5c-31.9-83.6-68.9-164.3-102.2-195.5
		C-559.4-579.4-538.4-680.7-538.4-680.7z"/>
	<path class="st1" d="M-648.4-410.2c-2,10.9-12.2,23.3-38.8,43c-0.8,0.9-6.3,4.2-14.6,9.3c2.4,20.2,4.8,40.4,8,59.2
		c14.7,86.1,45.8,56.2,45.8,56.2c11.6,15.5,33.9,66.7,57.6,128.6c19.3-11.9,43-27.9,75.8-47.8c-29.3-70-70.4-151.6-128-239.3
		C-644.7-404.2-646.6-407.2-648.4-410.2z"/>
	<path class="st1" d="M-240.8-692.8c15.9,9.6,35.8,29.5,56.5,54.3c18.8-15.8,29.9-33.4,36-75.1c11.3-76.6-62.4-70.9-128.7-71.4
		c5.2,28.6,12.9,56.9,21.3,82.6C-251.4-699.4-246.4-696.2-240.8-692.8z"/>
	<path class="st2" d="M-327.5-781.1c1.3,4.6,2.5,9.3,3.8,14l3.5,8.9c4.2,16,8.4,32.3,12.7,48.1c0,0,13.5,74.7,41.6,135.4
		c36.6-34.1,62.9-48,81.6-63.7c-20.7-24.8-40.5-44.7-56.5-54.3c-5.6-3.4-10.6-6.6-14.9-9.5c-8.4-25.8-16.2-54-21.3-82.6
		c-1.5,0-3,0-4.4,0C-295.2-785.2-310.8-783.8-327.5-781.1z"/>
	<path class="st2" d="M-621.9-615.5c-18.2,24.4-31.3,50.2-38.4,76.1c-23.6,85.8,16.7,103.5,11.9,129.2c1.8,3,3.7,6,5.8,9.2
		c57.6,87.7,98.8,169.3,128,239.3c10.6-6.4,22.2-13.3,34.9-20.5c8.2-4.7,15.9-9.7,23.1-14.9c-48.4-154.7-105.6-330.4-127-368.3
		C-593.7-583-607.2-599.3-621.9-615.5z"/>
	<path class="st2" d="M-466.9-738.2c-26.9,12.2-51.5,26.1-70.6,40.7c-0.2,10.4-0.8,16.9-0.8,16.9s-21,101.3,59.4,176.5
		c33.4,31.2,70.4,111.9,102.2,195.5c6.7-22.6,9.5-45.6,8.9-67.8c6.7-63.9,13.2-92,26.7-114.6c-28.2-50.2-60.8-103.6-98.6-160
		C-439.8-650.9-477.5-687.8-466.9-738.2z"/>
	<path class="st2" d="M-693.8-298.7c-3.2-18.7-5.6-39-8-59.2c-15.7,9.7-41.3,26.1-63.5,46.7c0.4,1.9,0.9,3.7,1.3,5.6
		c12.6,52.5,52.8,133.2,96,210.4l12.2,8.8c5.6-1.3,11.5-2.8,17.7-4.4c14.7-3.9,29.2-11.6,47.7-23.1c-23.7-61.9-46-113.1-57.6-128.6
		C-648-242.5-679.1-212.7-693.8-298.7z"/>
</g>
<path class="st3" d="M-632.9-1871.9c-3.2,16.9-7.5,27.7-12.1,34.4v183.7c59.3-104.3,85.1-218.1,85.1-218.1H-632.9z"/>
<path class="st3" d="M385.6-3202.1c-44.5,64.5-99.3,151.1-111.1,202c-20.5,88.5-145.7,119.1-179.9,218.6
	c-6,17.3-14.6,37.5-24.9,59.3c-10.5,22.4-22.8,46.5-35.6,71.3c-13.5,26.1-27.7,53-41.2,79.1c0,0-129.6,218.6-119.1,318.3
	c10.5,99.7-93.8,253.2-93.8,253.2l-49.2,139.6l-0.1,0c0,0-3.1,12.4-124.6,278.7c-39.2,85.8-39.3,153.3-79.4,269.4
	c-19.5,56.2-54.1,112.7-84.7,155.9c-26.4,37.3-42.1,81.3-44.8,126.9c-1.2,20.1-10.7,44.9-39.1,72.1
	c-64.3,61.6-114.2,108.8-123.5,117.6l-11.1,15.8c0,0-17,161.9-4.7,160c2.1-0.3,9.5-9.4,20.1-24c41-29.3,229.6-173.8,267.5-372.6
	c42.6-223.3,156.4-357.2,222.6-545.4c69.4-197.7,201.2-161.2,174.6-254.4c0,0-25.1-110,14.2-196.2c39.4-86.2,109-347.9,103.5-434.3
	c0-0.1,0-0.2,0-0.3c-1-15.6,2.2-31.1,9-45.1c46.4-94.8,108.8-198.6,175.5-240.9c88-55.8,126.9-99.8,143.4-123.9
	c9.1-13.2,20-25.1,32.4-35.4c18.1-15.1,44.1-42.5,63-85.7l96.1-179.7L385.6-3202.1L385.6-3202.1z"/>
<path class="st3" d="M-455.7-2506.9c-96,358.9-220.4,593.4-269.8,678.2h73c94.9-193.6,347.6-712.5,377.3-806.4
	c36.6-115.9,18.6-262.8,111.3-377.8c46.5-57.8,68-114.8,77.9-157.2h-50.1c-59.4,76.8-146.3,206.4-171.1,334.5
	C-345.9-2635.3-407.9-2685.8-455.7-2506.9z"/>
<path class="st3" d="M282.3-3170.1H-12.5c-17.6,55.2-39.4,142.5-27.8,208.6c18.3,104.6-105.8,240.2-105.8,240.2
	S-247.8-2628-263-2469.5c-13.7,142.3-218.5,557.4-260.3,640.8c0,0-49.8,83.6-40.7,167.4c6.8,62.6-47.1,154.2-74.8,196.6
	c-9.4,14.3-16.3,30.1-20.5,46.7c-8.1,31.9-28.7,90.3-78.3,137.1v108.8c50.8-59.2,155.5-188.6,182.7-278.5
	c36-119.2,148.1-277.8,170-378l0,0c81.2-163.7,181.8-411.8,274.7-767.7c0,0,11.6-104,88.7-142.8s133.8-192.6,133.8-192.6
	S225.8-3159.7,293-3168L282.3-3170.1z"/>
<path class="st3" d="M-576-2442.6c65.9-109.4,169.4-239.2,137.5-286c0,0-82.6,41.2-175.5,213.1c-37.9,70.1-83.2,197.3-123.5,323.3
	v197c66.3-143.7,131.7-299.9,141.2-342.4C-596.4-2337.6-642-2333.2-576-2442.6z"/>
<g>
	<path class="st4" d="M1225.6-2153.9c3.5,16-9.1,41.8-25.1,45.3c-16,3.5-42.7-13.5-46.2-29.6c-3.5-16,19.9-34.8,36-38.3
		S1222.1-2169.9,1225.6-2153.9z"/>
	<path class="st4" d="M1387.4-2263c5.7,25.9-22.4,48-48.3,53.7s-51.6-10.7-57.3-36.6c-5.7-25.9,12-59.7,38-65.4
		C1345.7-2317,1381.7-2288.9,1387.4-2263z"/>
	<path class="st4" d="M1251.4-2269.6c2.2,9.9-1.8,30.2-11.8,32.4c-9.9,2.2-33.9-11.9-36.1-21.8s14.3-29.8,24.3-32
		C1237.7-2293.3,1249.2-2279.6,1251.4-2269.6z"/>
	<circle class="st4" cx="1272.3" cy="-2078.3" r="29.4"/>
	<path class="st4" d="M1256.7-2202.1c1.9,8.5-10.8,26.3-19.3,28.2c-8.5,1.9-29-8.6-30.8-17.2c-1.9-8.5,13.9-19.2,22.4-21.1
		C1237.5-2214.1,1254.8-2210.7,1256.7-2202.1z"/>
	<path class="st4" d="M1335.5-2153.3c2.9,13.1-4.1,31.9-17.1,34.8c-13.1,2.9-39.2-8.7-42-21.8c-2.9-13.1,17.2-28.6,30.3-31.5
		C1319.8-2174.6,1332.7-2166.4,1335.5-2153.3z"/>
	<circle class="st4" cx="1291.4" cy="-2195.1" r="14.3"/>
	<path class="st4" d="M1417.6-2174.9c2.5,11.2-9.2,29.5-20.4,32c-11.2,2.5-28.1-9.6-30.5-20.8c-2.5-11.2,15-24.6,26.2-27
		C1404-2193.2,1415.1-2186.1,1417.6-2174.9z"/>
</g>
<path class="st2" d="M732.4-3030.4c57.9,17,210.9-28,292.6,0c27.3,9.4,148.1,42.4,174.9,49c54.6,13.5,86.4,4,122.9,4.3
	c18.7,0.2,37.2,4.4,54.1,12.3c41.9,19.5,97,61.7,146,65.7c129.8,10.8,168.8-33.4,180.5-112.8c11.7-79.4-83.2-159.2-212.1-178.2
	c-10.2-1.5-20.2-2.6-30.2-3.3l0.1-1.2c-6.4,0.2-12.9,0.4-19.4,0.4c-3.7-0.1-7.3-0.1-10.9,0c-128.6-1.2-211.9-122.2-236.7-163.7
	c-5.8-9.6-13.2-18.1-21.9-25.2l0,0c-29.2-23.6-64.9-38-102.3-41.2c-23.4-2-46.7-3.9-58.1-5.6c-202.1-29.9-241,117.7-305.4,165.5
	C686.4-3249.3,536.4-3088,732.4-3030.4z"/>
<path class="st5" d="M690.9-3012.1c57.9,17,207.4-14.1,292.6,0c33.6,5.6,148.1,42.4,174.9,49c53.4,13.2,85,4.4,120.6,4.3
	c19.8-0.1,39.3,4.3,57.2,12.7c42.1,19.6,91.3,57.8,145.4,65.4c129,18.2,168.8-33.5,180.5-112.8c11.7-79.4-83.2-159.2-212.1-178.2
	c-10.2-1.5-20.2-2.6-30.2-3.3l0.1-1.2c-6.4,0.2-12.9,0.3-19.4,0.4c-3.7-0.1-7.3-0.1-10.9,0c-128.6-1.2-211.9-122.2-236.7-163.7
	c-5.8-9.6-13.2-18.1-21.9-25.2l0,0c-29.2-23.6-64.9-38-102.3-41.2c-23.4-2-46.7-3.9-58.1-5.6c-202.1-29.9-241,117.7-305.4,165.5
	C644.9-3231,494.9-3069.7,690.9-3012.1z"/>
<path class="st1" d="M1357-1726.3c21.4-18.4,56.2-3.2,74.6,18.2s16,53.7-5.4,72.1s-61.9,18.8-80.3-2.6
	C1327.4-1660,1335.6-1707.9,1357-1726.3z"/>
<path class="st1" d="M1561.7-1664.9c11.8-10.2,42-19.5,52.2-7.7s8.6,54.4-3.2,64.6s-50.6,2.3-60.8-9.5
	C1539.7-1629.3,1549.9-1654.7,1561.7-1664.9z"/>
<path class="st1" d="M1570.6-1737.7c4.7-4.1,20.2-2.1,24.3,2.6s4.4,21.2-0.4,25.2s-16.8-2.2-20.9-7
	C1569.6-1721.6,1565.9-1733.6,1570.6-1737.7z"/>
<circle class="st1" cx="1491.8" cy="-1805.9" r="10.3"/>
<path class="st1" d="M1529.4-1802.6c8.1-7,28.2-5.4,35.2,2.6c7,8.1,4.5,27.2-3.6,34.1c-8.1,7-26.7-1.4-33.7-9.5
	C1520.5-1783.4,1521.4-1795.6,1529.4-1802.6z"/>
<polygon class="st6" points="691.1,-2628 691.1,-2628.1 688.9,-2628.1 688.6,-2628 "/>
<path class="st5" d="M-624.3-668.8L-624.3-668.8c-53.9,38.3-92.4,87-109.3,137.1c-41.3,122.7,54,110.5-38.1,173.7
	c-4.5,5.3-166.2,78.7-120.2,165.8c39.7,75.1-10.1,153.3,149.6,116.9c34.9-7.9,70.2-37.9,161.8-86.1c84.3-44.4,120.3-121.8,123-192.3
	c19-112.1,29.8-114.8,81.2-166.7c101.1-102.1,137.4-71.4,157.3-166.2c16.6-79.1-59.7-74.5-125.9-78.2
	C-423.2-769.2-569.4-723.4-624.3-668.8z"/>
<path class="st1" d="M1269.4-369.6L1269.4-369.6c-7.9-1.4-16-1.3-23.9,0.3c-83,16.8-128.4-3.3-177.2-24.1
	c-60.8-25.9-31.9-140.8-127.8-105.1c-136.5,50.8-152.2-9.3-167.4-16.1c-29.2-13-63.3-42.8-133.6-1.7
	c-84.3,49.4-73.6,94.8-69.9,136.3c2.5,28.1,34.3,69.9,52.7,83.2c62.1,44.9,133.5,72.3,212,59c124.5-9.1,127.3-0.8,184.2,30.1
	c111.9,60.8,77.1,97.6,182.4,93.1c87.8-3.7,257.7-23.4,262.9-78.8C1470.1-258.9,1432.1-342.3,1269.4-369.6z"/>
<path class="st7" d="M798-479.3c25,21.1,14,63.6-7.1,88.6c-21.1,25-33.5,49.2-58.4,28.1c-25-21.1-21.4-62-0.3-86.9
	C753.2-474.6,773-500.4,798-479.3z"/>
<path class="st7" d="M679.4-488.4c8.9,7.6,19.4,28.8,11.8,37.8s-39.3,12.9-48.2,5.3c-8.9-7.6-7.7-37.2-0.2-46.2
	C650.4-500.5,670.4-496,679.4-488.4z"/>
<path class="st7" d="M783.7-335.2c5.5,4.7,6.2,22.8,1.5,28.3s-23.4,8.9-28.9,4.2s-0.5-19.6,4.1-25.2
	C765.1-333.4,778.2-339.8,783.7-335.2z"/>
<path class="st7" d="M680.3-404.8c3.5,2.9,5.5,9.5,2.6,12.9c-2.9,3.5-12.4,5.7-15.8,2.8s-1.2-11.3,1.7-14.8
	C671.7-407.3,676.9-407.8,680.3-404.8z"/>
<circle class="st7" cx="847.3" cy="-453.7" r="11.9"/>
<path class="st7" d="M850.3-394.1c9.4,8,11.4,31.3,3.4,40.7c-8,9.4-30.2,10.1-39.7,2.2c-9.4-8-3.2-30.8,4.7-40.2
	C826.8-400.9,840.9-402,850.3-394.1z"/>
<path class="st7" d="M708.7-339c9.3,7.9,14.7,25.4,6.9,34.7s-33.2,15.4-42.5,7.5c-9.3-7.9-3.3-30.3,4.5-39.6
	C685.4-345.7,699.4-346.8,708.7-339z"/>
<circle class="st7" cx="715" cy="-479.7" r="11.9"/>
<path class="st5" d="M1269.4-434L1269.4-434c-7.9-1.4-16-1.3-23.9,0.3c-83,16.8-128.4-3.3-177.2-24.1
	c-60.8-25.9-31.9-140.8-127.8-105.1C804-512,788.4-572.2,773.1-579c-29.2-13-63.3-42.8-133.6-1.7c-84.3,49.4-73.6,94.8-69.9,136.3
	c2.5,28.1,34.3,69.9,52.7,83.2c62.1,44.9,133.5,72.3,212,59c124.5-9.1,127.3-0.8,184.2,30.1c111.9,60.8,77.1,97.6,182.4,93.1
	c87.8-3.7,257.7-23.4,262.9-78.8C1470.1-323.3,1432.1-406.7,1269.4-434z"/>
<g>
	<g>
		<path class="st2" d="M-418,2943.6c0.5-0.5,1.1-1,1.6-1.5c-0.1-0.9-0.1-1.7-0.2-2.6L-418,2943.6z"/>
		<path class="st6" d="M1259.3,2920.2c47.6-12.9,80.6-30.3,102.1-51.3c-4.9,0.9-7.6,1.3-7.6,1.3S1333.8,2893,1259.3,2920.2z"/>
		<path class="st6" d="M1395.3,2789c0.4-20.7-3.5-42.8-10.4-66c-19.3-65.1-103.5-114.6-216.3-136.9
			c-96.1,54.8-192.3,133.2-192.3,133.2S838,2862.4,714.4,2874.9c-76.4,7.7-126.7,51.5-154.1,83.8c16.4,0.1,29.5,0.1,37.5-0.2
			c124-5.3,162.5-44.7,256.1-51.2c19.5,0.3,104.3,11,181.4,19.7l168.4-47.3L1395.3,2789z"/>
		<path class="st6" d="M346.5,2664.4c28.8-44.1,68.2-85.7,112-123.6c-14.5-6.8-28-13.6-40.5-20.2c-68,53.4-140.2,62.2-140.2,62.2
			s-48.2,55-273.3,96.1C-138.4,2705-310,2844-416.4,2942.1c2.4,34.8,16.2,68.9,51.1,94.3c56.8-59.1,110.5-110.2,154.5-143.6
			C-14.4,2743.9,117.9,2731,117.9,2731c27.6,62.1-167.7,162-302.1,254.2c-68.1,46.6-84.7,72.9-84.6,87.4c25,4.1,53.9,6.2,87.2,5.9
			c28.6-0.3,67-6,110.3-15c27.8-33,55.8-67.5,83.9-103.5C147.6,2786.6,216.3,2863.9,346.5,2664.4z"/>
		<path class="st6" d="M-151.2,2632.6c85.8-93.5,274.6-79.1,336.9-166c5.8-8.1,13.7-16.9,23-26c-33.2-2.5-66.5-1.1-98.6,4.4
			c-38.7,6.5-77.2,13.3-96.6,15.6c-34.3,4.1-64.9,9.8-92.1,16.9c-70.6,57.9-136.1,161.8-226.3,186.4c-1.7,0.5-3.5,1-5.3,1.5
			c-21.5,48.3-34.3,94.4-60.5,125.3c-11,13-49.2,81.8-45.7,148.8l42.5-120.8C-291,2752.9-197.7,2683.2-151.2,2632.6z"/>
		<path class="st6" d="M531.3,2847.3c0,0,226.8-98.3,240.2-217.1c0.9-7.8,2.4-15.7,4.4-23.7c-82.1,7.7-162.5-8-232-31.4
			c-113.3,91.6-147.1,222.8-227.6,315.7c-15.7,18.1-51,51.5-98.9,94.6c24.9-7.6,48.4-14.7,69.5-21.1c12-3.6,37.8-5.5,69.8-6.4
			C438.8,2879,531.3,2847.3,531.3,2847.3z"/>
		<path class="st2" d="M4.5,2678.8c225.1-41.1,273.3-96.1,273.3-96.1s72.2-8.8,140.2-62.2c-28.7-15.2-51.6-29.4-66.9-39.3
			c-15.4-10.1-32.7-18.1-51.3-23.7l0,0c-29.7-9-60.5-14.6-91.3-16.9c-9.4,9.1-17.2,17.9-23,26c-62.2,86.9-251.1,72.5-336.9,166
			c-46.4,50.6-156.7,129.9-239.7,195.7l-25.6,111.2c0,0.9,0.1,1.7,0.2,2.6C-310,2844-138.4,2705,4.5,2678.8z"/>
		<path class="st2" d="M-78.7,2477.4c-147.1,38.1-199.3,115.4-231.6,187.9c1.8-0.5,3.6-1,5.3-1.5
			C-214.8,2639.2-149.3,2535.3-78.7,2477.4z"/>
		<path class="st2" d="M-184.2,2985.1c134.5-92.1,329.8-192.1,302.1-254.2c0,0-132.4,13-328.6,161.8c-44,33.4-97.7,84.5-154.5,143.6
			c22.5,16.4,53.8,29.2,96.5,36.2C-268.9,3058-252.3,3031.8-184.2,2985.1z"/>
		<path class="st2" d="M1395.3,2789l-191.6,90.7l-168.4,47.3c60.3,6.8,115.9,12.2,131.9,10.3c35.5-4.2,66-10,92.1-17
			c74.4-27.2,94.5-50,94.5-50s2.7-0.3,7.6-1.3C1384.7,2846.2,1394.6,2819.2,1395.3,2789z"/>
		<path class="st2" d="M543.9,2575.1c-30.9-10.4-59.6-22.3-85.3-34.3c-43.9,37.9-83.2,79.5-112,123.6
			C216.3,2863.9,147.6,2786.6,12.6,2960c-28.1,36.1-56.1,70.6-83.9,103.5c88.8-18.5,198.5-50.8,288.6-78.1
			c48-43.1,83.3-76.5,98.9-94.6C396.8,2797.9,430.6,2666.7,543.9,2575.1z"/>
		<path class="st2" d="M714.4,2874.9c123.6-12.5,261.9-155.6,261.9-155.6s96.2-78.4,192.3-133.2c-70.4-14-151.9-17.4-235.8-7.3
			c-17.2,2.1-34,4.6-50.4,7.6l-0.7-1.5c-10.2,2.8-20.5,5.5-30.9,8.1c-5.9,1.4-11.8,2.8-17.5,4.3c-19.2,4.5-38.3,7.6-57.4,9.4
			c-2,8-3.5,15.9-4.4,23.7c-13.4,118.7-240.2,217.1-240.2,217.1s-92.5,31.8-174.6,110.5c63.2-1.8,150.7,0.4,203.6,0.8
			C587.7,2926.3,638.1,2882.6,714.4,2874.9z"/>
	</g>
	<path class="st2" d="M-390.9,2828.3c0,0-28.2,44-25.6,111.2l41.5-51.6L-390.9,2828.3z"/>
</g>
<path class="st5" d="M-232.3,3119.1c103.5-0.9,334-73.4,468.4-114.3c43-13.1,263.9-3.8,311-5.8c124-5.3,162.5-44.7,256.1-51.2
	c34.8,0.5,276.9,34.3,313.3,30c218.3-26,249.1-108.5,217.7-214.2c-31.4-105.7-233.8-170.3-452.2-144.3c-17.2,2.1-34,3.6-50.4,6.6
	l-0.7-0.5c-10.2,2.8-20.5,5.5-30.9,8.1c-5.9,1.4-11.8,2.8-17.5,4.3c-206.3,48.7-415.9-72.6-482.1-115.9
	c-15.4-10.1-32.7-18.1-51.3-23.7h0c-61.8-18.7-127.9-23-189.9-12.6c-38.7,6.5-77.2,13.3-96.6,15.6
	c-342.4,40.8-311.4,244-384.3,330.1C-444.3,2858.1-582.5,3122.2-232.3,3119.1z"/>
<path class="st2" d="M-1601.4,1287.9l3,7.8c-51.4,28.7-102.6,61-153,96.7c-436.6,309.8-624.4,373.5-620.5,635.8
	c1.2,81.9,134.7,835.2,629.5,616.4"/>
<path class="st7" d="M2149.4,3678.4L2149.4,3678.4c20.6-1.8,40.6-7.5,59-16.7c194.5-97.1,320.6-77.6,455.7-58.6
	c168.2,23.6,173,328,387,175.5c304.7-217.2,383.7-78.5,426-71.8c81.1,12.8,185.6,64,332.5-85c176.3-178.7,119.3-284.2,82.4-384.6
	c-25-68.1-131.6-150.4-186.2-171.2c-178.2-67.8-367.2-88.9-547.8-12.5c-16.2,6.9-32.7,13-49.4,18.7
	c-271.8,93.1-289.2,74.4-445.1,37.1c-318.2-76.2-256.4-190.5-514.5-109.1c-215.1,67.8-623.4,230-599.5,370.9
	C1577.8,3537.9,1727.8,3719.4,2149.4,3678.4z"/>
<g>
	<path class="st4" d="M1135.5,298.4c16.2-2.3,41,12.2,43.3,28.4c2.3,16.2-16.7,41.6-32.9,43.9c-16.2,2.3-33.2-22.5-35.5-38.7
		C1108,315.8,1119.3,300.7,1135.5,298.4z"/>
	<path class="st4" d="M1038.9,128.9c26.3-3.8,46.2,25.9,49.9,52.2c3.8,26.3-14.5,50.7-40.8,54.4c-26.3,3.8-58.6-16.5-62.4-42.8
		C981.8,166.5,1012.6,132.7,1038.9,128.9z"/>
	<path class="st4" d="M1022.1,264.1c10.1-1.4,30,4.1,31.4,14.1c1.4,10.1-14.4,33-24.5,34.4c-10.1,1.4-28.7-16.5-30.1-26.6
		C997.5,275.9,1012,265.5,1022.1,264.1z"/>
	
		<ellipse transform="matrix(7.479754e-02 -0.9972 0.9972 7.479754e-02 866.802 1449.1433)" class="st4" cx="1214.4" cy="257.4" rx="29.4" ry="29.4"/>
	<path class="st4" d="M1089.7,263.8c8.6-1.2,25.4,12.7,26.7,21.4c1.2,8.6-10.8,28.2-19.4,29.5c-8.6,1.2-18.1-15.3-19.4-23.9
		C1076.4,282.1,1081.1,265.1,1089.7,263.8z"/>
	<path class="st4" d="M1144.3,188.8c13.2-1.9,31.5,6.4,33.4,19.7c1.9,13.2-11.6,38.4-24.8,40.3c-13.2,1.9-27.2-19.3-29.1-32.6
		C1121.9,203,1131.1,190.7,1144.3,188.8z"/>
	
		<ellipse transform="matrix(7.479753e-02 -0.9972 0.9972 7.479753e-02 788.0934 1308.7485)" class="st4" cx="1099.3" cy="229.7" rx="14.3" ry="14.3"/>
	<path class="st4" d="M1128.9,105.4c11.4-1.6,28.8,11.4,30.4,22.8c1.6,11.4-11.6,27.3-23,28.9c-11.4,1.6-23.4-16.8-25-28.2
		C1109.7,117.6,1117.6,107,1128.9,105.4z"/>
</g>
<g>
	<path class="st1" d="M-549.2,641c15.2,6.3,29.1,31.3,22.8,46.5c-6.3,15.2-35.5,27.3-50.7,21.1c-15.2-6.3-17.2-36.3-10.9-51.4
		S-564.4,634.8-549.2,641z"/>
	<path class="st1" d="M-546.2,445.9c24.6,10.1,26.6,45.8,16.4,70.3c-10.1,24.6-38.3,36.2-62.8,26.1s-42.1-44-32-68.5
		C-614.5,449.3-570.8,435.8-546.2,445.9z"/>
	<path class="st1" d="M-629.4,553.8c9.4,3.9,23.7,18.7,19.8,28.1c-3.9,9.4-29.1,21.1-38.6,17.2c-9.4-3.9-16.3-28.8-12.4-38.2
		C-656.7,551.5-638.9,549.9-629.4,553.8z"/>
	
		<ellipse transform="matrix(0.5714 -0.8207 0.8207 0.5714 -727.3798 -101.105)" class="st1" cx="-460.5" cy="645.8" rx="29.4" ry="29.4"/>
	<path class="st1" d="M-571.1,588c8.1,3.3,15.4,23.9,12.1,32c-3.3,8.1-23.6,18.8-31.7,15.5c-8.1-3.3-7.8-22.4-4.5-30.5
		C-591.8,596.9-579.1,584.6-571.1,588z"/>
	<path class="st1" d="M-485.9,551.1c12.4,5.1,23.9,21.6,18.8,33.9c-5.1,12.4-29.5,27.2-41.9,22.1s-13.6-30.5-8.5-42.9
		C-512.4,551.9-498.2,546-485.9,551.1z"/>
	
		<ellipse transform="matrix(0.5714 -0.8207 0.8207 0.5714 -696.1533 -206.1083)" class="st1" cx="-545.4" cy="563.4" rx="14.3" ry="14.3"/>
	<path class="st1" d="M-456.7,471.5c10.6,4.4,18.9,24.5,14.6,35.1c-4.4,10.6-23.9,17.6-34.5,13.2c-10.6-4.4-11.6-26.4-7.2-37
		C-479.5,472.2-467.3,467.1-456.7,471.5z"/>
</g>
<g>
	<path class="st8" d="M164.3,111.3c-5.4-3.7-10.8-7.2-16.6-10.3c-4.1-2.2-8.3-4.2-12.7-5.9c-3.2-1.3-6.4-2.2-9.6-3.2
		c-4.4-1.3-8.9-1.3-13.4-1.1c-0.8,0-1.2,0.2-1.5,1.1c-1,2.7-1.8,5.5-2.6,8.3c-1,3.4-1.8,6.8-2.2,10.2c-0.7,5.4-1,10.8-0.5,16.3
		c0.3,3.1,0.5,6.2,1.1,9.2c0.3,1.5,0.7,3,1.2,4.4c0.4,1.2,0.4,2.5,1.2,3.6c0.3,0.4,0.1,1-0.4,1.5c-0.8,0.9-1.5,1.8-2.3,2.7
		c-3.7,4.4-6.7,9.2-9.2,14.3c-2,4.1-3.7,8.3-4.9,12.7c-1.2,4.6-2,9.3-2.7,14c-0.9,6.1-0.6,12.2-0.5,18.3c0,3.9,0.6,7.7,1,11.6
		c0.3,3.4,0.8,6.8,1.6,10.1c1.4,5.8,2.9,11.5,5.1,17.1c3,7.5,6.7,14.5,11.8,20.7c5.6,6.9,12.3,12.7,20.1,17.1
		c3.8,2.1,7.6,4.1,11.6,5.8c2.9,1.2,5.8,2.2,8.8,3.2c2.5,0.8,5.1,1.3,7.6,2.2c1.3,0.5,2.7,0.6,4.1,0.9c2,0.4,4.1,0.8,6.2,1.2
		c3.7,0.6,7.4,1,11,1.8c0.2,0,0.4,0.2,0.6,0.3c-0.6,1.2-1.6,2-2.4,2.9c-3.1,3.6-5.2,7.8-6.8,12.3c-1.3,3.5-2.1,7.1-2.7,10.8
		c-0.1,0.4-0.2,0.7-0.7,1c-2.3,1-4.5,2.1-7,2.6c-1.3,0.3-2.5,0.8-3.8,1.1c-4.1,1.1-8.3,1.6-12.6,1.4c-6.6-0.2-12.8-2-18.4-5.5
		c-3.7-2.4-6.9-5.3-9.8-8.7c-3-3.6-5.1-7.7-7.8-11.5c-4.4-6-9.6-11-16.4-14.2c-4.1-1.9-8.4-3.2-13-3.1c-1.7,0.1-3.2,0.5-4.8,0.9
		c-0.7,0.2-1.3,0.6-1.8,1c-1.1,1-1.2,1.7-0.5,3.2c0.7,1.4,1.6,2.6,2.8,3.6c1.7,1.5,3.5,3,5.5,4.2c5.2,3.3,9.1,7.8,12.5,12.9
		c2.1,3.1,4,6.2,5.5,9.6c1.4,3,2.7,6.1,4,9.1c2.8,6.5,7,11.8,12.4,16.2c4.2,3.4,9,5.8,14,7.8c1.2,0.5,2.6,0.6,3.8,1
		c2,0.6,4.1,0.7,6.1,1.2c4.1,1,8.1,0.6,12.2,0.6c4.4,0.1,8.7-0.6,12.9-1.6c1-0.2,2.1-0.2,3.2-0.3c0.6-0.1,0.7,0.3,0.8,0.8
		c0,0.4,0,0.7,0,1.1c0.1,8.4,0.2,16.8,0.3,25.2c0,1.4,0.1,2.8,0.2,4.2c0.1,3.2-0.1,6.3-1.9,9.1c-1.6,2.4-3.9,3.5-6.6,3.9
		c-2.8,0.4-5.4-0.3-8.1-1.3c-3.4-1.3-6.7-2.6-10.1-3.9c-2.8-1.1-5.5-2.4-8.2-3.7c-6.1-3.1-12.2-6.3-18.1-9.9
		c-7.6-4.7-14.9-9.9-21.8-15.6c-7.5-6.2-14.6-12.9-21.2-20.1c-8.1-8.9-15.3-18.5-21.8-28.7c-3.6-5.6-6.8-11.5-9.8-17.4
		c-2.7-5.5-5.2-11.2-7.4-16.9c-1.4-3.7-2.8-7.5-4.1-11.2c-0.8-2.3-1.3-4.7-2.1-7c-0.9-2.7-1.3-5.5-2.2-8.2c-0.5-1.6-0.8-3.4-1.1-5.1
		c-0.4-2.1-0.8-4.3-1.2-6.4c-0.3-1.8-0.5-3.6-0.9-5.4c-0.7-2.8-0.6-5.7-1.2-8.6c-0.4-1.8-0.2-3.7-0.5-5.5c-1-8.4-1-16.8-0.7-25.1
		c0.2-5.4,0.6-10.8,1.3-16.2c0.4-3,0.6-6,1.2-9c0.9-4.2,1.5-8.4,2.5-12.6c0.7-2.9,1.5-5.8,2.1-8.8c0.2-1.2,0.5-2.5,1-3.6
		c0.7-1.4,0.9-2.8,1.3-4.2c2.2-7.2,5.1-14.1,8-21c3.2-7.6,7-14.8,11.1-21.9c4.4-7.5,9.3-14.6,14.7-21.5c6.7-8.5,13.9-16.4,21.8-23.8
		c6.3-5.9,13-11.3,20.1-16.3c7.4-5.2,15-9.9,23-14.1c4.6-2.4,9.3-4.7,14.1-6.7c3.4-1.4,6.8-2.9,10.5-4c1.8-0.5,3.6-1.3,5.5-1.9
		c3.6-1.1,7.3-2.1,10.9-3.2c2.1-0.6,4.3-0.9,6.3-1.6c1.3-0.5,2.8-0.5,4.1-0.8c2.3-0.4,4.6-0.7,6.8-1.3c3.2-0.9,6.5-0.6,9.8-1.3
		c2.4-0.6,5,0,7.4-0.4c7.8-1.3,15.6-0.6,23.4-0.6c4.1,0,8.1,0.6,12.2,1c2.1,0.2,4.4,0.2,6.4,0.8c2.3,0.7,4.7,0.4,7,1.3
		c1.5,0.6,3.3,0.6,5,0.9c3.8,0.8,7.5,1.7,11.2,2.7c3.9,1.1,7.7,2.3,11.6,3.6c4.3,1.4,8.6,3,12.8,4.8c5,2.1,9.9,4.4,14.7,7
		c7.8,4.2,15.3,8.7,22.5,13.8c9.8,6.9,18.9,14.8,27.3,23.4c6.3,6.4,12,13.2,17.3,20.3c5.5,7.4,10.4,15,14.9,23.1
		c2.4,4.4,4.8,8.8,6.8,13.4c1.4,3.1,2.9,6.1,3.9,9.4c0.8,2.4,1.9,4.8,2.8,7.2c0.8,2.5,1.6,4.9,2.5,7.4c1,2.5,1.6,5.2,2.3,7.8
		c0.4,1.6,0.8,3.3,1.3,4.8c0.5,1.8,0.5,3.7,1.3,5.5c0.6,1.4,0.7,3,0.9,4.5c0.6,4.5,1.5,8.9,2.1,13.3c0.6,4.8,0.7,9.7,1.4,14.5
		c0.2,1.6,0.3,3.2,0.3,4.9c0,6.2,0.3,12.4-0.2,18.6c-0.5,6-0.8,12-1.8,17.9c-0.4,2.6-0.7,5.1-1.3,7.7c-0.5,2.1-0.8,4.3-1.2,6.4
		c-0.4,2-0.8,3.9-1.3,5.9c-0.7,2.5-1.2,5-2,7.5c-0.9,3.3-1.9,6.5-3,9.8c-0.7,2.1-1.6,4.2-2.4,6.3c-1.3,3.4-2.7,6.8-4.1,10.2
		c-1.9,4.6-4.1,9-6.4,13.3c-3.6,6.9-7.7,13.5-12,19.9c-4.2,6.2-8.8,12.1-13.7,17.8c-6.6,7.8-13.9,15-21.7,21.6
		c-6.3,5.3-12.9,10.4-19.8,14.8c-6.1,3.9-12.4,7.6-18.9,10.9c-4,2-8.1,4.1-12.2,5.8c-3.4,1.4-6.8,2.8-10.3,3.9
		c-2.4,0.8-4.7,1.7-7.3,1.5c-4-0.4-7.6-2.7-8.6-6.9c-0.4-1.6-0.6-3.2-0.6-4.8c0.1-13.4,0.1-26.8,0.2-40.2c0-2.6,0.1-5.2,0.2-7.8
		c0.1-5.2-0.2-10.4-0.7-15.6c-0.4-3.5-1.2-7-2.3-10.4c-1.2-3.5-2.6-6.8-4.5-10c-1.1-1.9-2.5-3.7-4-5.3c-0.5-0.5-1-0.9-1.3-1.7
		c1.8-0.8,3.7-0.9,5.6-1.2c2.9-0.4,5.7-1,8.5-1.4c2.1-0.3,4.1-1,6.2-1.2c1.5-0.1,2.9-0.6,4.2-1c5.7-1.6,11.3-3.4,16.7-5.9
		c6.5-3,12.8-6.5,18.3-11c7.4-6.1,13.5-13.4,18-21.9c2.2-4,3.9-8.2,5.4-12.5c2-5.8,3.5-11.6,4.5-17.6c1-5.8,1.7-11.6,1.8-17.4
		c0-1.3,0.2-2.5,0.3-3.8c0.7-5.5-0.1-11-0.7-16.4c-0.5-4.9-1.6-9.7-3.2-14.4c-1.2-3.4-2.4-6.8-3.9-10.1c-1.5-3.3-3.4-6.5-5.4-9.6
		c-1.9-2.8-4-5.6-6.2-8.1c-0.8-0.9-0.7-1.8-0.3-2.7c1.3-3.4,1.9-7,2.6-10.5c1.1-5.6,0.7-11.2,0.6-16.9c-0.1-3.4-0.8-6.7-1.4-10
		c-0.3-1.7-0.7-3.4-1.2-5.1c-0.8-2.9-1.8-5.8-2.7-8.7c-0.2-0.6-0.8-0.9-1.5-0.9c-3.6,0-7.1-0.2-10.7,0.6c-2.9,0.6-5.7,1.4-8.5,2.2
		c-3,0.9-5.9,2.2-8.7,3.5c-4.5,2.1-9,4.4-13.3,7c-3.4,2-6.7,4.2-10,6.4c-0.5,0-0.8,0.2-0.9,0.8c0,0,0,0,0,0c-1,0.2-2-0.2-2.9,0.1
		c-0.3,0-0.5-0.1-0.8-0.1c-0.3-0.8-1.1-0.8-1.8-0.9c-1.8-0.4-3.6-0.9-5.5-1.3c-2.9-0.5-5.7-1.4-8.6-1.6c-0.2,0-0.4,0-0.6-0.1
		c-3.8-0.9-7.7-1.4-11.6-1.6c-1,0-2.1,0.2-2.9-0.2c-1.6-0.7-3.3-0.6-5-0.6c-5.5-0.1-11,0.1-16.5-0.1c-5.5-0.2-10.9,0.8-16.4,1.2
		c-2.3,0.1-4.6,0.5-6.9,0.8c-0.1,0-0.3,0-0.4,0.1c-2.3,1-4.8,0.9-7.1,1.4c-1.9,0.4-3.8,1-5.7,1.2c-0.9,0.1-1.9,0.6-2.8,0.7
		c-0.6,0.1-1.3,0.3-1.5,1c-0.4,0-0.8,0.1-1.1,0.1C166,111.3,165.1,111.3,164.3,111.3z"/>
	<path class="st8" d="M168,111.2c0.3-0.7,0.9-0.9,1.5-1c1-0.1,1.9-0.6,2.8-0.7c2-0.2,3.8-0.8,5.7-1.2c2.4-0.6,4.9-0.4,7.1-1.4
		c0.1-0.1,0.3-0.1,0.4-0.1c2.3-0.2,4.6-0.6,6.9-0.8c5.5-0.4,10.9-1.4,16.4-1.2c5.5,0.2,11,0.1,16.5,0.1c1.7,0,3.3-0.1,5,0.6
		c0.9,0.4,1.9,0.1,2.9,0.2c3.9,0.2,7.8,0.7,11.6,1.6c0.2,0,0.4,0.1,0.6,0.1c2.9,0.2,5.7,1.1,8.6,1.6c1.9,0.3,3.7,0.9,5.5,1.3
		c0.7,0.1,1.5,0.1,1.8,0.9c-1,0.1-2,0.3-2.8-0.5c-0.1-0.1-0.3-0.2-0.4-0.1c-2,0.2-3.9-0.7-5.7-1.1c-2.2-0.5-4.6-0.2-6.7-1.4
		c-0.5-0.3-1.2-0.2-1.9-0.2c-1.3-0.1-2.5,0.1-3.7-0.7c-0.5-0.3-1.2-0.2-1.9-0.2c-1.5,0-3,0-4.4-0.4c-1.6-0.5-3.2-0.4-4.8-0.4
		c-3.7,0-7.3-0.4-10.9-0.7c-2.7-0.2-5.5-0.1-8.2,0.1c-3.8,0.4-7.6,0.8-11.4,0.6c-1.1,0-2.2,0-3.3,0.4c-1.2,0.4-2.5,0.5-3.8,0.4
		c-1.3,0-2.5-0.1-3.7,0.6c-0.6,0.3-1.2,0.2-1.9,0.2c-1.2,0.1-2.6-0.2-3.6,0.7c-0.1,0.1-0.3,0.1-0.4,0.1c-2.3-0.3-4.4,0.6-6.6,1
		c-1.6,0.3-3.4,0.4-5,1.2C169.7,111.4,168.8,111.3,168,111.2z"/>
	<path class="st8" d="M262.2,111.3c1-0.3,2,0.2,2.9-0.1C264.2,112.5,263.2,112.5,262.2,111.3z"/>
	<path class="st8" d="M164.3,111.3c0.9,0,1.7,0,2.6,0C165.9,112.5,165.1,112.5,164.3,111.3z"/>
	<path class="st8" d="M265.1,111.2c0.1-0.5,0.4-0.8,0.9-0.8C266,111.1,265.7,111.4,265.1,111.2z"/>
</g>
<g id="Fa0NEb.tif">
	
		<image style="overflow:visible;" width="220" height="270" id="Layer_0" xlink:href="C9E893EDBBCF7D54.png"  transform="matrix(0.5 0 0 0.5 2254.6025 -1708.1591)">
	</image>
</g>
<path class="st9" d="M1974.9-1114.7c0-15.6,0-31.3,0-46.9c1.6-0.8,1-2.3,1.1-3.5c1.5-15.2,3.7-30.4,7.2-45.3
	c41-173.7,215.3-280.2,388.3-237.3c180.5,44.7,285,235.4,225.6,411.7c-38.9,115.7-139.8,198.7-261,215c-6.3,0.8-12.8,0.5-18.9,2.7
	c-15,0-29.9,0-44.9,0c-0.9-1.5-2.4-0.9-3.6-1c-45.6-3.8-88.9-16-128.6-38.8c-92.5-53.1-146.8-132.6-162.6-238.2
	C1976.7-1102.4,1977.1-1108.7,1974.9-1114.7z M2325.2-1177c0-11.1-0.2-20.7,0.1-30.2c0.1-3.6-1-4.4-4.4-4.4
	c-22.8,0.2-45.6,0.2-68.3,0c-3.7,0-4.7,0.9-4.7,4.7c0.1,83.6,0.1,167.3,0,250.9c0,4.1,1.4,4.9,5.1,4.9c22.1-0.2,44.2-0.2,66.4,0
	c4.7,0.1,6.1-0.9,6.1-5.9c-0.2-42.7-0.1-85.5-0.1-128.2c0-5.8,0.3-11.6,1-17.4c3.9-30.3,25.1-46.8,55.3-43.1
	c13.6,1.7,23.5,8.6,29.5,20.9c5.2,10.5,6.9,21.8,7,33.4c0.1,44.9,0.2,89.8,0,134.7c0,4.7,1.4,5.7,5.8,5.6c22.9-0.2,45.9-0.2,68.8,0
	c4.6,0.1,5.8-1.3,5.8-5.8c-0.2-52.2-0.1-104.4-0.1-156.7c0-10.3-0.5-20.6-2.4-30.8c-4-20.6-11.8-39.3-28.1-53.1
	c-25.4-21.6-55.1-25.9-86.7-19.3C2357.6-1211.8,2339.7-1198,2325.2-1177z M2115.7-1081.7c0,41.6,0.1,83.2-0.1,124.7
	c0,5,1.5,5.9,6.1,5.9c23.1-0.2,46.2-0.2,69.4,0c4.4,0,5.5-1.1,5.5-5.5c-0.1-83.3-0.1-166.7,0-250c0-3.7-0.7-5.1-4.8-5
	c-23.6,0.2-47.2,0.2-70.9,0c-4.1,0-5.2,0.9-5.2,5.1C2115.8-1164.9,2115.7-1123.3,2115.7-1081.7z M2155.6-1341.6
	c-26.3,0-47.8,21.6-47.7,48.1c0.1,26.2,21.4,47.8,47.5,47.9c26.1,0.2,47.9-21.5,47.9-47.9C2203.4-1320,2182.1-1341.6,2155.6-1341.6z
	"/>
<path class="st10" d="M2325.2-1177c14.5-21,32.4-34.8,55.9-39.8c31.6-6.6,61.3-2.4,86.7,19.3c16.2,13.9,24.1,32.6,28.1,53.1
	c2,10.2,2.4,20.5,2.4,30.8c0,52.2-0.1,104.4,0.1,156.7c0,4.5-1.1,5.9-5.8,5.8c-22.9-0.3-45.9-0.2-68.8,0c-4.4,0-5.8-0.9-5.8-5.6
	c0.2-44.9,0.1-89.8,0-134.7c0-11.6-1.8-22.9-7-33.4c-6.1-12.3-15.9-19.2-29.5-20.9c-30.3-3.7-51.4,12.8-55.3,43.1
	c-0.8,5.8-1,11.6-1,17.4c0,42.7-0.1,85.5,0.1,128.2c0,5-1.4,5.9-6.1,5.9c-22.1-0.3-44.2-0.2-66.4,0c-3.7,0-5.1-0.7-5.1-4.9
	c0.1-83.6,0.1-167.3,0-250.9c0-3.8,1-4.7,4.7-4.7c22.8,0.2,45.6,0.2,68.3,0c3.4,0,4.5,0.8,4.4,4.4
	C2325-1197.6,2325.2-1188,2325.2-1177z"/>
<path class="st10" d="M2115.7-1081.7c0-41.6,0.1-83.2-0.1-124.7c0-4.2,1.1-5.2,5.2-5.1c23.6,0.2,47.2,0.2,70.9,0
	c4.1,0,4.8,1.3,4.8,5c-0.1,83.3-0.1,166.7,0,250c0,4.4-1.1,5.5-5.5,5.5c-23.1-0.2-46.2-0.2-69.4,0c-4.6,0-6.1-0.9-6.1-5.9
	C2115.8-998.6,2115.7-1040.1,2115.7-1081.7z"/>
<path class="st10" d="M2155.6-1341.6c26.4,0,47.8,21.5,47.7,48.1c-0.1,26.4-21.8,48.1-47.9,47.9c-26-0.2-47.4-21.7-47.5-47.9
	C2107.8-1320,2129.3-1341.6,2155.6-1341.6z"/>
</svg>
