<?xml version="1.0" encoding="utf-8"?>
<!-- Generator: Adobe Illustrator 26.3.1, SVG Export Plug-In . SVG Version: 6.00 Build 0)  -->
<svg version="1.1" id="Calque_1" xmlns="http://www.w3.org/2000/svg" xmlns:xlink="http://www.w3.org/1999/xlink" x="0px" y="0px"
	 viewBox="0 0 152.8 293.7" style="enable-background:new 0 0 152.8 293.7;" xml:space="preserve">
<style type="text/css">
	.st0{fill:#FFFFFF;}
	.st1{fill:#FFCC00;}
	.st2{fill:#9ED2C1;}
	.st3{fill:#51B2DD;}
	.st4{fill:none;stroke:#2D2523;stroke-width:3;stroke-miterlimit:10;}
	.st5{fill:#EA535B;}
	.st6{fill:#EA5059;}
	.st7{fill:#4163AC;}
	.st8{fill:#362D2B;}
	.st9{fill:none;}
	.st10{clip-path:url(#SVGID_00000170963274276449381160000014502956484250167430_);fill:#EA535B;}
	.st11{clip-path:url(#SVGID_00000170963274276449381160000014502956484250167430_);fill:#2D2523;}
	.st12{clip-path:url(#SVGID_00000170963274276449381160000014502956484250167430_);}
	.st13{fill:#9FD2C1;}
	.st14{fill:#2D2523;}
	.st15{clip-path:url(#SVGID_00000170963274276449381160000014502956484250167430_);fill:none;}
	.st16{clip-path:url(#SVGID_00000170963274276449381160000014502956484250167430_);fill:#4163AC;}
	.st17{clip-path:url(#SVGID_00000170963274276449381160000014502956484250167430_);fill:#9FD2C1;}
	.st18{clip-path:url(#SVGID_00000170963274276449381160000014502956484250167430_);fill:#FFD545;}
	.st19{clip-path:url(#SVGID_00000170963274276449381160000014502956484250167430_);fill:#52B3DD;}
	.st20{fill:#3D4495;}
	.st21{opacity:0.1;}
	.st22{fill:#201C16;}
	.st23{fill:none;stroke:#14120D;stroke-width:1.2358;stroke-miterlimit:10;}
	.st24{fill:none;stroke:#14120D;stroke-width:0.9664;stroke-miterlimit:10;}
	.st25{fill:none;stroke:#14120D;stroke-miterlimit:10;}
	.st26{fill:#FDFDFE;}
	.st27{fill:#FFECC9;}
	.st28{fill:#4064AD;}
	.st29{fill:#9ED1C0;}
	.st30{fill:#EA555A;}
	.st31{fill:#27241F;}
	.st32{fill:#13110C;}
	.st33{clip-path:url(#SVGID_00000105420120150538283240000007821684163599107473_);}
	.st34{fill:#3B373D;}
	.st35{clip-path:url(#SVGID_00000105420120150538283240000007821684163599107473_);fill:#3B373D;}
	.st36{clip-path:url(#SVGID_00000038383115380953976340000017190222000806758036_);}
	.st37{clip-path:url(#SVGID_00000038383115380953976340000017190222000806758036_);fill:#3B373D;}
	.st38{clip-path:url(#SVGID_00000015346006196041035030000007655436921568446084_);fill:#E1E0E0;}
	.st39{clip-path:url(#SVGID_00000015346006196041035030000007655436921568446084_);fill:#CECBCB;}
	.st40{clip-path:url(#SVGID_00000015346006196041035030000007655436921568446084_);fill:none;}
	.st41{fill:#202548;}
	.st42{fill:#E52635;}
	.st43{fill:#13120D;}
	.st44{fill:#E52A12;}
	.st45{fill:#15140F;}
	.st46{fill:#006434;}
	.st47{fill:#FEFEFE;}
	.st48{fill:none;stroke:#000000;stroke-width:2;stroke-miterlimit:10;}
	.st49{fill:none;stroke:#000000;stroke-width:2;}
</style>
<g>
	<path class="st1" d="M71.3,277.5c-8.9,0-17.1-1.6-24.9-4.9c-7.7-3.3-14.5-7.8-20.2-13.5c-5.8-5.7-10.3-12.4-13.7-20.2
		c-3.3-7.7-5-16-5-24.7c0-8.7,1.7-17,5-24.7c3.3-7.7,7.9-14.4,13.7-20.2c5.8-5.7,12.5-10.2,20.2-13.6c7.7-3.3,16-5,24.9-5
		c8.7,0,17,1.7,24.8,5c7.8,3.3,14.5,7.9,20.3,13.6c5.8,5.7,10.3,12.4,13.7,20.2c3.3,7.7,5,16,5,24.7c0,8.8-1.7,17-5,24.7
		c-3.3,7.7-7.9,14.4-13.7,20.2c-5.8,5.7-12.5,10.2-20.3,13.5C88.3,275.9,80,277.5,71.3,277.5z M71.3,181.3c-4.5,0-8.7,0.9-12.6,2.7
		c-3.9,1.8-7.2,4.2-10,7.2c-2.8,3-5,6.5-6.6,10.4c-1.6,4-2.4,8.2-2.4,12.6c0,4.3,0.8,8.5,2.4,12.5c1.6,4,3.8,7.5,6.6,10.5
		c2.8,3,6.1,5.4,10,7.2c3.9,1.8,8.1,2.7,12.6,2.7c4.5,0,8.7-0.9,12.6-2.7c3.9-1.8,7.2-4.2,10-7.2c2.8-3,5-6.5,6.6-10.5
		c1.6-4,2.4-8.2,2.4-12.5c0-4.4-0.8-8.6-2.4-12.6c-1.6-4-3.8-7.4-6.6-10.4c-2.8-3-6.1-5.4-10-7.2C80,182.2,75.8,181.3,71.3,181.3z"
		/>
	<path class="st6" d="M37,178.2c0,1.7-1.9,4.1-3.6,4.1c-1.7,0-4.1-2.4-4.1-4.1c0-1.7,2.8-3.1,4.6-3.1S37,176.5,37,178.2z"/>
	<path class="st6" d="M56.1,170.6c0,2.8-3.4,4.4-6.2,4.4s-5.1-2.3-5.1-5.1c0-2.8,2.6-5.9,5.4-5.9S56.1,167.9,56.1,170.6z"/>
	<path class="st6" d="M42.2,166.9c0,1.1-0.9,3.1-1.9,3.1s-3.2-2-3.2-3.1s2.1-2.7,3.2-2.7S42.2,165.8,42.2,166.9z"/>
	<circle class="st6" cx="40.1" cy="187" r="3.1"/>
	<path class="st6" d="M41.3,173.9c0,0.9-1.7,2.5-2.6,2.5s-2.8-1.5-2.8-2.5s1.9-1.7,2.8-1.7S41.3,173,41.3,173.9z"/>
	<path class="st6" d="M125.8,209.4c0,2.2-1.8,6.4-4,6.4c-2.2,0-3.4-2-3.4-4.2s0-4,2.3-4S125.8,207.2,125.8,209.4z"/>
	<path class="st6" d="M127.7,221.6c0,0.8-1.6,1.8-2.4,1.8c-0.8,0-2.3-1-2.3-1.8s0.7-2.4,1.5-2.4S127.7,220.8,127.7,221.6z"/>
	<path class="st6" d="M48.3,180.7c0,1.4-1.1,3.2-2.5,3.2c-1.4,0-3.8-1.8-3.8-3.2c0-1.4,2.4-2.5,3.8-2.5
		C47.1,178.2,48.3,179.3,48.3,180.7z"/>
	<circle class="st6" cx="44.7" cy="175.4" r="1.5"/>
	<path class="st6" d="M57.2,180.4c0,1.2-1.6,2.8-2.8,2.8s-2.7-1.6-2.7-2.8c0-1.2,2.1-2.2,3.3-2.2C56.2,178.2,57.2,179.2,57.2,180.4z
		"/>
	<path class="st14" d="M78.1,285c-9,0-17.5-1.7-25.3-5c-7.8-3.3-14.7-8-20.6-13.7c-5.8-5.8-10.5-12.7-13.9-20.5
		c-3.4-7.8-5.1-16.3-5.1-25.1c0-8.9,1.7-17.3,5.1-25.1c3.4-7.8,8.1-14.7,13.9-20.5c5.8-5.8,12.7-10.4,20.6-13.8
		c7.8-3.4,16.3-5.1,25.3-5.1c8.9,0,17.3,1.7,25.2,5.1c7.9,3.4,14.8,8,20.6,13.8c5.8,5.8,10.5,12.7,13.9,20.5
		c3.4,7.8,5.1,16.3,5.1,25.1c0,8.9-1.7,17.3-5.1,25.1c-3.4,7.8-8.1,14.7-13.9,20.5c-5.8,5.8-12.8,10.4-20.6,13.7
		C95.4,283.3,86.9,285,78.1,285z M78.1,158.2c-8.7,0-16.9,1.7-24.4,4.9c-7.6,3.3-14.3,7.8-19.9,13.4c-5.6,5.6-10.2,12.3-13.4,19.8
		c-3.3,7.5-4.9,15.7-4.9,24.3s1.7,16.7,4.9,24.3c3.3,7.6,7.8,14.2,13.4,19.8c5.6,5.6,12.3,10.1,19.9,13.3c7.6,3.2,15.8,4.9,24.4,4.9
		c8.6,0,16.8-1.6,24.4-4.9c7.6-3.2,14.3-7.7,20-13.3c5.6-5.6,10.2-12.3,13.4-19.8c3.3-7.6,4.9-15.7,4.9-24.3s-1.7-16.7-4.9-24.3
		c-3.3-7.6-7.8-14.2-13.4-19.8c-5.6-5.6-12.4-10.1-20-13.4C94.9,159.9,86.7,158.2,78.1,158.2z M78.1,254.6c-4.7,0-9.1-0.9-13-2.8
		c-4-1.8-7.4-4.3-10.3-7.4c-2.9-3.1-5.1-6.7-6.8-10.8c-1.6-4.1-2.5-8.5-2.5-12.9c0-4.5,0.8-8.9,2.5-13c1.6-4.1,3.9-7.7,6.8-10.7
		c2.9-3.1,6.3-5.6,10.3-7.4c4-1.9,8.4-2.8,13-2.8c4.7,0,9,0.9,13,2.8c4,1.9,7.4,4.3,10.3,7.4c2.9,3.1,5.1,6.7,6.8,10.8
		c1.6,4.1,2.5,8.4,2.5,13c0,4.4-0.8,8.8-2.5,12.9c-1.6,4.1-3.9,7.8-6.8,10.8c-2.9,3.1-6.3,5.6-10.3,7.4
		C87.1,253.6,82.8,254.6,78.1,254.6z M78.1,188.8c-4.3,0-8.4,0.9-12.1,2.6c-3.7,1.7-7,4.1-9.6,6.9c-2.7,2.9-4.8,6.3-6.4,10.1
		c-1.5,3.8-2.3,7.9-2.3,12.2c0,4.2,0.8,8.2,2.3,12.1c1.5,3.9,3.7,7.3,6.4,10.2c2.7,2.9,5.9,5.2,9.6,6.9c3.7,1.7,7.8,2.6,12.1,2.6
		c4.4,0,8.4-0.9,12.1-2.6c3.7-1.7,7-4.1,9.6-6.9c2.7-2.9,4.8-6.3,6.4-10.2c1.5-3.9,2.3-7.9,2.3-12.1c0-4.3-0.8-8.4-2.3-12.2
		c-1.5-3.8-3.7-7.2-6.4-10.1c-2.7-2.9-5.9-5.2-9.6-6.9C86.5,189.7,82.4,188.8,78.1,188.8z"/>
</g>
</svg>
