<?xml version="1.0" encoding="utf-8"?>
<!-- Generator: Adobe Illustrator 26.3.1, SVG Export Plug-In . SVG Version: 6.00 Build 0)  -->
<svg version="1.1" id="Calque_1" xmlns="http://www.w3.org/2000/svg" xmlns:xlink="http://www.w3.org/1999/xlink" x="0px" y="0px"
	 viewBox="0 0 168.8 316.6" style="enable-background:new 0 0 168.8 316.6;" xml:space="preserve">
<style type="text/css">
	.st0{fill:#FFFFFF;}
	.st1{fill:#FFCC00;}
	.st2{fill:#9ED2C1;}
	.st3{fill:#51B2DD;}
	.st4{fill:none;stroke:#2D2523;stroke-width:3;stroke-miterlimit:10;}
	.st5{fill:#EA535B;}
	.st6{fill:#EA5059;}
	.st7{fill:#4163AC;}
	.st8{fill:#362D2B;}
	.st9{fill:none;}
	.st10{clip-path:url(#SVGID_00000036943162390673526470000000931706081779135137_);fill:#EA535B;}
	.st11{clip-path:url(#SVGID_00000036943162390673526470000000931706081779135137_);fill:#2D2523;}
	.st12{clip-path:url(#SVGID_00000036943162390673526470000000931706081779135137_);}
	.st13{fill:#9FD2C1;}
	.st14{fill:#2D2523;}
	.st15{clip-path:url(#SVGID_00000036943162390673526470000000931706081779135137_);fill:none;}
	.st16{clip-path:url(#SVGID_00000036943162390673526470000000931706081779135137_);fill:#4163AC;}
	.st17{clip-path:url(#SVGID_00000036943162390673526470000000931706081779135137_);fill:#9FD2C1;}
	.st18{clip-path:url(#SVGID_00000036943162390673526470000000931706081779135137_);fill:#FFD545;}
	.st19{clip-path:url(#SVGID_00000036943162390673526470000000931706081779135137_);fill:#52B3DD;}
	.st20{fill:#3D4495;}
	.st21{opacity:0.1;}
	.st22{fill:#201C16;}
	.st23{fill:none;stroke:#14120D;stroke-width:1.2358;stroke-miterlimit:10;}
	.st24{fill:none;stroke:#14120D;stroke-width:0.9664;stroke-miterlimit:10;}
	.st25{fill:none;stroke:#14120D;stroke-miterlimit:10;}
	.st26{fill:#FDFDFE;}
	.st27{fill:#FFECC9;}
	.st28{fill:#4064AD;}
	.st29{fill:#9ED1C0;}
	.st30{fill:#EA555A;}
	.st31{fill:#27241F;}
	.st32{fill:#13110C;}
	.st33{clip-path:url(#SVGID_00000108283433445735421890000016827238658554165672_);}
	.st34{fill:#3B373D;}
	.st35{clip-path:url(#SVGID_00000108283433445735421890000016827238658554165672_);fill:#3B373D;}
	.st36{clip-path:url(#SVGID_00000065073520822741753200000006840472398074597813_);}
	.st37{clip-path:url(#SVGID_00000065073520822741753200000006840472398074597813_);fill:#3B373D;}
	.st38{clip-path:url(#SVGID_00000177456089405999855550000000050353185642172335_);fill:#E1E0E0;}
	.st39{clip-path:url(#SVGID_00000177456089405999855550000000050353185642172335_);fill:#CECBCB;}
	.st40{clip-path:url(#SVGID_00000177456089405999855550000000050353185642172335_);fill:none;}
	.st41{fill:#202548;}
	.st42{fill:#E52635;}
	.st43{fill:#13120D;}
	.st44{fill:#E52A12;}
	.st45{fill:#15140F;}
	.st46{fill:#006434;}
	.st47{fill:#FEFEFE;}
	.st48{fill:none;stroke:#000000;stroke-width:2;stroke-miterlimit:10;}
	.st49{fill:none;stroke:#000000;stroke-width:2;}
</style>
<g>
	<path class="st1" d="M83.2,239.8c-9.7,0-18.9-1.8-27.4-5.4c-8.5-3.6-15.9-8.6-22.3-14.9c-6.3-6.3-11.4-13.7-15-22.2
		c-3.7-8.5-5.5-17.6-5.5-27.2c0-9.6,1.8-18.7,5.5-27.2c3.7-8.5,8.7-15.9,15-22.2c6.3-6.3,13.8-11.3,22.3-15
		c8.5-3.7,17.6-5.5,27.4-5.5c9.6,0,18.7,1.8,27.3,5.5c8.6,3.7,16,8.7,22.3,15c6.3,6.3,11.4,13.7,15,22.2c3.7,8.5,5.5,17.6,5.5,27.2
		c0,9.6-1.8,18.7-5.5,27.2c-3.7,8.5-8.7,15.9-15,22.2c-6.3,6.3-13.8,11.2-22.3,14.9C101.9,238,92.8,239.8,83.2,239.8z M83.2,133.9
		c-5,0-9.6,1-13.9,3c-4.2,2-7.9,4.6-11,7.9c-3.1,3.3-5.5,7.1-7.2,11.5c-1.8,4.4-2.6,9-2.6,13.9c0,4.8,0.9,9.3,2.6,13.8
		c1.8,4.4,4.2,8.3,7.2,11.6c3.1,3.3,6.7,5.9,11,7.9c4.2,2,8.9,3,13.9,3c5,0,9.6-1,13.9-3c4.2-2,7.9-4.6,11-7.9
		c3.1-3.3,5.5-7.1,7.2-11.6c1.8-4.4,2.6-9,2.6-13.8c0-4.9-0.9-9.5-2.6-13.9c-1.8-4.4-4.2-8.2-7.2-11.5c-3.1-3.3-6.7-5.9-11-7.9
		C92.8,134.9,88.2,133.9,83.2,133.9z"/>
	<path class="st6" d="M45.4,130.5c0,1.9-2.1,4.5-4,4.5s-4.5-2.6-4.5-4.5c0-1.9,3.1-3.4,5-3.4S45.4,128.6,45.4,130.5z"/>
	<path class="st6" d="M66.4,122.2c0,3.1-3.7,4.9-6.8,4.9s-5.6-2.5-5.6-5.6s2.8-6.4,5.9-6.4S66.4,119.1,66.4,122.2z"/>
	<path class="st6" d="M51.2,118c0,1.2-1,3.4-2.1,3.4c-1.2,0-3.5-2.2-3.5-3.4c0-1.2,2.4-3,3.5-3C50.3,115,51.2,116.9,51.2,118z"/>
	<circle class="st6" cx="48.8" cy="140.2" r="3.4"/>
	<path class="st6" d="M50.2,125.8c0,1-1.9,2.7-2.9,2.7c-1,0-3.1-1.7-3.1-2.7s2-1.8,3.1-1.8C48.3,124,50.2,124.8,50.2,125.8z"/>
	<path class="st6" d="M143.1,164.8c0,2.4-2,7.1-4.4,7.1c-2.4,0-3.7-2.2-3.7-4.6c0-2.4,0.1-4.4,2.5-4.4
		C139.9,162.9,143.1,162.4,143.1,164.8z"/>
	<path class="st6" d="M145.3,178.2c0,0.9-1.8,2-2.7,2c-0.9,0-2.5-1.1-2.5-2c0-0.9,0.7-2.7,1.6-2.7S145.3,177.3,145.3,178.2z"/>
	<path class="st6" d="M57.9,133.3c0,1.5-1.3,3.5-2.8,3.5c-1.5,0-4.2-2-4.2-3.5s2.7-2.8,4.2-2.8C56.6,130.5,57.9,131.7,57.9,133.3z"
		/>
	<circle class="st6" cx="53.9" cy="127.5" r="1.7"/>
	<path class="st6" d="M67.7,132.9c0,1.3-1.8,3.1-3.1,3.1c-1.3,0-2.9-1.8-2.9-3.1s2.3-2.4,3.6-2.4C66.6,130.5,67.7,131.6,67.7,132.9z
		"/>
	<path class="st14" d="M83.2,231.1c-9.8,0-19.2-1.9-27.8-5.5c-8.6-3.7-16.2-8.7-22.6-15.1c-6.4-6.4-11.5-13.9-15.3-22.5
		c-3.7-8.6-5.6-17.9-5.6-27.6c0-9.7,1.9-19,5.6-27.6c3.7-8.6,8.9-16.2,15.3-22.5c6.4-6.4,14-11.5,22.6-15.2
		c8.6-3.7,17.9-5.6,27.8-5.6c9.7,0,19,1.9,27.7,5.6c8.6,3.7,16.3,8.8,22.7,15.2c6.4,6.4,11.5,13.9,15.3,22.5
		c3.7,8.6,5.6,17.9,5.6,27.6c0,9.7-1.9,19-5.6,27.6c-3.7,8.6-8.9,16.2-15.3,22.5c-6.4,6.4-14,11.4-22.7,15.1
		C102.2,229.2,92.9,231.1,83.2,231.1z M83.2,91.6c-9.6,0-18.6,1.8-26.9,5.4c-8.3,3.6-15.7,8.6-21.9,14.7
		c-6.2,6.2-11.2,13.5-14.8,21.8c-3.6,8.3-5.4,17.3-5.4,26.8c0,9.4,1.8,18.4,5.4,26.8c3.6,8.3,8.6,15.7,14.8,21.8
		c6.2,6.2,13.6,11.1,21.9,14.6c8.3,3.6,17.4,5.4,26.9,5.4c9.4,0,18.5-1.8,26.9-5.4c8.4-3.6,15.8-8.5,22-14.6
		c6.2-6.2,11.2-13.5,14.8-21.8c3.6-8.3,5.4-17.3,5.4-26.8c0-9.4-1.8-18.4-5.4-26.8c-3.6-8.3-8.6-15.7-14.8-21.8
		c-6.2-6.2-13.6-11.1-22-14.7C101.7,93.4,92.6,91.6,83.2,91.6z M83.2,197.6c-5.1,0-9.9-1-14.3-3.1c-4.4-2-8.2-4.8-11.3-8.1
		c-3.1-3.4-5.6-7.4-7.4-11.9c-1.8-4.5-2.7-9.3-2.7-14.2c0-5,0.9-9.8,2.7-14.2c1.8-4.5,4.3-8.4,7.4-11.8c3.1-3.4,6.9-6.1,11.3-8.1
		c4.4-2,9.2-3.1,14.3-3.1c5.1,0,9.9,1,14.3,3.1c4.4,2,8.2,4.8,11.3,8.1c3.1,3.4,5.6,7.3,7.4,11.8c1.8,4.5,2.7,9.3,2.7,14.2
		c0,4.9-0.9,9.6-2.7,14.2c-1.8,4.5-4.3,8.5-7.4,11.9c-3.1,3.4-6.9,6.1-11.3,8.1C93.1,196.6,88.3,197.6,83.2,197.6z M83.2,125.2
		c-4.8,0-9.3,1-13.4,2.9c-4.1,1.9-7.7,4.5-10.6,7.7c-3,3.2-5.3,6.9-7,11.1c-1.7,4.2-2.6,8.7-2.6,13.5c0,4.6,0.9,9.1,2.6,13.4
		c1.7,4.3,4.1,8.1,7,11.2c3,3.2,6.5,5.8,10.6,7.7c4.1,1.9,8.6,2.9,13.4,2.9s9.3-1,13.4-2.9c4.1-1.9,7.7-4.5,10.6-7.7
		c3-3.2,5.3-6.9,7-11.2c1.7-4.3,2.6-8.8,2.6-13.4c0-4.7-0.9-9.2-2.6-13.5c-1.7-4.2-4.1-8-7-11.1c-3-3.2-6.5-5.7-10.6-7.7
		C92.5,126.2,88,125.2,83.2,125.2z"/>
</g>
</svg>
