<?xml version="1.0" encoding="utf-8"?>
<!-- Generator: Adobe Illustrator 26.3.1, SVG Export Plug-In . SVG Version: 6.00 Build 0)  -->
<svg version="1.1" id="Calque_1" xmlns="http://www.w3.org/2000/svg" xmlns:xlink="http://www.w3.org/1999/xlink" x="0px" y="0px"
	 viewBox="0 0 189.3 316.6" style="enable-background:new 0 0 189.3 316.6;" xml:space="preserve">
<style type="text/css">
	.st0{fill:#FFFFFF;}
	.st1{fill:#FFCC00;}
	.st2{fill:#9ED2C1;}
	.st3{fill:#51B2DD;}
	.st4{fill:none;stroke:#2D2523;stroke-width:3;stroke-miterlimit:10;}
	.st5{fill:#EA535B;}
	.st6{fill:#EA5059;}
	.st7{fill:#4163AC;}
	.st8{fill:#362D2B;}
	.st9{fill:none;}
	.st10{clip-path:url(#SVGID_00000099652200520055287340000008614827805824873643_);fill:#EA535B;}
	.st11{clip-path:url(#SVGID_00000099652200520055287340000008614827805824873643_);fill:#2D2523;}
	.st12{clip-path:url(#SVGID_00000099652200520055287340000008614827805824873643_);}
	.st13{fill:#9FD2C1;}
	.st14{fill:#2D2523;}
	.st15{clip-path:url(#SVGID_00000099652200520055287340000008614827805824873643_);fill:none;}
	.st16{clip-path:url(#SVGID_00000099652200520055287340000008614827805824873643_);fill:#4163AC;}
	.st17{clip-path:url(#SVGID_00000099652200520055287340000008614827805824873643_);fill:#9FD2C1;}
	.st18{clip-path:url(#SVGID_00000099652200520055287340000008614827805824873643_);fill:#FFD545;}
	.st19{clip-path:url(#SVGID_00000099652200520055287340000008614827805824873643_);fill:#52B3DD;}
	.st20{fill:#3D4495;}
	.st21{opacity:0.1;}
	.st22{fill:#201C16;}
	.st23{fill:none;stroke:#14120D;stroke-width:1.2358;stroke-miterlimit:10;}
	.st24{fill:none;stroke:#14120D;stroke-width:0.9664;stroke-miterlimit:10;}
	.st25{fill:none;stroke:#14120D;stroke-miterlimit:10;}
	.st26{fill:#FDFDFE;}
	.st27{fill:#FFECC9;}
	.st28{fill:#4064AD;}
	.st29{fill:#9ED1C0;}
	.st30{fill:#EA555A;}
	.st31{fill:#27241F;}
	.st32{fill:#13110C;}
	.st33{clip-path:url(#SVGID_00000019636894268230258670000008443092380161651639_);}
	.st34{fill:#3B373D;}
	.st35{clip-path:url(#SVGID_00000019636894268230258670000008443092380161651639_);fill:#3B373D;}
	.st36{clip-path:url(#SVGID_00000169518297647205050090000003706472759376011150_);}
	.st37{clip-path:url(#SVGID_00000169518297647205050090000003706472759376011150_);fill:#3B373D;}
	.st38{clip-path:url(#SVGID_00000097490086565317144450000003837308843406507447_);fill:#E1E0E0;}
	.st39{clip-path:url(#SVGID_00000097490086565317144450000003837308843406507447_);fill:#CECBCB;}
	.st40{clip-path:url(#SVGID_00000097490086565317144450000003837308843406507447_);fill:none;}
	.st41{fill:#202548;}
	.st42{fill:#E52635;}
	.st43{fill:#13120D;}
	.st44{fill:#E52A12;}
	.st45{fill:#15140F;}
	.st46{fill:#006434;}
	.st47{fill:#FEFEFE;}
	.st48{fill:none;stroke:#000000;stroke-width:2;stroke-miterlimit:10;}
	.st49{fill:none;stroke:#000000;stroke-width:2;}
</style>
<path class="st7" d="M1143.8-269.4c-44.5,64.5-99.4,151.1-111.1,202c-20.5,88.5-145.7,119.1-179.9,218.6
	c-6,17.3-14.6,37.5-24.9,59.3c-10.5,22.4-22.8,46.5-35.6,71.3c-13.5,26.1-27.7,53-41.2,79.1c0,0-129.6,218.6-119.1,318.3
	c10.5,99.7-93.8,253.2-93.8,253.2L488.9,1072l-0.1,0c0,0-3.1,12.4-124.6,278.7c-39.2,85.8-39.3,153.3-79.5,269.4
	c-19.5,56.4-54.4,113-85,156.3c-26.4,37.2-41.7,81.1-44.5,126.7c-1.2,20-10.8,44.8-39.1,72C51.8,2036.7,1.9,2083.8-7.4,2092.6
	l-11.1,15.8c0,0-17,161.9-4.7,160c2.1-0.3,9.5-9.3,20.1-24c41-29.3,229.6-173.8,267.5-372.6c42.6-223.3,156.4-357.3,222.6-545.4
	c69.4-197.6,201.2-161.2,174.7-254.4c0,0-25.1-110,14.2-196.2c39.4-86.2,109.1-347.8,103.5-434.3c-0.6-9-0.9-17.1-1-24.5
	c47.2-100,113.9-216.3,185.5-261.8C1099.9,68.9,1118.6,11,1118.6,11s52.2-27.9,83.9-100.7l96.1-179.7H1143.8z"/>
<path class="st7" d="M272.5,393.8C176.5,752.8,52.1,987.2,2.7,1072h73C170.6,878.4,423.3,359.5,453,265.6
	c36.6-115.9,18.6-262.8,111.3-377.8c46.6-57.8,68-114.8,77.9-157.2h-50.1C532.7-192.6,445.8-62.9,421,65.2
	C382.3,265.4,320.3,214.9,272.5,393.8z"/>
<path class="st7" d="M1010.5-269.4H715.7c-17.6,55.2-39.4,142.5-27.8,208.6C706.2,43.8,582,179.5,582,179.5s-101.6,93.2-116.8,251.7
	C451.5,573.4,246.6,988.5,204.9,1072c0,0-49.7,83.6-40.7,167.4c6.8,62.6-47.1,154.2-74.8,196.6c-9.4,14.3-16.3,30.1-20.5,46.6
	c-8.1,31.9-28.7,90.3-78.3,137.1v108.8c50.8-59.2,155.5-188.6,182.7-278.5c36-119.2,148.1-277.8,170-378l0,0
	c81.2-163.7,181.8-411.8,274.7-767.7c0,0,11.6-104,88.7-142.8S840.4-31.2,840.4-31.2S954-259,1021.2-267.3L1010.5-269.4z"/>
<path class="st9" d="M115.8,98.9c-1.7-1.6-3.7-2.9-6-3.9c-2.3-0.9-4.7-1.4-7.3-1.4H76.3v36h26.1c2.6,0,5-0.5,7.3-1.4
	c2.3-0.9,4.3-2.2,6-3.9c1.7-1.6,3.1-3.5,4.1-5.7c1-2.1,1.5-4.5,1.5-7.1c0-2.6-0.5-4.9-1.5-7.1C118.8,102.4,117.5,100.5,115.8,98.9z"
	/>
<path class="st2" d="M89.8,211.1c-11.7,0-22.6-2.2-32.8-6.5c-10.2-4.3-19.1-10.3-26.7-17.8c-7.6-7.5-13.6-16.4-18-26.6
	c-4.4-10.2-6.6-21-6.6-32.6c0-11.5,2.2-22.4,6.6-32.6c4.4-10.2,10.4-19,18-26.6C38,61,46.9,55.1,57.1,50.7
	C67.2,46.3,78.2,44,89.8,44c11.5,0,22.4,2.2,32.7,6.6c10.2,4.4,19.2,10.4,26.8,17.9c7.6,7.5,13.6,16.4,18,26.6
	c4.4,10.2,6.6,21,6.6,32.6c0,11.5-2.2,22.4-6.6,32.6c-4.4,10.2-10.4,19-18,26.6c-7.6,7.5-16.5,13.5-26.8,17.8
	C112.3,209,101.4,211.1,89.8,211.1z M89.8,84.3c-6,0-11.5,1.2-16.6,3.6c-5.1,2.4-9.5,5.5-13.1,9.5c-3.7,3.9-6.5,8.5-8.7,13.7
	c-2.1,5.2-3.2,10.8-3.2,16.6c0,5.7,1,11.2,3.2,16.5c2.1,5.3,5,9.9,8.7,13.8c3.7,3.9,8,7.1,13.1,9.5c5.1,2.4,10.6,3.6,16.6,3.6
	c6,0,11.5-1.2,16.6-3.6c5.1-2.4,9.5-5.5,13.1-9.5c3.7-3.9,6.5-8.5,8.7-13.8c2.1-5.3,3.2-10.8,3.2-16.5c0-5.8-1.1-11.4-3.2-16.6
	c-2.1-5.2-5-9.8-8.7-13.7c-3.7-3.9-8-7.1-13.1-9.5C101.3,85.5,95.8,84.3,89.8,84.3z"/>
<path class="st6" d="M44.6,80.2c0,2.3-2.5,5.4-4.7,5.4c-2.3,0-5.4-3.1-5.4-5.4c0-2.3,3.7-4.1,6-4.1C42.8,76.1,44.6,78,44.6,80.2z"/>
<path class="st6" d="M69.8,70.3c0,3.7-4.5,5.8-8.1,5.8c-3.7,0-6.7-3-6.7-6.7c0-3.7,3.4-7.7,7.1-7.7S69.8,66.6,69.8,70.3z"/>
<path class="st6" d="M51.6,65.3c0,1.4-1.1,4-2.6,4c-1.4,0-4.2-2.6-4.2-4c0-1.4,2.8-3.6,4.2-3.6C50.4,61.7,51.6,63.9,51.6,65.3z"/>
<circle class="st6" cx="48.7" cy="91.8" r="4.1"/>
<path class="st6" d="M50.3,74.6c0,1.2-2.2,3.2-3.5,3.2c-1.2,0-3.7-2-3.7-3.2c0-1.2,2.5-2.2,3.7-2.2C48,72.4,50.3,73.4,50.3,74.6z"/>
<path class="st6" d="M161.6,121.4c0,2.9-2.4,8.5-5.3,8.5s-4.5-2.6-4.5-5.5s0.1-5.3,3-5.3S161.6,118.4,161.6,121.4z"/>
<path class="st6" d="M164.2,137.4c0,1.1-2.1,2.3-3.2,2.3s-3-1.3-3-2.3s0.9-3.2,1.9-3.2C161,134.2,164.2,136.3,164.2,137.4z"/>
<path class="st6" d="M59.5,83.6c0,1.9-1.5,4.2-3.4,4.2s-5-2.3-5-4.2s3.2-3.4,5-3.4S59.5,81.7,59.5,83.6z"/>
<circle class="st6" cx="54.8" cy="76.6" r="2"/>
<path class="st6" d="M71.2,83.1c0,1.6-2.1,3.7-3.7,3.7S64,84.7,64,83.1s2.8-2.9,4.4-2.9S71.2,81.5,71.2,83.1z"/>
<path class="st14" d="M101,214.4c-11.4,0-22.3-2.2-32.3-6.4c-10-4.3-18.8-10.2-26.3-17.5C35,183,29,174.2,24.7,164.2
	c-4.3-10-6.5-20.8-6.5-32.1s2.2-22.1,6.5-32.1C29,90.1,35,81.3,42.4,73.9c7.4-7.4,16.3-13.3,26.3-17.6c10-4.3,20.9-6.5,32.3-6.5
	c11.3,0,22.1,2.2,32.2,6.5c10,4.3,18.9,10.3,26.4,17.6c7.5,7.4,13.4,16.2,17.7,26.2c4.3,10,6.5,20.8,6.5,32.1s-2.2,22.1-6.5,32.1
	c-4.3,10-10.3,18.8-17.7,26.2c-7.5,7.4-16.3,13.3-26.4,17.5C123.1,212.2,112.3,214.4,101,214.4z M101,51.8
	c-11.1,0-21.7,2.1-31.5,6.3c-9.7,4.2-18.3,10-25.6,17.2c-7.3,7.2-13.1,15.8-17.3,25.5c-4.2,9.7-6.3,20.2-6.3,31.3
	c0,11,2.1,21.5,6.3,31.3c4.2,9.7,10,18.3,17.3,25.5c7.3,7.2,15.9,13,25.6,17.1c9.7,4.1,20.3,6.3,31.5,6.3c11,0,21.6-2.1,31.4-6.3
	c9.8-4.1,18.4-9.9,25.7-17.1c7.3-7.2,13.1-15.8,17.3-25.5c4.2-9.7,6.3-20.2,6.3-31.3c0-11-2.1-21.5-6.3-31.3
	c-4.2-9.7-10-18.3-17.3-25.5c-7.3-7.2-15.9-13-25.7-17.2C122.5,54,112,51.8,101,51.8z M101,175.4c-5.9,0-11.5-1.2-16.6-3.6
	c-5.1-2.4-9.5-5.5-13.1-9.4c-3.6-3.9-6.5-8.5-8.6-13.8c-2.1-5.2-3.1-10.8-3.1-16.4c0-5.8,1.1-11.4,3.1-16.5c2.1-5.2,5-9.8,8.6-13.7
	c3.6-3.9,8-7.1,13.1-9.4c5.1-2.4,10.7-3.6,16.6-3.6s11.5,1.2,16.6,3.6c5.1,2.4,9.5,5.5,13.1,9.4c3.6,3.9,6.5,8.5,8.6,13.7
	c2.1,5.2,3.1,10.7,3.1,16.5c0,5.6-1.1,11.2-3.1,16.4c-2.1,5.3-5,9.9-8.6,13.8c-3.6,3.9-8,7.1-13.1,9.4
	C112.5,174.2,106.9,175.4,101,175.4z M101,91c-5.6,0-10.9,1.1-15.7,3.4c-4.8,2.2-9,5.3-12.4,9c-3.5,3.7-6.2,8.1-8.2,13
	c-2,4.9-3,10.2-3,15.7c0,5.4,1,10.7,3,15.6c2,5,4.7,9.4,8.2,13.1c3.5,3.7,7.6,6.7,12.4,9c4.8,2.2,10.1,3.4,15.7,3.4
	s10.9-1.1,15.7-3.4c4.8-2.2,9-5.3,12.4-9c3.5-3.7,6.2-8.1,8.2-13.1c2-5,3-10.3,3-15.6c0-5.5-1-10.8-3-15.7c-2-4.9-4.8-9.3-8.2-13
	c-3.5-3.7-7.6-6.7-12.4-9C111.9,92.2,106.6,91,101,91z"/>
</svg>
