<?xml version="1.0" encoding="utf-8"?>
<!-- Generator: Adobe Illustrator 26.3.1, SVG Export Plug-In . SVG Version: 6.00 Build 0)  -->
<svg version="1.1" id="Calque_1" xmlns="http://www.w3.org/2000/svg" xmlns:xlink="http://www.w3.org/1999/xlink" x="0px" y="0px"
	 viewBox="0 0 189.1 293.7" style="enable-background:new 0 0 189.1 293.7;" xml:space="preserve">
<style type="text/css">
	.st0{fill:#FFFFFF;}
	.st1{fill:#FFCC00;}
	.st2{fill:#9ED2C1;}
	.st3{fill:#51B2DD;}
	.st4{fill:none;stroke:#2D2523;stroke-width:3;stroke-miterlimit:10;}
	.st5{fill:#EA535B;}
	.st6{fill:#EA5059;}
	.st7{fill:#4163AC;}
	.st8{fill:#362D2B;}
	.st9{fill:none;}
	.st10{clip-path:url(#SVGID_00000009560064609790577210000018032709147832304284_);fill:#EA535B;}
	.st11{clip-path:url(#SVGID_00000009560064609790577210000018032709147832304284_);fill:#2D2523;}
	.st12{clip-path:url(#SVGID_00000009560064609790577210000018032709147832304284_);}
	.st13{fill:#9FD2C1;}
	.st14{fill:#2D2523;}
	.st15{clip-path:url(#SVGID_00000009560064609790577210000018032709147832304284_);fill:none;}
	.st16{clip-path:url(#SVGID_00000009560064609790577210000018032709147832304284_);fill:#4163AC;}
	.st17{clip-path:url(#SVGID_00000009560064609790577210000018032709147832304284_);fill:#9FD2C1;}
	.st18{clip-path:url(#SVGID_00000009560064609790577210000018032709147832304284_);fill:#FFD545;}
	.st19{clip-path:url(#SVGID_00000009560064609790577210000018032709147832304284_);fill:#52B3DD;}
	.st20{fill:#3D4495;}
	.st21{opacity:0.1;}
	.st22{fill:#201C16;}
	.st23{fill:none;stroke:#14120D;stroke-width:1.2358;stroke-miterlimit:10;}
	.st24{fill:none;stroke:#14120D;stroke-width:0.9664;stroke-miterlimit:10;}
	.st25{fill:none;stroke:#14120D;stroke-miterlimit:10;}
	.st26{fill:#FDFDFE;}
	.st27{fill:#FFECC9;}
	.st28{fill:#4064AD;}
	.st29{fill:#9ED1C0;}
	.st30{fill:#EA555A;}
	.st31{fill:#27241F;}
	.st32{fill:#13110C;}
	.st33{clip-path:url(#SVGID_00000063635351627004815580000004560790890067749294_);}
	.st34{fill:#3B373D;}
	.st35{clip-path:url(#SVGID_00000063635351627004815580000004560790890067749294_);fill:#3B373D;}
	.st36{clip-path:url(#SVGID_00000147189300139203084080000002271351728079661493_);}
	.st37{clip-path:url(#SVGID_00000147189300139203084080000002271351728079661493_);fill:#3B373D;}
	.st38{clip-path:url(#SVGID_00000015328473058718680640000002015995485437506994_);fill:#E1E0E0;}
	.st39{clip-path:url(#SVGID_00000015328473058718680640000002015995485437506994_);fill:#CECBCB;}
	.st40{clip-path:url(#SVGID_00000015328473058718680640000002015995485437506994_);fill:none;}
	.st41{fill:#202548;}
	.st42{fill:#E52635;}
	.st43{fill:#13120D;}
	.st44{fill:#E52A12;}
	.st45{fill:#15140F;}
	.st46{fill:#006434;}
	.st47{fill:#FEFEFE;}
	.st48{fill:none;stroke:#000000;stroke-width:2;stroke-miterlimit:10;}
	.st49{fill:none;stroke:#000000;stroke-width:2;}
</style>
<g>
	<path class="st6" d="M41.3,146.6c-0.8-2.7-12.7-2.8-16.7-2.5v8.6C29.3,151.8,42.2,149.6,41.3,146.6z"/>
	<g>
		<path class="st3" d="M169.4,45.8c-3.6-7.4-8.5-13.8-14.6-19.1c-6.1-5.3-13.2-9.4-21.1-12.3c-8-2.9-16.3-4.4-25-4.4H27.5v104.8
			c4.9,0.8,24.8-2.5,24.3,5.6c-0.8,13.2-11.3,16.5-24.3,17.2v6.7c4.8-0.3,12.4-0.3,13.3,3c1.1,3.7-7.7,6.4-13.3,7.4v6.9
			c4.5-0.7,18-0.1,17.9,3.3c-0.2,4.4-7.3,10-17.9,10.7l-0.9,96.8h48.3l0.9-138h32.8c8.7,0,17-1.7,25-5c8-3.3,15-7.9,21.1-13.7
			c6.1-5.8,11-12.6,14.6-20.3c3.6-7.7,5.5-16.1,5.5-25.1C174.8,61.4,173,53.3,169.4,45.8z M123.9,77.3c-1.1,2.3-2.6,4.3-4.4,6.1
			s-4,3.2-6.5,4.2c-2.5,1-5.1,1.5-7.9,1.5H77V50.2h28.1c2.8,0,5.4,0.5,7.9,1.5c2.5,1,4.6,2.4,6.5,4.2s3.3,3.8,4.4,6.1
			c1.1,2.3,1.6,4.8,1.6,7.6C125.6,72.4,125,74.9,123.9,77.3z"/>
		<path class="st6" d="M46.7,123.1c-0.2-2.7-16.5-4.7-22.1-5.6v14.6C39.2,131.4,47,126.7,46.7,123.1z"/>
		<path class="st6" d="M43.7,166.8c0.2-4.5-13.2-3.8-19.1-2.9V175C38.4,174.1,43.5,172.5,43.7,166.8z"/>
		<path class="st14" d="M83.5,285.5H33l0.9-98.8l1-0.1c10.2-0.7,16.8-6.1,16.9-9.7c0-0.1-0.1-0.3-0.2-0.3c-2.2-2-12.4-2.5-16.5-1.8
			l-1.2,0.2v-9l0.9-0.2c5.2-1,11-2.9,12.3-5c0.2-0.4,0.3-0.7,0.2-1c-0.5-1.9-5.2-2.7-12.2-2.3l-1.1,0.1v-8.8l1-0.1
			c15.7-0.8,22.6-5.6,23.3-16.2c0.1-0.9-0.2-1.5-0.7-2.1c-2.5-2.6-10.8-2.4-16.3-2.3c-2.8,0.1-5,0.1-6.3-0.1l-0.9-0.1V21.1h82.1
			c8.7,0,17.3,1.5,25.3,4.5c8.1,3,15.3,7.2,21.5,12.5c6.2,5.3,11.2,11.9,14.9,19.4l0,0c3.7,7.5,5.6,15.9,5.6,24.9
			c0,9.1-1.9,17.7-5.6,25.5c-3.7,7.8-8.7,14.8-14.9,20.6c-6.2,5.9-13.4,10.6-21.5,13.9c-8.1,3.4-16.6,5.1-25.4,5.1H84.4L83.5,285.5z
			 M35.2,283.4h46.2l0.9-138h33.8c8.5,0,16.8-1.7,24.6-4.9c7.8-3.3,14.8-7.8,20.8-13.5c6-5.7,10.8-12.4,14.4-20
			c3.6-7.6,5.4-15.9,5.4-24.6c0-8.6-1.8-16.7-5.4-23.9l0,0c-3.6-7.3-8.4-13.6-14.4-18.7c-6-5.2-13-9.2-20.8-12.1
			c-7.8-2.9-16.1-4.3-24.6-4.3h-80V126c1.2,0.1,3,0,5,0c6.6-0.2,14.7-0.4,17.9,2.9c1,1,1.4,2.3,1.3,3.7
			c-0.9,14.6-13.2,17.4-24.3,18.1v4.5c8-0.4,12.4,0.9,13.3,3.8c0.3,0.9,0.1,1.9-0.4,2.7c-2,3.3-9.5,5.2-12.9,5.8v4.8
			c4.4-0.4,14.1-0.1,17,2.5c0.8,0.7,0.9,1.5,0.9,2c-0.2,4.9-7.4,10.6-17.9,11.6L35.2,283.4z M112.6,102.2H83.5V61.3h29.2
			c2.9,0,5.7,0.5,8.3,1.6c2.6,1.1,4.9,2.5,6.8,4.4c1.9,1.9,3.5,4,4.6,6.4c1.1,2.4,1.7,5.2,1.7,8.1c0,2.9-0.6,5.6-1.7,8.1l0,0
			c-1.1,2.4-2.7,4.6-4.6,6.4c-1.9,1.8-4.2,3.3-6.8,4.4C118.3,101.7,115.5,102.2,112.6,102.2z M85.6,100.1h27.1
			c2.6,0,5.2-0.5,7.5-1.4c2.3-1,4.4-2.3,6.2-3.9c1.8-1.7,3.2-3.6,4.2-5.8c1-2.2,1.5-4.6,1.5-7.2c0-2.6-0.5-5-1.5-7.2
			c-1-2.2-2.4-4.1-4.2-5.8c-1.7-1.7-3.8-3-6.2-3.9c-2.3-0.9-4.9-1.4-7.5-1.4H85.6V100.1z"/>
	</g>
</g>
</svg>
