<?xml version="1.0" encoding="utf-8"?>
<!-- Generator: Adobe Illustrator 26.3.1, SVG Export Plug-In . SVG Version: 6.00 Build 0)  -->
<svg version="1.1" id="Calque_1" xmlns="http://www.w3.org/2000/svg" xmlns:xlink="http://www.w3.org/1999/xlink" x="0px" y="0px"
	 viewBox="0 0 157.1 293.7" style="enable-background:new 0 0 157.1 293.7;" xml:space="preserve">
<style type="text/css">
	.st0{fill:#FFFFFF;}
	.st1{fill:#FFCC00;}
	.st2{fill:#9ED2C1;}
	.st3{fill:#51B2DD;}
	.st4{fill:none;stroke:#2D2523;stroke-width:3;stroke-miterlimit:10;}
	.st5{fill:#EA535B;}
	.st6{fill:#EA5059;}
	.st7{fill:#4163AC;}
	.st8{fill:#362D2B;}
	.st9{fill:none;}
	.st10{clip-path:url(#SVGID_00000011727724789455624480000008579080839625609103_);fill:#EA535B;}
	.st11{clip-path:url(#SVGID_00000011727724789455624480000008579080839625609103_);fill:#2D2523;}
	.st12{clip-path:url(#SVGID_00000011727724789455624480000008579080839625609103_);}
	.st13{fill:#9FD2C1;}
	.st14{fill:#2D2523;}
	.st15{clip-path:url(#SVGID_00000011727724789455624480000008579080839625609103_);fill:none;}
	.st16{clip-path:url(#SVGID_00000011727724789455624480000008579080839625609103_);fill:#4163AC;}
	.st17{clip-path:url(#SVGID_00000011727724789455624480000008579080839625609103_);fill:#9FD2C1;}
	.st18{clip-path:url(#SVGID_00000011727724789455624480000008579080839625609103_);fill:#FFD545;}
	.st19{clip-path:url(#SVGID_00000011727724789455624480000008579080839625609103_);fill:#52B3DD;}
	.st20{fill:#3D4495;}
	.st21{opacity:0.1;}
	.st22{fill:#201C16;}
	.st23{fill:none;stroke:#14120D;stroke-width:1.2358;stroke-miterlimit:10;}
	.st24{fill:none;stroke:#14120D;stroke-width:0.9664;stroke-miterlimit:10;}
	.st25{fill:none;stroke:#14120D;stroke-miterlimit:10;}
	.st26{fill:#FDFDFE;}
	.st27{fill:#FFECC9;}
	.st28{fill:#4064AD;}
	.st29{fill:#9ED1C0;}
	.st30{fill:#EA555A;}
	.st31{fill:#27241F;}
	.st32{fill:#13110C;}
	.st33{clip-path:url(#SVGID_00000134234283898261893600000007426920286510882719_);}
	.st34{fill:#3B373D;}
	.st35{clip-path:url(#SVGID_00000134234283898261893600000007426920286510882719_);fill:#3B373D;}
	.st36{clip-path:url(#SVGID_00000058561030276841064390000013515134261672859050_);}
	.st37{clip-path:url(#SVGID_00000058561030276841064390000013515134261672859050_);fill:#3B373D;}
	.st38{clip-path:url(#SVGID_00000002358593060517860010000009889208283224746638_);fill:#E1E0E0;}
	.st39{clip-path:url(#SVGID_00000002358593060517860010000009889208283224746638_);fill:#CECBCB;}
	.st40{clip-path:url(#SVGID_00000002358593060517860010000009889208283224746638_);fill:none;}
	.st41{fill:#202548;}
	.st42{fill:#E52635;}
	.st43{fill:#13120D;}
	.st44{fill:#E52A12;}
	.st45{fill:#15140F;}
	.st46{fill:#006434;}
	.st47{fill:#FEFEFE;}
	.st48{fill:none;stroke:#000000;stroke-width:2;stroke-miterlimit:10;}
	.st49{fill:none;stroke:#000000;stroke-width:2;}
</style>
<path class="st2" d="M100.4,260.6l-26.1-46.4H49l0.2,46.4H7.9v-150H83c3.6,0,7.3,0.7,11,2c3.7,1.4,7.3,3.2,10.8,5.4
	c3.5,2.3,6.7,4.8,9.7,7.6c3,2.8,5.5,5.7,7.5,8.7c2.6,3.7,4.5,8.1,5.9,13c1.4,5,2,9.7,2,14.2c0,7.5-1.7,14.4-5.2,20.9
	c-3.5,6.4-8.3,11.9-14.5,16.2l35.2,61.8H100.4z M71.2,144.1H47.9v32.3h23.4c2.3,0,4.5-0.4,6.6-1.2c2.1-0.8,3.9-2,5.4-3.5
	c1.5-1.5,2.8-3.2,3.7-5.1c0.9-1.9,1.4-4,1.4-6.3c0-2.3-0.5-4.4-1.4-6.3c-0.9-1.9-2.1-3.6-3.7-5.1c-1.5-1.5-3.4-2.6-5.4-3.5
	C75.8,144.5,73.6,144.1,71.2,144.1z"/>
<path class="st6" d="M137.6,246.7c-0.8,1-2,1.7-3.3,1.7c-2.3,0-4.2-1.9-4.2-4.2c0-2.2,1.6-3.9,3.7-4.1l-23.5-41.3
	c6.2-4.4,11-9.8,14.5-16.2c3.5-6.4,5.2-13.4,5.2-20.9c0-4.5-0.7-9.2-2-14.2c-0.3-1.3-0.7-2.5-1.2-3.7c-0.7,0.2-1.4,0.3-2.2,0.3
	c-4.6,0-8.3-3.7-8.3-8.3c0-2.2,0.9-4.3,2.3-5.7c-1.3-1.5-2.6-2.9-4.1-4.3c-3-2.8-6.2-5.4-9.7-7.6c-3.5-2.3-7.1-4.1-10.8-5.4
	c-3.7-1.4-7.4-2-11-2H72.4c-0.2,2.4-2.2,4.3-4.6,4.3s-4.5-1.9-4.6-4.3H23.4c0.5,1.3,0.8,2.8,0.8,4.3c0,6.9-5.6,12.6-12.6,12.6
	c-1.3,0-2.6-0.2-3.8-0.6v17.2c0.2,0,0.5,0,0.7,0c3.7,0,8.9,3,8.9,6.8c0,3.7-5.1,6.8-8.9,6.8c-0.2,0-0.5,0-0.7,0v29.5
	c1.1-0.9,2.5-2.8,4.1-2.8c3.5,0,7.6,3.9,7.6,7.4c0,3.5-4.1,6.5-7.6,6.5c-1.5,0-3-0.6-4.1-1.5v63.9h41.4l0-3.2
	c-0.4,0.1-0.8,0.2-1.3,0.2c-2.5,0-4.6-2.1-4.6-4.6c0-2.5,2.1-4.6,4.6-4.6c0.4,0,0.9,0.1,1.3,0.2L49,214.2h19.1
	c0.3-6.6,4.4-11.8,9.3-11.8c5.2,0,11.4,5.6,11.4,12.6c0,5.1-4.4,9.5-7.6,11.5l19.2,34.2h45L137.6,246.7z M23.7,240.1
	c-3,0-9.6-3.7-9.6-8.2c0-4.5,6.6-8.2,9.6-8.2s8.3,3.7,8.3,8.2C32,236.4,26.7,240.1,23.7,240.1z M29.1,182.7c-2.7,0-7.9-3.3-7.9-7.4
	c0-4.1,5.2-7.4,7.9-7.4s7.2,3.3,7.2,7.4C36.3,179.4,31.8,182.7,29.1,182.7z M94.4,115c4.2,0,8.4,3.4,8.4,7.7c0,4.2-4.2,8.6-8.4,8.6
	c-4.2,0-7.7-4.4-7.7-8.6C86.8,118.4,90.2,115,94.4,115z M86.8,178.3c-3,0-5.6-1.7-6.8-4.2c-0.7,0.4-1.4,0.7-2.1,1
	c-2.1,0.8-4.3,1.2-6.6,1.2H47.9v-32.3h23.4c2.3,0,4.5,0.4,6.6,1.3c2.1,0.8,3.9,2,5.4,3.5c1.5,1.5,2.8,3.2,3.7,5.1
	c0.9,1.9,1.4,4,1.4,6.3c0,1-0.1,2-0.3,2.9c3.6,0.6,6.4,3.7,6.4,7.5C94.4,174.9,91,178.3,86.8,178.3z M100.2,231.9
	c-3.2,0-5.8-3.4-5.8-7.6c0-4.2,2.6-7.6,5.8-7.6c3.2,0,5.8,3.4,5.8,7.6C105.9,228.5,103.4,231.9,100.2,231.9z"/>
<path class="st14" d="M154.5,256H107l-26.1-46.4H57.3l0.2,46.4H14V103.9h76.2c1,0,2,0.1,3,0.2c0.7,0.1,1.4,0.2,2.2,0.3
	c0.3,0.1,0.7,0.1,1,0.2c1.1,0.2,2.2,0.5,3.3,0.8c0.7,0.2,1.3,0.4,1.9,0.6c3.8,1.4,7.5,3.2,11,5.5c3.5,2.3,6.8,4.9,9.8,7.8
	c0.4,0.4,0.8,0.7,1.1,1.1l0.1,0.1c2.5,2.5,4.7,5.1,6.5,7.7c2,2.8,3.6,6.1,4.9,9.6l0,0.1c0.2,0.5,0.3,1,0.5,1.5l0.1,0.3
	c0.2,0.6,0.4,1.3,0.6,1.9c0.2,0.6,0.3,1.3,0.5,1.9c0.4,1.6,0.7,3.3,1,4.8c0.4,2.6,0.6,5.3,0.6,7.8c0,7.6-1.8,14.8-5.3,21.4
	c-3.4,6.3-8.1,11.7-14,16L154.5,256z M108.2,253.9h42.6l-34.7-61.1l0.8-0.6c6-4.3,10.8-9.6,14.2-15.9c3.4-6.3,5.1-13.1,5.1-20.4
	c0-2.4-0.2-4.9-0.6-7.4c-0.2-1.5-0.6-3.1-0.9-4.7c-0.1-0.6-0.3-1.2-0.5-1.8c-0.2-0.6-0.3-1.2-0.5-1.8l-0.1-0.3
	c-0.2-0.5-0.3-1-0.5-1.5c-1.2-3.4-2.8-6.5-4.6-9.1c-1.7-2.5-3.8-5-6.3-7.4l0.7-0.8l-0.7,0.8c-0.4-0.4-0.7-0.7-1.1-1.1
	c-2.9-2.8-6.1-5.3-9.5-7.5c-3.4-2.2-7-4-10.6-5.3c-0.5-0.2-1.1-0.4-1.8-0.6c-1-0.3-2.1-0.6-3.1-0.8c-0.3-0.1-0.7-0.1-1-0.2
	c-0.7-0.1-1.4-0.2-2-0.3c-1-0.1-1.9-0.1-2.8-0.1H16.1v147.9h39.2l-0.2-46.4h27L108.2,253.9z"/>
</svg>
