<?xml version="1.0" encoding="utf-8"?>
<!-- Generator: Adobe Illustrator 26.3.1, SVG Export Plug-In . SVG Version: 6.00 Build 0)  -->
<svg version="1.1" id="Calque_1" xmlns="http://www.w3.org/2000/svg" xmlns:xlink="http://www.w3.org/1999/xlink" x="0px" y="0px"
	 viewBox="0 0 189.2 293.7" style="enable-background:new 0 0 189.2 293.7;" xml:space="preserve">
<style type="text/css">
	.st0{fill:#FFFFFF;}
	.st1{fill:#FFCC00;}
	.st2{fill:#9ED2C1;}
	.st3{fill:#51B2DD;}
	.st4{fill:none;stroke:#2D2523;stroke-width:3;stroke-miterlimit:10;}
	.st5{fill:#EA535B;}
	.st6{fill:#EA5059;}
	.st7{fill:#4163AC;}
	.st8{fill:#362D2B;}
	.st9{fill:none;}
	.st10{clip-path:url(#SVGID_00000078736568968319395920000013084035272470344876_);fill:#EA535B;}
	.st11{clip-path:url(#SVGID_00000078736568968319395920000013084035272470344876_);fill:#2D2523;}
	.st12{clip-path:url(#SVGID_00000078736568968319395920000013084035272470344876_);}
	.st13{fill:#9FD2C1;}
	.st14{fill:#2D2523;}
	.st15{clip-path:url(#SVGID_00000078736568968319395920000013084035272470344876_);fill:none;}
	.st16{clip-path:url(#SVGID_00000078736568968319395920000013084035272470344876_);fill:#4163AC;}
	.st17{clip-path:url(#SVGID_00000078736568968319395920000013084035272470344876_);fill:#9FD2C1;}
	.st18{clip-path:url(#SVGID_00000078736568968319395920000013084035272470344876_);fill:#FFD545;}
	.st19{clip-path:url(#SVGID_00000078736568968319395920000013084035272470344876_);fill:#52B3DD;}
	.st20{fill:#3D4495;}
	.st21{opacity:0.1;}
	.st22{fill:#201C16;}
	.st23{fill:none;stroke:#14120D;stroke-width:1.2358;stroke-miterlimit:10;}
	.st24{fill:none;stroke:#14120D;stroke-width:0.9664;stroke-miterlimit:10;}
	.st25{fill:none;stroke:#14120D;stroke-miterlimit:10;}
	.st26{fill:#FDFDFE;}
	.st27{fill:#FFECC9;}
	.st28{fill:#4064AD;}
	.st29{fill:#9ED1C0;}
	.st30{fill:#EA555A;}
	.st31{fill:#27241F;}
	.st32{fill:#13110C;}
	.st33{clip-path:url(#SVGID_00000028305901140828895830000006541148724620796602_);}
	.st34{fill:#3B373D;}
	.st35{clip-path:url(#SVGID_00000028305901140828895830000006541148724620796602_);fill:#3B373D;}
	.st36{clip-path:url(#SVGID_00000083791948749617500220000014575990837426873230_);}
	.st37{clip-path:url(#SVGID_00000083791948749617500220000014575990837426873230_);fill:#3B373D;}
	.st38{clip-path:url(#SVGID_00000090283183890295007600000009044830181829754278_);fill:#E1E0E0;}
	.st39{clip-path:url(#SVGID_00000090283183890295007600000009044830181829754278_);fill:#CECBCB;}
	.st40{clip-path:url(#SVGID_00000090283183890295007600000009044830181829754278_);fill:none;}
	.st41{fill:#202548;}
	.st42{fill:#E52635;}
	.st43{fill:#13120D;}
	.st44{fill:#E52A12;}
	.st45{fill:#15140F;}
	.st46{fill:#006434;}
	.st47{fill:#FEFEFE;}
	.st48{fill:none;stroke:#000000;stroke-width:2;stroke-miterlimit:10;}
	.st49{fill:none;stroke:#000000;stroke-width:2;}
</style>
<g>
	<path class="st9" d="M39.4,81.3c9.1-17.5,17.7-34.6,25.2-50.4l-5.6,4.5L39.4,81.3z"/>
	<path class="st2" d="M18.7,35.4v42.7l2.1,2.1c5.1-15.5,11.3-31.5,16.8-44.8H18.7z"/>
	<path class="st2" d="M161.1,81.5H110l-0.7,208.1H58.7l0.7-208.1H8.3L5,78.1V35.4h159.5v42.7L161.1,81.5z"/>
	<path class="st6" d="M71.2,35.4c-2.1,8.4,1.1,15.5-1,23.8c-1.9,7.5-8.9,16.3-10.8,23.8c0,27.3,0,54.6,0,81.9
		c6.1-14.9,9.2-34.8,15.4-49.7c4.6-11.3-0.6-23.8,4-35.1c2.8-6.9,13.1-14.9,16-21.8c4.1-10.1,13.7-12.9,17.8-23
		C98.8,35.4,85,35.4,71.2,35.4z"/>
	<path class="st6" d="M23.9,35.4C18.4,48.8,12.2,64.7,7.1,80.2l1.3,1.3h18.2c2.7-17.3,5.9-34,9.5-46H23.9z"/>
	<path class="st9" d="M110,88.4c1.8-1.4,2.6-1.2,2.6-1.2s4.2-2.6,0,28.2c-0.6,4.7-1.5,8.5-2.6,11.7v22.1l14.2-67.7H110V88.4z"/>
	<path class="st6" d="M110,127V88.4c-5.6,4.2-20.8,23.1-50.6,106.4l-0.7,94.8h10.8c5.7-16.4,17.3-116.8,20-130.3
		C92.6,143.7,104,145.1,110,127z"/>
	<path class="st2" d="M131,35.4h-18.4L59.4,165v29.8c29.8-83.3,45-102.2,50.6-106.4v-6.9H122c1.3-4.6,2.3-10.2,2.3-16.4
		C124.3,56.9,127.6,45.1,131,35.4z"/>
	<path class="st2" d="M147.5,35.4h-13.5l-9.7,46h14.9c2.5-5.6,5-13.6,5.2-23.6C144.5,48.9,145.9,41.2,147.5,35.4z"/>
	<path class="st6" d="M141,35.4h-10c-3.4,9.7-6.7,21.4-6.7,29.6c0,6.2-5.2,11.8-6.5,16.4h11c1.8-6.7,0.6-18.3,3.7-24.5
		C141,39.9,141.3,40.5,141,35.4z"/>
	<path class="st6" d="M164.4,35.4h-16.9c-1.6,5.8-3,13.4-3.1,22.4c-0.2,10.1-2.7,18.1-5.2,23.6h13.2c2.1-14.7,8.3-23.4,12.1-27.4
		V35.4z"/>
	<path class="st2" d="M164.4,78.1V54.1c-3.8,4.1-10,12.7-12.1,27.4h8.7L164.4,78.1z"/>
	<path class="st2" d="M47.7,35.4H36c-3.6,12.1-6.8,28.8-9.5,46h10.1c3.4-7.4,7.6-18.2,7.8-27.4C44.5,47.3,46,40.7,47.7,35.4z"/>
	<path class="st2" d="M71.2,35.4H58.3c-1.3,13-3.6,33.5-6.5,46h7.6v1.7L71.2,35.4z"/>
	<path class="st6" d="M52.2,35.4c-1.7,5.3-0.1,11.9-0.3,18.6c-0.2,9.2-11.8,20-15.3,27.4h15.2c3-12.5,5.3-33,6.5-46H52.2z"/>
	<polygon class="st6" points="110.4,149.2 94.5,289.6 109.7,289.6 	"/>
	<path class="st14" d="M114.3,277.5H77.9l0-1.1l0.7-207.1H28.2l-4-4V21.2h161.6v44.2l-4,4h-50.5V136l-0.7,141.5L114.3,277.5z
		 M80,275.4l48.5,0l0.7-139.4V67.2h51.7l2.7-2.7V23.3H26.3v41.2l2.7,2.7h51.7l0,1.1L80,275.4z"/>
</g>
</svg>
